<svg width="62" height="94" viewBox="0 0 62 94" fill="none" xmlns="http://www.w3.org/2000/svg">
<path d="M61.6973 73.0723C61.7424 64.7276 50.0602 57.8995 35.6043 57.8213C21.1484 57.7431 9.39301 64.4444 9.34786 72.7891C9.30271 81.1337 20.9849 87.9618 35.4408 88.0401C49.8967 88.1183 61.6521 81.417 61.6973 73.0723Z" fill="#47B9FF"/>
<path d="M59.2589 72.622C59.2999 65.0529 48.706 58.8594 35.5968 58.7885C22.4876 58.7176 11.8273 64.7961 11.7863 72.3652C11.7454 79.9343 22.3393 86.1278 35.4485 86.1987C48.5577 86.2697 59.218 80.1912 59.2589 72.622Z" fill="#65CDFF"/>
<path d="M35.4591 59.9688C23.4792 59.947 13.7962 65.5369 13.8343 72.4549C13.8724 79.3729 23.6153 84.9954 35.5952 85.0172C47.5751 85.039 57.2581 79.4491 57.22 72.5311C57.1819 65.6131 47.439 59.9906 35.4591 59.9688Z" fill="#3DAEE3"/>
<path d="M57.2197 57.2029C57.2571 50.2861 47.5742 44.6264 35.5922 44.5615C23.6103 44.4967 13.8667 50.0513 13.8292 56.9682C13.7918 63.885 23.4748 69.5447 35.4567 69.6096C47.4387 69.6744 57.1823 64.1198 57.2197 57.2029Z" fill="#384991"/>
<path d="M13.8308 44.5312V57.0555L57.2219 57.1317V44.6075L13.8308 44.5312Z" fill="#384991"/>
<path d="M57.2197 44.6795C57.2571 37.7627 47.5742 32.1029 35.5922 32.0381C23.6103 31.9733 13.8667 37.5279 13.8292 44.4447C13.7918 51.3616 23.4748 57.0213 35.4567 57.0861C47.4387 57.151 57.1823 51.5963 57.2197 44.6795Z" fill="#263263"/>
<path d="M57.2251 41.492C57.2625 34.5752 47.5795 28.9154 35.5976 28.8506C23.6157 28.7858 13.872 34.3404 13.8346 41.2572C13.7972 48.1741 23.4801 53.8338 35.4621 53.8986C47.444 53.9635 57.1877 48.4088 57.2251 41.492Z" fill="#384991"/>
<path d="M13.8301 28.8125V41.3367L57.2212 41.4183V28.8941L13.8301 28.8125Z" fill="#384991"/>
<path d="M57.2197 28.9686C57.2571 22.0517 47.5742 16.392 35.5922 16.3272C23.6103 16.2623 13.8667 21.817 13.8292 28.7338C13.7918 35.6506 23.4748 41.3104 35.4567 41.3752C47.4387 41.44 57.1823 35.8854 57.2197 28.9686Z" fill="#263263"/>
<g style="mix-blend-mode:multiply">
<path d="M13.4002 89.8776C13.4111 91.5758 11.0325 92.9474 8.09877 92.942C5.15958 92.942 2.77013 91.5595 2.76469 89.8613C2.7538 88.1631 5.13236 86.7914 8.06611 86.7969C11.0053 86.7969 13.3947 88.1794 13.4002 89.8776Z" fill="#C8D4E6"/>
</g>
<path d="M57.2202 25.7732C57.2576 18.8564 47.5747 13.1967 35.5927 13.1319C23.6108 13.067 13.8671 18.6217 13.8297 25.5385C13.7923 32.4553 23.4752 38.1151 35.4572 38.1799C47.4391 38.2447 57.1828 32.6901 57.2202 25.7732Z" fill="#384991"/>
<path d="M13.8306 13.0938V25.618L57.2217 25.6942V13.17L13.8306 13.0938Z" fill="#384991"/>
<path d="M57.2202 13.2498C57.2576 6.33299 47.5747 0.673244 35.5927 0.608414C23.6108 0.543585 13.8671 6.09822 13.8297 13.015C13.7923 19.9319 23.4752 25.5916 35.4572 25.6564C47.4391 25.7213 57.1828 20.1666 57.2202 13.2498Z" fill="#263263"/>
<path d="M49.5033 25.8757C50.9021 25.0974 52.0234 25.7832 52.0016 27.4052C51.9798 29.0108 50.8531 30.9322 49.4761 31.7269C49.4597 31.7378 49.4434 31.7432 49.4271 31.7541C48.0283 32.5324 46.907 31.8466 46.9288 30.2246C46.9506 28.619 48.0772 26.6976 49.4543 25.9029C49.4706 25.892 49.487 25.8866 49.5033 25.8757Z" fill="#657AC7"/>
<path d="M49.068 26.4923C50.0586 25.9426 50.8478 26.427 50.8315 27.5754C50.8151 28.7076 50.0205 30.0683 49.0462 30.6289C49.0353 30.6344 49.0244 30.6398 49.0135 30.6507C48.0229 31.2004 47.2337 30.716 47.25 29.5676C47.2663 28.4354 48.061 27.0747 49.0353 26.5141C49.0462 26.5086 49.0571 26.5032 49.068 26.4923Z" fill="#3856FF"/>
<path d="M49.8189 26.9908C50.1128 26.6806 50.4503 26.7677 50.5755 27.1813C50.6952 27.5895 50.5646 28.1665 50.2761 28.4822C50.2761 28.4822 50.2707 28.4876 50.2652 28.4931C49.9713 28.8033 49.6339 28.7162 49.5087 28.3026C49.3889 27.8944 49.5196 27.3174 49.808 27.0017C49.808 27.0017 49.8135 26.9963 49.8189 26.9908Z" fill="#4D7CFF"/>
<path d="M49.5033 25.8757C50.9021 25.0974 52.0234 25.7832 52.0016 27.4052C51.9798 29.0108 50.8531 30.9322 49.4761 31.7269C49.4597 31.7378 49.4434 31.7432 49.4271 31.7541C48.0283 32.5324 46.907 31.8466 46.9288 30.2246C46.9506 28.619 48.0772 26.6976 49.4543 25.9029C49.4706 25.892 49.487 25.8866 49.5033 25.8757ZM49.4706 31.1989C50.6136 30.5349 51.5389 28.9346 51.5389 27.6175C51.5389 26.3003 50.6028 25.7723 49.4597 26.4309C48.3167 27.0895 47.3914 28.6952 47.3914 30.0123C47.3914 31.3295 48.3276 31.8575 49.4706 31.1989Z" fill="#8D9DDF"/>
<path d="M49.5033 41.5867C50.9021 40.8083 52.0234 41.4941 52.0016 43.1161C51.9798 44.7218 50.8531 46.6431 49.4761 47.4378C49.4597 47.4487 49.4434 47.4541 49.4271 47.465C48.0283 48.2434 46.907 47.5576 46.9288 45.9356C46.9506 44.3299 48.0772 42.4085 49.4543 41.6139C49.4706 41.603 49.487 41.5975 49.5033 41.5867Z" fill="#657AC7"/>
<path d="M49.068 42.2032C50.0586 41.6535 50.8478 42.1379 50.8315 43.2864C50.8151 44.4185 50.0205 45.7792 49.0462 46.3399C49.0353 46.3453 49.0244 46.3508 49.0135 46.3616C48.0229 46.9114 47.2337 46.4269 47.25 45.2785C47.2663 44.1464 48.061 42.7856 49.0353 42.225C49.0462 42.2196 49.0571 42.2141 49.068 42.2032Z" fill="#3856FF"/>
<path d="M49.8189 42.7018C50.1128 42.3915 50.4503 42.4786 50.5755 42.8923C50.6952 43.3005 50.5646 43.8774 50.2761 44.1931C50.2761 44.1931 50.2707 44.1986 50.2652 44.204C49.9713 44.5143 49.6339 44.4272 49.5087 44.0135C49.3889 43.6053 49.5196 43.0283 49.808 42.7126C49.808 42.7126 49.8135 42.7072 49.8189 42.7018Z" fill="#4D7CFF"/>
<path d="M49.5033 41.5867C50.9021 40.8083 52.0234 41.4941 52.0016 43.1161C51.9798 44.7218 50.8531 46.6431 49.4761 47.4378C49.4597 47.4487 49.4434 47.4541 49.4271 47.465C48.0283 48.2434 46.907 47.5576 46.9288 45.9356C46.9506 44.3299 48.0772 42.4085 49.4543 41.6139C49.4706 41.603 49.487 41.5975 49.5033 41.5867ZM49.4706 46.9098C50.6136 46.2458 51.5389 44.6456 51.5389 43.3284C51.5389 42.0112 50.6028 41.4832 49.4597 42.1418C48.3167 42.8004 47.3914 44.4061 47.3914 45.7233C47.3914 47.0405 48.3276 47.5684 49.4706 46.9098Z" fill="#8D9DDF"/>
<path d="M49.5033 57.2976C50.9021 56.5193 52.0234 57.2051 52.0016 58.8271C51.9798 60.4327 50.8531 62.3541 49.4761 63.1487C49.4597 63.1596 49.4434 63.1651 49.4271 63.176C48.0283 63.9543 46.907 63.2685 46.9288 61.6465C46.9506 60.0408 48.0772 58.1195 49.4543 57.3248C49.4706 57.3139 49.487 57.3085 49.5033 57.2976Z" fill="#657AC7"/>
<path d="M49.068 57.9142C50.0586 57.3644 50.8478 57.8489 50.8315 58.9973C50.8151 60.1294 50.0205 61.4902 49.0462 62.0508C49.0353 62.0562 49.0244 62.0617 49.0135 62.0726C48.0229 62.6223 47.2337 62.1379 47.25 60.9894C47.2663 59.8573 48.061 58.4966 49.0353 57.9359C49.0462 57.9305 49.0571 57.9251 49.068 57.9142Z" fill="#3856FF"/>
<path d="M49.8189 58.4127C50.1128 58.1024 50.4503 58.1895 50.5755 58.6032C50.6952 59.0114 50.5646 59.5884 50.2761 59.9041C50.2761 59.9041 50.2707 59.9095 50.2652 59.915C49.9713 60.2252 49.6339 60.1381 49.5087 59.7244C49.3889 59.3162 49.5196 58.7393 49.808 58.4236C49.808 58.4236 49.8135 58.4181 49.8189 58.4127Z" fill="#4D7CFF"/>
<path d="M49.5033 57.2976C50.9021 56.5193 52.0234 57.2051 52.0016 58.8271C51.9798 60.4327 50.8531 62.3541 49.4761 63.1487C49.4597 63.1596 49.4434 63.1651 49.4271 63.176C48.0283 63.9543 46.907 63.2685 46.9288 61.6465C46.9506 60.0408 48.0772 58.1195 49.4543 57.3248C49.4706 57.3139 49.487 57.3085 49.5033 57.2976ZM49.4706 62.6208C50.6136 61.9567 51.5389 60.3565 51.5389 59.0393C51.5389 57.7221 50.6028 57.1942 49.4597 57.8528C48.3167 58.5114 47.3914 60.117 47.3914 61.4342C47.3914 62.7514 48.3276 63.2794 49.4706 62.6208Z" fill="#8D9DDF"/>
<path d="M20.7741 61.2425C20.981 61.3187 20.9701 61.482 20.7524 61.6018C20.5346 61.7215 20.1917 61.7596 19.9904 61.6834C19.7835 61.6072 19.7944 61.4439 20.0121 61.3242C20.2298 61.2044 20.5727 61.1663 20.7741 61.2425Z" fill="#D3DBFF"/>
<path d="M17.2093 60.0143C17.1167 59.6225 17.4161 59.1652 18.1019 58.7788C19.2613 58.1256 21.0901 57.9297 22.1841 58.3379C22.293 59.47 21.6779 60.7383 20.7744 61.2444C20.5676 61.1682 20.2301 61.2063 20.0124 61.3261C19.7947 61.4458 19.7838 61.6091 19.9906 61.6853C20.1974 61.7615 20.5349 61.7234 20.7526 61.6037C20.9703 61.4839 20.9812 61.3206 20.7744 61.2444C21.6779 60.7383 22.2875 59.4646 22.1841 58.3379C22.6849 58.523 22.9461 58.806 22.9679 59.1163C22.9897 59.519 22.9679 60.0579 22.5651 60.6893C22.4018 60.9451 22.0263 61.4186 21.3132 61.7289C20.4315 62.1153 19.0272 62.2351 17.9713 61.3043C17.6012 60.9777 17.3453 60.5423 17.2093 60.0198V60.0143Z" fill="#D3DBFF"/>
<path d="M22.9675 59.1153C22.9457 58.805 22.6845 58.522 22.1837 58.3315L22.0803 57.2266C22.5974 57.4171 22.8641 57.711 22.8859 58.0321C22.9131 58.3914 22.9403 58.7506 22.9675 59.1098V59.1153Z" fill="#D3DBFF"/>
<path d="M16.9532 58.9635C16.8552 58.5553 17.1655 58.0872 17.8731 57.6899C19.0705 57.0204 20.9538 56.8136 22.0805 57.2327L22.1839 58.3376C21.0898 57.9294 19.261 58.1253 18.1017 58.7784C17.4159 59.1649 17.1165 59.6221 17.209 60.014C17.1274 59.6602 17.0403 59.3119 16.9586 58.9581L16.9532 58.9635Z" fill="#D3DBFF"/>
<path d="M22.8866 58.0202C22.8539 57.7045 22.5872 57.4215 22.081 57.231C22.0701 57.1548 22.0592 57.0786 22.0483 57.0078C22.5382 57.1929 22.8049 57.4596 22.8485 57.7644C22.8593 57.8515 22.8757 57.9386 22.8811 58.0256L22.8866 58.0202Z" fill="#D3DBFF"/>
<path d="M16.9045 58.6893C16.8446 58.2919 17.1549 57.8456 17.8352 57.4646C19.0327 56.7897 20.9159 56.5883 22.0481 57.0074C22.0589 57.0836 22.0698 57.1544 22.0807 57.2306C20.954 56.8115 19.0708 57.0128 17.8733 57.6878C17.1766 58.0797 16.8664 58.5423 16.9535 58.9451C16.9371 58.858 16.9208 58.7709 16.9099 58.6893H16.9045Z" fill="#D3DBFF"/>
<path d="M18.8362 61.8223C17.998 61.4957 17.421 60.8535 17.2087 60.0153C17.2741 60.2874 17.5299 60.5323 17.9762 60.7011C19.0702 61.1093 20.8991 60.9134 22.0584 60.2602C22.6898 59.9064 22.9946 59.4928 22.9674 59.1172C22.9783 59.3676 22.9946 59.8792 22.7061 60.4453C22.4122 61.0113 22.0312 61.3107 21.7264 61.5066C21.5468 61.6264 21.0406 61.9149 20.2949 61.9965C19.9955 62.0292 19.7397 62.0128 19.6417 62.0074C19.2553 61.9747 18.9668 61.8822 18.8307 61.8278L18.8362 61.8223Z" fill="#BF5C20"/>
<path d="M17.2091 60.0101C17.1275 59.6563 17.0404 59.308 16.9587 58.9542C17.0241 59.2372 17.2908 59.4876 17.748 59.6563C18.8747 60.0754 20.7579 59.874 21.9554 59.1991C22.6031 58.8344 22.9188 58.4044 22.8915 58.0234C22.9188 58.3827 22.946 58.7419 22.9732 59.1011C23.0004 59.4713 22.6956 59.8849 22.0642 60.2387C20.9049 60.8919 19.076 61.0878 17.982 60.6796C17.5357 60.5109 17.2799 60.2714 17.2146 59.9938L17.2091 60.0101Z" fill="#BF5C20"/>
<path d="M16.9532 58.9546C16.9369 58.8675 16.9206 58.7804 16.9097 58.6987C16.9587 59.0035 17.2254 59.2702 17.7098 59.4553C18.8365 59.8744 20.7252 59.673 21.9226 58.9981C22.603 58.6171 22.9132 58.1653 22.8534 57.7734C22.8642 57.8605 22.8806 57.9476 22.886 58.0347C22.9241 58.4211 22.6084 58.8566 21.9553 59.2213C20.7578 59.8907 18.8746 60.0976 17.7479 59.6785C17.2798 59.5043 17.0131 59.2485 16.9532 58.96V58.9546Z" fill="#BF5C20"/>
<path d="M22.8428 57.7316C22.7829 57.4377 22.5217 57.1819 22.0482 57.0023L18.0857 36.2266C18.4123 36.3463 18.5973 36.5259 18.6354 36.7273C20.0397 43.7269 21.444 50.7266 22.8483 57.7262L22.8428 57.7316Z" fill="#D3DBFF"/>
<path d="M14.5316 37.3785C14.5044 37.1118 14.7166 36.807 15.1738 36.5512C16.0012 36.0885 17.302 35.947 18.0804 36.2355L22.0428 57.0112C20.9161 56.5921 19.0274 56.7935 17.83 57.4684C17.1659 57.8385 16.8557 58.2794 16.8992 58.6658C16.11 51.5682 15.3153 44.4761 14.5261 37.3785H14.5316Z" fill="#D3DBFF"/>
<path d="M22.0481 53.3817C22.0481 53.3817 21.2425 53.2565 20.7853 53.2456C20.3227 53.2347 20.056 53.2456 19.9471 53.3436C19.8383 53.4415 19.8219 53.8389 20.1757 53.8389C20.5295 53.8389 20.8888 53.8062 20.8888 53.8062L21.5909 54.0294L21.531 54.258C21.531 54.258 19.8491 54.0076 19.626 54.1382C19.4028 54.2689 19.5117 54.5628 19.5933 54.6281C19.6804 54.688 21.3895 54.8404 21.3895 54.8404L21.4167 55.0472C21.4167 55.0472 19.6804 54.8186 19.6151 54.873C19.5498 54.9329 19.4137 55.2377 19.7022 55.3357C19.9907 55.4337 21.2317 55.5752 21.346 55.6731C21.4657 55.7711 21.3623 55.8473 21.3623 55.8473L20.0342 55.6133C20.0342 55.6133 19.7348 55.8473 20.0397 56.0433C20.3445 56.2338 21.9665 56.6746 21.9665 56.6746C21.9665 56.6746 22.9407 56.9522 23.0605 56.3916C23.1802 55.8364 23.0605 54.6444 22.8918 54.2852C22.723 53.9314 22.0427 53.3817 22.0427 53.3817H22.0481Z" fill="#FF9C78"/>
<path d="M16.9044 58.664C16.1151 51.5664 15.3205 44.4742 14.5312 37.3766C14.553 37.5944 14.7381 37.7849 15.0864 37.9155C15.8648 38.204 17.1656 38.0679 17.993 37.5998C18.4719 37.3331 18.6897 37.012 18.6298 36.7344C20.0341 43.734 21.4383 50.7336 22.8426 57.7332C22.9243 58.136 22.614 58.5987 21.9173 58.9851C20.7199 59.66 18.8366 59.8614 17.7045 59.4423C17.1983 59.2518 16.9316 58.9742 16.8989 58.6585L16.9044 58.664Z" fill="#BF5C20"/>
<path d="M19.5932 36.6021C19.5442 36.2973 19.2775 36.0197 18.7822 35.8346L17.895 30.125C18.3903 30.3101 18.6625 30.5822 18.706 30.8925C18.9727 32.607 19.3265 34.893 19.5932 36.6021Z" fill="#D3DBFF"/>
<path d="M18.7825 35.8377C19.9255 36.2623 19.8657 37.1603 18.6519 37.8461C17.4381 38.5265 15.5276 38.7333 14.3846 38.3088C13.2416 37.8842 13.3015 36.9862 14.5153 36.3004C15.729 35.62 17.6395 35.4132 18.7825 35.8377ZM18.0858 36.2296C17.3075 35.9411 16.0066 36.0772 15.1793 36.5453C14.352 37.0134 14.3139 37.623 15.0922 37.9115C15.8705 38.1999 17.1714 38.0639 17.9987 37.5958C18.8261 37.1277 18.8642 36.5181 18.0858 36.2296Z" fill="#D3DBFF"/>
<path d="M12.6861 31.8304C12.6262 31.4276 12.9419 30.9759 13.6277 30.5894C14.8415 29.9091 16.752 29.7022 17.895 30.1268L18.7822 35.8364C17.6392 35.4119 15.7287 35.6187 14.5149 36.2991C13.8291 36.6855 13.5134 37.1427 13.5733 37.5401C13.3066 35.8255 12.9528 33.5395 12.6861 31.8304Z" fill="#D3DBFF"/>
<path d="M17.8951 30.1268C19.0381 30.5513 18.9782 31.4494 17.7644 32.1352C16.5507 32.8156 14.6402 33.0224 13.4972 32.5979C12.3542 32.1733 12.414 31.2752 13.6278 30.5894C14.8416 29.9091 16.7521 29.7022 17.8951 30.1268Z" fill="#D3DBFF"/>
<path d="M13.5732 37.5443L12.686 31.8346C12.735 32.1394 13.0017 32.417 13.497 32.6021C14.64 33.0266 16.5505 32.8198 17.7643 32.1394C18.4501 31.753 18.7658 31.2958 18.7059 30.8984L19.5931 36.6081C19.653 37.0109 19.3373 37.4626 18.6515 37.8491C17.4377 38.5294 15.5273 38.7363 14.3842 38.3117C13.8889 38.1267 13.6168 37.8545 13.5732 37.5443Z" fill="#D3DBFF"/>
<path d="M14.357 39.4064C14.6074 38.677 14.6455 38.0184 14.5366 37.7245C14.4332 37.4306 14.0576 36.8808 14.0576 36.8808C14.0576 36.8808 13.8835 35.6181 13.8563 35.5201C13.829 35.4221 13.4045 35.2806 13.3882 35.531C13.3664 35.7814 13.3827 36.723 13.4263 36.9189C13.4698 37.1149 13.3501 37.8551 13.3446 38.0728C13.3392 38.2906 13.2739 38.7369 13.4535 39.0036C13.6331 39.2703 14.357 39.4064 14.357 39.4064Z" fill="#FF9C78"/>
<path d="M13.8888 37.4903C13.8888 37.4903 13.6112 36.0261 13.8017 35.6941C13.9922 35.3621 14.1174 34.9212 14.1664 34.6436C14.2154 34.366 14.0303 34.3279 14.0303 34.3279C14.0303 34.3279 14.1283 34.1266 14.0684 34.0612C14.0086 33.9959 13.8779 33.9469 13.8779 33.9469C13.8779 33.9469 13.7038 33.8218 13.6384 33.8707C13.5731 33.9197 12.4628 35.1607 12.3866 35.4492C12.3104 35.7377 12.2723 36.9678 12.3267 37.2454C12.3866 37.523 12.969 38.3557 12.9853 38.5952C13.0071 38.8347 12.8819 39.3137 12.8819 39.3409C12.8819 39.3681 11.9729 40.6418 11.9729 40.6418C11.9729 40.6418 13.35 41.529 13.4915 41.235C13.633 40.9411 14.3515 39.4062 14.3515 39.4062L13.8834 37.4957L13.8888 37.4903Z" fill="#FF9C78"/>
<path d="M13.3722 39.8546C12.9912 39.5987 12.7136 39.3756 12.5993 39.479C12.485 39.5824 6.88421 45.7438 6.79168 46.065C6.69915 46.3861 8.41368 48.781 9.36619 47.9537C10.3242 47.1263 14.205 41.3133 14.1342 40.671C13.9437 40.29 13.3668 39.8546 13.3668 39.8546H13.3722Z" fill="#002E78"/>
<path d="M7.95637 46.0741L6.79158 46.0469C6.79158 46.0469 3.5367 47.2389 3.29177 47.5274C3.04139 47.8158 2.41001 48.137 2.54609 49.6882C2.68216 51.2394 3.29177 52.6328 3.38974 52.709C3.48771 52.7852 6.40513 49.7753 7.03107 49.6338C7.65701 49.4923 8.87623 48.6159 9.37153 47.9301C9.60558 47.609 7.96181 46.0686 7.96181 46.0686L7.95637 46.0741Z" fill="#002E78"/>
<path d="M0.49923 88.9889C0.49923 88.9889 0.161768 89.3699 0.139996 89.5822C0.118224 89.7944 0.107338 90.3877 0.139996 90.502C0.172654 90.6163 1.13605 90.9701 1.90351 90.7143C2.67096 90.4585 2.89956 89.8434 2.95399 89.7073C3.00842 89.5713 3.1445 89.1739 3.1445 89.1739C3.1445 89.1739 3.55816 88.7331 3.79765 88.695C4.03714 88.6569 4.79371 88.2595 5.27813 87.8404C5.76799 87.4213 5.93673 86.9913 5.9585 86.6865C5.98027 86.3817 5.90951 86.0551 5.77344 85.9789C5.63736 85.9027 4.76649 86.0932 4.76649 86.0932L0.49923 88.9889Z" fill="#212430"/>
<path d="M11.5757 91.0391C11.5757 91.0391 11.0097 91.1262 10.9661 91.6215C10.9171 92.1168 10.928 92.2692 10.9661 92.4651C11.0042 92.6611 11.5485 93.1128 12.0493 93.0965C12.5446 93.0747 13.7638 92.4379 13.8835 92.2474C14.0087 92.0569 14.0632 91.9208 14.0632 91.9208C14.0632 91.9208 14.4061 91.7466 15.0756 91.5289C15.745 91.3112 16.2893 91.0772 16.7683 90.7179C17.2473 90.3587 17.4106 90.0974 17.4868 89.5531C17.563 89.0089 17.3942 88.6714 17.3235 88.5081C17.2582 88.3448 16.9316 88.0291 16.1478 88.0563C15.364 88.0836 11.5757 91.0391 11.5757 91.0391Z" fill="#212430"/>
<path d="M0.140294 87.4684C0.140294 87.4684 0.113078 89.3898 0.243709 89.6184C0.374339 89.847 1.32685 90.3369 2.22494 89.7545C3.12302 89.1721 2.43721 88.9054 3.81428 88.225C5.19134 87.5446 5.82272 86.8643 5.76829 86.3962C5.70842 85.9281 5.70298 85.8519 5.605 85.7866C5.50703 85.7213 5.04982 85.5961 4.36945 85.6723C3.68909 85.7485 2.20861 86.2057 2.20861 86.2057L0.140294 87.4684Z" fill="#33374A"/>
<path d="M11.1345 90.7994C11.1781 91.2892 11.0746 91.409 11.2325 91.7682C11.3903 92.1275 11.6734 92.4214 12.4517 92.3561C13.2301 92.2907 13.6165 91.5451 14.8575 91.2076C16.0985 90.8756 17.1054 89.9666 17.2306 89.6673C17.3558 89.3733 17.3068 89.2264 17.3286 88.8563C17.3504 88.4807 17.002 87.9092 16.7244 87.8058C16.4468 87.7024 13.328 88.5351 13.328 88.5351L11.14 90.8103L11.1345 90.7994Z" fill="#33374A"/>
<path d="M5.38669 61.4163C4.67366 62.6682 4.33076 64.2738 4.00962 66.3258C3.68849 68.3778 4.00962 69.0527 3.92254 69.9236C3.83545 70.789 2.24067 74.8604 2.39307 76.4497C2.54547 78.039 6.21946 77.8104 6.85084 76.1449C7.48222 74.4794 9.58864 69.7168 9.74104 68.9874C9.89344 68.2581 10.601 63.1689 9.36003 61.9497C8.11904 60.7305 5.39213 61.4217 5.39213 61.4217L5.38669 61.4163Z" fill="#001E4F"/>
<path d="M6.92201 62.5529C6.61721 62.8958 6.2743 64.4089 6.22531 66.8364C6.17633 69.264 6.32873 70.6792 7.55339 71.4847C8.77805 72.2903 9.15906 73.934 9.42576 75.9044C9.69247 77.8747 9.98094 80.0737 10.1714 80.7268C10.3619 81.38 12.6752 81.4344 13.2304 81.2058L13.7856 80.9772C13.7856 80.9772 14.2428 80.6724 14.3788 79.6763C14.5149 78.6803 14.6292 74.1681 14.7217 70.7989C14.8197 67.4297 13.6876 62.6291 13.4808 62.2481C13.2685 61.867 6.91657 62.5529 6.91657 62.5529H6.92201Z" fill="#002663"/>
<path d="M5.16378 61.8359L4.63037 63.2674C4.63037 63.2674 5.09302 63.9206 6.764 64.6009C8.43498 65.2759 10.2584 65.8147 12.0818 65.4555C13.9051 65.0963 14.0902 64.688 14.0902 64.688L13.7527 63.1477L5.16378 61.8359Z" fill="#212430"/>
<path d="M10.351 77.2656C10.351 77.2656 10.1006 77.3418 10.1768 80.7273C10.253 84.1128 10.868 89.7735 10.9987 90.7532C11.1347 91.7275 11.8423 91.9126 12.9581 91.6894C14.0794 91.4717 14.6727 90.2634 14.5965 89.3762C14.5203 88.489 14.4713 78.6046 14.4713 78.6046L10.351 77.2656Z" fill="#002663"/>
<path d="M6.80211 76.2427C6.80211 76.2427 5.10392 80.5099 4.75013 82.1156C4.39634 83.7213 3.8466 86.7747 3.65065 87.5531C3.46015 88.3314 1.90347 89.0336 1.08703 88.8703C0.270588 88.707 0.199829 88.5764 0.0746418 88.1681C-0.0505458 87.7599 -0.066874 86.274 0.417548 83.2749C0.901969 80.2759 1.62588 76.6509 2.63282 74.5118C3.63977 72.3727 6.80211 76.2427 6.80211 76.2427Z" fill="#001E4F"/>
<path d="M13.8294 63.5137C13.1381 64.4009 10.4874 64.5315 9.34438 64.3247C8.19592 64.1233 4.87029 62.8823 4.95193 62.1366C5.03358 61.391 5.15332 58.7021 5.09345 58.2939C5.03357 57.8857 3.58031 54.7234 2.94349 51.5066C2.30666 48.2952 3.9722 47.6366 4.45118 47.5115C4.93016 47.3863 5.18053 47.2556 6.33444 47.6911C7.49378 48.132 9.15388 49.0681 9.85602 49.509C10.5582 49.9499 12.7517 51.1854 12.9476 51.757C13.1381 52.3285 13.8294 56.5576 13.8294 58.3756C13.8294 60.1935 13.8403 63.5083 13.8403 63.5083L13.8294 63.5137Z" fill="#001E4F"/>
<path d="M13.6924 53.9132C13.2243 50.789 2.56707 48.7425 3.01339 51.8721C3.45971 55.0018 4.89665 57.2498 4.78779 58.5996C4.67893 59.9495 4.23805 63.471 4.12375 64.4072C4.04211 65.0767 4.53197 65.7789 5.96891 66.481C6.56219 63.7541 6.65471 62.8832 6.65471 62.8832L6.64383 66.7804C7.07926 66.9545 7.57457 67.1341 8.14608 67.3083C11.2975 68.2717 14.351 67.9506 15.026 66.1762C15.026 66.1762 14.1605 57.0375 13.6924 53.9132Z" fill="#001E4F"/>
<path d="M23.4194 56.1857C23.4194 56.1857 23.7025 55.7611 23.7133 55.4509C23.7242 55.1407 23.1527 54.3732 23.0166 54.0303C22.8806 53.6928 22.505 52.8492 22.456 52.5879C22.4125 52.3267 22.4342 52.1525 22.4887 52.1035C22.5431 52.0545 22.6901 51.8967 22.6737 51.7551C22.6628 51.6082 22.3254 51.5701 22.1403 51.7225C21.9553 51.8749 21.7321 52.0926 21.7267 52.3212C21.7212 52.5498 21.8029 52.773 21.8029 52.8709C21.8029 52.9635 21.7865 53.3663 21.7865 53.3663C21.7865 53.3663 21.4872 53.8724 21.5089 54.1718C21.5307 54.4712 21.5198 55.3148 21.7103 55.5108C21.8954 55.7122 22.5649 56.9205 22.5649 56.9205L23.414 56.1803L23.4194 56.1857Z" fill="#FF9C78"/>
<path d="M4.96777 45.913C5.23448 46.2994 5.32156 47.72 5.23448 48.2153C5.14739 48.7107 7.30824 48.9719 7.96139 49.1515C8.61454 49.3311 9.46364 49.5434 9.51263 49.5652C9.56161 49.587 9.24592 46.909 9.36567 46.6042C9.48541 46.2994 10.4053 46.0001 10.5196 45.6953C10.6339 45.3905 10.3019 42.8214 10.1222 41.7546C9.94262 40.6878 9.55073 39.8169 9.32212 39.6808C9.09352 39.5447 7.04153 40.0183 7.04153 40.0183L4.96777 45.913Z" fill="#FF9C78"/>
<path d="M9.55073 49.318C8.73973 49.0513 7.86342 48.8989 6.78572 48.6322C5.70802 48.3655 5.25081 48.1369 5.25625 47.9899C5.2617 47.843 5.26714 47.6797 5.26714 47.6797C5.26714 47.6797 4.87525 47.9028 4.6793 48.3437C4.4888 48.7846 4.51057 49.0078 4.52146 49.0949C4.53234 49.1819 5.2617 49.6609 6.78572 49.9712C8.30974 50.2814 9.33846 50.227 9.75212 50.1834C10.1712 50.1399 11.385 50.4447 11.385 50.4447C11.385 50.4447 10.721 49.9167 10.4597 49.7534C10.2039 49.5956 9.54529 49.318 9.54529 49.318H9.55073Z" fill="#002E78"/>
<path d="M9.24564 43.7765C8.94084 43.5044 8.44553 43.8582 8.17882 44.8488C7.91212 45.834 7.70529 46.4871 7.24808 46.8028C6.79632 47.1185 6.36088 47.2001 6.13228 47.2056C5.90368 47.2165 5.32128 47.0586 5.12534 46.8899C4.92939 46.7212 3.81903 45.5836 3.00259 43.9453C2.18071 42.3069 2.83386 40.9625 3.08424 40.772C3.89523 39.0357 5.32673 38.6874 6.60037 38.5186C7.87402 38.3499 8.90274 38.8452 9.15856 39.1119C9.41437 39.3786 9.6212 39.7814 9.68108 39.9828C9.74095 40.1787 9.6212 40.2876 9.6212 40.2876L9.16944 40.3584L9.64298 41.0496C9.64298 41.0496 9.86069 41.6538 9.84981 41.9205C9.83892 42.1872 9.66475 42.7805 9.67019 42.9982C9.68108 43.2159 9.80082 43.9072 9.80082 43.9072L9.47969 44.1847L9.24564 43.7765Z" fill="#291925"/>
<path d="M8.95749 43.5815C8.69078 43.4944 8.48395 43.9299 8.50572 44.3599C8.5275 44.7953 8.89217 45.4158 9.12078 45.345C9.34938 45.2743 9.14255 44.4578 9.16976 44.251C9.19698 44.0442 9.14255 43.6686 8.96293 43.5761L8.95749 43.5815Z" fill="#FF9C78"/>
<path d="M11.1508 51.3641C10.3453 52.1097 9.58871 53.2963 10.4759 55.0163C11.3631 56.7362 13.4096 57.8466 14.3077 58.4235C15.2058 58.9951 18.4553 60.8402 19.1846 60.8239C19.914 60.8021 20.05 59.4196 19.8595 58.8644C19.669 58.3092 19.3425 57.6017 18.7492 57.0302C18.1559 56.4586 13.4641 52.1206 12.8164 51.5546C12.1632 50.9885 11.4393 51.081 11.1563 51.3695L11.1508 51.3641Z" fill="#002E78"/>
<path d="M23.2719 56.7191C23.4243 56.0714 22.0527 54.7488 21.492 55.1189C20.9314 55.489 17.7854 57.8023 17.7854 57.8023C17.7854 57.8023 18.1718 61.2857 19.4673 60.7306C20.7627 60.1754 23.2719 56.7246 23.2719 56.7246V56.7191Z" fill="#002E78"/>
<path d="M4.75524 10.9334L8.22783 8.91406C6.68748 9.8067 5.73497 11.7117 5.72408 14.4169C5.70775 19.8598 9.53414 26.4893 14.2749 29.2217C16.6589 30.5987 18.8198 30.7239 20.3765 29.8204L16.9039 31.8397C15.3418 32.7487 13.1864 32.6181 10.8023 31.241C6.06699 28.5086 2.2406 21.8791 2.25149 16.4362C2.25693 13.7311 3.21489 11.8315 4.75524 10.9334Z" fill="url(#paint0_linear_2119_25896)"/>
<path opacity="0.64" d="M11.8421 30.6342C7.10678 27.9018 3.2804 21.2723 3.29128 15.8294C3.30761 10.3864 7.16121 8.19293 11.8966 10.9253C16.6319 13.6576 20.4583 20.2871 20.4474 25.7301C20.4311 31.173 16.5775 33.3665 11.8421 30.6342Z" fill="#6792D1"/>
<path opacity="0.64" d="M6.49173 10.0078C5.31061 11.0148 4.59759 12.7456 4.59214 15.0806C4.57582 20.5236 8.4022 27.1531 13.143 29.8854C15.1895 31.0665 17.0674 31.3278 18.5478 30.8053C16.9694 32.1497 14.5527 32.2041 11.8421 30.6366C7.10678 27.9042 3.2804 21.2747 3.29128 15.8318C3.30217 12.7402 4.5486 10.6991 6.49173 10.0078Z" fill="#85A9D4"/>
<path d="M20.6649 27.0668C20.6486 33.3044 16.2289 35.8245 10.8023 32.6893C5.37024 29.5542 0.983228 21.9559 0.999557 15.7128C1.01589 9.4752 5.43555 6.95512 10.8622 10.0902C16.2942 13.2254 20.6812 20.8237 20.6649 27.0668ZM10.8023 31.2415C15.5376 33.9739 19.3912 31.7804 19.4076 26.3374C19.4239 20.8945 15.5975 14.265 10.8567 11.5326C6.12136 8.80027 2.26776 10.9938 2.25143 16.4367C2.2351 21.8797 6.06149 28.5092 10.8023 31.2415Z" fill="#D3DBFF"/>
<path d="M7.34149 7.38257C9.12678 6.34297 11.6033 6.48993 14.3357 8.06838C19.7677 11.2035 24.1547 18.8019 24.1384 25.0449C24.1275 28.1419 23.0335 30.3246 21.27 31.3533L17.7974 33.3726C19.5609 32.3493 20.6549 30.1667 20.6658 27.0642C20.6821 20.8212 16.2951 13.2228 10.8631 10.0877C8.13072 8.50926 5.65418 8.3623 3.8689 9.4019L7.34149 7.38257Z" fill="url(#paint1_linear_2119_25896)"/>
<defs>
<linearGradient id="paint0_linear_2119_25896" x1="15.5976" y1="32.5963" x2="3.50336" y2="11.6464" gradientUnits="userSpaceOnUse">
<stop offset="0.04" stop-color="#9EAFF9"/>
<stop offset="0.23" stop-color="#BBC7FC"/>
<stop offset="0.37" stop-color="#BBC7FC"/>
<stop offset="0.39" stop-color="#BBC7FC"/>
<stop offset="0.99" stop-color="#BBC7FC"/>
</linearGradient>
<linearGradient id="paint1_linear_2119_25896" x1="22.9573" y1="30.3899" x2="9.09412" y2="6.37019" gradientUnits="userSpaceOnUse">
<stop stop-color="#9EAFF9"/>
<stop offset="0.02" stop-color="#A6B6F9"/>
<stop offset="0.05" stop-color="#B2BFFB"/>
<stop offset="0.1" stop-color="#B9C5FB"/>
<stop offset="0.23" stop-color="#BBC7FC"/>
<stop offset="0.47" stop-color="#B7C4FB"/>
<stop offset="0.68" stop-color="#ACBBFA"/>
<stop offset="0.72" stop-color="#AAB9FA"/>
<stop offset="0.99" stop-color="#8E9EE0"/>
</linearGradient>
</defs>
</svg>
