<svg width="86" height="83" viewBox="0 0 86 83" fill="none" xmlns="http://www.w3.org/2000/svg">
<path d="M5.73017 44.7969H5.70184C5.64518 44.7969 5.59797 44.8441 5.59797 44.8913V44.9668C5.59797 45.4862 5.513 45.9961 5.34303 46.4871C5.32415 46.5532 5.37136 46.6099 5.4469 46.6099H5.97568C6.04178 46.6099 6.09844 46.5438 6.07955 46.4871C5.90959 45.9961 5.8246 45.4767 5.8246 44.9668V44.8913C5.8246 44.8346 5.77739 44.7969 5.72073 44.7969H5.6924H5.73962H5.73017Z" fill="#272443"/>
<path d="M5.73026 47.1422H5.67361C5.43754 47.1422 5.23926 46.9439 5.23926 46.7078C5.23926 46.4717 5.43754 46.2734 5.67361 46.2734H5.73026C5.96633 46.2734 6.16463 46.4717 6.16463 46.7078C6.16463 46.9439 5.96633 47.1422 5.73026 47.1422Z" fill="#404082"/>
<path d="M6.34377 46.8594H5.06901C4.88648 46.8594 4.73853 47.0073 4.73853 47.1899V50.9386C4.73853 51.1211 4.88648 51.2691 5.06901 51.2691H6.34377C6.52629 51.2691 6.67425 51.1211 6.67425 50.9386V47.1899C6.67425 47.0073 6.52629 46.8594 6.34377 46.8594Z" fill="#E75860"/>
<path d="M6.34377 46.8594H5.06901C4.88648 46.8594 4.73853 47.0073 4.73853 47.1899V50.9386C4.73853 51.1211 4.88648 51.2691 5.06901 51.2691H6.34377C6.52629 51.2691 6.67425 51.1211 6.67425 50.9386V47.1899C6.67425 47.0073 6.52629 46.8594 6.34377 46.8594Z" fill="#272443"/>
<path d="M6.44772 48.1328H5.06909V50.163H6.44772V48.1328Z" fill="#404082"/>
<path d="M6.44772 47.6875H5.06909V47.9424H6.44772V47.6875Z" fill="#404082"/>
<path d="M11.6689 46.3485C11.3762 45.9614 11.2157 45.4987 11.2157 45.0077V44.375H9.78039V45.0077C9.78039 45.4892 9.61986 45.9614 9.32714 46.3485C8.96833 46.8206 8.77002 47.3966 8.77002 47.9821V50.5977C8.77002 50.9659 9.07219 51.2681 9.44045 51.2681H11.565C11.9333 51.2681 12.2355 50.9659 12.2355 50.5977V47.9821C12.2355 47.3872 12.0372 46.8112 11.6783 46.3485H11.6689Z" fill="#E75860"/>
<path d="M11.2152 44.3846H9.77051C9.77051 44.0069 10.0821 43.6953 10.4598 43.6953H10.5354C10.9131 43.6953 11.2247 44.0069 11.2247 44.3846H11.2152Z" fill="#D83F4E"/>
<path d="M11.6121 47.2422H9.36475V49.6689H11.6121V47.2422Z" fill="#D83F4E"/>
<path d="M17.3078 50.1361C17.3078 50.3627 17.2417 50.5893 17.1095 50.7781C16.8923 51.0898 16.543 51.2786 16.1558 51.2786H14.3523C14.1634 51.2786 13.9746 51.2314 13.8141 51.1464C13.6535 51.0614 13.5119 50.9292 13.3986 50.7781C13.2097 50.4949 13.1531 50.1455 13.2475 49.815L13.7196 48.1626L13.8424 47.7188H16.6563L16.779 48.1626L17.2512 49.815C17.2795 49.9189 17.2984 50.0227 17.2984 50.1266L17.3078 50.1361Z" fill="#A9CCFF"/>
<path d="M16.7888 48.1609H13.72L13.8522 47.7266H16.6661L16.7888 48.1609Z" fill="#6981B7"/>
<path d="M16.4301 49.1641H14.0505V49.91H16.4301V49.1641Z" fill="#6981B7"/>
<path d="M19.0362 51.2734H1.48242V78.8081H19.0362V51.2734Z" fill="#A9CCFF"/>
<path d="M2.23698 51.2734H1.32104V79.8279H2.23698V51.2734Z" fill="#6981B7"/>
<path d="M19.2147 51.2734H18.2988V79.8279H19.2147V51.2734Z" fill="#6981B7"/>
<path d="M18.6121 53.6953H1.63428V54.328H18.6121V53.6953Z" fill="#6981B7"/>
<path d="M16.2228 57.8386H4.31566C3.8813 57.8386 3.52249 57.4609 3.4564 56.951L3.08813 53.9766H17.4598L17.0915 56.951C17.0254 57.4609 16.6666 57.8386 16.2322 57.8386H16.2228Z" fill="#6981B7"/>
<path d="M18.6121 59.8672H1.63428V60.4998H18.6121V59.8672Z" fill="#6981B7"/>
<path d="M16.2228 64.0183H4.31566C3.8813 64.0183 3.52249 63.6406 3.4564 63.1307L3.08813 60.1562H17.4598L17.0915 63.1307C17.0254 63.6406 16.6666 64.0183 16.2322 64.0183H16.2228Z" fill="#6981B7"/>
<path d="M18.6121 66.0469H1.63428V66.6795H18.6121V66.0469Z" fill="#6981B7"/>
<path d="M16.2228 70.1902H4.31566C3.8813 70.1902 3.52249 69.8125 3.4564 69.3026L3.08813 66.3281H17.4598L17.0915 69.3026C17.0254 69.8125 16.6666 70.1902 16.2322 70.1902H16.2228Z" fill="#6981B7"/>
<path d="M18.6121 72.2188H1.63428V72.8514H18.6121V72.2188Z" fill="#6981B7"/>
<path d="M16.2228 76.362H4.31566C3.8813 76.362 3.52249 75.9843 3.4564 75.4744L3.08813 72.5H17.4598L17.0915 75.4744C17.0254 75.9843 16.6666 76.362 16.2322 76.362H16.2228Z" fill="#6981B7"/>
<path d="M19.1864 51.2734H1.33984V51.9533H19.1864V51.2734Z" fill="#6981B7"/>
<path d="M19.9616 81.2263C19.9616 82.0478 19.2912 82.7182 18.4697 82.7182C17.6482 82.7182 16.9778 82.0478 16.9778 81.2263C16.9778 80.4048 17.6482 79.7344 18.4697 79.7344C19.2912 79.7344 19.9616 80.4048 19.9616 81.2263Z" fill="#272443"/>
<path d="M20.5852 81.2263C20.5852 82.0478 19.9148 82.7182 19.0933 82.7182C18.2717 82.7182 17.6013 82.0478 17.6013 81.2263C17.6013 80.4048 18.2717 79.7344 19.0933 79.7344C19.9148 79.7344 20.5852 80.4048 20.5852 81.2263Z" fill="#404082"/>
<path d="M2.98387 81.2263C2.98387 82.0478 2.31344 82.7182 1.49193 82.7182C0.670427 82.7182 0 82.0478 0 81.2263C0 80.4048 0.670427 79.7344 1.49193 79.7344C2.31344 79.7344 2.98387 80.4048 2.98387 81.2263Z" fill="#272443"/>
<path d="M3.60739 81.2263C3.60739 82.0478 2.93698 82.7182 2.11547 82.7182C1.29396 82.7182 0.623535 82.0478 0.623535 81.2263C0.623535 80.4048 1.29396 79.7344 2.11547 79.7344C2.93698 79.7344 3.60739 80.4048 3.60739 81.2263Z" fill="#404082"/>
<path d="M59.4208 64.9274C57.8439 64.9274 56.3237 64.6064 54.9734 63.9737C52.6977 62.9067 50.677 60.9615 48.6374 57.8549C47.4382 56.023 46.3806 54.0873 45.5024 52.0855L45.7196 51.991C46.5978 53.9834 47.6459 55.9097 48.8357 57.7227C50.8564 60.801 52.8299 62.7178 55.0678 63.7565C58.4199 65.324 62.773 64.8802 66.1534 62.6329C69.2034 60.6027 71.2807 57.0145 71.9984 52.5482C72.801 47.5719 73.4431 42.5012 73.9247 37.4778C74.2174 34.3523 74.4535 31.1795 74.6234 28.0446C74.6706 27.1381 74.699 26.2033 74.7179 25.3063C74.7651 23.3611 74.8123 21.3498 75.1333 19.4141L75.3694 19.4518C75.0578 21.3687 75.0106 23.3705 74.9634 25.3157C74.9445 26.2222 74.9161 27.157 74.8689 28.0635C74.699 31.1984 74.4629 34.3806 74.1607 37.5061C73.6886 42.5296 73.0371 47.6097 72.2344 52.5954C71.8945 54.7294 71.2524 56.6557 70.3365 58.3365C69.3072 60.225 67.9381 61.7358 66.2856 62.8406C64.6332 63.9454 62.7163 64.6441 60.7428 64.8613C60.299 64.9085 59.8552 64.9368 59.4208 64.9368V64.9274Z" fill="#272443"/>
<path d="M61.6499 53.5063C61.716 55.1587 61.7727 56.8112 61.8388 58.4636C61.8388 58.6997 61.8671 58.9547 62.0087 59.1435C62.1598 59.3324 62.4147 59.389 62.6414 59.4457C63.7934 59.7101 64.8981 59.8423 66.0596 60.0217C66.7961 60.1161 67.4949 60.1633 68.2408 60.1067C68.3258 60.1067 68.4297 60.0878 68.4863 60.0217C68.5524 59.9556 68.5619 59.8517 68.5619 59.7573C68.5997 58.3125 68.6469 56.8678 68.6941 55.4326C68.7885 52.4676 68.949 49.5121 69.0529 46.566C69.1568 43.5254 69.3173 40.4849 69.1945 37.435C69.1757 37.0384 69.1473 36.6323 69.0151 36.2546C68.8829 35.8958 68.6658 35.5748 68.4486 35.2632C67.6648 34.1395 67.0227 32.978 65.7197 32.3926C64.3788 31.7883 63.0285 32.1093 61.8482 32.8931C60.7151 33.639 61.0456 35.1404 61.0833 36.3207C61.0833 39.9089 61.31 43.5443 61.4233 47.1231C61.4894 49.2571 61.5649 51.3817 61.6499 53.5157V53.5063Z" fill="#E6EEFC"/>
<path d="M68.3807 82.4684C67.9463 82.5911 67.0682 82.695 66.7283 82.3362C66.3505 81.9396 65.9917 81.5241 65.5102 81.2502C65.1325 81.0331 64.7453 80.9764 64.3393 80.9103C64.2165 80.8914 64.0843 80.8726 63.9521 80.8442C63.7161 80.797 63.4706 80.712 63.2628 80.5893C62.9607 80.4004 62.6679 80.136 62.734 79.7678C62.7624 79.6261 62.819 79.5034 62.8946 79.3806C62.9418 79.3051 62.9984 79.2295 63.0456 79.1446C63.0551 79.1257 63.0645 79.1068 63.0834 79.0973C63.31 78.7574 63.4045 78.3608 63.7633 78.1247C64.0938 77.9076 64.5187 77.832 64.9058 77.8981C65.2458 77.9548 65.7273 78.1436 65.9256 78.4364C66.1617 78.7668 66.3128 79.2107 66.5111 79.5789C66.9643 80.391 67.4553 81.1747 68.0974 81.8546C68.2674 82.034 68.4185 82.2134 68.3901 82.4684H68.3807Z" fill="#F7967C"/>
<path d="M69.3536 82.708C69.4103 82.6892 69.4575 82.6608 69.4669 82.6231C69.4858 82.5475 69.4103 82.4909 69.3442 82.4531C68.9193 82.2076 68.4755 81.8676 67.9656 81.8771C67.6917 81.8771 67.4368 81.9526 67.1724 82.0187C66.9741 82.0754 66.823 82.1887 66.6058 82.0754C66.4925 82.0093 66.3981 81.9054 66.3037 81.811C65.8788 81.3672 65.3405 81.0461 64.7834 80.8006C64.434 80.6495 64.0658 80.5268 63.707 80.4135C63.4614 80.3379 62.9893 80.0924 62.7438 80.2435C62.6494 80.3002 62.6399 80.4418 62.6871 80.5362C62.7344 80.6401 62.8193 80.7062 62.8854 80.7912C63.2631 81.2161 63.3104 81.8393 63.3765 82.4059C63.3953 82.5947 63.5275 82.5853 63.6692 82.5853C63.6881 82.5853 63.9808 82.5853 63.9808 82.5853C63.9808 82.387 63.9808 82.1887 63.9808 81.9904C63.9808 81.8204 63.9808 81.6505 63.9808 81.4805C63.9808 81.32 63.9053 81.1406 64.0941 81.0556C64.0941 81.0556 64.113 81.0556 64.1224 81.0461C64.2263 81.0084 64.3396 81.0178 64.4435 81.0461C64.4624 81.0461 64.4718 81.0461 64.4907 81.0556C64.6229 81.0934 64.7551 81.15 64.8684 81.1878C65.5671 81.4427 66.0298 81.9054 66.4453 82.472C66.502 82.5475 66.5586 82.6042 66.6058 82.6419L67.078 82.6514H67.2102L69.1837 82.708C69.1837 82.708 69.2686 82.708 69.3253 82.6797L69.3536 82.708Z" fill="#E75860"/>
<path d="M63.5188 78.4307C63.4433 78.053 63.4149 77.6753 63.3772 77.2976C63.1977 75.1636 62.99 73.039 62.7728 70.905C62.584 69.0448 61.9136 67.2507 63.1883 65.6454C63.5943 65.1261 64.1987 64.6917 64.8502 64.7201C65.7378 64.7673 66.361 65.6549 66.531 66.5236C66.9276 68.6104 66.5404 70.8767 66.3421 72.9635C66.1816 74.6726 66.1438 76.41 65.8795 78.1097C65.8417 78.3457 65.8039 78.6007 65.6339 78.7801C65.4923 78.9406 65.2751 79.0067 65.0674 79.0539C64.803 79.1106 64.6802 79.0539 64.4536 78.9784C64.1798 78.8934 63.8587 79.0728 63.6415 78.8179C63.5754 78.7423 63.5471 78.6385 63.5282 78.5346C63.5282 78.4968 63.5094 78.4591 63.5094 78.4307H63.5188Z" fill="#F7967C"/>
<path d="M68.344 62.2949C68.2685 64.0512 68.2118 65.8075 68.1551 67.5733C68.089 69.7357 68.0324 71.9075 67.9946 74.0698C67.9946 74.5797 67.9663 75.0802 67.9568 75.5901H61.2715C61.2998 74.6553 61.3281 73.7204 61.3565 72.7762C61.4037 71.237 61.4509 69.6979 61.4981 68.1588C61.4981 68.0171 61.4981 67.8849 61.5075 67.7433C61.5642 66.0247 61.6114 64.3062 61.6681 62.597C61.687 61.9361 61.7058 61.2751 61.7247 60.6141C61.7247 60.5386 61.7247 60.4725 61.7247 60.3969C61.7247 60.2742 61.7247 60.1514 61.7342 60.0192C61.7531 59.3677 61.6492 58.5839 61.9419 57.9796C62.1874 57.4792 63.0089 57.1298 63.4999 56.8843C63.7454 56.7521 64.0098 56.6577 64.2837 56.5916C64.3403 56.5821 64.3875 56.5632 64.4442 56.5538C64.8219 56.4782 65.2185 56.4688 65.5867 56.5443C66.446 56.7143 67.6452 56.8182 68.1363 57.6208C68.2118 57.7436 68.2779 57.8663 68.3251 58.008C68.3251 58.008 68.3251 58.0268 68.3345 58.0363C68.3534 58.0835 68.3629 58.1307 68.3818 58.1779C68.7595 59.4054 68.3629 61.1051 68.3157 62.2949H68.344Z" fill="#E6EEFC"/>
<path d="M58.3354 45.9976L61.678 54.2315C61.8575 54.6659 62.0274 55.1002 62.3107 55.4779C62.8395 56.1861 63.6988 56.6016 64.5675 56.7716C65.4362 56.9415 66.3333 56.9038 67.2209 56.866C67.523 56.8565 67.8346 56.8377 68.1273 56.7432C68.4578 56.6394 69.1094 56.3183 69.2699 55.9878C69.4588 55.6007 69.2038 54.9019 69.1377 54.4865C68.9489 53.3345 68.7222 52.1825 68.4484 51.0493C68.0896 49.5008 67.5419 47.9711 67.2397 46.413C66.5976 43.1176 65.4929 39.7938 64.492 36.5927C64.2559 35.7523 63.9537 34.827 63.1983 34.3926C62.83 34.1849 62.4051 34.1188 61.9897 34.081C60.0067 33.9205 57.3156 34.487 55.8897 35.9978C55.276 36.6494 55.4648 37.4426 55.6537 38.2357C55.9464 39.4822 56.3241 40.7003 56.7585 41.9089C57.2495 43.2875 57.7971 44.6378 58.3448 45.9881L58.3354 45.9976Z" fill="#E6EEFC"/>
<path d="M56.4275 77.0567C55.9931 76.934 55.1905 76.5657 55.0866 76.0747C54.9733 75.5365 54.8789 74.9982 54.6145 74.5167C54.4068 74.1295 54.1141 73.884 53.8025 73.6102C53.708 73.5252 53.6042 73.4402 53.5097 73.3458C53.3303 73.1853 53.1698 72.9775 53.0565 72.7698C52.896 72.4487 52.7827 72.071 53.0376 71.7972C53.132 71.6933 53.2548 71.6178 53.3775 71.5517C53.4625 71.5139 53.5475 71.4761 53.6325 71.4384C53.6514 71.4384 53.6703 71.4195 53.6891 71.41C54.0669 71.2401 54.3501 70.9568 54.775 70.9379C55.1716 70.9285 55.5682 71.0796 55.8609 71.344C56.1159 71.5706 56.4275 71.9861 56.4558 72.3354C56.4842 72.7415 56.3803 73.2041 56.3614 73.6102C56.3236 74.5356 56.3331 75.4704 56.5125 76.3769C56.5597 76.6129 56.5975 76.849 56.4369 77.0567H56.4275Z" fill="#F7967C"/>
<path d="M57.1356 77.7632C57.1922 77.7726 57.2489 77.7821 57.2772 77.7537C57.3339 77.7065 57.3055 77.6121 57.2678 77.546C57.0317 77.1116 56.8334 76.5923 56.399 76.3374C56.163 76.2052 55.908 76.1202 55.6531 76.0446C55.4548 75.988 55.2659 76.0069 55.1432 75.7991C55.0771 75.6858 55.0582 75.5442 55.0299 75.4214C54.8977 74.8265 54.6144 74.2694 54.265 73.7595C54.0478 73.4479 53.8023 73.1552 53.5474 72.8625C53.3774 72.6736 53.1036 72.2109 52.8108 72.2109C52.6975 72.2109 52.622 72.3242 52.6031 72.4281C52.5842 72.532 52.622 72.6453 52.6409 72.7492C52.7353 73.3157 52.452 73.8634 52.2065 74.3827C52.131 74.5527 52.2349 74.6094 52.3576 74.6943C52.3765 74.7038 52.622 74.8643 52.622 74.8643C52.7259 74.6943 52.8297 74.5244 52.9336 74.3638C53.0186 74.2222 53.113 74.0711 53.198 73.9295C53.283 73.7973 53.3113 73.599 53.519 73.6273C53.5285 73.6273 53.5379 73.6273 53.5474 73.6273C53.6512 73.6462 53.7457 73.7123 53.8307 73.7973C53.8401 73.8067 53.859 73.8162 53.8684 73.8351C53.9629 73.9389 54.0478 74.0522 54.1234 74.1467C54.5861 74.7227 54.7371 75.3648 54.7938 76.073C54.7938 76.1674 54.8221 76.2429 54.841 76.309L55.2376 76.564L55.3415 76.6301L56.9939 77.7065C56.9939 77.7065 57.0695 77.7537 57.1261 77.7632H57.1356Z" fill="#E75860"/>
<path d="M54.4066 71.0729C54.5388 70.714 54.7182 70.3741 54.8882 70.0342C55.8514 68.1268 56.7956 66.2005 57.7304 64.2742C58.5519 62.584 58.9202 60.7143 60.8465 60.0156C61.4697 59.789 62.2062 59.7323 62.7445 60.11C63.4715 60.6104 63.5471 61.6964 63.226 62.5273C62.4706 64.5103 60.9504 66.2288 59.685 67.9096C58.6464 69.2788 57.7021 70.7424 56.5879 72.0454C56.4273 72.2343 56.2574 72.4231 56.0308 72.4892C55.823 72.5459 55.6058 72.4893 55.3981 72.4232C55.1432 72.3382 55.0771 72.2154 54.9165 72.036C54.7277 71.8188 54.3594 71.8094 54.3122 71.4789C54.2933 71.375 54.3311 71.2711 54.3594 71.1767C54.3689 71.139 54.3878 71.1106 54.3972 71.0729H54.4066Z" fill="#F7967C"/>
<path d="M69.288 55.7955C69.288 55.8994 69.288 56.0032 69.2691 56.1165C69.2313 56.3998 69.1369 56.6925 69.0047 56.9758C68.8347 57.3346 68.6176 57.6935 68.3721 58.0428C68.3343 58.0995 68.2871 58.1561 68.2493 58.2128C67.8149 58.8077 67.3334 59.3742 67.0029 59.8652C66.0208 61.3194 65.0388 62.783 64.0662 64.2561C63.6413 64.8982 63.2164 65.5497 62.7915 66.1918C62.5176 66.6073 62.2533 67.0227 61.9794 67.4288C61.8189 67.6743 61.6678 67.9103 61.5073 68.1559C61.1768 68.6658 60.8463 69.1851 60.5158 69.695C60.242 70.1199 59.9587 70.5448 59.6849 70.9697L56.4649 68.9868L56.3516 68.9207L53.991 67.4665C54.5009 66.6828 55.0297 65.9085 55.549 65.1153C56.4744 63.7178 57.3997 62.3203 58.3157 60.9228C59.2599 59.4875 60.2042 58.0523 61.1579 56.6264C61.63 55.9088 62.1022 55.1912 62.5743 54.4735C62.8293 54.0864 63.0653 53.5954 63.3958 53.2271C63.4241 53.1893 63.4619 53.1516 63.4997 53.1138C63.6035 53.0099 63.7074 52.9249 63.8302 52.8494C64.3023 52.5567 65.1899 52.6889 65.7281 52.7266C66.4363 52.7739 67.1634 53.0477 67.6922 53.5293C68.2399 54.0297 69.0142 54.634 69.2408 55.38C69.2786 55.5122 69.2974 55.6444 69.2974 55.7861L69.288 55.7955Z" fill="#E6EEFC"/>
<path d="M68.8915 37.6658C68.6837 37.9302 68.2211 37.9869 67.9094 38.0908C67.4279 38.2607 66.9274 38.3457 66.4175 38.4212C66.0965 38.4685 65.7754 38.5062 65.4544 38.5534L65.2561 38.5818C65.1428 38.6006 65.02 38.6101 64.9067 38.629C64.8595 38.629 64.8123 38.6384 64.7651 38.6479C64.4251 38.6951 64.0852 38.7423 63.7453 38.7895C62.7916 38.9217 61.8284 39.0539 60.8653 39.0917C60.0249 39.12 59.1939 39.0728 58.3535 38.9783C58.3063 38.9783 58.2497 38.9689 58.2025 38.9595C58.1175 38.95 58.0419 38.9406 57.9569 38.9311C57.5226 38.8745 57.0693 38.8367 56.6539 38.6951C56.3234 38.5818 55.804 38.3835 55.6152 38.0908C55.483 37.883 55.4358 37.6281 55.3886 37.3731C55.1431 35.9945 55.077 34.6725 55.2091 33.2845C55.2847 32.5007 55.3697 31.7264 55.4735 30.9521C55.6341 29.7246 55.8229 28.4782 56.3989 27.3828C56.8333 26.5519 57.8908 26.3347 58.7501 26.2403C59.5433 26.1553 60.3459 26.1836 61.1391 26.1742C62.1022 26.1647 63.056 26.0892 64.0191 26.0703C64.4912 26.0703 64.9634 26.0703 65.4355 26.0892C65.8132 26.1081 66.4647 26.0137 66.7952 26.1836C67.4657 26.5047 67.815 27.8078 68.0039 28.4499C68.0322 28.5443 68.0605 28.6481 68.0889 28.7426C68.0889 28.7709 68.1077 28.7992 68.1077 28.8181C68.391 29.8379 68.5893 30.8672 68.7215 31.9153C68.9387 33.5677 69.0142 35.2485 69.0331 36.9199C69.0331 37.1748 69.0331 37.4581 68.8726 37.6658H68.8915Z" fill="#E6EEFC"/>
<path d="M69.3823 55.1926C69.3823 55.4759 69.3351 55.7686 69.2785 56.0519C69.2785 56.0708 69.2785 56.0802 69.269 56.0991C69.2029 56.3918 69.1179 56.6751 69.0046 56.9584C68.9102 57.2039 68.7969 57.44 68.6836 57.676C68.5986 57.846 68.5136 58.0065 68.4192 58.167C68.032 58.8375 67.5977 59.489 67.1633 60.1311C66.6157 60.9526 66.068 61.7741 65.5109 62.5862C65.086 63.2094 64.6516 63.8232 64.2078 64.4369C64.2361 64.4369 64.255 64.4558 64.255 64.4747C64.2267 65.3717 64.1983 66.2688 64.1889 67.1658C64.1606 68.7522 64.1511 70.348 64.1511 71.9438C64.1511 73.1525 64.17 74.3706 64.1983 75.5792H64.0567C64.0473 75.0693 64.0378 74.5594 64.0284 74.0495C64.0095 72.4537 64.0001 70.8673 64.0189 69.2715C64.0284 67.7041 64.0661 66.1366 64.1134 64.5691C64.0095 64.7108 63.9056 64.8619 63.8017 65.0035C63.2257 65.8061 62.6403 66.5993 62.0454 67.3925C62.0265 67.4114 62.0077 67.4208 61.9793 67.4208C61.9793 67.4208 61.9604 67.4208 61.951 67.4208C61.9321 67.4208 61.8849 67.4019 61.9038 67.3736C61.9793 67.2792 62.0549 67.1753 62.121 67.0809C62.3476 66.7881 62.5648 66.486 62.782 66.1838C63.1408 65.6928 63.4996 65.2018 63.8584 64.7013C64.4344 63.8987 64.9915 63.0961 65.5486 62.284C66.1057 61.472 66.6534 60.6599 67.1917 59.8384C67.541 59.3002 67.9093 58.7619 68.2303 58.2048C68.2681 58.1387 68.3059 58.0726 68.3437 58.0065C68.457 57.7988 68.5608 57.591 68.6647 57.3833C68.8913 56.9017 69.0707 56.3824 69.1652 55.8536C69.1935 55.7025 69.2124 55.542 69.2218 55.3815C69.2218 55.2776 69.2312 55.1737 69.2312 55.0699C69.2312 54.8244 69.1368 54.5883 69.0896 54.3428C68.863 53.2191 68.6175 52.1049 68.3531 50.9907C68.0887 49.867 67.8149 48.7528 67.5127 47.6386C67.22 46.5338 66.9084 45.429 66.5873 44.3336C66.2663 43.2383 65.9263 42.143 65.5675 41.0571C65.3031 40.2544 65.0387 39.4518 64.7555 38.6492C64.661 38.3659 64.5572 38.0826 64.4627 37.8088C64.4439 37.7521 64.5855 37.7427 64.6044 37.7899C64.6516 37.9221 64.6988 38.0543 64.746 38.1865C64.8027 38.3376 64.8499 38.4792 64.8971 38.6303C64.916 38.687 64.9349 38.7436 64.9537 38.8003C65.0576 38.7342 65.152 38.6586 65.2465 38.5831C65.322 38.517 65.3881 38.4509 65.4542 38.3753C65.7469 38.0637 66.0019 37.7144 66.2663 37.3744C66.559 37.0062 66.8423 36.6379 67.135 36.2696C67.1633 36.2319 67.305 36.2508 67.2577 36.3074C67.0878 36.5246 66.9273 36.7323 66.7573 36.9495C66.474 37.3178 66.1813 37.686 65.898 38.0449C65.7564 38.2243 65.6147 38.3942 65.4542 38.5548C65.3314 38.6775 65.1993 38.7814 65.0482 38.8758C65.0387 38.8758 65.0198 38.8853 65.001 38.8853C65.2937 39.7351 65.5864 40.5944 65.8602 41.4536C66.2096 42.549 66.5495 43.6443 66.8706 44.7491C67.1916 45.8444 67.4938 46.9492 67.7865 48.054C68.0698 49.1588 68.3437 50.2636 68.608 51.3778C68.7497 51.9727 68.8819 52.5581 69.0046 53.153C69.0707 53.4457 69.1274 53.7479 69.1935 54.0406C69.2218 54.1823 69.2313 54.3428 69.2879 54.475C69.354 54.6544 69.3823 54.796 69.3918 54.9566C69.3918 55.0227 69.3918 55.0982 69.3918 55.1832L69.3823 55.1926Z" fill="#6981B7"/>
<path d="M64.4908 56.3436C64.4908 56.4097 64.4719 56.4758 64.4624 56.5419C64.3586 57.0612 64.0847 57.5334 63.7731 57.9583C63.386 58.4871 62.9611 58.9875 62.555 59.5163C62.2812 59.8751 62.0074 60.2434 61.7335 60.6117C61.1859 61.3482 60.6571 62.1036 60.1472 62.859C58.8158 64.8325 57.5788 66.8721 56.4551 68.9778L56.3418 68.9117C57.6071 66.5416 59.0235 64.2376 60.5626 62.028C60.9498 61.4709 61.3464 60.9233 61.743 60.385C62.1396 59.8468 62.555 59.3086 62.9705 58.7892C63.3671 58.2888 63.8015 57.7883 64.0942 57.2123C64.1981 57.0046 64.2641 56.7968 64.3114 56.5891C64.4058 56.1264 64.368 55.6637 64.2264 55.1916C64.0281 54.5306 63.707 53.9168 63.4332 53.2936C63.4237 53.2747 63.4143 53.2464 63.4049 53.2275C63.131 52.6232 62.8666 52.0283 62.6022 51.424C62.0451 50.1587 61.5069 48.8839 60.997 47.5997C59.9866 45.0502 59.0896 42.4535 58.4192 39.7907C58.3531 39.5263 58.287 39.2619 58.2303 38.9881C57.6826 36.6086 57.3333 34.1818 57.2577 31.7456C57.2577 31.689 57.3994 31.689 57.3994 31.7456C57.4088 32.0856 57.4277 32.4255 57.4466 32.7654C57.5693 34.8711 57.8998 36.9579 58.372 39.007C58.5136 39.6396 58.6741 40.2628 58.8535 40.8861C59.5901 43.5489 60.5343 46.1361 61.5824 48.6857C62.1112 49.9604 62.6589 51.2352 63.216 52.491C63.3104 52.6988 63.4049 52.9065 63.4899 53.1048C63.6881 53.5297 63.877 53.9641 64.0658 54.389C64.3302 55.0027 64.5663 55.6637 64.4908 56.3436Z" fill="#6981B7"/>
<path d="M68.0972 28.7423C67.5306 28.7423 66.9641 28.7423 66.407 28.7423C66.3881 28.7423 66.3786 28.7423 66.3597 28.7423C66.3597 28.7328 66.3597 28.7234 66.3597 28.714C66.3881 28.0058 66.4164 27.2976 66.4447 26.5894C66.4447 26.5327 66.3031 26.5327 66.3031 26.5894C66.2748 27.307 66.2464 28.0246 66.2181 28.7423C65.7743 28.7423 65.3305 28.7423 64.8867 28.7423C64.8017 28.7423 64.7262 28.7423 64.6412 28.7517C64.6412 28.6667 64.6412 28.5723 64.6317 28.4873C64.6034 27.883 64.5656 27.2881 64.5279 26.6932C64.5279 26.6366 64.3768 26.6366 64.3862 26.6932C64.4335 27.3825 64.4712 28.0719 64.509 28.7706C64.1502 28.7989 63.7913 28.8556 63.4325 28.9028C62.8849 28.9783 62.3277 29.0539 61.7801 28.9783C61.7517 28.9783 61.7045 28.9783 61.6951 29.0067C61.6857 29.035 61.7234 29.0539 61.7423 29.0539C62.6771 29.1766 63.5931 28.9217 64.5184 28.8461C64.5373 29.1955 64.5468 29.5355 64.5657 29.8848C64.6034 30.9424 64.6223 32 64.6223 33.0576C64.6223 33.6619 64.6223 34.2568 64.6129 34.8611C64.6129 34.9083 64.7073 34.9083 64.7356 34.8894C65.1416 34.6345 65.5666 34.3606 65.8782 33.9829C66.0293 33.7941 66.152 33.5769 66.2087 33.3314C66.2842 33.0575 66.2936 32.7648 66.2936 32.4816C66.3125 31.2635 66.3409 30.0454 66.3786 28.8273C66.8319 28.8273 67.2851 28.8273 67.7384 28.8273C67.8706 28.8273 68.0028 28.8273 68.135 28.8273C68.135 28.7989 68.1161 28.7706 68.1161 28.7517L68.0972 28.7423ZM66.1709 30.3098C66.152 30.933 66.1426 31.5467 66.1331 32.1699C66.1331 32.7176 66.1426 33.2936 65.831 33.7752C65.5666 34.1907 65.1417 34.4834 64.7262 34.7383C64.7451 33.7091 64.7451 32.6798 64.7262 31.6506C64.7073 30.7063 64.679 29.7715 64.6317 28.8273C64.6412 28.8273 64.6506 28.8273 64.6601 28.8273C65.1605 28.7989 65.6704 28.8178 66.1803 28.8178H66.2087C66.1898 29.3183 66.1803 29.8093 66.1614 30.3098H66.1709Z" fill="#6981B7"/>
<path d="M65.7652 27.8363C65.7652 27.7608 65.7274 27.6853 65.6707 27.6475C65.5952 27.5908 65.5102 27.5625 65.4158 27.5625C65.2553 27.5625 65.0758 27.6569 65.0758 27.8269C65.0758 27.8269 65.0758 27.8363 65.0758 27.8458C65.057 27.978 65.1136 28.1102 65.2269 28.1857C65.3497 28.2613 65.5385 28.3085 65.6613 28.214C65.7179 28.1763 65.7368 28.1102 65.7557 28.0441C65.7652 27.978 65.784 27.9119 65.7746 27.8363H65.7652Z" fill="#6981B7"/>
<path d="M59.7512 13.0372C59.4491 12.9616 59.1091 12.8295 58.7975 12.82C58.5048 12.82 58.1838 12.8861 57.8816 12.8956C57.2395 12.9239 56.5974 12.8955 55.9553 12.8106C55.8609 12.8011 55.757 12.7822 55.6815 12.7256C55.5776 12.6406 55.5493 12.5084 55.5209 12.3762C55.3699 11.6114 55.2188 10.8087 55.4359 10.0628C55.5304 9.74173 55.6909 9.449 55.8609 9.15628C55.9647 8.96743 56.0781 8.77858 56.1725 8.58028C56.6068 7.68323 56.739 6.67287 56.7674 5.6814C56.7768 5.29425 56.7674 4.90711 56.8429 4.52941C56.8901 4.26502 56.9657 4.01006 57.0412 3.75511C57.1451 3.43406 57.2489 3.11301 57.3811 2.81085C57.7494 2.01767 58.3443 1.41335 59.0714 0.941219C59.534 0.639056 60.0534 0.469079 60.5916 0.355768C60.9504 0.280227 61.7719 0.0347204 62.0741 0.327441C62.1496 0.393539 62.2063 0.487967 62.3007 0.53518C62.4801 0.620163 62.6312 0.478521 62.8012 0.487964C62.9806 0.506849 63.2167 0.639056 63.3866 0.705154C63.7643 0.865678 64.142 1.07341 64.4159 1.39446C64.8219 1.85715 64.9635 2.48981 65.2752 3.00915C65.6245 3.59459 66.0306 4.16114 66.3138 4.78435C66.6821 5.57753 66.8143 6.48402 66.6915 7.35274C66.5971 8.03261 66.3516 8.71247 66.5216 9.37346C66.5877 9.64729 66.7293 9.90224 66.8332 10.1666C67.0692 10.7521 67.1353 11.4225 66.937 12.0268C66.8237 12.3951 66.5971 12.7256 66.3138 12.9805C65.9739 13.2733 65.6717 13.3016 65.2468 13.3393C64.1892 13.4149 63.1411 13.1883 62.093 13.2638C61.5264 13.311 60.7616 13.3394 60.2234 13.1316C60.0345 13.0561 59.9117 12.8955 59.704 12.8389C59.4302 12.7539 59.1186 12.82 58.8447 12.8483C58.8258 12.8483 58.8164 12.8483 58.7975 12.8483L59.7512 13.0561V13.0372Z" fill="#404082"/>
<path d="M68.2689 18.8282C68.25 19.0076 68.25 19.187 68.25 19.357C68.25 19.7536 68.2783 20.1408 68.3161 20.5373C68.335 20.7734 68.3633 21 68.3916 21.2361C68.4388 21.6893 68.486 22.1426 68.5049 22.6053C68.5049 22.6619 68.5049 22.7186 68.5049 22.7658C68.5049 23.1813 68.5049 23.6062 68.5049 24.0217C68.5049 24.3994 68.486 24.7676 68.4672 25.1359C68.4672 25.3153 68.4483 25.5041 68.4388 25.6836C68.4011 26.3162 68.3444 26.9489 68.2783 27.5815C68.2783 27.6665 68.2594 27.7515 68.2028 27.8176C68.1461 27.8837 68.0422 27.912 67.9478 27.9215C67.7117 27.9403 67.4851 27.9215 67.2585 27.8648C66.758 27.7515 66.267 27.506 65.7666 27.3549C65.606 27.3077 65.4455 27.2699 65.2944 27.251C65.0867 27.2227 64.8884 27.2227 64.6807 27.2699C64.3596 27.3454 64.0858 27.506 63.8403 27.7232C63.5664 27.9592 63.3398 28.2425 63.1226 28.5258C62.7449 29.0168 62.3672 29.5173 62.0084 30.0272C61.423 30.8392 60.8564 31.6796 60.1577 32.3973C60.1388 32.4161 60.1199 32.435 60.101 32.4633C59.2889 33.2848 58.2597 33.842 57.1644 34.1819C56.6167 34.3519 56.0501 34.4746 55.4836 34.5407C55.3136 34.5596 55.0964 34.5596 55.0114 34.4085C54.9737 34.3424 54.9737 34.2574 54.9831 34.1819C55.0398 32.3784 55.1248 30.5654 55.2192 28.7618C55.2758 27.6476 55.3797 26.5428 55.408 25.4286C55.408 25.1548 55.4175 24.8809 55.4175 24.5977C55.4175 24.1916 55.408 23.795 55.3797 23.389C55.323 22.2464 55.2097 21.0945 55.0587 19.9613C55.002 19.5081 54.9453 19.0643 54.8792 18.611C54.8131 18.1578 54.7565 17.7046 54.6904 17.2608C54.6526 17.0058 54.6243 16.7603 54.5865 16.5148C54.5771 16.4204 54.5582 16.3165 54.5299 16.2032C54.3977 15.5422 54.1616 14.7018 54.3127 14.0786C54.3505 13.9181 54.426 13.767 54.5299 13.6442C54.5393 13.6254 54.5582 13.6159 54.5676 13.597C54.8415 13.3232 55.1437 13.0966 55.4647 12.8983C55.493 12.8794 55.5214 12.8605 55.5497 12.8511C55.6441 12.7944 55.7385 12.7377 55.833 12.6811C56.0501 12.5489 56.2862 12.4356 56.5128 12.3034C56.5695 12.2751 56.6167 12.2467 56.6734 12.209C56.7017 12.1901 56.7394 12.1712 56.7678 12.1523C57.0133 12.0107 57.2588 11.869 57.4949 11.7274C57.561 11.6896 57.6176 11.6519 57.6837 11.6141C57.7404 11.5858 57.7876 11.5574 57.8442 11.5197L58.0709 11.3875C58.2503 11.2836 58.4202 11.1797 58.5996 11.0758C58.6752 11.0286 58.7602 10.9814 58.8357 10.9342C58.864 10.9342 58.8829 10.9248 58.9112 10.9153C58.949 10.9059 58.9868 10.8964 59.0245 10.8775C59.4778 10.7359 59.9122 10.5754 60.3843 10.5093C60.6298 10.4715 60.8942 10.481 61.1586 10.5093C61.7912 10.5848 62.405 10.6698 63.0188 10.8303C63.387 10.9248 63.727 11.1136 64.0763 11.3119C64.4824 11.5574 64.8884 11.8313 65.3039 12.0201C65.4833 12.0957 65.6627 12.1806 65.8327 12.2562C66.1443 12.3978 66.4464 12.53 66.758 12.6717C67.0224 12.7944 67.2868 12.9172 67.5323 13.0682C67.6834 13.1627 67.8251 13.2665 67.9573 13.3893C68.2122 13.6348 68.3727 13.9653 68.4766 14.3335C68.5521 14.6168 68.5899 14.9284 68.6088 15.24C68.6466 15.9388 68.571 16.6564 68.5333 17.1947C68.4955 17.7518 68.3066 18.2428 68.2594 18.7905L68.2689 18.8282Z" fill="#E75860"/>
<path d="M64.199 15.0668C64.1801 15.284 63.9629 17.1253 63.6041 16.8703C62.5843 16.1433 61.7911 15.1424 61.0168 14.1603C60.3558 13.3199 59.7704 12.404 59.2133 11.4786C59.1094 11.2992 59.0339 11.1009 59.0244 10.8932C59.4777 10.7515 59.912 10.591 60.3842 10.5249C60.6297 10.4871 60.8941 10.4966 61.1585 10.5249C61.7911 10.6005 62.4049 10.6854 63.0186 10.846C63.3869 10.9404 63.7268 11.1292 64.0762 11.3275C64.1045 11.8941 64.1423 12.4607 64.1706 13.0272C64.1706 13.1594 64.1895 13.2822 64.1895 13.4143C64.2178 13.962 64.2367 14.5097 64.1895 15.0574L64.199 15.0668Z" fill="#F7967C"/>
<path d="M71.5736 25.7621C71.5264 25.8943 71.4697 26.0265 71.3659 26.1115C71.1959 26.2531 70.9409 26.2248 70.7238 26.1964C70.4122 26.1492 70.1006 26.1114 69.789 26.0642C69.3168 25.9981 68.8258 25.9226 68.4387 25.6676C68.382 25.6299 68.3254 25.5921 68.2687 25.5449C68.0326 25.3372 67.8721 25.0633 67.721 24.7989C67.1828 23.8263 66.7201 22.8065 66.3424 21.7678C66.3235 21.7206 66.3046 21.664 66.2857 21.6168C66.0214 20.8519 65.7947 20.0587 65.6153 19.2656C65.332 17.9625 65.181 16.5555 65.6909 15.3374C65.7097 15.2902 65.7381 15.2336 65.757 15.1864C66.0497 14.5726 66.5124 14.0344 67.0789 13.6661C67.2489 13.5528 67.4377 13.4017 67.636 13.3828C67.6833 13.3828 67.7399 13.3828 67.7871 13.3923C67.8154 13.3923 67.8438 13.4111 67.8721 13.4206C68.0704 13.5245 68.212 13.7605 68.297 13.9494C68.3537 14.0816 68.4198 14.2232 68.4764 14.3649C68.9486 15.4791 69.3168 16.6594 69.6284 17.8303C69.7417 18.2458 69.8362 18.6707 69.94 19.0862C69.9495 19.1428 69.9684 19.2089 69.9872 19.2656C70.1006 19.7283 70.28 20.2098 70.7143 20.3609C70.7615 20.3798 70.8182 20.3892 70.8654 20.427C71.0165 20.5403 70.9504 20.7764 70.9598 20.9652C70.9693 21.3052 71.2526 21.5601 71.4414 21.8434C71.7625 22.325 71.8097 22.9293 71.8191 23.5053C71.838 24.2607 71.8191 25.035 71.5736 25.7526V25.7621Z" fill="#E75860"/>
<path d="M69.6101 25.2745C69.6479 25.4633 69.7234 25.6427 69.8367 25.8033C70.12 26.1715 70.611 26.332 71.0737 26.3509C72.0085 26.3793 72.5562 25.7655 72.9528 25.0006C73.7649 23.4426 74.4164 21.809 74.9074 20.1188C75.1435 19.3256 75.2474 18.4475 75.5495 17.6921C75.8989 16.8233 76.0972 15.8696 76.3333 14.9631C76.3994 14.7176 76.4655 14.4532 76.4371 14.1983C76.4182 13.9433 76.2955 13.6789 76.0783 13.5467C75.3984 13.1596 75.1152 13.1691 74.7469 13.8489C74.4353 14.4249 74.1237 15.0104 73.8121 15.5864C73.0095 17.0783 72.339 18.7307 71.3948 20.1282C70.5261 21.4219 69.714 22.9327 69.5723 24.5096C69.5535 24.7646 69.5535 25.029 69.6007 25.2745H69.6101Z" fill="#F7967C"/>
<path d="M75.0684 14.4275C75.0684 14.4275 75.0873 14.4369 75.0873 14.4464C75.21 14.5219 75.3706 14.5408 75.5122 14.5597C75.7294 14.5785 75.9371 14.588 76.1543 14.588C76.3904 14.588 76.702 14.588 76.8247 14.3614C76.938 14.1348 77.0514 13.8704 77.1458 13.6343C77.2969 13.2471 77.3252 12.8222 77.3346 12.4068C77.3346 12.2557 77.3346 12.0951 77.278 11.9535C77.2213 11.8119 77.108 11.6891 76.9758 11.5947C76.7964 11.4625 76.5887 11.3775 76.362 11.3681C76.1449 11.3586 75.9182 11.4247 75.7483 11.5664C75.1817 12.0668 74.8796 12.8411 74.804 13.5776C74.7757 13.8892 74.804 14.2481 75.059 14.4275H75.0684Z" fill="#F7967C"/>
<path d="M85.6806 8.54742C85.539 9.12342 85.4068 9.68997 85.2557 10.2565C85.2557 10.2754 85.2462 10.3037 85.2368 10.3226C85.2368 10.3415 85.2368 10.3698 85.2274 10.3887C85.114 10.9647 85.0007 11.5407 84.878 12.1167C84.8591 12.2206 84.793 12.3905 84.6514 12.3433C84.5853 12.3244 84.5381 12.2584 84.5003 12.2017C84.217 11.8146 83.8771 11.4652 83.5843 11.0875C83.3955 10.8514 83.1405 10.7759 82.8667 10.7475H82.8478C82.8195 10.7475 82.7912 10.7475 82.7628 10.7475C82.659 10.7475 82.5457 10.7475 82.4324 10.7475C81.8469 10.7192 81.252 10.672 80.6666 10.6531C80.2889 10.6626 79.9206 10.672 79.5429 10.672C79.0613 10.672 78.5798 10.6437 78.0982 10.5965C77.8904 10.5776 77.6827 10.5587 77.475 10.5304C77.3994 10.5304 77.3239 10.502 77.2484 10.4737C77.1728 10.4643 77.0973 10.4548 77.0312 10.4359C76.9556 10.4265 76.8801 10.4076 76.8046 10.3887C76.5402 10.3321 76.2758 10.2565 76.0114 10.1621C75.8697 10.1149 75.7281 10.0488 75.5959 9.98268C75.1993 9.79383 74.68 9.53888 74.2928 9.18951C74.2928 9.18951 74.2834 9.18006 74.2739 9.17062C74.0379 8.95344 73.849 8.70794 73.7735 8.42466C73.6602 7.97141 73.7735 7.48985 74.0662 7.13103C74.2551 6.90441 74.5289 6.76276 74.8311 6.66834C74.8311 6.66834 74.8499 6.66834 74.8594 6.66834C75.3598 6.5267 75.9453 6.50781 76.3796 6.50781C76.814 6.50781 77.1917 6.55502 77.5789 6.64945C77.6544 6.66833 77.7299 6.68721 77.8055 6.7061C77.8999 6.73443 77.9943 6.75332 78.0982 6.79109C78.1737 6.80054 78.2493 6.80997 78.3248 6.83829C78.9764 7.06492 79.6279 7.31043 80.2605 7.59371C80.6005 7.74479 80.931 7.91476 81.2615 8.08473C81.8091 8.32079 82.3568 8.52852 82.9045 8.75514C82.9989 8.80236 83.1028 8.84958 83.2066 8.88735C83.235 8.8968 83.2633 8.90624 83.2822 8.91568H83.3011C83.556 9.01011 83.8299 9.04788 84.0942 8.91568C84.5192 8.6985 84.9724 8.52852 85.3973 8.3019C85.4634 8.27357 85.5295 8.23581 85.5956 8.24525C85.7373 8.26413 85.7278 8.44355 85.6995 8.54742H85.6806Z" fill="#404082"/>
<path d="M85.2282 10.3966C85.1149 10.9726 85.0016 11.5486 84.8788 12.1246C84.8599 12.2284 84.7938 12.3984 84.6522 12.3512C84.5861 12.3323 84.5389 12.2662 84.5011 12.2096C84.2178 11.8224 83.8779 11.473 83.5852 11.0953C83.3963 10.8593 83.1414 10.7837 82.8675 10.7554H82.8487C82.8203 10.7554 82.792 10.7554 82.7637 10.7554L83.1791 8.88577C83.1791 8.88577 83.2358 8.90466 83.2547 8.9141C83.2547 8.9141 83.2641 8.9141 83.2736 8.9141C83.5285 9.00852 83.8024 9.04629 84.0668 8.9141C84.4917 8.69692 84.9449 8.52694 85.3698 8.30032C85.4359 8.27199 85.502 8.23422 85.5681 8.24367C85.7098 8.26255 85.7003 8.44197 85.672 8.54584C85.5304 9.12184 85.3982 9.68839 85.2471 10.2549C85.2471 10.2738 85.2376 10.3022 85.2282 10.321C85.2282 10.3399 85.2282 10.3683 85.2188 10.3871L85.2282 10.3966Z" fill="#272443"/>
<path d="M74.8223 6.67969L74.2652 9.19142C74.0291 8.97424 73.8402 8.72874 73.7647 8.44546C73.6514 7.99222 73.7647 7.51064 74.0574 7.15182C74.2463 6.9252 74.5201 6.78357 74.8223 6.68914V6.67969Z" fill="#272443"/>
<path d="M75.0394 18.9528C75.0394 18.9528 75.0961 18.9716 75.1244 18.9811C75.1716 19 75.2094 19.0472 75.181 19.085C75.1716 19.1038 75.1527 19.1038 75.1338 19.1133C75.03 19.1605 75.0111 19.236 75.0016 19.3399C75.0016 19.4438 74.9544 19.5382 74.9355 19.6421C74.9355 19.661 74.9355 19.6893 74.9355 19.7082C74.9544 19.7743 75.03 19.8026 75.1055 19.812C75.1905 19.8309 75.2849 19.8404 75.3699 19.812C75.5021 19.7648 75.5871 19.6137 75.6437 19.4815C75.691 19.3682 75.7382 19.2549 75.7854 19.1416C75.9648 18.6884 76.1064 18.2257 76.2197 17.7535C76.2575 17.5741 76.2953 17.3947 76.3047 17.2059C76.3047 17.0454 76.2481 17.0548 76.1064 17.0548C75.9176 17.0548 75.7193 17.0548 75.5304 17.0926C75.4455 17.102 75.2755 17.1114 75.2094 17.187C75.1338 17.272 75.1055 17.508 75.0961 17.6119C75.0961 17.6402 75.0961 17.6686 75.0961 17.6874C75.1433 17.7819 75.3416 17.763 75.3416 17.8669C75.2849 17.9046 75.2094 17.9141 75.1527 17.9613C75.0961 17.9991 75.0677 18.084 75.115 18.1312C75.1527 18.169 75.2094 18.169 75.2566 18.169C75.3038 18.169 75.3605 18.1974 75.3699 18.2446C75.3038 18.2729 75.2283 18.2823 75.1622 18.3107C75.0961 18.339 75.0394 18.4145 75.0772 18.4806C75.1055 18.5278 75.1622 18.5373 75.2094 18.5562C75.2566 18.5751 75.3038 18.6412 75.266 18.6695C75.2566 18.6789 75.2377 18.6884 75.2188 18.6884C75.1527 18.6978 75.0866 18.7073 75.03 18.745C74.9733 18.7828 74.945 18.8583 74.9922 18.9055C75.0016 18.915 75.0205 18.9244 75.0394 18.9339V18.9528Z" fill="#272443"/>
<path d="M78.2024 10.4385C78.174 10.4857 78.1363 10.5329 78.108 10.5801C77.9758 10.7406 77.8058 10.8728 77.7019 11.0428C77.5225 11.345 77.4375 11.7793 77.3431 12.1193C77.1448 12.8463 77.0126 13.6018 76.956 14.3477C76.8804 15.3864 76.9276 16.4912 76.3233 17.3977C76.21 17.5676 76.0495 17.6526 75.87 17.681C75.87 17.681 75.8512 17.681 75.8417 17.681C75.7756 17.6904 75.719 17.6998 75.6529 17.6998H75.634C75.6151 17.6998 75.5962 17.6998 75.5773 17.6998C75.5396 17.6998 75.4924 17.6998 75.4546 17.681C75.4168 17.6715 75.3885 17.6432 75.3601 17.6243C75.143 17.4354 75.0391 17.2372 74.9919 16.9633C74.8408 16.0191 74.8691 15.0465 75.0674 14.1022C75.2185 13.4035 75.4546 12.6764 75.7567 12.0248C76.0117 11.4583 76.0589 10.769 76.0117 10.1458C76.0117 10.0797 76.0117 10.023 75.9928 9.95691C75.9834 9.82471 75.9645 9.68306 76.0211 9.56031C76.1439 9.27703 76.5783 9.22982 76.8426 9.21094C76.9087 9.21094 76.9654 9.21094 77.0315 9.21094C77.107 9.22038 77.1826 9.23927 77.2676 9.25815C77.3053 9.2676 77.3431 9.27703 77.3809 9.29592C77.5886 9.36202 77.7963 9.42812 77.9852 9.54143C78.0985 9.60753 78.2024 9.69251 78.2685 9.81526C78.3629 10.0041 78.3062 10.2307 78.2118 10.4102L78.2024 10.4385Z" fill="#404082"/>
<path d="M77.787 6.70509C77.4943 7.3283 77.4282 8.0365 77.3432 8.71637C77.3149 8.91466 77.2866 9.10351 77.2582 9.30181C77.1921 9.68895 77.1166 10.0667 77.0316 10.4538C76.9844 10.6521 76.9372 10.8504 76.89 11.0393C76.6917 11.823 76.4651 12.5973 76.2668 13.381C76.1629 13.7776 76.0779 14.1742 76.0118 14.5802C75.9552 14.9768 75.9268 15.3829 75.908 15.7889C75.8796 16.431 75.8702 17.0636 75.8513 17.7057C75.8513 17.7057 75.8324 17.7057 75.823 17.7057C75.7569 17.7152 75.7002 17.7246 75.6341 17.7246H75.6152C75.6341 16.9786 75.6436 16.2232 75.6908 15.4773C75.7097 15.0618 75.7569 14.6558 75.8324 14.2497C75.908 13.8531 76.0024 13.4566 76.1062 13.06C76.314 12.2762 76.5312 11.5019 76.72 10.7182C76.7483 10.6143 76.7672 10.501 76.7956 10.3972C76.8617 10.1139 76.9183 9.83059 76.975 9.53787C76.9939 9.44345 77.0127 9.33958 77.0222 9.24515C77.0694 8.96188 77.0977 8.68804 77.1355 8.40476C77.211 7.80988 77.296 7.19611 77.5604 6.64844C77.6359 6.66732 77.7115 6.68621 77.787 6.70509Z" fill="#272443"/>
<path d="M75.946 10.9883C76.0782 10.8278 76.2387 10.6767 76.4181 10.6106C76.6731 10.5067 76.9563 10.5728 77.2207 10.5445C77.3246 10.5351 77.4285 10.5067 77.5323 10.469C77.6551 10.4217 77.7967 10.3651 77.8912 10.4501C77.9667 10.5162 77.9573 10.6484 77.91 10.7522C77.7778 11.0355 77.4662 11.196 77.1641 11.2999C76.5881 11.5076 76.352 12.3669 76.0498 12.839C75.7949 13.2356 75.3983 13.5945 74.9262 13.6228C74.7562 13.6228 75.0489 12.5841 75.0867 12.4991C75.2567 12.1309 75.4077 11.7532 75.6344 11.4132C75.7194 11.281 75.8232 11.1299 75.9365 10.9883H75.946Z" fill="#F7967C"/>
<path d="M77.0609 11.6933C77.0231 11.7782 77.0042 11.8727 77.0325 11.9577C77.0609 12.0426 77.1364 12.1182 77.2308 12.1182C77.1459 12.1937 77.0514 12.2693 76.9664 12.3448C76.8531 12.4392 76.7304 12.5431 76.6737 12.6847C76.6171 12.8264 76.636 13.0152 76.7682 13.0908C76.6454 13.0908 76.5415 13.2041 76.5321 13.3268C76.5226 13.4496 76.6265 13.5629 76.7493 13.5818C76.6454 13.6762 76.5226 13.799 76.5604 13.9406C76.5793 14.0256 76.6643 14.0822 76.7493 14.1011C76.8343 14.12 76.9192 14.1011 77.0042 14.0634C77.1175 14.0161 77.2214 13.9312 77.3064 13.8367C77.3441 13.7895 77.3725 13.7329 77.3819 13.6762C77.3819 13.6196 77.363 13.5535 77.3158 13.5251C77.4291 13.4496 77.5236 13.3363 77.5802 13.2135C77.618 13.138 77.6463 13.053 77.6274 12.968C77.618 12.883 77.5519 12.7981 77.4669 12.7792C77.5897 12.6753 77.6841 12.5525 77.7502 12.4109C77.7785 12.3354 77.8068 12.2598 77.7974 12.1843C77.7974 12.1087 77.7502 12.0332 77.6841 11.9954C77.7974 11.8916 77.9107 11.7688 77.939 11.6272C77.9957 11.3911 77.8446 11.2117 77.6085 11.2683C77.3725 11.325 77.1647 11.4666 77.0703 11.6933H77.0609Z" fill="#F7967C"/>
<path d="M77.2774 13.5234C77.2774 13.5234 77.2302 13.5234 77.2113 13.5234C77.0886 13.5801 76.9469 13.6084 76.8053 13.6084C76.7864 13.6084 76.7581 13.6084 76.7581 13.6368C76.7581 13.6556 76.7958 13.6651 76.8053 13.6651C76.9658 13.6651 77.1263 13.6368 77.2774 13.5707C77.2963 13.5707 77.2963 13.5423 77.2774 13.5329V13.5234Z" fill="#DB6357"/>
<path d="M77.3629 12.7952C77.1835 12.9179 76.9852 13.0124 76.7775 13.0785C76.7586 13.0785 76.7491 13.0973 76.7586 13.1162C76.7775 13.1351 76.8058 13.1351 76.8247 13.1257C77.0419 13.0596 77.2402 12.9652 77.429 12.833C77.4762 12.8046 77.3912 12.7763 77.3629 12.7952Z" fill="#DB6357"/>
<path d="M77.6361 11.9408C77.6361 11.9408 77.5888 11.9408 77.5699 11.9502C77.5322 11.988 77.485 12.0163 77.4378 12.0446C77.4189 12.0541 77.3905 12.0635 77.3717 12.073C77.3622 12.073 77.3433 12.073 77.3339 12.0824C77.3244 12.0824 77.3056 12.0824 77.2961 12.0824C77.2867 12.0824 77.2489 12.0918 77.2583 12.1107C77.2583 12.1296 77.2961 12.1296 77.315 12.1296C77.4378 12.1013 77.5511 12.0446 77.6455 11.9597C77.6644 11.9408 77.6455 11.9313 77.6266 11.9219L77.6361 11.9408Z" fill="#DB6357"/>
<path d="M57.2677 18.8982C57.2677 18.9549 57.2583 19.021 57.2488 19.0777C57.2394 19.1721 57.2299 19.2665 57.2111 19.3704C57.0977 20.3052 56.9656 21.2306 56.805 22.156C56.7389 22.5714 56.6162 22.9208 56.5029 23.308C56.2762 24.0445 56.144 24.8376 55.5019 25.3475C55.4642 25.3759 55.4358 25.4042 55.3981 25.4325C55.3131 25.4986 55.2376 25.5742 55.1903 25.6686C55.162 25.7253 55.1526 25.7913 55.1337 25.848C54.7938 26.8206 53.2829 26.9528 52.4331 27.0567C52.1498 27.085 51.8477 27.1039 51.5833 26.9906C50.9789 26.7167 51.0262 25.9991 51.1395 25.4609C51.1584 25.3664 51.1772 25.272 51.2056 25.1776C51.3755 24.4694 51.3283 23.9312 51.2244 23.2041C51.1584 22.7697 51.1678 22.2787 51.4605 21.9388C51.5455 21.8443 51.6494 21.7594 51.7249 21.6555C51.8099 21.5327 51.8382 21.3816 51.8665 21.2306C51.9232 20.8056 51.9138 20.3619 52.0271 19.9558C52.1215 19.6159 52.3009 19.3043 52.452 18.9832C52.6881 18.5017 52.8769 17.9918 53.0185 17.4724C53.1413 17.0192 53.1318 16.5187 53.2829 16.0843C53.3301 15.9427 53.3868 15.8011 53.434 15.6594C53.434 15.6311 53.4529 15.6028 53.4623 15.5839C53.7456 14.4886 54.2555 13.6104 55.2564 13.025C55.3698 12.9589 55.4642 12.9022 55.5586 12.8644C55.7286 12.7983 55.8891 12.7983 56.0968 12.9211C56.3329 13.0627 56.5217 13.2799 56.6539 13.516C56.7484 13.6859 56.8428 13.8748 56.9183 14.0542C57.2111 14.7435 57.3527 15.4989 57.3999 16.2449C57.4566 17.1325 57.381 18.0295 57.2772 18.9171L57.2677 18.8982Z" fill="#E75860"/>
<path d="M53.7071 25.577C53.6977 25.7753 53.6599 25.9736 53.556 26.1341C53.4144 26.3607 53.1689 26.4835 52.9234 26.5968C52.5457 26.7762 52.1585 26.9651 51.7431 26.9934C51.3842 27.0123 51.0349 26.899 50.7893 26.6346C50.185 25.983 49.6846 25.171 49.1747 24.4439C48.6176 23.6601 48.0888 22.8575 47.5694 22.036C46.5402 20.4119 45.577 18.75 44.6894 17.0409C44.5667 16.8143 44.4534 16.5782 44.4156 16.3232C44.3778 16.0683 44.4345 15.785 44.6233 15.6056C45.1993 15.0768 45.4826 15.0202 45.9925 15.6056C46.4269 16.0966 46.8612 16.5971 47.2956 17.0881C48.4476 18.4101 49.5807 19.7509 50.6949 21.1012C51.2615 21.7811 51.828 22.4704 52.3946 23.1502C52.7156 23.5374 53.0933 23.8679 53.3861 24.2739C53.7071 24.7177 53.726 25.0388 53.6882 25.5676L53.7071 25.577Z" fill="#F7967C"/>
<path d="M43.7738 16.1992C43.991 16.3314 44.2176 16.4352 44.4631 16.4824C44.4631 16.4824 44.4631 16.4824 44.4725 16.4824C44.718 16.5297 44.9825 16.5202 45.2185 16.4163C45.464 16.3125 45.6623 16.0953 45.7662 15.8498C45.7945 15.7743 45.8228 15.6987 45.8323 15.6232C45.8417 15.576 45.8795 15.4626 45.8606 15.406C45.6812 14.8394 45.3696 14.3106 44.9541 13.8857C44.7936 13.7158 44.6142 13.5647 44.4348 13.4325C44.3026 13.3381 44.1798 13.2436 44.0382 13.1681C43.8682 13.0926 43.7077 13.0076 43.5377 12.9226C43.4055 12.847 43.2639 12.7809 43.1223 12.7243C42.9806 12.6676 42.8201 12.6487 42.669 12.6771C42.5746 12.696 42.4802 12.7337 42.4235 12.8093C42.4046 12.8282 42.3952 12.847 42.3952 12.8754C42.3952 12.932 42.4518 12.9603 42.5085 12.9792C42.754 13.0737 43.0089 13.187 43.2261 13.3381C43.4244 13.4703 43.651 13.6497 43.7455 13.8763C43.7455 13.8763 43.5661 13.8763 43.5472 13.8763C43.4811 13.8574 43.4055 13.8196 43.3394 13.7913C43.2261 13.7441 43.1223 13.6969 43.0089 13.6497C42.7257 13.5364 42.4235 13.4608 42.1213 13.3947C41.9986 13.3664 41.8664 13.3381 41.7436 13.3381C41.6398 13.3381 41.3659 13.3664 41.347 13.4986C41.3282 13.593 41.4604 13.6969 41.5265 13.7441C41.6964 13.8763 41.9042 13.9613 42.1025 14.0463C42.2819 14.1218 42.4518 14.1879 42.6312 14.2634C42.7257 14.3012 42.8295 14.3579 42.9051 14.4239C42.8956 14.4334 42.8767 14.4334 42.8673 14.4334C42.6407 14.3862 42.3952 14.5467 42.3008 14.7544C42.1591 15.0566 42.4613 15.4154 42.6596 15.6326C42.6973 15.6704 42.7351 15.7081 42.7729 15.727C42.8201 15.7554 42.8767 15.7648 42.924 15.7459C42.9712 15.727 43.0184 15.6798 43.0089 15.6326C43.0089 15.6137 43.1506 15.6987 43.16 15.7081C43.2167 15.7554 43.2733 15.8026 43.33 15.8498C43.4716 15.9725 43.6322 16.0858 43.7927 16.1803L43.7738 16.1992Z" fill="#F7967C"/>
<path d="M43.3876 15.3191C43.3687 15.2341 43.331 15.1491 43.2838 15.0736C43.1893 14.8847 43.076 14.6959 42.9438 14.5259C42.9249 14.507 42.8494 14.5165 42.8683 14.5354C42.9627 14.6676 43.0571 14.7998 43.1327 14.9414C43.2082 15.083 43.3027 15.2341 43.3215 15.3946C43.3215 15.4324 43.3215 15.4702 43.3215 15.4985C43.3121 15.5457 43.2649 15.5552 43.2271 15.5552C43.1421 15.5552 43.0571 15.5174 42.991 15.4702C42.8683 15.3852 42.7644 15.2624 42.6889 15.1302C42.5944 14.9886 42.5284 14.8281 42.4906 14.6676C42.4906 14.6392 42.4056 14.6487 42.415 14.677C42.4623 14.847 42.5284 15.0075 42.6228 15.1586C42.7078 15.2908 42.8116 15.4135 42.9438 15.4985C42.9438 15.4985 42.9344 15.508 42.9438 15.5174C42.9438 15.5268 42.9533 15.5457 42.9533 15.5552C42.9533 15.5835 42.9533 15.6118 42.9533 15.6402C42.9533 15.6402 42.9533 15.6496 42.9627 15.659C42.9627 15.659 42.9816 15.659 42.991 15.659C43.0005 15.659 43.0288 15.659 43.0288 15.6402C43.0288 15.6024 43.0288 15.5741 43.0194 15.5363C43.076 15.5646 43.1421 15.5835 43.2082 15.5835C43.2649 15.5835 43.3499 15.5835 43.3971 15.5363C43.4443 15.4796 43.4254 15.3758 43.4065 15.3097L43.3876 15.3191Z" fill="#DB6357"/>
<path d="M43.4803 8.57699C43.4614 8.78473 43.4519 8.99247 43.4425 9.20021C43.4236 9.61568 43.4142 10.0217 43.4236 10.4372C43.4236 10.7866 43.4425 11.1359 43.452 11.4853C43.4614 11.8158 43.4614 12.1463 43.5086 12.4768C43.5275 12.5995 43.5464 12.7129 43.5842 12.8262C43.603 12.8923 43.6219 12.9489 43.6597 13.0056C43.6597 13.0056 43.6597 13.0056 43.6597 13.015C43.7069 13.0811 43.773 13.1378 43.8297 13.2039C43.858 13.2416 43.8863 13.27 43.9146 13.3077C44.1129 13.6005 44.1035 13.9782 43.9335 14.2803C43.8485 14.4314 43.7824 14.5825 43.7635 14.7525C43.7163 15.1963 44.179 15.8761 44.6889 15.5551C44.7267 15.5362 44.755 15.5079 44.7834 15.4795C44.9816 15.3001 45.0761 15.0357 45.0289 14.7713C44.9628 14.4692 44.7173 14.2426 44.4529 14.082C44.4245 14.0631 44.3773 13.8932 44.3679 13.8554C44.3396 13.7516 44.3584 13.6288 44.349 13.5155C44.349 13.4588 44.349 13.3927 44.3301 13.3361C44.3112 13.2794 44.2829 13.2228 44.2262 13.185C44.2168 13.185 44.2074 13.1755 44.1979 13.1661C44.0185 13.0245 43.9713 12.7695 43.943 12.5334C43.9335 12.4201 43.9335 12.3068 43.9241 12.203C43.9241 12.1746 43.9241 12.1369 43.9241 12.1085C43.9146 11.8725 43.9052 11.6364 43.8958 11.4098C43.8958 11.1737 43.8769 10.9376 43.8769 10.7016C43.858 9.96506 43.8108 9.22853 43.6597 8.50145C43.6408 8.42591 43.6219 8.35037 43.603 8.26539C43.5841 8.19929 43.5464 8.18986 43.5086 8.21819C43.5086 8.21819 43.4992 8.23707 43.4897 8.24651C43.4519 8.31261 43.4708 8.48258 43.4614 8.55812L43.4803 8.57699ZM44.0468 14.5825C44.1318 14.422 44.349 14.2803 44.5284 14.3653C44.5284 14.3653 44.5473 14.3748 44.5567 14.3748C44.5567 14.3748 44.5567 14.3748 44.5662 14.3748C44.7456 14.4786 44.8117 14.743 44.8211 14.9319C44.8306 15.0924 44.7928 15.2246 44.6889 15.3473C44.6323 15.404 44.5662 15.4512 44.4906 15.4701C44.2829 15.5173 44.1601 15.3379 44.0752 15.1774C43.9807 14.9885 43.9524 14.7619 44.0468 14.5731V14.5825Z" fill="#A9CCFF"/>
<path d="M41.2988 14.6575C41.2988 14.6575 41.3271 14.733 41.3366 14.7708C41.6104 15.3185 42.3564 14.9785 42.5452 14.5631C42.6208 14.4025 42.6397 14.242 42.6491 14.0721C42.6491 13.7416 42.8285 13.4394 43.1212 13.2789C43.1779 13.2506 43.2346 13.2222 43.3006 13.2033C43.3856 13.1845 43.4706 13.1656 43.5462 13.1372C43.5462 13.1372 43.5462 13.1372 43.5556 13.1372C43.6123 13.1089 43.6595 13.0617 43.7161 13.0239C43.8011 12.9389 43.8861 12.854 43.9616 12.7595C44.1694 12.5046 44.3488 12.2213 44.5282 11.9475C44.7265 11.6547 44.9153 11.362 45.1042 11.0693C45.3214 10.7199 45.5385 10.3611 45.7368 10.0023C45.8407 9.82288 45.9351 9.63402 46.0296 9.44517C46.0673 9.37907 46.1712 9.24689 46.1712 9.1619C46.1712 9.0958 46.124 9.06747 46.0673 9.12412C46.0107 9.18078 45.954 9.23744 45.8974 9.2941C45.3875 9.83233 44.972 10.4366 44.566 11.0599C44.4432 11.2582 44.311 11.4564 44.1788 11.6453C44.0277 11.8719 43.8861 12.0891 43.735 12.3063C43.6783 12.3818 43.6217 12.4857 43.5462 12.5801C43.3951 12.7879 43.2062 12.9862 42.9702 12.9956C42.9607 12.9956 42.9513 12.9956 42.9418 12.9956C42.8946 13.005 42.8474 13.0334 42.8096 13.0711C42.7624 13.1089 42.7341 13.1656 42.6963 13.2128C42.6397 13.3072 42.583 13.4205 42.5075 13.4961C42.4791 13.5244 42.3469 13.6377 42.3186 13.6377C42.007 13.6377 41.686 13.7038 41.4688 13.9304C41.2799 14.1287 41.2327 14.4025 41.3083 14.6575H41.2988ZM41.5632 14.1759C41.6765 14.0248 41.8654 13.836 42.0731 13.836C42.0731 13.836 42.0731 13.836 42.0825 13.836C42.092 13.836 42.1014 13.836 42.1109 13.836C42.3092 13.8643 42.4225 14.0909 42.413 14.2703C42.3942 14.4875 42.2525 14.6575 42.0731 14.7708C41.922 14.8652 41.7237 14.9502 41.5632 14.8086C41.5066 14.7519 41.4688 14.6764 41.4593 14.6008C41.431 14.4403 41.4593 14.3081 41.5632 14.1759Z" fill="#A9CCFF"/>
<path d="M43.9536 14.2861C43.8686 14.4372 43.8025 14.5883 43.7836 14.7582C43.7364 15.202 44.1991 15.8819 44.709 15.5609C44.7467 15.542 44.7751 15.5136 44.8034 15.4853C45.0017 15.3059 45.0961 15.0415 45.0489 14.7771C44.9828 14.475 44.7373 14.2483 44.4729 14.0878C44.4446 14.0689 44.3974 13.899 44.3879 13.8612C44.3596 13.7573 44.3785 13.6346 44.3691 13.5212C44.3691 13.4646 44.369 13.3985 44.3502 13.3418C44.3313 13.2852 44.3029 13.2285 44.2463 13.1907C44.2368 13.1907 44.2274 13.1813 44.218 13.1719C44.1896 13.1719 44.1613 13.1813 44.133 13.1907C44.0574 13.2191 43.9913 13.2663 43.9252 13.3041C44.1235 13.5968 44.1141 13.9745 43.9441 14.2767L43.9536 14.2861ZM44.0574 14.5788C44.1424 14.4183 44.3596 14.2767 44.539 14.3616C44.539 14.3616 44.5579 14.3711 44.5673 14.3711C44.5673 14.3711 44.5673 14.3711 44.5768 14.3711C44.7562 14.4749 44.8223 14.7393 44.8317 14.9282C44.8412 15.0887 44.8034 15.2209 44.6995 15.3437C44.6429 15.4003 44.5768 15.4475 44.5012 15.4664C44.2935 15.5136 44.1708 15.3342 44.0858 15.1737C43.9913 14.9849 43.963 14.7582 44.0574 14.5694V14.5788Z" fill="#404082"/>
<path d="M45.0483 14.7849C45.02 14.6433 44.9445 14.5111 44.85 14.3978C44.7462 14.275 44.614 14.1806 44.4818 14.0956C44.4535 14.0767 44.4062 13.9068 44.3968 13.869C44.3685 13.7651 44.3874 13.6329 44.3779 13.5291C44.3779 13.4724 44.3779 13.4063 44.359 13.3496C44.3401 13.293 44.3118 13.2363 44.2552 13.1986C44.2552 13.1986 44.2363 13.1891 44.2268 13.1797C44.1985 13.1797 44.1702 13.1891 44.1419 13.1986C44.0663 13.2269 44.0002 13.2741 43.9341 13.3119C44.1324 13.6046 44.123 13.9729 43.9624 14.275C43.9624 14.275 43.9624 14.275 43.9624 14.2845C43.8775 14.4356 43.8114 14.5866 43.7925 14.7566C43.7925 14.8133 43.7925 14.8794 43.7925 14.9454C43.8491 15.2759 44.1135 15.6348 44.4346 15.6442C44.5196 15.6442 44.614 15.6159 44.7179 15.5592C44.7556 15.5403 44.7839 15.512 44.8123 15.4837C45.0106 15.3043 45.105 15.0399 45.0578 14.7755L45.0483 14.7849ZM44.699 15.3515C44.6423 15.4081 44.5762 15.4553 44.5007 15.4742C44.2929 15.5214 44.1702 15.342 44.0852 15.1815C43.9908 14.9927 43.9624 14.766 44.0569 14.5772C44.1135 14.4733 44.2174 14.3789 44.3401 14.3506C44.4062 14.3317 44.4818 14.3317 44.5479 14.36C44.5479 14.36 44.5668 14.3695 44.5762 14.3695C44.5762 14.3695 44.5762 14.3695 44.5857 14.3695C44.7651 14.4733 44.8312 14.7377 44.8406 14.9266C44.8501 15.0871 44.8123 15.2193 44.7084 15.342L44.699 15.3515Z" fill="#404082"/>
<path d="M41.2995 14.6619C41.2995 14.6619 41.3278 14.7374 41.3372 14.7752C41.6111 15.3229 42.357 14.983 42.5459 14.5675C42.6214 14.407 42.6403 14.2464 42.6498 14.0765C42.6498 13.746 42.8292 13.4438 43.1219 13.2833C43.0747 13.2172 43.0369 13.1416 42.9897 13.0755C42.9708 13.0472 42.9519 13.0283 42.933 13C42.8858 13.0094 42.8386 13.0378 42.8008 13.0755C42.7536 13.1133 42.7253 13.17 42.6875 13.2172C42.6309 13.3116 42.5742 13.4249 42.4987 13.5005C42.4703 13.5288 42.3381 13.6421 42.3098 13.6421C41.9982 13.6421 41.6772 13.7082 41.46 13.9348C41.2711 14.1331 41.2239 14.4069 41.2995 14.6619ZM41.5639 14.1803C41.6772 14.0292 41.866 13.8404 42.0738 13.8404C42.0738 13.8404 42.0738 13.8404 42.0832 13.8404C42.0926 13.8404 42.1021 13.8404 42.1115 13.8404C42.3098 13.8687 42.4231 14.0953 42.4137 14.2747C42.3948 14.4919 42.2532 14.6619 42.0738 14.7752C41.9227 14.8696 41.7244 14.9546 41.5639 14.813C41.5072 14.7563 41.4694 14.6808 41.46 14.6052C41.4317 14.4447 41.46 14.3125 41.5639 14.1803Z" fill="#404082"/>
<path d="M43.5945 12.7489C43.5945 12.7489 43.6511 12.7773 43.6794 12.7773C43.7172 12.7773 43.755 12.7773 43.7833 12.7489C43.8116 12.7112 43.8305 12.6545 43.8116 12.6073C43.7644 12.5034 43.5756 12.5223 43.5661 12.6356C43.5378 12.6734 43.5567 12.73 43.5945 12.7584V12.7489Z" fill="#404082"/>
<path d="M43.5281 8.2525C43.5281 8.2525 43.6036 8.2336 43.6225 8.2997C43.6414 8.37524 43.6603 8.45078 43.6792 8.53577C43.8302 9.26285 43.8775 9.99937 43.8964 10.7359C43.8964 10.972 43.9058 11.208 43.9152 11.4441C43.9152 11.6802 43.9341 11.9162 43.9436 12.1428C43.8586 12.124 43.783 12.0295 43.7453 11.9729C43.6886 11.869 43.6886 11.7463 43.6886 11.6235C43.6603 10.5093 43.6036 9.40449 43.5281 8.29026C43.5281 8.28082 43.5281 8.27139 43.5281 8.2525Z" fill="#6981B7"/>
<path d="M44.6611 15.3716C44.4911 15.5038 44.2267 15.4566 44.0757 15.2866C43.9812 15.1733 43.8868 15.06 43.7829 14.9467C43.6602 14.8145 43.5374 14.7012 43.3864 14.6256C43.2825 14.569 43.1786 14.5407 43.0842 14.484C42.9803 14.4273 42.8953 14.3612 42.8387 14.2574C42.7726 14.1157 42.8104 14.0213 42.9048 13.9835C42.9709 13.9552 43.0653 13.9552 43.1597 13.9741C43.2825 14.0024 43.3958 14.0591 43.5091 14.1063C43.6507 14.1724 43.8018 14.229 43.9624 14.2668C44.0379 14.2857 44.1229 14.3046 44.1984 14.3235C44.2645 14.3329 44.3401 14.3424 44.4062 14.3518C44.4534 14.3518 44.4911 14.3707 44.5384 14.3896C44.7555 14.484 44.8027 14.7673 44.8216 14.975C44.8216 15.0789 44.8122 15.1922 44.7555 15.2772C44.7272 15.3149 44.6989 15.3433 44.6705 15.3716H44.6611Z" fill="#F7967C"/>
<path d="M43.9336 14.1933C43.7353 14.1744 43.537 14.1083 43.3481 14.0422C43.2065 13.9855 43.0082 13.8628 42.8571 13.9761C42.7343 14.0705 42.7721 14.2499 42.8571 14.3538C42.961 14.4766 43.112 14.5521 43.2537 14.6182C43.4142 14.7032 43.5842 14.7882 43.6881 14.9392C43.7069 14.9581 43.7825 14.9487 43.7636 14.9298C43.5936 14.6937 43.3009 14.6182 43.0743 14.4671C42.9515 14.3916 42.8099 14.2499 42.8665 14.0894C42.876 14.0611 42.8949 14.0328 42.9138 14.0139C42.961 13.9761 43.0176 13.9855 43.0648 13.995C43.1498 14.0233 43.2348 14.0611 43.3198 14.0894C43.5086 14.165 43.7069 14.2216 43.9052 14.2405C43.943 14.2405 43.9808 14.2027 43.9241 14.2027L43.9336 14.1933Z" fill="#DB6357"/>
<path d="M45.095 15.8166C44.925 15.8166 44.7645 15.7505 44.6323 15.656C44.6134 15.6372 44.5378 15.656 44.5756 15.6844C44.7267 15.7882 44.9156 15.8543 45.095 15.8543C45.1044 15.8543 45.1327 15.8543 45.1327 15.8355C45.1327 15.8166 45.1044 15.8166 45.095 15.8166Z" fill="#DB6357"/>
<path d="M60.5633 23.7284C60.365 23.5396 60.1478 23.3696 59.9306 23.1902C59.7229 23.0202 59.5529 22.8786 59.2791 22.8408C58.958 22.8031 58.6087 22.8219 58.2782 22.8125C58.0232 22.8125 57.7683 22.8314 57.5605 22.9919C57.3434 23.1524 57.2206 23.3885 57.1639 23.6529C57.1545 23.7095 57.1451 23.7851 57.1356 23.8701C56.8807 24.2572 56.6729 24.7105 56.6541 25.1732C56.6257 25.7964 57.2206 25.7869 57.5511 26.1741C57.891 26.5801 58.231 26.8067 58.7786 26.8162C59.3452 26.8162 59.9023 26.5895 60.365 26.2685C60.7521 26.0041 61.111 25.6453 61.1959 25.1732C61.2904 24.6066 60.941 24.0967 60.5444 23.7284H60.5633Z" fill="#D83F4E"/>
<path d="M63.4813 18.2826C63.4813 18.0749 63.453 17.8671 63.3303 17.6971C63.2169 17.5366 63.0375 17.4422 62.8959 17.31C62.6976 17.1212 62.5654 16.8662 62.3482 16.6962C62.0272 16.4507 61.5551 16.4696 61.1962 16.6679C60.6674 16.9512 60.4975 17.4705 60.1764 17.9143C60.0253 18.1221 59.8459 18.3676 59.8459 18.6414C59.8459 18.953 60.1198 19.123 60.1859 19.4157C60.2331 19.614 60.1387 19.8501 60.252 20.02C60.337 20.1428 60.5164 20.1806 60.6674 20.1994C61.1301 20.2561 61.5928 20.2844 62.0555 20.2939C62.2255 20.2939 62.4049 20.2939 62.5654 20.2467C62.8581 20.1522 63.0753 19.8973 63.2075 19.6234C63.3397 19.3402 63.3869 19.038 63.4341 18.7358C63.453 18.5942 63.4813 18.4431 63.4813 18.3015V18.2826Z" fill="#D83F4E"/>
<path d="M56.8993 14.1219C56.8898 14.3108 56.937 14.4902 56.9276 14.6696C56.8993 15.2739 56.3799 15.7083 55.87 15.9444C55.4546 16.1332 54.9919 16.2371 54.5386 16.1993C54.3403 16.1804 54.142 16.1332 53.9626 16.0482C53.7738 15.9633 53.5849 15.8216 53.4338 15.6422C53.4338 15.6139 53.4527 15.5855 53.4622 15.5667C53.7454 14.4713 54.2554 13.5932 55.2563 13.0077C55.3696 12.9416 55.464 12.885 55.5584 12.8472C55.6528 12.7905 55.7473 12.7339 55.8417 12.6772C56.0589 12.545 56.295 12.4317 56.5216 12.2995C56.5782 12.2712 56.6254 12.2429 56.6821 12.2051C56.7104 12.1862 56.7482 12.1673 56.7765 12.1484C56.9559 12.2712 57.0976 12.4412 57.1542 12.6678C57.2298 12.9699 57.1353 13.2627 57.0409 13.5459C56.9843 13.7065 56.9371 13.867 56.9087 14.037C56.9087 14.0653 56.9087 14.0936 56.9087 14.1219H56.8993Z" fill="#D83F4E"/>
<path d="M55.9078 20.5282C55.87 20.4337 55.8228 20.3488 55.7662 20.2638C55.6434 20.0938 55.4546 19.9616 55.2563 19.9522C55.0391 19.9333 54.8219 20.0466 54.6236 19.9805C54.4064 19.9144 54.3026 19.6783 54.1232 19.5461C53.8115 19.3101 53.33 19.4328 53.0656 19.7256C52.7634 20.0655 52.8106 20.4526 52.6784 20.8492C52.5557 21.2269 52.1874 21.463 52.178 21.8879C52.178 22.7472 53.4244 23.2004 54.0665 23.5026C54.3592 23.6442 54.7086 23.682 55.0202 23.5876C55.3318 23.4931 55.6056 23.2571 55.719 22.9455C55.8512 22.5867 55.7662 22.1712 55.8889 21.8029C55.955 21.6141 56.0778 21.4347 56.0967 21.2364C56.1061 21.0947 56.0683 20.9625 56.0306 20.8209C56.0022 20.717 55.9645 20.6132 55.9267 20.5187L55.9078 20.5282Z" fill="#D83F4E"/>
<path d="M67.5783 14.2232C67.4839 14.582 67.3139 15.0069 67.0401 15.2713C66.9457 15.3563 66.8229 15.3846 66.7002 15.3657C66.5963 15.3468 66.5113 15.2902 66.4074 15.2807C66.2941 15.2619 66.1808 15.2807 66.0769 15.3185C65.9636 15.3468 65.822 15.3752 65.6992 15.3657C65.5482 15.3563 65.4065 15.2902 65.3404 15.1297C65.331 15.1013 65.3121 15.0636 65.3027 15.0352C65.2082 14.8653 65.0666 14.8086 64.9249 14.667C64.7833 14.5253 64.8494 14.3931 64.8777 14.2232C64.906 13.9871 64.7644 13.7888 64.7455 13.5527C64.7361 13.3639 64.8022 13.1656 64.8966 12.9956C65.0571 12.7218 65.3121 12.4102 65.6237 12.3252C65.6898 12.3063 65.7653 12.2969 65.8409 12.2969C66.1525 12.4385 66.4546 12.5707 66.7662 12.7124C67.0306 12.8351 67.295 12.9579 67.5405 13.1089C67.5405 13.1089 67.55 13.1278 67.55 13.1373C67.5878 13.2223 67.6161 13.3072 67.635 13.4017C67.6822 13.6755 67.635 13.9777 67.5689 14.2326L67.5783 14.2232Z" fill="#D83F4E"/>
<path d="M69.7223 20.6379C69.7223 20.4207 69.5995 20.2885 69.439 20.1658C69.3352 20.0903 69.2691 20.0242 69.203 19.9014C69.1557 19.807 69.1274 19.7125 69.0519 19.6464C68.9763 19.5803 68.8819 19.5426 68.778 19.5331C68.1832 19.1838 67.4183 19.3537 66.8801 19.7503C66.729 19.8636 66.5496 19.9958 66.4457 20.1563C66.3324 20.3358 66.3891 20.534 66.3985 20.7323C66.3985 20.9684 66.3513 21.1761 66.3041 21.4028C66.2663 21.5822 66.2758 21.7521 66.4363 21.8749C66.5496 21.9599 66.7007 21.9788 66.8329 22.0071C67.0784 22.0638 67.0878 22.2054 67.2011 22.3942C67.3994 22.7436 67.8527 22.6303 68.1926 22.6209C68.5703 22.602 68.9858 22.6209 69.2785 22.3565C69.4107 22.2337 69.5146 22.0826 69.609 21.9316C69.7318 21.7333 69.7223 21.5916 69.6845 21.365C69.6373 21.1195 69.7317 20.8929 69.7223 20.6474V20.6379Z" fill="#D83F4E"/>
<path d="M67.4185 27.3806C67.3618 27.5317 67.3241 27.7111 67.258 27.8622C66.7575 27.7488 66.2665 27.5033 65.766 27.3522C65.6055 27.305 65.445 27.2673 65.2939 27.2484C65.0862 27.2201 64.8879 27.2201 64.6801 27.2673C64.3591 27.3428 64.0853 27.5033 63.8398 27.7205C63.7453 27.6355 63.6698 27.5317 63.6131 27.4089C63.4526 27.0312 63.5754 26.6063 63.7831 26.2758C64.208 25.5959 64.9445 25.0294 65.7755 25.2654C65.9549 25.256 66.1343 25.2466 66.3043 25.2466C66.4742 25.2466 66.6631 25.2466 66.7953 25.3787C66.9558 25.5487 67.0502 25.8226 67.1636 26.0303C67.2863 26.2569 67.4752 26.5119 67.5413 26.7574C67.5979 26.9651 67.4846 27.1823 67.4185 27.3806Z" fill="#D83F4E"/>
<path d="M60.1477 32.3791C60.1477 32.3791 60.1099 32.4169 60.091 32.4452C59.279 33.2667 58.2497 33.8238 57.1544 34.1637C57.0788 34.1071 57.0033 34.0504 56.9277 33.9843C56.6728 34.1732 56.314 34.2109 56.0118 34.0976C55.5869 33.9466 55.3603 33.465 55.4264 33.0306C55.4641 32.7946 55.5586 32.5774 55.7097 32.398C55.7946 32.2941 55.8891 32.2091 56.0024 32.143C56.1251 32.0675 56.2762 32.0297 56.3329 31.8786C56.3801 31.7464 56.3329 31.6048 56.3612 31.4726C56.3801 31.3498 56.4462 31.246 56.5217 31.1515C56.7295 30.8588 56.9466 30.585 57.1544 30.3017C57.1827 30.2639 57.2488 30.2451 57.3243 30.2356C57.6832 29.8013 58.4102 29.8768 58.8068 30.2356C59.0523 30.4622 59.1657 30.755 59.2695 31.0571C59.3451 31.2743 59.4489 31.4159 59.6378 31.5481C59.7511 31.6237 59.8644 31.6992 59.9588 31.8031C60.1005 31.9636 60.1477 32.1714 60.1571 32.3791H60.1477Z" fill="#D83F4E"/>
<path d="M62.2439 18.1855C62.1117 17.9778 61.8379 17.8928 61.6018 17.9306C61.3374 17.9684 61.1203 18.1289 61.0542 18.3933C60.9881 18.6577 61.1014 18.8371 61.3563 18.8937C61.6113 18.9504 61.9323 19.0543 62.1212 18.8088C62.1495 18.7804 62.1684 18.7427 62.1873 18.6955C62.2439 18.6482 62.2817 18.5916 62.31 18.5255C62.3383 18.4122 62.31 18.2894 62.2439 18.195V18.1855Z" fill="#E6EEFC"/>
<path d="M59.1656 24.5611C59.1089 24.5422 59.0428 24.5422 58.9956 24.5233C58.9673 24.5139 58.9389 24.4761 58.9106 24.4572C58.8162 24.4006 58.684 24.3911 58.5801 24.4289C58.4007 24.4856 58.278 24.7122 58.2968 24.8916C58.3252 25.0899 58.599 25.2221 58.769 25.2882C58.7973 25.2976 58.8351 25.3071 58.8634 25.3165C58.8823 25.3165 58.9106 25.326 58.9295 25.3354C59.1467 25.3637 59.345 25.2315 59.4016 25.0143C59.4488 24.8255 59.3544 24.6366 59.1656 24.5611Z" fill="#E6EEFC"/>
<path d="M54.5566 21.3011C54.4433 21.1028 54.2072 20.999 53.9806 21.0084C53.754 21.0084 53.5085 21.1784 53.4518 21.405C53.4046 21.5938 53.5462 21.896 53.7256 21.981C53.8767 22.0565 54.0845 22.0376 54.2355 21.9527C54.3111 21.9527 54.3866 21.9338 54.4527 21.8866C54.6321 21.7544 54.6605 21.49 54.5566 21.3011Z" fill="#E6EEFC"/>
<path d="M58.7214 32.5378C58.7025 32.415 58.5892 32.3584 58.5042 32.2923C58.4004 32.2167 58.3154 32.1223 58.1926 32.0751C58.0038 32.009 57.7111 32.0184 57.6166 32.2356C57.5978 32.2923 57.5883 32.3489 57.5883 32.4056C57.5033 32.5094 57.4939 32.6416 57.6166 32.7455C57.7772 32.8871 58.0321 33.1138 58.2682 33.0194C58.3909 32.9721 58.4854 32.8588 58.5892 32.7738C58.6648 32.7077 58.7497 32.6511 58.7309 32.5378H58.7214Z" fill="#E6EEFC"/>
<path d="M65.7658 27.3473C65.6052 27.3001 65.4447 27.2623 65.2936 27.2434C65.2936 27.2434 65.2275 27.1867 65.1992 27.1584C65.1709 27.1395 65.1426 27.1301 65.1237 27.1112C65.0292 27.0262 64.897 26.8185 64.9915 26.6957C65.0859 26.573 65.3314 26.5824 65.4636 26.573C65.6147 26.5635 65.8224 26.573 65.9168 26.7052C65.9641 26.7713 65.9641 26.8468 65.9641 26.9224C65.9641 27.0073 66.0113 27.064 66.0207 27.149C66.0207 27.2906 65.898 27.3473 65.7658 27.3567V27.3473Z" fill="#E6EEFC"/>
<path d="M68.494 20.6716C68.3902 20.5205 68.2013 20.4922 68.0219 20.4922C67.8331 20.4922 67.7009 20.5677 67.6442 20.7566C67.597 20.9171 67.5687 21.0965 67.7103 21.2193C67.7103 21.2193 67.7292 21.2287 67.7386 21.2381C67.767 21.2665 67.7953 21.2854 67.8425 21.2948C67.8708 21.2948 67.8992 21.2948 67.9275 21.2948C67.9558 21.2948 67.9936 21.2948 68.0314 21.2948C68.0408 21.2948 68.0597 21.3042 68.0691 21.3137C68.2863 21.3892 68.3902 21.2382 68.5035 21.0871C68.6168 20.9454 68.5885 20.8038 68.494 20.6621V20.6716Z" fill="#E6EEFC"/>
<path d="M66.4935 13.583C66.4935 13.583 66.4934 13.5641 66.5029 13.5547C66.5123 13.5169 66.5218 13.4886 66.5312 13.4603C66.5312 13.413 66.4746 13.3753 66.4368 13.3658C66.1346 13.2903 65.7097 13.4036 65.7097 13.7813C65.7097 14.1024 66.0874 14.3101 66.3518 14.1401C66.5123 14.1024 66.6256 13.9418 66.6823 13.7908C66.739 13.6491 66.6256 13.6019 66.5029 13.583H66.4935Z" fill="#E6EEFC"/>
<path d="M55.332 13.5688C55.1809 13.4271 54.9354 13.4744 54.756 13.5405C54.605 13.5971 54.4444 13.6632 54.3406 13.8049C54.2367 13.9559 54.2745 14.1259 54.4444 14.1825C54.4822 14.192 54.52 14.2014 54.5577 14.2109C54.6238 14.2864 54.7844 14.3148 54.8693 14.2959C54.9638 14.277 55.0393 14.2298 55.1148 14.1825C55.1904 14.1353 55.2943 14.0976 55.3509 14.022C55.4359 13.9182 55.4076 13.6538 55.3131 13.5688H55.332Z" fill="#E6EEFC"/>
<path d="M58.6743 20.3746C58.6743 20.3746 58.7215 20.3274 58.6932 20.2896C58.6271 20.1669 58.5515 20.0441 58.476 19.9308C58.3816 19.7608 58.2683 19.6003 58.1361 19.4492C58.0794 19.3737 58.0228 19.3076 57.9567 19.2415C57.8056 19.0715 57.4279 18.7033 57.1824 18.9677C56.9557 19.2132 57.4184 19.657 57.5506 19.8364C57.7773 20.1291 58.0039 20.4407 58.391 20.5257C58.4666 20.5446 58.7215 20.5446 58.6743 20.4029V20.384V20.3746Z" fill="#D83F4E"/>
<path d="M59.5149 15.2535C59.496 15.1685 59.4394 15.1213 59.3638 15.093C59.2883 15.0363 59.0994 15.0269 59.0333 15.093C58.8539 15.1685 58.7784 15.3479 58.6934 15.5179C58.6651 15.5746 58.6368 15.6406 58.6179 15.6973C58.5423 15.8484 58.3629 16.16 58.4196 16.33C58.4762 16.4811 58.6934 16.481 58.8162 16.4244C59.005 16.3394 59.175 16.0467 59.2788 15.8673C59.3733 15.7068 59.5621 15.4329 59.5149 15.2346V15.2535Z" fill="#D83F4E"/>
<path d="M62.6306 23.0349C62.5645 22.9027 62.47 22.7422 62.3473 22.6383C62.3378 22.5628 62.2151 22.525 62.1112 22.5439C61.9696 22.5344 61.8374 22.5911 61.809 22.7422C61.7335 23.1577 62.0357 23.847 62.3945 24.0547C62.4889 24.1019 62.6117 24.0925 62.6966 24.0358C62.7439 24.0075 62.7627 23.9508 62.7722 23.8847C62.8855 23.6864 62.7061 23.2049 62.6211 23.0443L62.6306 23.0349Z" fill="#D83F4E"/>
<path d="M66.5403 16.335C66.4459 16.0801 66.0588 16.1651 66.0021 16.4011C66.0021 16.4106 66.0021 16.42 66.0021 16.4295C65.9266 16.59 65.8605 16.76 65.8132 16.9299C65.7755 17.0716 65.6811 17.2982 65.7283 17.4398C65.8132 17.7042 66.1909 17.6003 66.3137 17.4304C66.4176 17.2793 66.4742 17.081 66.512 16.9016C66.5498 16.7411 66.6159 16.4861 66.5592 16.3256L66.5403 16.335Z" fill="#D83F4E"/>
<path d="M58.9582 12.0474C58.977 12.1985 58.6654 12.1419 58.5993 12.1041C58.4199 11.9719 58.2877 11.8114 58.1933 11.632C58.1555 11.5848 58.1272 11.5281 58.0989 11.4714C58.0989 11.4526 58.08 11.4337 58.0706 11.4054C58.25 11.3015 58.4199 11.1976 58.5993 11.0938C58.6182 11.1126 58.6277 11.1315 58.6371 11.1504C58.7882 11.377 58.8826 11.632 58.9298 11.8964C58.9393 11.8964 58.9487 11.9058 58.9582 11.9153C59.0526 11.9625 59.0243 12.0097 58.9582 12.0474Z" fill="#D83F4E"/>
<path d="M55.077 17.2712C54.9731 17.1862 54.7748 17.1956 54.6521 17.2712C54.5954 17.2712 54.5482 17.2995 54.5293 17.3467C54.4349 17.545 54.3688 17.7527 54.331 17.9699C54.3027 18.1588 54.246 18.4704 54.331 18.6498C54.3782 18.7631 54.5104 18.8103 54.6332 18.7914C54.8315 18.7631 54.8881 18.5837 54.9542 18.4137C55.0392 18.206 55.0959 17.9888 55.1336 17.7622C55.1525 17.6111 55.2186 17.3751 55.077 17.2712Z" fill="#D83F4E"/>
<path d="M56.7008 27.9558C56.578 27.8519 56.3797 27.8803 56.2664 27.9841C55.917 28.3052 55.8415 28.9473 55.917 29.3816C55.9359 29.4949 56.1153 29.5044 56.2192 29.4666C56.5686 29.4383 56.7291 28.834 56.7669 28.5601C56.7952 28.3902 56.8519 28.0785 56.7008 27.9463V27.9558Z" fill="#D83F4E"/>
<path d="M60.1665 28.1016C59.8738 28.1488 59.9399 28.4509 59.9588 28.6681C59.9777 28.942 59.9588 29.2819 60.1948 29.4707C60.2421 29.584 60.3176 29.669 60.4498 29.7163C60.5348 29.7446 60.7236 29.7446 60.7425 29.6218C60.8086 29.2347 60.8653 27.9977 60.1665 28.111V28.1016Z" fill="#D83F4E"/>
<path d="M68.665 24.3422C68.5895 24.1627 68.5234 23.9645 68.3062 23.9267C68.1835 23.9078 68.0607 23.9456 67.9757 24.0211C67.9474 24.04 67.9191 24.0589 67.9191 24.0966C67.9191 24.1061 67.9096 24.125 67.9002 24.1344C67.7774 24.4932 68.0796 24.8993 68.3629 25.0881C68.4006 25.1165 68.429 25.1448 68.4667 25.1542C68.6178 25.2109 68.8161 25.1542 68.8444 24.9748C68.8822 24.7671 68.7311 24.5121 68.6556 24.3327L68.665 24.3422Z" fill="#D83F4E"/>
<path d="M69.9874 19.2807C69.8929 19.3373 69.6947 19.3279 69.6569 19.2334C69.468 18.7896 69.5247 18.2986 69.638 17.8359C69.7513 18.2514 69.8457 18.6763 69.9496 19.0918C69.959 19.1485 69.9779 19.2146 69.9968 19.2712L69.9874 19.2807Z" fill="#D83F4E"/>
<path d="M60.4959 13.6793C60.1748 13.9814 59.8444 14.2647 59.4855 14.5197C59.0984 13.7548 58.7679 12.9522 58.5035 12.1401C58.428 11.9041 58.3524 11.6585 58.2863 11.413C58.2769 11.3658 58.1258 11.3753 58.1447 11.4319C58.3808 12.2912 58.6829 13.1316 59.0512 13.9342C59.155 14.1608 59.2684 14.3875 59.3817 14.6141C59.4006 14.6519 59.4761 14.6519 59.5044 14.633C59.901 14.3591 60.2693 14.0475 60.6187 13.717C60.6659 13.6698 60.5337 13.6415 60.4959 13.6793Z" fill="#272443"/>
<path d="M65.037 11.9531C65.0276 11.8964 64.8859 11.9059 64.8953 11.9531C65.037 12.5763 65.2542 13.1901 65.2353 13.8322C64.952 13.7189 64.6687 13.5961 64.3949 13.4545C64.3666 13.4356 64.3193 13.4356 64.291 13.4545C64.2627 13.4733 64.2627 13.4922 64.291 13.5111C64.6121 13.6716 64.9331 13.8133 65.2636 13.9455C65.2919 13.9549 65.3675 13.9455 65.3769 13.9077C65.4147 13.2373 65.1786 12.5952 65.037 11.9436V11.9531Z" fill="#272443"/>
<path d="M64.8115 19.2942C64.8115 19.2942 64.8115 19.2186 64.7926 19.1809C64.7737 19.1431 64.7454 19.1242 64.717 19.1053C64.6887 19.0864 64.6604 19.0676 64.6321 19.0581C64.5471 19.0015 64.4243 19.0015 64.3393 19.0581C64.2543 19.1148 64.2166 19.2092 64.226 19.3131C64.226 19.3414 64.226 19.3697 64.2449 19.3981C64.2449 19.4169 64.2638 19.4358 64.2827 19.4453C64.3299 19.5586 64.4621 19.6247 64.5848 19.6058C64.6509 19.6058 64.717 19.568 64.7642 19.5114C64.8209 19.4547 64.8209 19.3697 64.8209 19.2942H64.8115Z" fill="#272443"/>
<path d="M65.0944 23.3411C65.0944 23.3411 65.0944 23.2655 65.0755 23.2278C65.0567 23.19 65.0283 23.1711 65 23.1522C64.9717 23.1333 64.9434 23.1144 64.915 23.105C64.83 23.0483 64.7073 23.0483 64.6223 23.105C64.5373 23.1616 64.4995 23.2561 64.509 23.3599C64.509 23.3883 64.509 23.4166 64.5279 23.4449C64.5279 23.4638 64.5468 23.4827 64.5657 23.4921C64.6129 23.6055 64.7451 23.6715 64.8678 23.6527C64.9339 23.6527 65 23.6149 65.0472 23.5582C65.1039 23.5016 65.1039 23.4166 65.1039 23.3411H65.0944Z" fill="#272443"/>
<path d="M68.3997 18.2192C68.6358 17.7188 68.8246 17.19 68.9474 16.6517C68.9568 16.6045 68.8152 16.5951 68.8057 16.6517C68.683 17.1616 68.513 17.6621 68.2864 18.1342C68.1448 17.5677 67.9465 17.02 67.6632 16.5195C67.6349 16.4723 67.4932 16.4912 67.5215 16.5384C68.0787 17.5393 68.3147 18.6819 68.3997 19.815C68.4469 20.4288 68.4564 21.0425 68.4469 21.6563C68.4469 22.2701 68.4469 22.8933 68.4469 23.5071C68.4469 24.2058 68.4469 24.9046 68.4658 25.6033C68.4658 25.66 68.6075 25.66 68.6075 25.6033C68.5886 24.3569 68.5886 23.1105 68.598 21.8735C68.598 20.6743 68.598 19.4656 68.3242 18.2947C68.3242 18.2853 68.3242 18.2759 68.3242 18.257C68.3619 18.257 68.3903 18.257 68.4092 18.2286L68.3997 18.2192Z" fill="#272443"/>
<path d="M56.6057 20.125C56.4357 21.4469 56.1713 22.7595 55.8125 24.0437C55.7087 24.4025 55.6048 24.7707 55.4915 25.1201C55.4726 25.1768 55.6142 25.1862 55.6331 25.139C56.0391 23.8642 56.3507 22.5612 56.5774 21.2486C56.6435 20.8709 56.7001 20.5027 56.7473 20.125C56.7473 20.0778 56.6057 20.0683 56.6057 20.125Z" fill="#272443"/>
<path d="M56.6525 18.3363C56.558 17.9681 56.4542 17.5998 56.3597 17.2221C56.2748 16.8822 56.1898 16.5422 56.0859 16.2118C55.897 15.6169 55.6043 15.0314 55.085 14.6537C54.8111 14.4649 54.4995 14.3516 54.169 14.3516C54.1502 14.3516 54.0935 14.3516 54.0935 14.3893C54.0935 14.4271 54.1407 14.4271 54.169 14.4271C54.745 14.4271 55.2455 14.8426 55.5382 15.3053C55.8876 15.8624 56.0387 16.5234 56.1992 17.156C56.3031 17.5526 56.4069 17.9492 56.5108 18.3458C56.5203 18.393 56.6619 18.3836 56.6525 18.3269V18.3363Z" fill="#272443"/>
<path d="M54.3112 24.215C54.009 23.3652 53.4425 22.6192 52.7154 22.0904C52.5076 21.9394 52.2905 21.8072 52.0638 21.6939C52.0355 21.675 51.9883 21.675 51.96 21.6939C51.9316 21.7127 51.9316 21.7316 51.96 21.7505C52.7531 22.1471 53.4236 22.7798 53.8579 23.554C53.9807 23.7712 54.0845 23.9978 54.1695 24.2339C54.1884 24.2811 54.3301 24.2717 54.3112 24.215Z" fill="#272443"/>
<path d="M70.1844 20.2768C70.1655 20.2107 70.0805 20.2107 70.0333 20.2296C69.9672 20.2579 69.9106 20.324 69.8539 20.3807C69.7406 20.494 69.6273 20.6262 69.5329 20.7584C69.3346 21.0322 69.1835 21.3344 69.0891 21.646C69.0324 21.8254 68.9946 22.0143 68.9663 22.1937C68.9663 22.2409 69.108 22.2503 69.108 22.1937C69.1552 21.8254 69.2685 21.476 69.4384 21.1455C69.5234 20.985 69.6273 20.8245 69.7406 20.6829C69.7973 20.6073 69.8539 20.5412 69.92 20.4751C69.9483 20.4468 69.9861 20.409 70.0144 20.3807C70.0333 20.3618 70.0428 20.3524 70.0617 20.3335C70.0617 20.3335 70.0805 20.3146 70.09 20.3146C70.1372 20.3146 70.1939 20.3146 70.1844 20.2768Z" fill="#272443"/>
<path d="M63.6891 9.46415C63.6607 10.1535 63.6419 10.8428 63.6513 11.5226C63.6513 11.6737 63.6513 11.8248 63.6041 11.9664C63.3491 12.6652 62.3388 12.6274 61.7439 12.5424C61.1584 12.4575 60.5636 12.3441 60.0348 12.0892C59.7704 11.9664 59.506 11.7776 59.4304 11.4943C59.3738 11.2866 59.4305 11.0788 59.4777 10.8711C59.5626 10.4462 59.4871 10.059 59.4777 9.63412C59.4777 9.56802 59.4777 9.49248 59.4777 9.42638C59.4777 9.09589 59.4777 8.76539 59.4777 8.44434C59.4777 8.37825 59.4777 8.31215 59.4777 8.25549C59.4965 7.86835 59.4399 7.17905 59.7421 6.87688C60.0442 6.58416 60.7052 6.67858 61.0829 6.67858C61.6872 6.67858 62.2916 6.70692 62.8959 6.77301C63.1131 6.80134 63.3586 6.83911 63.5096 6.99019C63.6891 7.17904 63.6985 7.46232 63.6891 7.72671C63.6891 7.9911 63.708 8.22717 63.7268 8.48212C63.7552 8.79373 63.6891 9.1431 63.6796 9.46415H63.6891Z" fill="#F7967C"/>
<path d="M63.284 8.65058C63.284 8.72612 63.2557 8.80167 63.2274 8.89609C63.0385 9.45321 62.708 9.84979 62.1604 10.067C61.6693 10.2653 61.1028 10.3125 60.5834 10.1708C60.2907 10.0953 60.0263 9.93478 59.828 9.70816C59.592 9.42488 59.5825 9.10383 59.5825 8.74501C59.5825 8.60337 59.5825 8.45228 59.6203 8.31064C59.8469 7.47025 61.1217 7.51746 61.7732 7.6591C62.1698 7.74408 62.5569 7.86684 62.9063 8.07458C63.1896 8.24454 63.3124 8.39563 63.284 8.66003V8.65058Z" fill="#DB6357"/>
<path d="M59.9969 1.27559C60.233 1.10562 60.4879 0.963973 60.7429 0.869547C61.0356 0.756236 61.4322 0.67125 61.7627 0.690135C62.0743 0.70902 62.3765 0.945092 62.6314 1.1245C63.2074 1.55886 63.6795 2.12542 63.9723 2.77696C64.7749 4.53328 64.6521 6.89393 63.5757 8.48973C63.2357 8.98075 62.6409 9.41511 62.0932 9.67006C61.3283 10.0289 60.4596 9.97222 59.7703 9.46232C58.4861 8.51806 58.4106 6.68619 58.2123 5.29813C58.1745 5.04318 58.1367 4.78823 58.1367 4.53328C58.1273 3.79676 58.3822 3.06967 58.8072 2.47479C59.1093 2.04987 59.5342 1.61551 60.0064 1.29446L59.9969 1.27559Z" fill="#F7967C"/>
<path d="M64.1624 5.82729C64.068 5.66677 63.9358 5.47792 63.8602 5.3174C63.6997 4.96802 63.5392 4.60919 63.3692 4.25982C63.2276 3.95765 63.0482 3.71215 62.8593 3.43831C62.6327 3.10782 62.3966 2.78677 62.1511 2.47517C61.9245 2.173 61.7923 1.8614 61.6129 1.52147C61.4901 2.5035 60.848 3.40999 59.9604 3.85379C59.6772 3.99543 59.3656 4.09931 59.1106 4.28816C58.7518 4.57144 58.5535 5.01523 58.3174 5.40238C58.0719 5.78953 57.7131 6.17667 57.2504 6.18612C57.2126 6.18612 57.1749 6.18612 57.1371 6.15779C57.0616 6.10113 57.0899 5.98781 57.1277 5.91227C57.2504 5.61011 57.3826 5.30795 57.5337 5.01523C57.6753 4.73195 57.7225 4.44868 57.8359 4.15596C58.1663 3.29668 58.7046 2.53182 59.2806 1.81419C59.4883 1.55924 59.696 1.29485 59.9604 1.08712C60.2815 0.832166 60.7064 0.633862 61.1219 0.605534C61.6129 0.567763 62.0756 0.813275 62.5572 0.756619C62.6705 0.747176 62.7743 0.71884 62.8876 0.71884C63.1237 0.728283 63.2654 0.983245 63.4164 1.14377C63.8697 1.64423 64.1718 2.25799 64.4551 2.86232C64.9461 3.91989 65.4371 5.02467 65.4844 6.21444C65.4844 6.42218 65.3711 8.17851 65.05 8.1974C64.8706 8.1974 64.7951 7.2248 64.7667 7.08316C64.7195 6.83765 64.6156 6.62048 64.5118 6.39385C64.4268 6.205 64.304 6.08224 64.2002 5.91227C64.1813 5.88394 64.1624 5.85562 64.153 5.82729H64.1624Z" fill="#404082"/>
<path d="M64.8699 5.6168C64.9076 5.6829 64.936 5.76789 64.9454 5.85287C65.0115 6.30611 64.7849 6.74047 64.5205 7.06152C64.3505 7.26926 64.1239 7.50532 63.8689 7.53365C63.7556 7.54309 63.6234 7.51477 63.5573 7.40146C63.2741 6.91044 63.7084 5.65459 64.1994 5.46573C64.3127 5.41852 64.4355 5.42795 64.5582 5.43739C64.6432 5.44684 64.7377 5.46573 64.8038 5.52239C64.8321 5.54127 64.851 5.57904 64.8699 5.60737V5.6168Z" fill="#F7967C"/>
<path d="M59.1753 7.41072C59.213 7.34462 59.2414 7.25964 59.2508 7.17466C59.3169 6.72141 59.0903 6.28705 58.8259 5.96601C58.6559 5.75827 58.4293 5.5222 58.1744 5.49388C58.061 5.48443 57.9288 5.51276 57.8628 5.62607C57.5795 6.11709 58.0138 7.37294 58.5048 7.56179C58.6182 7.60901 58.7409 7.59958 58.8637 7.59013C58.9486 7.58069 59.0431 7.5618 59.1092 7.50514C59.1375 7.48625 59.1564 7.44849 59.1753 7.42016V7.41072Z" fill="#F7967C"/>
<path d="M60.8837 5.05469C60.8837 5.05469 60.8837 5.05469 60.8931 5.05469C61.0159 5.06413 60.9781 5.42294 60.9687 5.50793C60.9592 5.69678 60.912 5.88564 60.8553 6.07449C60.7798 6.30111 60.6665 6.51828 60.591 6.74491C60.4965 7.02819 60.8176 7.18872 61.0159 7.25482C61.1197 7.29259 61.0348 7.36812 60.9592 7.3398C60.7798 7.28314 60.5343 7.16983 60.4399 6.97153C60.3927 6.86767 60.4116 6.76379 60.4493 6.66936C60.4965 6.53717 60.5626 6.41442 60.6098 6.29167C60.6854 6.10281 60.742 5.90452 60.7798 5.70623C60.7987 5.60236 60.8081 5.49849 60.8081 5.39462C60.8081 5.30964 60.7704 5.17744 60.827 5.09245C60.8365 5.07357 60.8553 5.06413 60.8837 5.05469Z" fill="#DB6357"/>
<path d="M58.7034 4.9364C58.7034 4.9364 58.694 4.94585 58.6845 4.95529C58.6751 4.95529 58.6279 5.0025 58.6185 4.98362C58.609 4.97417 58.6185 4.94584 58.6185 4.9364C58.6562 4.84197 58.7223 4.76643 58.7979 4.70034C58.9489 4.5587 59.1095 4.45483 59.3078 4.40762C59.5438 4.35096 59.7893 4.34152 60.0348 4.3604C60.167 4.3604 60.4503 4.38873 60.3653 4.61536C60.337 4.6909 60.2426 4.70978 60.167 4.71922C60.0726 4.71922 59.9782 4.71923 59.8932 4.6909C59.761 4.66257 59.6383 4.61536 59.5061 4.60592C59.3739 4.60592 59.2322 4.63425 59.1095 4.68146C59.0056 4.71923 58.9112 4.77588 58.8262 4.84198C58.7884 4.87031 58.7506 4.89864 58.7129 4.92696L58.7034 4.9364Z" fill="#272443"/>
<path d="M63.7655 4.94774C63.7183 4.74945 63.3783 4.56059 63.2084 4.47561C62.8496 4.28676 62.4152 4.21122 62.0186 4.28676C61.8675 4.31509 61.707 4.48505 61.8864 4.60781C61.9431 4.64558 61.9997 4.65502 62.0658 4.66446C62.2169 4.68334 62.368 4.68334 62.5191 4.66446C62.7268 4.64557 62.9345 4.58892 63.1328 4.63613C63.2556 4.66446 63.3594 4.73056 63.4633 4.79665C63.5389 4.84387 63.6711 4.95717 63.756 4.93829L63.7655 4.94774Z" fill="#272443"/>
<path d="M61.9995 7.81515C61.9995 7.81515 61.9711 7.73961 61.905 7.71128C61.7445 7.64518 61.5084 7.70184 61.3479 7.71128C61.1213 7.73961 60.8947 7.71128 60.6681 7.70184C60.5642 7.70184 60.3753 7.71128 60.3564 7.81515C60.3376 7.90013 60.4603 8.01345 60.5264 8.06066C60.6586 8.15509 60.8475 8.22118 61.0458 8.23062C61.093 8.23062 61.1307 8.23062 61.1779 8.23062C61.2252 8.23062 61.2629 8.23062 61.3101 8.23062C61.499 8.22118 61.6878 8.15509 61.8295 8.06066C61.8956 8.01345 62.0089 7.90013 62.0089 7.81515H61.9995Z" fill="white"/>
<path d="M59.7042 5.38281C59.7798 5.38281 59.8364 5.4017 59.8742 5.43947C59.8931 5.44891 59.912 5.4678 59.9309 5.48668C59.9592 5.51501 59.9686 5.55278 59.9686 5.59055C59.9686 5.60944 59.9781 5.62832 59.9875 5.6472C59.997 5.70386 59.997 5.77941 59.9875 5.84551C59.9875 5.88328 59.9875 5.92105 59.9686 5.94937C59.9497 6.00603 59.8836 6.0438 59.8175 6.05324C59.7514 6.08157 59.657 6.06268 59.6193 6.01547C59.5248 5.92104 59.5154 5.76997 59.5154 5.65666C59.5154 5.55279 59.5626 5.41115 59.7231 5.39226L59.7042 5.38281Z" fill="#272443"/>
<path d="M62.5557 5.30469C62.6312 5.30469 62.6879 5.32358 62.7256 5.37079C62.7445 5.38024 62.7634 5.39911 62.7728 5.41799C62.7917 5.44632 62.8012 5.48409 62.8012 5.52186C62.8012 5.54075 62.8106 5.55965 62.8106 5.57853C62.8201 5.64463 62.8106 5.71072 62.7917 5.77682C62.7917 5.81459 62.7917 5.85236 62.7634 5.88069C62.7351 5.9279 62.669 5.96568 62.6029 5.97512C62.5368 6.00345 62.4424 5.97512 62.4046 5.9279C62.3196 5.82403 62.3102 5.6824 62.3196 5.55964C62.3196 5.45577 62.3857 5.31413 62.5462 5.30469H62.5557Z" fill="#272443"/>
<path d="M63.501 9.45673C63.4727 9.66446 63.4727 9.8722 63.501 10.0799C63.5482 10.4576 63.6332 10.8448 63.6332 11.2225C63.6332 11.6568 63.5765 12.0912 63.7087 12.5161C63.822 12.8749 64.0581 13.1771 64.3414 13.4132C64.4358 13.4887 64.5491 13.5643 64.6719 13.5926C64.9079 13.6492 65.1723 13.4982 65.4178 13.5359C65.7294 13.5831 65.9938 13.7342 66.2865 13.5642C66.5415 13.4132 66.6548 13.1582 66.7398 12.8844C66.957 12.1856 67.1553 11.4397 66.957 10.7315C66.8153 10.231 66.4754 9.88163 66.2299 9.44727C65.9938 9.0318 65.8144 8.62578 65.4178 8.32362C65.0873 8.07811 64.6058 7.91758 64.1903 7.98368C64.0675 8.00257 63.9448 8.04978 63.8598 8.1442C63.7748 8.23863 63.7465 8.36138 63.7182 8.48414C63.6426 8.80519 63.5576 9.13567 63.5104 9.46616L63.501 9.45673Z" fill="#404082"/>
<path d="M64.9359 12.6341C64.5866 12.6436 64.3033 12.3414 64.19 12.0298C64.0483 11.6332 64.105 11.1988 64.1333 10.7928C64.1522 10.5473 64.1522 10.2924 64.105 10.0468C64.0955 9.99019 63.9539 9.99963 63.9633 10.0468C64.0578 10.5095 63.9633 10.9722 63.9633 11.4349C63.9633 11.8315 64.0578 12.247 64.3883 12.5113C64.5488 12.6435 64.7376 12.7191 64.9454 12.7097C64.9643 12.7097 65.0209 12.7097 65.0209 12.6719C65.0209 12.6341 64.9737 12.6341 64.9454 12.6341H64.9359Z" fill="#272443"/>
<path d="M65.7012 11.9305C65.3613 11.8455 65.0969 11.5717 65.0024 11.2412C64.993 11.194 64.8514 11.2034 64.8608 11.2601C64.9552 11.6189 65.2668 11.9116 65.6257 11.9966C65.654 11.9966 65.7012 12.006 65.7201 11.9777C65.739 11.9588 65.7201 11.9305 65.6917 11.921L65.7012 11.9305Z" fill="#272443"/>
<path d="M66.1924 6.57028C66.1829 6.51363 66.0318 6.52307 66.0507 6.57028C66.164 7.0613 66.1546 7.58064 66.013 8.07165C65.9941 8.12831 66.1357 8.13775 66.1546 8.09054C66.2962 7.59008 66.3151 7.07074 66.1924 6.57028Z" fill="#272443"/>
<path d="M60.9234 1.60836C60.7156 2.1277 60.4607 2.63759 60.0641 3.04362C59.8564 3.25136 59.6014 3.43077 59.3276 3.53464C59.0632 3.64795 58.761 3.66684 58.5249 3.84625C58.2794 4.01622 58.1189 4.28061 57.9678 4.52612C57.9395 4.57333 58.0811 4.59222 58.1095 4.54501C58.2511 4.31839 58.3927 4.08232 58.6099 3.91236C58.846 3.7235 59.1576 3.70461 59.422 3.5913C59.9508 3.37412 60.3568 2.95865 60.6495 2.47708C60.8101 2.20324 60.9423 1.91995 61.065 1.62723C61.0839 1.57058 60.9423 1.56115 60.9234 1.60836Z" fill="#272443"/>
<path d="M58.7796 2.58652C58.7796 2.58652 58.7041 2.56763 58.6758 2.58652C58.3453 2.79426 58.062 3.0681 57.8354 3.38915C57.8165 3.41747 57.8731 3.43636 57.8826 3.43636C57.9109 3.43636 57.9487 3.43635 57.9676 3.40802C58.1847 3.10586 58.4586 2.84147 58.7702 2.64317C58.7985 2.62429 58.7985 2.6054 58.7702 2.58652H58.7796Z" fill="#272443"/>
<path d="M56.9668 10.9052C56.6929 10.6691 56.5513 10.3197 56.5324 9.97035C56.5041 9.54543 56.6457 9.13939 56.8157 8.75224C56.844 8.69559 56.7024 8.68614 56.674 8.73335C56.4946 9.1205 56.353 9.55486 56.3813 9.98922C56.4096 10.348 56.5513 10.7069 56.8346 10.9524C56.8629 10.9713 56.9007 10.9807 56.929 10.9713C56.9479 10.9713 56.9856 10.9429 56.9573 10.9146L56.9668 10.9052Z" fill="#272443"/>
<path d="M58.2515 10.0617C58.0154 9.8634 57.8455 9.59901 57.7888 9.29684C57.7794 9.24019 57.6377 9.24963 57.6472 9.29684C57.7133 9.60845 57.8832 9.90116 58.1382 10.0995C58.1665 10.1183 58.2043 10.1278 58.2326 10.1183C58.2515 10.1183 58.2893 10.09 58.2609 10.0617H58.2515Z" fill="#272443"/>
<path d="M42.5841 58.4375H41.1394V81.7324H42.5841V58.4375Z" fill="#272443"/>
<path d="M43.7161 62.4453H40.0051V82.3125H43.7161V62.4453Z" fill="#272443"/>
<path d="M53.8013 80.8203H29.9304V82.6994H53.8013V80.8203Z" fill="#272443"/>
<path d="M33.3956 69.6662C33.2351 69.6662 33.084 69.5906 32.9896 69.449C32.8385 69.2223 32.9046 68.9296 33.1218 68.7786L40.9875 63.5662C41.2141 63.4151 41.5068 63.4812 41.6579 63.6984C41.809 63.925 41.7429 64.2178 41.5257 64.3689L33.66 69.5812C33.575 69.6378 33.49 69.6662 33.3956 69.6662Z" fill="#272443"/>
<path d="M43.1694 63.352C43.1694 63.2103 42.7822 63.2009 42.7822 63.352V80.292C42.7822 80.4337 43.1694 80.4431 43.1694 80.292V63.352Z" fill="#404082"/>
<path d="M58.7682 41.0863C58.1639 40.7086 57.2952 40.7747 56.6908 41.1807V36.6105C56.6908 34.231 54.7645 32.3047 52.385 32.3047H31.3941C29.0146 32.3047 27.0883 34.231 27.0883 36.6105V41.1807C26.4934 40.7747 25.6247 40.7086 25.0109 41.0863C24.01 41.7001 24.2272 42.8804 24.3027 43.8624C24.3027 43.9191 24.3027 43.9852 24.3121 44.0418C24.416 45.3355 24.6238 46.6291 24.9165 47.8944C25.4358 50.1606 26.2101 52.3608 27.0883 54.5042C27.2488 54.8914 27.4093 55.2691 27.5698 55.6468C27.5887 55.694 27.6076 55.7412 27.6265 55.7884V58.2152C27.6265 58.8195 28.1175 59.3105 28.7218 59.3105H55.0478C55.6522 59.3105 56.1432 58.8195 56.1432 58.2152V55.7884H56.1809C56.1998 55.7412 56.2187 55.694 56.2376 55.6468C56.3981 55.2691 56.5586 54.8819 56.7192 54.5042C57.5973 52.3513 58.3716 50.1606 58.891 47.8944C59.1837 46.6291 59.3914 45.3449 59.4953 44.0418C59.4953 43.9852 59.4953 43.9191 59.5047 43.8624C59.5708 42.8898 59.788 41.7001 58.7965 41.0863H58.7682Z" fill="#404082"/>
<path d="M31.5173 49.2532C30.5919 48.1484 30.0159 46.7603 29.4682 45.4195C28.9205 44.0881 28.3446 42.7094 27.4286 41.6046C27.2114 41.3497 27.032 41.2364 26.8621 41.2647L26.8337 41.0759C27.1548 41.0286 27.4097 41.293 27.5797 41.4913C28.5145 42.6244 29.0905 44.0125 29.6476 45.3534C30.1953 46.6753 30.7619 48.0445 31.6683 49.1304L31.5173 49.2532Z" fill="#272443"/>
<path d="M52.2619 49.2514L52.1108 49.1286C53.0173 48.0427 53.5839 46.6735 54.1316 45.3516C54.6887 44.0013 55.2647 42.6132 56.1995 41.4895C56.36 41.2912 56.6244 41.0363 56.9454 41.0741L56.9171 41.2629C56.7472 41.2346 56.5677 41.3479 56.3506 41.6029C55.4346 42.7076 54.8586 44.0863 54.311 45.4177C53.7539 46.7585 53.1873 48.1371 52.2619 49.2514Z" fill="#272443"/>
<path d="M53.4901 55.8859H30.2896L30.2613 55.8481C29.808 55.2627 29.6286 54.3845 29.5342 53.7802C29.4492 53.2325 29.4114 52.7415 29.4209 52.3071C29.3831 51.2212 29.6853 50.3053 30.2801 49.7388C30.9034 49.1344 31.8193 48.9172 33.0091 49.0872C34.1894 49.2572 35.3319 49.7104 36.4462 50.1448C37.0222 50.3714 37.6265 50.6075 38.2214 50.8058H38.2403L38.2592 50.8152C40.6293 51.5801 43.141 51.5801 45.5205 50.8152C45.5205 50.8152 45.53 50.8152 45.5394 50.8152H45.5583C46.1532 50.6169 46.7575 50.3809 47.3335 50.1542C48.4383 49.7199 49.5808 49.2666 50.7706 49.0967C51.9604 48.9267 52.8763 49.1439 53.4995 49.7482C54.0944 50.3148 54.3966 51.2307 54.3588 52.3166C54.3682 52.751 54.3399 53.242 54.2455 53.7896C54.1511 54.394 53.9716 55.2627 53.5184 55.8576L53.4901 55.8953V55.8859ZM30.384 55.697H53.3957C53.8017 55.1399 53.9622 54.3279 54.0566 53.7613C54.1416 53.2231 54.1794 52.7415 54.1605 52.326C54.1983 51.2968 53.915 50.4281 53.3579 49.8993C52.7819 49.3422 51.9132 49.1439 50.7895 49.3044C49.628 49.4744 48.4949 49.9182 47.3996 50.3525C46.8141 50.5792 46.2193 50.8247 45.6149 51.0135C45.6149 51.0135 45.6055 51.0135 45.5961 51.0135C45.5961 51.0135 45.5866 51.0135 45.5772 51.0135C43.1599 51.7878 40.6104 51.7878 38.1931 51.0135C38.1931 51.0135 38.1836 51.0135 38.1742 51.0135C38.1742 51.0135 38.1647 51.0135 38.1553 51.0135C37.551 50.8152 36.9561 50.5792 36.3706 50.3525C35.2753 49.9182 34.1422 49.4744 32.9807 49.3044C31.8571 49.1439 30.9883 49.3422 30.4123 49.8993C29.8552 50.4281 29.572 51.2968 29.6097 52.326C29.6003 52.751 29.6286 53.2325 29.7136 53.7613C29.808 54.3279 29.9685 55.1494 30.3746 55.697H30.384Z" fill="#272443"/>
</svg>
