<svg width="62" height="103" viewBox="0 0 62 103" fill="none" xmlns="http://www.w3.org/2000/svg">
<path d="M48.815 97.995C48.8232 99.7978 46.3043 101.255 43.1844 101.247C40.0646 101.247 37.5209 99.7731 37.5127 97.9704C37.5045 96.1676 40.0234 94.7106 43.1433 94.7188C46.2631 94.7188 48.8068 96.1923 48.815 97.995Z" fill="#E3E8F0"/>
<path d="M17.856 37.4062L28.154 43.3496V92.329L17.856 86.3856V37.4062Z" fill="#435199"/>
<path d="M35.3401 19.9297L45.6381 25.8731V82.2281L35.3401 76.2848V19.9297Z" fill="#435199"/>
<path d="M17.856 37.3994L28.154 43.3428L43.5886 34.4278L33.2906 28.4844L17.856 37.3994Z" fill="#4257B5"/>
<path d="M35.3401 19.9307L45.6381 25.8741L61.0728 16.959L50.7748 11.0156L35.3401 19.9307Z" fill="#4257B5"/>
<path d="M45.6382 82.2311L61.0729 73.3242V16.9609L45.6382 25.876V82.2311Z" fill="#4E61C4"/>
<path d="M28.1533 92.3319L43.588 83.4168V34.4375L28.1533 43.3526V92.3319Z" fill="#4E61C4"/>
<path d="M10.6692 102.418L26.0956 93.5116V57.7031L10.6692 66.61V102.418Z" fill="#4E61C4"/>
<path d="M0.371094 60.6719L10.6609 66.6153V102.424L0.371094 96.4803V60.6719Z" fill="#435199"/>
<path d="M0.371094 60.6725L10.6609 66.6158L26.0955 57.709L15.8058 51.7656L0.371094 60.6725Z" fill="#4257B5"/>
<g style="mix-blend-mode:multiply">
<path d="M48.7166 97.8848C48.7248 99.6794 46.2141 101.128 43.1107 101.12C40.0074 101.112 37.4802 99.6547 37.4719 97.8601C37.4637 96.0656 39.9744 94.6168 43.0778 94.625C46.1812 94.625 48.7084 96.0903 48.7166 97.8848Z" fill="#C8D4E6"/>
</g>
<path d="M50.3305 58.9766C50.3305 58.9766 50.8656 62.1458 50.9726 63.5535C51.0796 64.9611 51.1455 65.1916 50.6763 66.1218C50.2153 67.052 48.9311 67.5624 48.4619 66.7886C47.9927 66.0148 47.8363 61.8412 47.9269 61.0098C48.0092 60.1784 50.3305 58.9766 50.3305 58.9766Z" fill="#4860BF"/>
<path d="M52.2078 66.9871C52.5947 67.2258 52.8087 67.7938 52.4218 68.3207C52.0349 68.8475 51.7715 68.9051 51.1705 68.971C50.5696 69.0286 48.2729 68.9133 48.2729 68.9133C48.2729 68.9133 48.6763 67.4234 49.9605 67.1353C51.2446 66.8472 52.2078 66.9871 52.2078 66.9871Z" fill="#3B4157"/>
<path d="M45.968 93.1332C45.2518 93.4131 45.1037 94.0552 45.1037 94.0552C45.1037 94.0552 44.9555 94.7302 45.0625 95.0595C45.1695 95.3887 46.5031 96.0473 46.7912 96.0391C47.0711 96.0391 46.7747 95.7098 47.3921 96.0802C48.0095 96.4507 48.6433 97.2903 49.1537 97.6278C49.6641 97.9735 50.3309 98.4263 51.2364 98.4428C52.1336 98.4592 52.7757 97.8089 52.5452 97.068C52.3147 96.3272 51.2528 95.6604 51.0717 95.5863C50.8906 95.5122 45.9762 93.125 45.9762 93.125L45.968 93.1332Z" fill="#212430"/>
<path d="M38.6989 96.2348C38.9212 96.4982 39.0529 96.5394 39.02 97.0909C38.987 97.6507 38.9376 97.9717 38.7648 98.2928C38.5919 98.6138 38.4437 98.9019 38.419 99.3053C38.4026 99.7086 38.3861 100.194 38.2462 100.622C38.1062 101.05 37.8181 101.734 37.2172 101.964C36.608 102.195 35.5873 101.865 35.2992 101.561C35.0028 101.256 34.8546 100.499 34.8876 100.005C34.9205 99.5111 35.1098 98.6961 35.365 98.3504C35.612 98.0129 38.6989 96.2266 38.6989 96.2266V96.2348Z" fill="#212430"/>
<path d="M48.7993 93.3715C48.7993 93.3715 49.0133 93.7255 49.6142 94.1289C50.3057 94.5898 52.2896 96.2938 52.2896 96.2938C52.2896 96.2938 52.5447 97.0018 52.4295 97.2734C52.1249 97.9649 51.8615 98.0884 51.1865 98.0554C50.5032 98.0225 49.1121 96.9524 48.8322 96.6396C48.5441 96.3268 47.6221 95.5447 47.0047 95.3966C46.3791 95.2484 45.4571 94.771 45.4325 94.3182C45.416 93.8655 45.5971 92.2109 45.63 91.9227C45.6712 91.6346 48.7993 93.3798 48.7993 93.3798V93.3715Z" fill="#33374A"/>
<path d="M39.0123 95.9338C39.07 97.1357 38.823 97.5637 38.6584 97.9424C38.4937 98.3211 38.2138 98.6586 38.1891 99.1689C38.1727 99.6711 38.2632 100.494 37.5388 101.169C36.8227 101.844 35.9501 101.35 35.5303 101.112C35.1022 100.873 35.0693 99.9098 35.094 99.3747C35.1269 98.8397 35.7608 97.2591 35.9336 96.9052C36.1065 96.5512 36.2464 95.4564 36.2547 95.3823C36.2629 95.3 39.0041 95.9421 39.0041 95.9421L39.0123 95.9338Z" fill="#33374A"/>
<path d="M48.8248 83.965C48.8248 88.6406 49.187 93.3081 49.0717 94.0572C48.9482 94.8063 46.7668 94.8639 46.3223 94.584C45.8778 94.3041 45.4744 93.6127 45.4744 92.9459C45.4744 92.2791 44.643 86.9037 44.7006 84.6317C44.7665 82.3515 48.8248 83.9732 48.8248 83.9732V83.965Z" fill="#313648"/>
<path d="M40.1477 83.5907C40.1477 83.6731 40.8392 83.8459 40.6416 85.7804C40.4441 87.7149 39.2834 95.9138 39.1188 96.5559C38.9541 97.198 37.6864 97.4778 37.0937 97.2803C36.5093 97.0745 35.7602 96.6711 35.7766 96.169C35.7931 95.6668 35.859 88.2994 36.1388 86.2249C36.4187 84.1423 36.4763 82.8828 36.4763 82.8828L40.1395 83.5907H40.1477Z" fill="#3B4157"/>
<path d="M48.1817 67.6328C49.1284 71.296 49.1531 72.967 49.0955 75.9552C49.0379 78.9433 48.8403 84.3352 48.7168 85.1995C48.5933 86.0721 47.0128 86.1873 45.8439 85.9486C44.675 85.7099 44.5268 83.726 44.5268 83.726C44.5268 83.726 43.6542 78.5482 43.5554 77.865C43.4567 77.1817 43.2756 70.2258 43.539 69.2956C43.8024 68.3654 48.19 67.641 48.19 67.641L48.1817 67.6328Z" fill="#313648"/>
<path d="M44.8237 70.3589C44.8237 70.3589 45.0625 75.1498 44.6426 76.0224C44.2146 76.895 43.3914 77.4136 43.3914 77.4136C43.3914 77.4136 41.0042 84.7152 40.642 85.7689C40.2798 86.8226 37.8267 86.6991 37.8267 86.6991C37.8267 86.6991 36.3697 86.6415 36.3944 85.1597C36.4108 83.6862 36.8224 77.356 36.7154 76.3023C36.6166 75.2486 37.2834 69.0254 37.9502 67.7494C38.6169 66.4735 44.8237 70.3589 44.8237 70.3589Z" fill="#3B4157"/>
<path d="M48.4376 67.9303C48.4376 67.9303 48.6846 69.7083 48.7257 69.9224C48.7669 70.1364 46.9312 71.2559 44.8321 71.6675C42.7329 72.0709 40.5433 71.9145 38.8393 71.0337C37.3164 70.2516 37.4728 69.4367 37.4728 69.4367L37.9503 67.7656L48.4458 67.9385L48.4376 67.9303Z" fill="#291925"/>
<path d="M40.4689 51.5874C38.2546 52.1801 36.0238 53.0198 35.7768 53.5795C35.5381 54.1475 36.5835 58.4281 37.1515 61.4821C37.7195 64.5279 37.6866 68.4956 37.6866 68.4956C37.9088 69.3846 40.008 70.7841 41.9342 70.7841C45.7949 70.7841 48.3797 69.7139 48.388 68.4215C48.388 67.1291 48.0751 63.2931 48.2892 61.0787C48.5032 58.8644 49.384 53.4561 48.4456 52.9128C47.9023 52.6 45.8032 52.1554 44.6507 51.8344C43.0208 51.3652 40.4689 51.5957 40.4689 51.5957V51.5874Z" fill="#EBEBEE"/>
<path d="M44.2229 51.871C46.0668 52.2002 46.3632 54.0112 46.4043 54.3981C46.4455 54.785 46.7665 60.2921 46.6678 61.7409C46.569 63.1897 46.7665 71.9648 46.7665 72.6892C46.7665 73.4136 49.3019 71.9648 49.1044 70.4584C48.9068 68.952 48.1495 63.9141 48.487 61.4693C48.8163 59.0244 49.4172 53.4762 48.6516 52.9987C47.8861 52.5213 44.5357 51.7969 44.5357 51.7969L44.2229 51.8792V51.871Z" fill="#2D3242"/>
<path d="M46.5029 67.1692C46.3794 62.5429 46.3136 60.345 46.1654 58.2788C45.9843 55.6858 45.6303 53.4138 44.5272 52.6153C43.4159 51.8251 42.6504 51.5781 42.6504 51.5781C42.6504 51.5781 44.6425 51.7675 45.3175 52.1544C45.9925 52.5412 46.4453 52.4507 47.1285 55.266C47.4084 56.4349 47.4331 56.9288 47.4331 56.9288L46.7663 58.2294L47.4989 59.0526C47.4989 59.0526 47.2849 61.9914 46.4947 67.1692H46.5029Z" fill="#3B4157"/>
<path d="M39.7278 51.8893C38.6248 52.2185 37.5711 53.4615 39.9007 56.8201C42.2303 60.1787 41.4812 62.2284 41.6788 63.0681C41.8022 63.6031 42.8971 66.5913 42.8971 69.2419C42.8971 70.7154 42.8888 71.9996 42.8477 72.3453C42.7324 73.3332 42.7242 73.9176 41.4565 73.8682C40.1888 73.8271 36.3775 73.1603 36.6656 71.0612C36.9455 68.9621 37.3735 66.6818 37.3571 66.1797C37.3406 65.6776 34.55 54.2847 35.6778 53.3875C36.8055 52.4902 39.8925 51.6094 39.8925 51.6094L39.7196 51.881L39.7278 51.8893Z" fill="#2D3242"/>
<path d="M42.9058 69.2404C42.9058 69.2404 40.3128 61.2555 40.1564 60.3665C40.4033 59.8973 40.8972 58.9671 40.8972 58.9671C40.8972 58.9671 39.3743 58.0698 39.0121 57.8229C38.3701 56.4235 38.0902 54.3573 38.1396 53.2707C38.1807 52.1841 40.0494 51.4844 40.0494 51.4844C40.0494 51.4844 39.7859 51.8383 39.6295 51.9124C39.4731 51.9783 39.3743 52.1429 39.2344 52.9167C38.971 54.382 40.9631 57.0491 41.4405 58.9095C43.1198 65.4949 42.9058 69.2322 42.9058 69.2322V69.2404Z" fill="#3B4157"/>
<path d="M44.9061 51.1182C44.5192 52.1143 44.7333 52.7481 44.5192 53.736C44.3052 54.7238 43.6302 54.7896 42.5271 54.8967C41.4241 55.0037 40.074 53.2421 39.9506 52.5094C39.8271 51.7768 40.0164 51.5957 40.1399 51.3487C40.2634 51.11 40.5268 50.3938 40.4527 49.3402C40.3704 48.2865 40.1152 47.6033 40.4362 46.8048C40.7573 46.0063 41.8274 44.5904 42.914 46.5331C44.0088 48.4758 44.9061 51.1182 44.9061 51.1182Z" fill="#FF9C78"/>
<path d="M40.1312 51.3542C39.9501 51.7411 41.0779 53.7579 41.9751 54.1448C42.8806 54.5317 43.4075 54.4165 43.4075 54.4165L43.4486 54.7787L42.963 55.7747C42.963 55.7747 42.502 55.9723 41.1684 55.3878C39.8349 54.7951 39.308 53.264 39.4315 52.6055C39.5632 51.9469 39.769 51.3954 39.8513 51.3542C39.9337 51.3131 40.123 51.3542 40.123 51.3542H40.1312Z" fill="#FCFCFF"/>
<path d="M43.4077 54.4042C44.0827 54.1737 44.2391 53.9103 44.3708 53.6633C44.5025 53.4164 44.5108 52.659 44.5272 52.6097C44.5355 52.552 44.733 52.8072 44.7989 53.2188C44.8647 53.6304 44.9388 54.7828 44.305 55.4743C43.9345 55.0051 43.4489 54.7582 43.4489 54.7582L43.4077 54.396V54.4042Z" fill="#FCFCFF"/>
<path d="M41.4489 47.1186C41.2431 49.0778 40.9303 50.2055 41.0867 50.9299C41.2431 51.6543 42.4944 53.3172 43.2435 53.4489C44.0008 53.5806 44.2395 53.523 44.824 53.4077C45.4084 53.2925 46.2316 51.004 46.4868 49.9257C46.742 48.8473 46.9725 47.4232 46.956 46.4848C46.9396 45.5463 46.9396 45.0771 45.3097 44.8219C43.6715 44.5667 43.2517 43.653 42.3462 44.5256C41.4407 45.3899 41.4489 47.1268 41.4489 47.1268V47.1186Z" fill="#FF9C78"/>
<path d="M46.9638 46.592C46.9638 46.592 46.9391 45.6948 46.8732 45.6371C46.7662 45.5301 46.7333 45.8429 45.6879 46.378C44.058 47.2094 43.3829 47.1271 43.1031 47.2259C42.9631 47.2753 42.7409 47.6786 42.7244 47.8268C42.7079 47.9832 42.3293 47.975 42.0412 48.4771C41.753 48.971 41.6954 49.3415 41.6954 49.3415L41.2262 49.1274C41.2262 49.1274 41.2262 48.2219 40.9381 47.7363C40.6417 47.2506 40.1561 47.1847 40.2878 47.868C40.4195 48.5512 40.6006 49.6707 40.4442 50.4116C40.0244 49.8354 39.6539 48.8393 39.3741 46.7731C39.267 45.9664 39.1106 45.3079 39.6786 44.0731C40.2466 42.8383 41.9094 42.6078 41.9094 42.6078C41.9094 42.6078 42.7162 41.7352 44.7906 42.3362C46.865 42.9371 47.2025 44.8469 47.2025 45.3408C47.2025 45.8347 47.1367 46.4932 46.972 46.6003L46.9638 46.592Z" fill="#291925"/>
<path d="M40.7331 48.3073C40.7495 48.2332 40.6919 47.7558 40.1815 47.6076C39.6712 47.4594 39.6711 48.0933 39.9428 48.8259C40.2144 49.5586 40.3544 49.8796 40.7413 49.715C41.1282 49.5503 40.7413 48.3073 40.7413 48.3073H40.7331Z" fill="#FF9C78"/>
<path d="M47.4658 70.1092L56.8007 64.7256L51.5488 61.9844L42.2222 66.8576V67.368L47.4658 70.1092Z" fill="#9F9FBF"/>
<path d="M37.8845 59.683C38.2714 60.9589 38.329 62.0702 38.4278 63.3626C38.5266 64.655 38.1891 66.1532 37.44 66.2109C36.6909 66.2685 36.5098 66.1532 36.1229 65.4865C35.736 64.8197 35.1927 61.6422 35.0939 60.4074C34.9951 59.1726 35.2092 58.3906 35.2092 58.3906L37.8763 59.683H37.8845Z" fill="#FF9C78"/>
<path d="M36.4516 63.6755C36.9784 62.7041 41.4483 58.119 41.827 57.4687C42.2056 56.8184 42.2056 55.9705 42.4032 55.4848C42.6008 54.9991 43.2264 53.9043 43.2264 53.9043C43.2264 53.9043 43.5063 53.5586 43.4486 53.1799C43.391 52.8012 43.5721 52.6613 43.5721 52.6613C43.5721 52.6613 43.9261 52.6119 43.9755 52.9165C44.0249 53.2211 44.1072 53.5503 43.9755 53.8384C43.8438 54.1183 43.745 54.604 43.7944 54.8098C43.8438 55.0156 44.1648 54.9003 44.1648 54.9003L44.5682 54.7522C44.5682 54.7522 44.9962 53.8961 44.9715 53.7644C44.9551 53.6326 44.6587 53.3445 44.6093 53.0399C44.5599 52.7354 44.774 52.5872 44.774 52.5872C44.774 52.5872 44.8727 52.4061 45.0868 52.4143C45.3008 52.4226 45.8441 53.7479 45.8853 54.0854C45.9264 54.4229 45.7371 55.6824 45.663 55.954C45.5889 56.2257 45.0045 56.522 45.0045 56.522C45.0045 56.522 43.3499 58.0614 43.1276 58.5553C42.9053 59.0492 41.7611 61.5352 40.5593 63.2392C39.3574 64.9432 38.3778 66.2191 37.9086 66.3837C37.4476 66.5484 36.6409 66.4002 36.3199 65.824C35.9988 65.2477 36.4516 63.7002 36.4516 63.7002V63.6755Z" fill="#FF9C78"/>
<path d="M48.4378 52.9141C49.2692 53.1692 49.6149 53.9183 49.7796 55.112C49.9442 56.3056 50.5698 59.6312 50.4217 60.5779C50.2817 61.5245 49.2198 63.3849 48.4048 63.2285C48.1414 60.9812 47.7545 56.569 47.8122 55.1778C47.8698 53.7866 48.4378 52.9223 48.4378 52.9223V52.9141Z" fill="#3B4157"/>
<path d="M47.4658 69.6096L56.8007 64.2178L51.5488 61.4766L42.2222 66.8684L47.4658 69.6096Z" fill="#C1C1E8"/>
<path d="M49.5652 64.4267C49.6393 64.4679 49.6393 64.5337 49.5652 64.5749L47.3755 65.8508C47.3014 65.892 47.1862 65.892 47.1121 65.8508L45.8773 65.1347C45.8033 65.0935 45.8033 65.0277 45.8773 64.9865L48.067 63.7106C48.1411 63.6694 48.2563 63.6694 48.3304 63.7106L49.5652 64.4267Z" fill="#AEAED1"/>
<path d="M51.829 63.4453L54.5537 65.0176L47.7789 68.9524L45.0542 67.3801L51.829 63.4453Z" fill="#AEAED1"/>
<path d="M51.4832 63.7694L51.7878 63.9505C51.7878 63.9505 51.8701 63.967 51.903 63.9505L52.2076 63.7694C52.2076 63.7694 52.2323 63.7529 52.2323 63.7365V63.6953C52.2323 63.6953 52.2323 63.72 52.2076 63.7282L51.903 63.9093C51.903 63.9093 51.8207 63.9258 51.7878 63.9093L51.4832 63.7282C51.4832 63.7282 51.4585 63.7035 51.4585 63.6953V63.7365C51.4585 63.7365 51.4585 63.7612 51.4832 63.7694Z" fill="#A0A0BF"/>
<path d="M51.0059 64.0506L51.3105 64.2317C51.3105 64.2317 51.3928 64.2482 51.4257 64.2317L51.7303 64.0506C51.7303 64.0506 51.755 64.0342 51.755 64.0177V63.9766C51.755 63.9766 51.755 64.0013 51.7303 64.0095L51.4257 64.1906C51.4257 64.1906 51.3434 64.207 51.3105 64.1906L51.0059 64.0095C51.0059 64.0095 50.9812 63.9848 50.9812 63.9766V64.0177C50.9812 64.0177 50.9812 64.0424 51.0059 64.0506Z" fill="#A0A0BF"/>
<path d="M51.7633 64.4869L51.4588 64.3058C51.4588 64.3058 51.4341 64.2811 51.4341 64.2729V64.3141C51.4341 64.3141 51.4341 64.3388 51.4588 64.347L51.7633 64.5281C51.7633 64.5281 51.8457 64.5446 51.8786 64.5281L52.6935 64.0506C52.6935 64.0506 52.7182 64.0342 52.7182 64.0177V63.9766C52.7182 63.9766 52.7182 64.0013 52.6935 64.0095L51.8786 64.4869C51.8786 64.4869 51.7963 64.5034 51.7633 64.4869Z" fill="#A0A0BF"/>
<path d="M52.257 64.7604L51.9524 64.5793C51.9524 64.5793 51.9277 64.5546 51.9277 64.5463V64.5875C51.9277 64.5875 51.9277 64.6122 51.9524 64.6204L52.257 64.8015C52.257 64.8015 52.3393 64.818 52.3722 64.8015L53.1872 64.3241C53.1872 64.3241 53.2119 64.3076 53.2119 64.2912V64.25C53.2119 64.25 53.2119 64.2747 53.1872 64.2829L52.3722 64.7604C52.3722 64.7604 52.2899 64.7768 52.257 64.7604Z" fill="#A0A0BF"/>
<path d="M52.9736 64.9095L52.669 64.7284C52.669 64.7284 52.6443 64.7037 52.6443 64.6955V64.7366C52.6443 64.7366 52.6443 64.7613 52.669 64.7696L52.9736 64.9507C52.9736 64.9507 53.0559 64.9671 53.0888 64.9507L53.665 64.6132C53.665 64.6132 53.6897 64.5967 53.6897 64.5802V64.5391C53.6897 64.5391 53.6897 64.5638 53.665 64.572L53.0888 64.9095C53.0888 64.9095 53.0065 64.926 52.9736 64.9095Z" fill="#A0A0BF"/>
<path d="M53.4016 64.8125V64.8536C53.4016 64.8536 53.4016 64.8784 53.4263 64.8866L53.7309 65.0677C53.7309 65.0677 53.8132 65.0841 53.8461 65.0677L54.1507 64.8866C54.1507 64.8866 54.1754 64.8701 54.1754 64.8536V64.8125C54.1754 64.8125 54.1754 64.8372 54.1507 64.8454L53.8461 65.0265C53.8461 65.0265 53.7638 65.043 53.7309 65.0265L53.4263 64.8454C53.4263 64.8454 53.4016 64.8207 53.4016 64.8125Z" fill="#A0A0BF"/>
<path d="M50.5286 64.3241L50.8332 64.5052C50.8332 64.5052 50.9155 64.5216 50.9484 64.5052L51.253 64.3241C51.253 64.3241 51.2777 64.3076 51.2777 64.2912V64.25C51.2777 64.25 51.2777 64.2747 51.253 64.2829L50.9484 64.464C50.9484 64.464 50.8661 64.4805 50.8332 64.464L50.5286 64.2829C50.5286 64.2829 50.5039 64.2582 50.5039 64.25V64.2912C50.5039 64.2912 50.5039 64.3159 50.5286 64.3241Z" fill="#A0A0BF"/>
<path d="M51.7059 64.5798L51.4013 64.7609C51.4013 64.7609 51.319 64.7774 51.2861 64.7609L50.9815 64.5798C50.9815 64.5798 50.9568 64.5551 50.9568 64.5469V64.588C50.9568 64.588 50.9568 64.6127 50.9815 64.621L51.2861 64.8021C51.2861 64.8021 51.3684 64.8185 51.4013 64.8021L51.7059 64.621C51.7059 64.621 51.7306 64.6045 51.7306 64.588V64.5469C51.7306 64.5469 51.7306 64.5716 51.7059 64.5798Z" fill="#A0A0BF"/>
<path d="M52.1915 64.8689L51.8869 65.05C51.8869 65.05 51.8046 65.0664 51.7717 65.05L51.4671 64.8689C51.4671 64.8689 51.4424 64.8442 51.4424 64.8359V64.8771C51.4424 64.8771 51.4424 64.9018 51.4671 64.91L51.7717 65.0911C51.7717 65.0911 51.854 65.1076 51.8869 65.0911L52.1915 64.91C52.1915 64.91 52.2162 64.8936 52.2162 64.8771V64.8359C52.2162 64.8359 52.2162 64.8606 52.1915 64.8689Z" fill="#A0A0BF"/>
<path d="M52.6105 65.2239L52.9151 65.0428C52.9151 65.0428 52.9398 65.0264 52.9398 65.0099V64.9688C52.9398 64.9688 52.9398 64.9935 52.9151 65.0017L52.6105 65.1828C52.6105 65.1828 52.5282 65.1992 52.4953 65.1828L52.1907 65.0017C52.1907 65.0017 52.166 64.977 52.166 64.9688V65.0099C52.166 65.0099 52.166 65.0346 52.1907 65.0428L52.4953 65.2239C52.4953 65.2239 52.5776 65.2404 52.6105 65.2239Z" fill="#A0A0BF"/>
<path d="M53.3686 65.3489L53.6732 65.1678C53.6732 65.1678 53.6979 65.1514 53.6979 65.1349V65.0938C53.6979 65.0938 53.6979 65.1184 53.6732 65.1267L53.3686 65.3078C53.3686 65.3078 53.2863 65.3242 53.2534 65.3078L52.9488 65.1267C52.9488 65.1267 52.9241 65.102 52.9241 65.0938V65.1349C52.9241 65.1349 52.9241 65.1596 52.9488 65.1678L53.2534 65.3489C53.2534 65.3489 53.3357 65.3654 53.3686 65.3489Z" fill="#A0A0BF"/>
<path d="M50.0513 64.6132L50.3559 64.7942C50.3559 64.7942 50.4382 64.8107 50.4711 64.7942L50.7757 64.6132C50.7757 64.6132 50.8004 64.5967 50.8004 64.5802V64.5391C50.8004 64.5391 50.8004 64.5638 50.7757 64.572L50.4711 64.7531C50.4711 64.7531 50.3888 64.7696 50.3559 64.7531L50.0513 64.572C50.0513 64.572 50.0266 64.5473 50.0266 64.5391V64.5802C50.0266 64.5802 50.0266 64.6049 50.0513 64.6132Z" fill="#A0A0BF"/>
<path d="M50.8088 65.0343L50.5042 64.8532C50.5042 64.8532 50.4795 64.8285 50.4795 64.8203V64.8615C50.4795 64.8615 50.4795 64.8862 50.5042 64.8944L50.8088 65.0755C50.8088 65.0755 50.8911 65.092 50.924 65.0755L51.2286 64.8944C51.2286 64.8944 51.2533 64.8779 51.2533 64.8615V64.8203C51.2533 64.8203 51.2533 64.845 51.2286 64.8532L50.924 65.0343C50.924 65.0343 50.8417 65.0508 50.8088 65.0343Z" fill="#A0A0BF"/>
<path d="M51.2941 65.3567C51.2941 65.3567 51.3764 65.3732 51.4094 65.3567L51.7139 65.1756C51.7139 65.1756 51.7386 65.1592 51.7386 65.1427V65.1016C51.7386 65.1016 51.7386 65.1263 51.7139 65.1345L51.4094 65.3156C51.4094 65.3156 51.3271 65.332 51.2941 65.3156L50.9896 65.1345C50.9896 65.1345 50.9648 65.1098 50.9648 65.1016V65.1427C50.9648 65.1427 50.9649 65.1674 50.9896 65.1756L51.2941 65.3567Z" fill="#A0A0BF"/>
<path d="M52.134 65.5052L52.4386 65.3241C52.4386 65.3241 52.4632 65.3076 52.4632 65.2911V65.25C52.4632 65.25 52.4632 65.2747 52.4386 65.2829L52.134 65.464C52.134 65.464 52.0517 65.4805 52.0187 65.464L51.7141 65.2829C51.7141 65.2829 51.6895 65.2582 51.6895 65.25V65.2911C51.6895 65.2911 51.6895 65.3159 51.7141 65.3241L52.0187 65.5052C52.0187 65.5052 52.1011 65.5216 52.134 65.5052Z" fill="#A0A0BF"/>
<path d="M52.8823 65.6224L53.1868 65.4413C53.1868 65.4413 53.2115 65.4248 53.2115 65.4083V65.3672C53.2115 65.3672 53.2115 65.3919 53.1868 65.4001L52.8823 65.5812C52.8823 65.5812 52.7999 65.5977 52.767 65.5812L52.4624 65.4001C52.4624 65.4001 52.4377 65.3754 52.4377 65.3672V65.4083C52.4377 65.4083 52.4377 65.433 52.4624 65.4413L52.767 65.6224C52.767 65.6224 52.8493 65.6388 52.8823 65.6224Z" fill="#A0A0BF"/>
<path d="M47.1209 66.3107L47.4255 66.4918C47.4255 66.4918 47.5078 66.5082 47.5407 66.4918L50.2984 64.8866C50.2984 64.8866 50.3231 64.8701 50.3231 64.8536V64.8125C50.3231 64.8125 50.3231 64.8372 50.2984 64.8454L47.5407 66.4506C47.5407 66.4506 47.4584 66.4671 47.4255 66.4506L47.1209 66.2695C47.1209 66.2695 47.0962 66.2448 47.0962 66.2366V66.2778C47.0962 66.2778 47.0962 66.3025 47.1209 66.3107Z" fill="#A0A0BF"/>
<path d="M50.3312 65.3156L50.0266 65.1345C50.0266 65.1345 50.002 65.1098 50.002 65.1016V65.1427C50.002 65.1427 50.002 65.1674 50.0266 65.1756L50.3312 65.3567C50.3312 65.3567 50.4136 65.3732 50.4465 65.3567L50.7511 65.1756C50.7511 65.1756 50.7757 65.1592 50.7757 65.1427V65.1016C50.7757 65.1016 50.7757 65.1263 50.7511 65.1345L50.4465 65.3156C50.4465 65.3156 50.3642 65.332 50.3312 65.3156Z" fill="#A0A0BF"/>
<path d="M50.8168 65.5968L50.5122 65.4157C50.5122 65.4157 50.4875 65.391 50.4875 65.3828V65.424C50.4875 65.424 50.4875 65.4487 50.5122 65.4569L50.8168 65.638C50.8168 65.638 50.8991 65.6545 50.9321 65.638L51.2366 65.4569C51.2366 65.4569 51.2613 65.4404 51.2613 65.424V65.3828C51.2613 65.3828 51.2613 65.4075 51.2366 65.4157L50.9321 65.5968C50.9321 65.5968 50.8497 65.6133 50.8168 65.5968Z" fill="#A0A0BF"/>
<path d="M51.6567 65.7786L51.9613 65.5975C51.9613 65.5975 51.986 65.5811 51.986 65.5646V65.5234C51.986 65.5234 51.986 65.5481 51.9613 65.5564L51.6567 65.7375C51.6567 65.7375 51.5744 65.7539 51.5414 65.7375L51.2369 65.5564C51.2369 65.5564 51.2122 65.5317 51.2122 65.5234V65.5646C51.2122 65.5646 51.2122 65.5893 51.2369 65.5975L51.5414 65.7786C51.5414 65.7786 51.6238 65.7951 51.6567 65.7786Z" fill="#A0A0BF"/>
<path d="M52.405 65.9036L52.7095 65.7225C52.7095 65.7225 52.7342 65.7061 52.7342 65.6896V65.6484C52.7342 65.6484 52.7342 65.6731 52.7095 65.6814L52.405 65.8625C52.405 65.8625 52.3226 65.8789 52.2897 65.8625L51.9851 65.6814C51.9851 65.6814 51.9604 65.6567 51.9604 65.6484V65.6896C51.9604 65.6896 51.9604 65.7143 51.9851 65.7225L52.2897 65.9036C52.2897 65.9036 52.372 65.9201 52.405 65.9036Z" fill="#A0A0BF"/>
<path d="M49.853 65.5968L49.5484 65.4157C49.5484 65.4157 49.5237 65.391 49.5237 65.3828V65.424C49.5237 65.424 49.5237 65.4487 49.5484 65.4569L49.853 65.638C49.853 65.638 49.9353 65.6545 49.9682 65.638L50.2728 65.4569C50.2728 65.4569 50.2975 65.4404 50.2975 65.424V65.3828C50.2975 65.3828 50.2975 65.4075 50.2728 65.4157L49.9682 65.5968C49.9682 65.5968 49.8859 65.6133 49.853 65.5968Z" fill="#A0A0BF"/>
<path d="M50.3395 65.8781L50.0349 65.697C50.0349 65.697 50.0103 65.6805 50.0103 65.6641V65.7052C50.0103 65.7052 50.0103 65.7299 50.0349 65.7381L50.3395 65.9192C50.3395 65.9192 50.4218 65.9357 50.4548 65.9192L50.7593 65.7381C50.7593 65.7381 50.784 65.7217 50.784 65.7052V65.6641C50.784 65.6641 50.784 65.6888 50.7593 65.697L50.4548 65.8781C50.4548 65.8781 50.3724 65.8945 50.3395 65.8781Z" fill="#A0A0BF"/>
<path d="M51.1784 66.0599L51.483 65.8788C51.483 65.8788 51.5077 65.8623 51.5077 65.8458V65.8047C51.5077 65.8047 51.5077 65.8294 51.483 65.8376L51.1784 66.0187C51.1784 66.0187 51.0961 66.0352 51.0632 66.0187L50.7586 65.8376C50.7586 65.8376 50.7339 65.8129 50.7339 65.8047V65.8458C50.7339 65.8458 50.7339 65.8705 50.7586 65.8788L51.0632 66.0599C51.0632 66.0599 51.1455 66.0763 51.1784 66.0599Z" fill="#A0A0BF"/>
<path d="M51.9284 66.1849L52.233 66.0038C52.233 66.0038 52.2577 65.9873 52.2577 65.9708V65.9297C52.2577 65.9297 52.2577 65.9544 52.233 65.9626L51.9284 66.1437C51.9284 66.1437 51.8461 66.1602 51.8132 66.1437L51.5086 65.9626C51.5086 65.9626 51.4839 65.9379 51.4839 65.9297V65.9708C51.4839 65.9708 51.4839 65.9955 51.5086 66.0038L51.8132 66.1849C51.8132 66.1849 51.8955 66.2013 51.9284 66.1849Z" fill="#A0A0BF"/>
<path d="M49.3766 65.8703L49.0721 65.6892C49.0721 65.6892 49.0474 65.6645 49.0474 65.6562V65.6974C49.0474 65.6974 49.0474 65.7221 49.0721 65.7303L49.3766 65.9114C49.3766 65.9114 49.4589 65.9279 49.4919 65.9114L49.7964 65.7303C49.7964 65.7303 49.8211 65.7139 49.8211 65.6974V65.6562C49.8211 65.6562 49.8211 65.681 49.7964 65.6892L49.4919 65.8703C49.4919 65.8703 49.4096 65.8867 49.3766 65.8703Z" fill="#A0A0BF"/>
<path d="M49.862 66.1593L49.5574 65.9782C49.5574 65.9782 49.5327 65.9535 49.5327 65.9453V65.9865C49.5327 65.9865 49.5327 66.0112 49.5574 66.0194L49.862 66.2005C49.862 66.2005 49.9443 66.217 49.9772 66.2005L50.2818 66.0194C50.2818 66.0194 50.3065 66.0029 50.3065 65.9865V65.9453C50.3065 65.9453 50.3065 65.97 50.2818 65.9782L49.9772 66.1593C49.9772 66.1593 49.8949 66.1758 49.862 66.1593Z" fill="#A0A0BF"/>
<path d="M50.7011 66.3333L51.0057 66.1522C51.0057 66.1522 51.0304 66.1358 51.0304 66.1193V66.0781C51.0304 66.0781 51.0304 66.1028 51.0057 66.111L50.7011 66.2921C50.7011 66.2921 50.6188 66.3086 50.5859 66.2921L50.2813 66.111C50.2813 66.111 50.2566 66.0864 50.2566 66.0781V66.1193C50.2566 66.1193 50.2566 66.144 50.2813 66.1522L50.5859 66.3333C50.5859 66.3333 50.6682 66.3498 50.7011 66.3333Z" fill="#A0A0BF"/>
<path d="M51.4501 66.4583L51.7547 66.2772C51.7547 66.2772 51.7794 66.2608 51.7794 66.2443V66.2031C51.7794 66.2031 51.7794 66.2278 51.7547 66.2361L51.4501 66.4172C51.4501 66.4172 51.3678 66.4336 51.3349 66.4172L51.0303 66.2361C51.0303 66.2361 51.0056 66.2114 51.0056 66.2031V66.2443C51.0056 66.2443 51.0056 66.269 51.0303 66.2772L51.3349 66.4583C51.3349 66.4583 51.4172 66.4748 51.4501 66.4583Z" fill="#A0A0BF"/>
<path d="M48.8901 66.1515L48.5855 65.9704C48.5855 65.9704 48.5608 65.9457 48.5608 65.9375V65.9787C48.5608 65.9787 48.5608 66.0034 48.5855 66.0116L48.8901 66.1927C48.8901 66.1927 48.9724 66.2092 49.0053 66.1927L49.3099 66.0116C49.3099 66.0116 49.3346 65.9951 49.3346 65.9787V65.9375C49.3346 65.9375 49.3346 65.9622 49.3099 65.9704L49.0053 66.1515C49.0053 66.1515 48.923 66.168 48.8901 66.1515Z" fill="#A0A0BF"/>
<path d="M49.3837 66.4328L49.0791 66.2517C49.0791 66.2517 49.0544 66.227 49.0544 66.2188V66.2599C49.0544 66.2599 49.0544 66.2846 49.0791 66.2928L49.3837 66.4739C49.3837 66.4739 49.466 66.4904 49.499 66.4739L49.8035 66.2928C49.8035 66.2928 49.8282 66.2764 49.8282 66.2599V66.2188C49.8282 66.2188 49.8282 66.2434 49.8035 66.2517L49.499 66.4328C49.499 66.4328 49.4166 66.4492 49.3837 66.4328Z" fill="#A0A0BF"/>
<path d="M50.2238 66.6146L50.5284 66.4335C50.5284 66.4335 50.5531 66.417 50.5531 66.4005V66.3594C50.5531 66.3594 50.5531 66.3841 50.5284 66.3923L50.2238 66.5734C50.2238 66.5734 50.1415 66.5899 50.1086 66.5734L49.804 66.3923C49.804 66.3923 49.7793 66.3676 49.7793 66.3594V66.4005C49.7793 66.4005 49.7793 66.4252 49.804 66.4335L50.1086 66.6146C50.1086 66.6146 50.1909 66.631 50.2238 66.6146Z" fill="#A0A0BF"/>
<path d="M50.9728 66.7317L51.2774 66.5506C51.2774 66.5506 51.3021 66.5342 51.3021 66.5177V66.4766C51.3021 66.4766 51.3021 66.5013 51.2774 66.5095L50.9728 66.6906C50.9728 66.6906 50.8905 66.7071 50.8576 66.6906L50.553 66.5095C50.553 66.5095 50.5283 66.4848 50.5283 66.4766V66.5177C50.5283 66.5177 50.5283 66.5424 50.553 66.5506L50.8576 66.7317C50.8576 66.7317 50.9399 66.7482 50.9728 66.7317Z" fill="#A0A0BF"/>
<path d="M48.4128 66.4328L48.1082 66.2517C48.1082 66.2517 48.0835 66.2352 48.0835 66.2188V66.2599C48.0835 66.2599 48.0835 66.2846 48.1082 66.2928L48.4128 66.4739C48.4128 66.4739 48.4951 66.4904 48.528 66.4739L48.8326 66.2928C48.8326 66.2928 48.8573 66.2764 48.8573 66.2599V66.2188C48.8573 66.2188 48.8573 66.2434 48.8326 66.2517L48.528 66.4328C48.528 66.4328 48.4457 66.4492 48.4128 66.4328Z" fill="#A0A0BF"/>
<path d="M48.9064 66.7062L48.6018 66.5251C48.6018 66.5251 48.5771 66.5004 48.5771 66.4922V66.5333C48.5771 66.5333 48.5771 66.558 48.6018 66.5663L48.9064 66.7474C48.9064 66.7474 48.9887 66.7638 49.0217 66.7474L49.3262 66.5663C49.3262 66.5663 49.3509 66.5498 49.3509 66.5333V66.4922C49.3509 66.4922 49.3509 66.5169 49.3262 66.5251L49.0217 66.7062C49.0217 66.7062 48.9393 66.7227 48.9064 66.7062Z" fill="#A0A0BF"/>
<path d="M49.7463 66.8958L50.0508 66.7147C50.0508 66.7147 50.0756 66.6983 50.0756 66.6818V66.6406C50.0756 66.6406 50.0755 66.6653 50.0508 66.6736L49.7463 66.8546C49.7463 66.8546 49.664 66.8711 49.631 66.8546L49.3265 66.6736C49.3265 66.6736 49.3018 66.6571 49.3018 66.6406V66.6818C49.3018 66.6818 49.3018 66.7065 49.3265 66.7147L49.631 66.8958C49.631 66.8958 49.7133 66.9123 49.7463 66.8958Z" fill="#A0A0BF"/>
<path d="M50.4956 67.0052L50.8001 66.8241C50.8001 66.8241 50.8248 66.8076 50.8248 66.7912V66.75C50.8248 66.75 50.8248 66.7747 50.8001 66.7829L50.4956 66.964C50.4956 66.964 50.4132 66.9805 50.3803 66.964L50.0757 66.7829C50.0757 66.7829 50.051 66.7582 50.051 66.75V66.7912C50.051 66.7912 50.051 66.8159 50.0757 66.8241L50.3803 67.0052C50.3803 67.0052 50.4626 67.0217 50.4956 67.0052Z" fill="#A0A0BF"/>
<path d="M47.9355 66.7062L47.6309 66.5251C47.6309 66.5251 47.6062 66.5004 47.6062 66.4922V66.5333C47.6062 66.5333 47.6062 66.558 47.6309 66.5663L47.9355 66.7474C47.9355 66.7474 48.0178 66.7638 48.0507 66.7474L48.3553 66.5663C48.3553 66.5663 48.38 66.5498 48.38 66.5333V66.4922C48.38 66.4922 48.38 66.5169 48.3553 66.5251L48.0507 66.7062C48.0507 66.7062 47.9684 66.7227 47.9355 66.7062Z" fill="#A0A0BF"/>
<path d="M48.4291 66.9875L48.1245 66.8064C48.1245 66.8064 48.0999 66.7817 48.0999 66.7734V66.8146C48.0999 66.8146 48.0999 66.8393 48.1245 66.8475L48.4291 67.0286C48.4291 67.0286 48.5115 67.0451 48.5444 67.0286L48.849 66.8475C48.849 66.8475 48.8736 66.8311 48.8736 66.8146V66.7734C48.8736 66.7734 48.8736 66.7981 48.849 66.8064L48.5444 66.9875C48.5444 66.9875 48.4621 67.0039 48.4291 66.9875Z" fill="#A0A0BF"/>
<path d="M49.2609 67.1692L49.5655 66.9882C49.5655 66.9882 49.5902 66.9717 49.5902 66.9552V66.9141C49.5902 66.9141 49.5902 66.9388 49.5655 66.947L49.2609 67.1281C49.2609 67.1281 49.1786 67.1446 49.1457 67.1281L48.8411 66.947C48.8411 66.947 48.8164 66.9223 48.8164 66.9141V66.9552C48.8164 66.9552 48.8164 66.9799 48.8411 66.9882L49.1457 67.1692C49.1457 67.1692 49.228 67.1857 49.2609 67.1692Z" fill="#A0A0BF"/>
<path d="M50.018 67.2942L50.3226 67.1131C50.3226 67.1131 50.3473 67.0967 50.3473 67.0802V67.0391C50.3473 67.0391 50.3473 67.0638 50.3226 67.072L50.018 67.2531C50.018 67.2531 49.9357 67.2695 49.9028 67.2531L49.5982 67.072C49.5982 67.072 49.5735 67.0473 49.5735 67.0391V67.0802C49.5735 67.0802 49.5735 67.1049 49.5982 67.1131L49.9028 67.2942C49.9028 67.2942 49.9851 67.3107 50.018 67.2942Z" fill="#A0A0BF"/>
<path d="M46.6346 66.5897L46.9391 66.7708C46.9391 66.7708 47.0214 66.7873 47.0544 66.7708L47.359 66.5897C47.359 66.5897 47.3837 66.5732 47.3837 66.5568V66.5156C47.3837 66.5156 47.3837 66.5403 47.359 66.5485L47.0544 66.7296C47.0544 66.7296 46.9721 66.7461 46.9391 66.7296L46.6346 66.5485C46.6346 66.5485 46.6099 66.5239 46.6099 66.5156V66.5568C46.6099 66.5568 46.6099 66.5815 46.6346 66.5897Z" fill="#A0A0BF"/>
<path d="M47.4582 66.9875L47.1536 66.8064C47.1536 66.8064 47.1289 66.7817 47.1289 66.7734V66.8146C47.1289 66.8146 47.1289 66.8393 47.1536 66.8475L47.4582 67.0286C47.4582 67.0286 47.5405 67.0451 47.5734 67.0286L47.878 66.8475C47.878 66.8475 47.9027 66.8311 47.9027 66.8146V66.7734C47.9027 66.7734 47.9027 66.7981 47.878 66.8064L47.5734 66.9875C47.5734 66.9875 47.4911 67.0039 47.4582 66.9875Z" fill="#A0A0BF"/>
<path d="M47.9435 67.2609L47.639 67.0798C47.639 67.0798 47.6143 67.0551 47.6143 67.0469V67.088C47.6143 67.088 47.6143 67.1127 47.639 67.121L47.9435 67.3021C47.9435 67.3021 48.0258 67.3185 48.0588 67.3021L48.3634 67.121C48.3634 67.121 48.3881 67.1045 48.3881 67.088V67.0469C48.3881 67.0469 48.3881 67.0716 48.3634 67.0798L48.0588 67.2609C48.0588 67.2609 47.9765 67.2774 47.9435 67.2609Z" fill="#A0A0BF"/>
<path d="M48.7834 67.4505L49.088 67.2694C49.088 67.2694 49.1126 67.2529 49.1126 67.2365V67.1953C49.1126 67.1953 49.1126 67.22 49.088 67.2282L48.7834 67.4093C48.7834 67.4093 48.7011 67.4258 48.6681 67.4093L48.3636 67.2282C48.3636 67.2282 48.3389 67.2035 48.3389 67.1953V67.2365C48.3389 67.2365 48.3389 67.2612 48.3636 67.2694L48.6681 67.4505C48.6681 67.4505 48.7505 67.467 48.7834 67.4505Z" fill="#A0A0BF"/>
<path d="M49.5407 67.5755L49.8453 67.3944C49.8453 67.3944 49.87 67.3779 49.87 67.3615V67.3203C49.87 67.3203 49.87 67.345 49.8453 67.3532L49.5407 67.5343C49.5407 67.5343 49.4584 67.5508 49.4255 67.5343L49.1209 67.3532C49.1209 67.3532 49.0962 67.3285 49.0962 67.3203V67.3615C49.0962 67.3615 49.0962 67.3862 49.1209 67.3944L49.4255 67.5755C49.4255 67.5755 49.5078 67.592 49.5407 67.5755Z" fill="#A0A0BF"/>
<path d="M46.158 66.8631L46.4626 67.0442C46.4626 67.0442 46.5449 67.0607 46.5778 67.0442L46.8824 66.8631C46.8824 66.8631 46.9071 66.8467 46.9071 66.8302V66.7891C46.9071 66.7891 46.9071 66.8138 46.8824 66.822L46.5778 67.0031C46.5778 67.0031 46.4955 67.0195 46.4626 67.0031L46.158 66.822C46.158 66.822 46.1333 66.7973 46.1333 66.7891V66.8302C46.1333 66.8302 46.1333 66.8549 46.158 66.8631Z" fill="#A0A0BF"/>
<path d="M47.0878 67.3021L47.3924 67.121C47.3924 67.121 47.4171 67.1045 47.4171 67.088V67.0469C47.4171 67.0469 47.4171 67.0716 47.3924 67.0798L47.0878 67.2609C47.0878 67.2609 47.0055 67.2774 46.9726 67.2609L46.668 67.0798C46.668 67.0798 46.6433 67.0551 46.6433 67.0469V67.088C46.6433 67.088 46.6433 67.1127 46.668 67.121L46.9726 67.3021C46.9726 67.3021 47.0549 67.3185 47.0878 67.3021Z" fill="#A0A0BF"/>
<path d="M47.1617 67.41L47.4662 67.5911C47.4662 67.5911 47.5485 67.6076 47.5815 67.5911L47.8861 67.41C47.8861 67.41 47.9108 67.3936 47.9108 67.3771V67.3359C47.9108 67.3359 47.9108 67.3606 47.8861 67.3689L47.5815 67.55C47.5815 67.55 47.4992 67.5664 47.4662 67.55L47.1617 67.3689C47.1617 67.3689 47.137 67.3442 47.137 67.3359V67.3771C47.137 67.3771 47.137 67.4018 47.1617 67.41Z" fill="#A0A0BF"/>
<path d="M47.8616 67.4766V67.5177C47.8616 67.5177 47.8616 67.5424 47.8863 67.5506L48.1908 67.7317C48.1908 67.7317 48.2732 67.7482 48.3061 67.7317L48.6107 67.5506C48.6107 67.5506 48.6354 67.5342 48.6354 67.5177V67.4766C48.6354 67.4766 48.6354 67.5013 48.6107 67.5095L48.3061 67.6906C48.3061 67.6906 48.2238 67.707 48.1908 67.6906L47.8863 67.5095C47.8863 67.5095 47.8616 67.493 47.8616 67.4766Z" fill="#A0A0BF"/>
<path d="M49.0551 67.8567L49.3597 67.6756C49.3597 67.6756 49.3844 67.6592 49.3844 67.6427V67.6016C49.3844 67.6016 49.3844 67.6263 49.3597 67.6345L49.0551 67.8156C49.0551 67.8156 48.9728 67.8321 48.9399 67.8156L48.6353 67.6345C48.6353 67.6345 48.6106 67.6098 48.6106 67.6016V67.6427C48.6106 67.6427 48.6106 67.6674 48.6353 67.6756L48.9399 67.8567C48.9399 67.8567 49.0222 67.8732 49.0551 67.8567Z" fill="#A0A0BF"/>
<path d="M45.6797 67.1433L45.762 67.1927C45.762 67.1927 45.8444 67.2092 45.8773 67.1927L46.1819 67.0116C46.1819 67.0116 46.2066 66.9951 46.2066 66.9787V66.9375C46.2066 66.9375 46.2066 66.9622 46.1819 66.9704L45.8773 67.1515C45.8773 67.1515 45.795 67.168 45.762 67.1515L45.6797 67.1021C45.6797 67.1021 45.655 67.0774 45.655 67.0692V67.1104C45.655 67.1104 45.655 67.1351 45.6797 67.1433Z" fill="#A0A0BF"/>
<path d="M46.4295 67.1115V67.0703C46.4295 67.0703 46.4295 67.095 46.4048 67.1032L46.1002 67.2843C46.1002 67.2843 46.0179 67.3008 45.9849 67.2843L45.9026 67.2349C45.9026 67.2349 45.8779 67.2103 45.8779 67.202V67.2432C45.8779 67.2432 45.8779 67.2679 45.9026 67.2761L45.9849 67.3255C45.9849 67.3255 46.0673 67.342 46.1002 67.3255L46.4048 67.1444C46.4048 67.1444 46.4295 67.1279 46.4295 67.1115Z" fill="#A0A0BF"/>
<path d="M46.1988 67.4022L46.5033 67.5833C46.5033 67.5833 46.5857 67.5998 46.6186 67.5833L46.9232 67.4022C46.9232 67.4022 46.9479 67.3858 46.9479 67.3693V67.3281C46.9479 67.3281 46.9479 67.3528 46.9232 67.3611L46.6186 67.5422C46.6186 67.5422 46.5363 67.5586 46.5033 67.5422L46.1988 67.3611C46.1988 67.3611 46.1741 67.3364 46.1741 67.3281V67.3693C46.1741 67.3693 46.1741 67.394 46.1988 67.4022Z" fill="#A0A0BF"/>
<path d="M45.9352 67.4005V67.3594C45.9352 67.3594 45.9352 67.3841 45.9105 67.3923L45.6059 67.5734C45.6059 67.5734 45.5236 67.5899 45.4906 67.5734L45.1861 67.3923C45.1861 67.3923 45.1614 67.3676 45.1614 67.3594V67.4005C45.1614 67.4005 45.1614 67.4252 45.1861 67.4335L45.4906 67.6146C45.4906 67.6146 45.573 67.631 45.6059 67.6146L45.9105 67.4335C45.9105 67.4335 45.9352 67.417 45.9352 67.4005Z" fill="#A0A0BF"/>
<path d="M46.4619 67.6505V67.6094C46.4619 67.6094 46.4619 67.6341 46.4372 67.6423L46.0915 67.8481C46.0915 67.8481 46.0092 67.8646 45.9762 67.8481L45.6717 67.667C45.6717 67.667 45.647 67.6423 45.647 67.6341V67.6752C45.647 67.6752 45.647 67.6999 45.6717 67.7082L45.9762 67.8893C45.9762 67.8893 46.0586 67.9057 46.0915 67.8893L46.4372 67.6835C46.4372 67.6835 46.4619 67.667 46.4619 67.6505Z" fill="#A0A0BF"/>
<path d="M47.433 67.6505V67.6094C47.433 67.6094 47.433 67.6341 47.4083 67.6423L46.5852 68.1197C46.5852 68.1197 46.5028 68.1362 46.4699 68.1197L46.1653 67.9386C46.1653 67.9386 46.1406 67.914 46.1406 67.9057V67.9469C46.1406 67.9469 46.1406 67.9716 46.1653 67.9798L46.4699 68.1609C46.4699 68.1609 46.5522 68.1774 46.5852 68.1609L47.4083 67.6835C47.4083 67.6835 47.433 67.667 47.433 67.6505Z" fill="#A0A0BF"/>
<path d="M47.3843 67.75V67.7912C47.3843 67.7912 47.3843 67.8159 47.409 67.8241L47.7135 68.0052C47.7135 68.0052 47.7959 68.0216 47.8288 68.0052L48.1334 67.8241C48.1334 67.8241 48.1581 67.8076 48.1581 67.7912V67.75C48.1581 67.75 48.1581 67.7747 48.1334 67.7829L47.8288 67.964C47.8288 67.964 47.7465 67.9805 47.7135 67.964L47.409 67.7829C47.409 67.7829 47.3843 67.7582 47.3843 67.75Z" fill="#A0A0BF"/>
<path d="M48.5778 68.1224L48.8824 67.9413C48.8824 67.9413 48.9071 67.9248 48.9071 67.9083V67.8672C48.9071 67.8672 48.9071 67.8919 48.8824 67.9001L48.5778 68.0812C48.5778 68.0812 48.4955 68.0977 48.4626 68.0812L48.158 67.9001C48.158 67.9001 48.1333 67.8754 48.1333 67.8672V67.9083C48.1333 67.9083 48.1333 67.933 48.158 67.9413L48.4626 68.1224C48.4626 68.1224 48.5449 68.1388 48.5778 68.1224Z" fill="#A0A0BF"/>
<path d="M47.6726 68.0802V68.0391C47.6726 68.0391 47.6726 68.0638 47.6479 68.072L47.0634 68.4095C47.0634 68.4095 46.9811 68.426 46.9482 68.4095L46.6436 68.2284C46.6436 68.2284 46.6189 68.2037 46.6189 68.1955V68.2366C46.6189 68.2366 46.6189 68.2613 46.6436 68.2696L46.9482 68.4507C46.9482 68.4507 47.0305 68.4671 47.0634 68.4507L47.6479 68.1132C47.6479 68.1132 47.6726 68.0967 47.6726 68.0802Z" fill="#A0A0BF"/>
<path d="M47.6641 68.1562V68.1974C47.6641 68.1974 47.6641 68.2221 47.6888 68.2303L47.9933 68.4114C47.9933 68.4114 48.0757 68.4279 48.1086 68.4114L48.4132 68.2303C48.4132 68.2303 48.4379 68.2139 48.4379 68.1974V68.1562C48.4379 68.1562 48.4379 68.1809 48.4132 68.1892L48.1086 68.3703C48.1086 68.3703 48.0263 68.3867 47.9933 68.3703L47.6888 68.1892C47.6888 68.1892 47.6641 68.1645 47.6641 68.1562Z" fill="#A0A0BF"/>
<path d="M47.9521 68.4708V68.4297C47.9521 68.4297 47.9521 68.4544 47.9274 68.4626L47.5488 68.6849C47.5488 68.6849 47.4664 68.7013 47.4335 68.6849L47.1289 68.5038C47.1289 68.5038 47.1042 68.4791 47.1042 68.4708V68.512C47.1042 68.512 47.1042 68.5367 47.1289 68.5449L47.4335 68.726C47.4335 68.726 47.5158 68.7425 47.5488 68.726L47.9274 68.5038C47.9274 68.5038 47.9521 68.4873 47.9521 68.4708Z" fill="#A0A0BF"/>
<path d="M54.4056 64.9939L54.0269 65.2161C54.0269 65.2161 53.9446 65.2326 53.9117 65.2161L53.8294 65.1667C53.8294 65.1667 53.8047 65.142 53.8047 65.1338V65.175C53.8047 65.175 53.8047 65.1997 53.8294 65.2079L53.9117 65.2573C53.9117 65.2573 53.994 65.2737 54.0269 65.2573L54.4056 65.035C54.4056 65.035 54.4303 65.0186 54.4303 65.0021V64.9609C54.4303 64.9609 54.4303 64.9856 54.4056 64.9939Z" fill="#A0A0BF"/>
<path d="M53.8542 65.3142L53.5496 65.4953C53.5496 65.4953 53.4673 65.5117 53.4344 65.4953L53.3521 65.4459C53.3521 65.4459 53.3274 65.4212 53.3274 65.413V65.4541C53.3274 65.4541 53.3274 65.4788 53.3521 65.487L53.4344 65.5364C53.4344 65.5364 53.5167 65.5529 53.5496 65.5364L53.8542 65.3553C53.8542 65.3553 53.8789 65.3389 53.8789 65.3224V65.2812C53.8789 65.2812 53.8789 65.3059 53.8542 65.3142Z" fill="#A0A0BF"/>
<path d="M53.3767 65.5954L53.0721 65.7765C53.0721 65.7765 52.9898 65.793 52.9569 65.7765L52.8745 65.7271C52.8745 65.7271 52.8499 65.7024 52.8499 65.6942V65.7354C52.8499 65.7354 52.8499 65.7601 52.8745 65.7683L52.9569 65.8177C52.9569 65.8177 53.0392 65.8341 53.0721 65.8177L53.3767 65.6366C53.3767 65.6366 53.4014 65.6201 53.4014 65.6037V65.5625C53.4014 65.5625 53.4014 65.5872 53.3767 65.5954Z" fill="#A0A0BF"/>
<path d="M52.8994 65.8767L52.5948 66.0578C52.5948 66.0578 52.5125 66.0742 52.4796 66.0578L52.3973 66.0084C52.3973 66.0084 52.3726 65.9837 52.3726 65.9754V66.0166C52.3726 66.0166 52.3726 66.0413 52.3973 66.0495L52.4796 66.0989C52.4796 66.0989 52.5619 66.1154 52.5948 66.0989L52.8994 65.9178C52.8994 65.9178 52.9241 65.9014 52.9241 65.8849V65.8438C52.9241 65.8438 52.9241 65.8684 52.8994 65.8767Z" fill="#A0A0BF"/>
<path d="M52.4221 66.1579L52.1175 66.339C52.1175 66.339 52.0352 66.3555 52.0023 66.339L51.92 66.2896C51.92 66.2896 51.8953 66.2649 51.8953 66.2567V66.2979C51.8953 66.2979 51.8953 66.3226 51.92 66.3308L52.0023 66.3802C52.0023 66.3802 52.0846 66.3966 52.1175 66.3802L52.4221 66.1991C52.4221 66.1991 52.4468 66.1826 52.4468 66.1662V66.125C52.4468 66.125 52.4468 66.1497 52.4221 66.1579Z" fill="#A0A0BF"/>
<path d="M51.9355 66.4314L51.631 66.6125C51.631 66.6125 51.5486 66.6289 51.5157 66.6125L51.4334 66.5631C51.4334 66.5631 51.4087 66.5384 51.4087 66.5301V66.5713C51.4087 66.5713 51.4087 66.596 51.4334 66.6042L51.5157 66.6536C51.5157 66.6536 51.598 66.6701 51.631 66.6536L51.9355 66.4725C51.9355 66.4725 51.9602 66.4561 51.9602 66.4396V66.3984C51.9602 66.3984 51.9602 66.4231 51.9355 66.4314Z" fill="#A0A0BF"/>
<path d="M51.4582 66.7048L51.1537 66.8859C51.1537 66.8859 51.0713 66.9024 51.0384 66.8859L50.9561 66.8365C50.9561 66.8365 50.9314 66.8201 50.9314 66.8036V66.8447C50.9314 66.8447 50.9314 66.8694 50.9561 66.8777L51.0384 66.9271C51.0384 66.9271 51.1207 66.9435 51.1537 66.9271L51.4582 66.746C51.4582 66.746 51.4829 66.7295 51.4829 66.713V66.6719C51.4829 66.6719 51.4829 66.6966 51.4582 66.7048Z" fill="#A0A0BF"/>
<path d="M50.9817 66.9861L50.6771 67.1671C50.6771 67.1671 50.5948 67.1836 50.5619 67.1671L50.4795 67.1178C50.4795 67.1178 50.4548 67.0931 50.4548 67.0848V67.126C50.4548 67.126 50.4548 67.1507 50.4795 67.1589L50.5619 67.2083C50.5619 67.2083 50.6442 67.2248 50.6771 67.2083L50.9817 67.0272C50.9817 67.0272 51.0064 67.0108 51.0064 66.9943V66.9531C51.0064 66.9531 51.0064 66.9778 50.9817 66.9861Z" fill="#A0A0BF"/>
<path d="M50.5034 67.2673L50.1988 67.4484C50.1988 67.4484 50.1165 67.4649 50.0836 67.4484L50.0013 67.399C50.0013 67.399 49.9766 67.3743 49.9766 67.3661V67.4072C49.9766 67.4072 49.9766 67.4319 50.0013 67.4402L50.0836 67.4896C50.0836 67.4896 50.1659 67.506 50.1988 67.4896L50.5034 67.3085C50.5034 67.3085 50.5281 67.292 50.5281 67.2755V67.2344C50.5281 67.2344 50.5281 67.2591 50.5034 67.2673Z" fill="#A0A0BF"/>
<path d="M50.0261 67.5485L49.7215 67.7296C49.7215 67.7296 49.6392 67.7461 49.6063 67.7296L49.524 67.6803C49.524 67.6803 49.4993 67.6556 49.4993 67.6473V67.6885C49.4993 67.6885 49.4993 67.7132 49.524 67.7214L49.6063 67.7708C49.6063 67.7708 49.6886 67.7873 49.7215 67.7708L50.0261 67.5897C50.0261 67.5897 50.0508 67.5732 50.0508 67.5568V67.5156C50.0508 67.5156 50.0508 67.5403 50.0261 67.5485Z" fill="#A0A0BF"/>
<path d="M49.5488 67.8142L49.2442 67.9953C49.2442 67.9953 49.1619 68.0117 49.129 67.9953L49.0467 67.9459C49.0467 67.9459 49.022 67.9212 49.022 67.913V67.9541C49.022 67.9541 49.022 67.9788 49.0467 67.987L49.129 68.0364C49.129 68.0364 49.2113 68.0529 49.2442 68.0364L49.5488 67.8553C49.5488 67.8553 49.5735 67.8389 49.5735 67.8224V67.7812C49.5735 67.7812 49.5735 67.806 49.5488 67.8142Z" fill="#A0A0BF"/>
<path d="M49.0715 68.0954L48.7669 68.2765C48.7669 68.2765 48.6846 68.293 48.6517 68.2765L48.5694 68.2271C48.5694 68.2271 48.5447 68.2024 48.5447 68.1942V68.2354C48.5447 68.2354 48.5447 68.2601 48.5694 68.2683L48.6517 68.3177C48.6517 68.3177 48.734 68.3341 48.7669 68.3177L49.0715 68.1366C49.0715 68.1366 49.0962 68.1201 49.0962 68.1037V68.0625C49.0962 68.0625 49.0962 68.0872 49.0715 68.0954Z" fill="#A0A0BF"/>
<path d="M48.594 68.3767L48.2894 68.5578C48.2894 68.5578 48.2071 68.5742 48.1741 68.5578L48.0918 68.5084C48.0918 68.5084 48.0671 68.4837 48.0671 68.4755V68.5166C48.0671 68.5166 48.0671 68.5413 48.0918 68.5495L48.1741 68.5989C48.1741 68.5989 48.2565 68.6154 48.2894 68.5989L48.594 68.4178C48.594 68.4178 48.6187 68.4014 48.6187 68.3849V68.3438C48.6187 68.3438 48.6187 68.3684 48.594 68.3767Z" fill="#A0A0BF"/>
<path d="M48.1086 68.6657L47.804 68.8468C47.804 68.8468 47.7217 68.8633 47.6888 68.8468L47.6065 68.7974C47.6065 68.7974 47.5818 68.7728 47.5818 68.7645V68.8057C47.5818 68.8057 47.5818 68.8304 47.6065 68.8386L47.6888 68.888C47.6888 68.888 47.7711 68.9045 47.804 68.888L48.1086 68.7069C48.1086 68.7069 48.1333 68.6904 48.1333 68.674V68.6328C48.1333 68.6328 48.1333 68.6575 48.1086 68.6657Z" fill="#A0A0BF"/>
<path d="M52.2071 63.665C52.2071 63.665 52.24 63.7144 52.2071 63.7308L51.9025 63.9119C51.9025 63.9119 51.8202 63.9284 51.7872 63.9119L51.4827 63.7308C51.4827 63.7308 51.4497 63.6814 51.4827 63.665L51.7872 63.4839C51.7872 63.4839 51.8695 63.4674 51.9025 63.4839L52.2071 63.665Z" fill="#B2B2D6"/>
<path d="M51.7298 63.9462C51.7298 63.9462 51.7627 63.9956 51.7298 64.0121L51.4252 64.1932C51.4252 64.1932 51.3429 64.2097 51.3099 64.1932L51.0054 64.0121C51.0054 64.0121 50.9724 63.9627 51.0054 63.9462L51.3099 63.7651C51.3099 63.7651 51.3923 63.7487 51.4252 63.7651L51.7298 63.9462Z" fill="#B2B2D6"/>
<path d="M52.693 63.9462C52.693 63.9462 52.7259 63.9956 52.693 64.0121L51.8781 64.4895C51.8781 64.4895 51.7957 64.506 51.7628 64.4895L51.4582 64.3084C51.4582 64.3084 51.4253 64.259 51.4582 64.2426L52.2732 63.7651C52.2732 63.7651 52.3555 63.7487 52.3884 63.7651L52.693 63.9462Z" fill="#B2B2D6"/>
<path d="M53.1784 64.2197C53.1784 64.2197 53.2113 64.269 53.1784 64.2855L52.3634 64.763C52.3634 64.763 52.2811 64.7794 52.2482 64.763L51.9436 64.5819C51.9436 64.5819 51.9107 64.5325 51.9436 64.516L52.7585 64.0386C52.7585 64.0386 52.8409 64.0221 52.8738 64.0386L53.1784 64.2197Z" fill="#B2B2D6"/>
<path d="M53.6645 64.5087C53.6645 64.5087 53.6974 64.5581 53.6645 64.5746L53.0883 64.9121C53.0883 64.9121 53.0059 64.9285 52.973 64.9121L52.6684 64.731C52.6684 64.731 52.6355 64.6816 52.6684 64.6651L53.2447 64.3276C53.2447 64.3276 53.327 64.3112 53.3599 64.3276L53.6645 64.5087Z" fill="#B2B2D6"/>
<path d="M54.1499 64.7822C54.1499 64.7822 54.1829 64.8316 54.1499 64.848L53.8453 65.0291C53.8453 65.0291 53.763 65.0456 53.7301 65.0291L53.4255 64.848C53.4255 64.848 53.3926 64.7986 53.4255 64.7822L53.7301 64.6011C53.7301 64.6011 53.8124 64.5846 53.8453 64.6011L54.1499 64.7822Z" fill="#B2B2D6"/>
<path d="M51.2522 64.2197C51.2522 64.2197 51.2851 64.269 51.2522 64.2855L50.9476 64.4666C50.9476 64.4666 50.8653 64.4831 50.8324 64.4666L50.5278 64.2855C50.5278 64.2855 50.4949 64.2361 50.5278 64.2197L50.8324 64.0386C50.8324 64.0386 50.9147 64.0221 50.9476 64.0386L51.2522 64.2197Z" fill="#B2B2D6"/>
<path d="M51.7053 64.5165C51.7053 64.5165 51.7383 64.5659 51.7053 64.5824L51.4008 64.7635C51.4008 64.7635 51.3184 64.78 51.2855 64.7635L50.9809 64.5824C50.9809 64.5824 50.948 64.533 50.9809 64.5165L51.2855 64.3354C51.2855 64.3354 51.3678 64.319 51.4008 64.3354L51.7053 64.5165Z" fill="#B2B2D6"/>
<path d="M52.1907 64.8056C52.1907 64.8056 52.2236 64.855 52.1907 64.8715L51.8861 65.0526C51.8861 65.0526 51.8038 65.069 51.7709 65.0526L51.4663 64.8715C51.4663 64.8715 51.4334 64.8221 51.4663 64.8056L51.7709 64.6245C51.7709 64.6245 51.8532 64.608 51.8861 64.6245L52.1907 64.8056Z" fill="#B2B2D6"/>
<path d="M52.9153 64.9462C52.9153 64.9462 52.9482 64.9956 52.9153 65.0121L52.6107 65.1932C52.6107 65.1932 52.5284 65.2097 52.4955 65.1932L52.1909 65.0121C52.1909 65.0121 52.158 64.9627 52.1909 64.9462L52.4955 64.7651C52.4955 64.7651 52.5778 64.7487 52.6107 64.7651L52.9153 64.9462Z" fill="#B2B2D6"/>
<path d="M53.6726 65.0634C53.6726 65.0634 53.7056 65.1128 53.6726 65.1293L53.3681 65.3104C53.3681 65.3104 53.2857 65.3268 53.2528 65.3104L52.9482 65.1293C52.9482 65.1293 52.9153 65.0799 52.9482 65.0634L53.2528 64.8823C53.2528 64.8823 53.3351 64.8659 53.3681 64.8823L53.6726 65.0634Z" fill="#B2B2D6"/>
<path d="M50.7749 64.5087C50.7749 64.5087 50.8079 64.5581 50.7749 64.5746L50.4704 64.7557C50.4704 64.7557 50.388 64.7722 50.3551 64.7557L50.0505 64.5746C50.0505 64.5746 50.0176 64.5252 50.0505 64.5087L50.3551 64.3276C50.3551 64.3276 50.4374 64.3112 50.4704 64.3276L50.7749 64.5087Z" fill="#B2B2D6"/>
<path d="M51.2278 64.8056C51.2278 64.8056 51.2607 64.855 51.2278 64.8715L50.9232 65.0526C50.9232 65.0526 50.8409 65.069 50.808 65.0526L50.5034 64.8715C50.5034 64.8715 50.4705 64.8221 50.5034 64.8056L50.808 64.6245C50.808 64.6245 50.8903 64.608 50.9232 64.6245L51.2278 64.8056Z" fill="#B2B2D6"/>
<path d="M51.7134 65.079C51.7134 65.079 51.7463 65.1284 51.7134 65.1449L51.4088 65.326C51.4088 65.326 51.3265 65.3425 51.2936 65.326L50.989 65.1449C50.989 65.1449 50.9561 65.0955 50.989 65.079L51.2936 64.8979C51.2936 64.8979 51.3759 64.8815 51.4088 64.8979L51.7134 65.079Z" fill="#B2B2D6"/>
<path d="M52.437 65.2197C52.437 65.2197 52.47 65.2691 52.437 65.2855L52.1325 65.4666C52.1325 65.4666 52.0501 65.4831 52.0172 65.4666L51.7126 65.2855C51.7126 65.2855 51.6797 65.2361 51.7126 65.2197L52.0172 65.0386C52.0172 65.0386 52.0995 65.0221 52.1325 65.0386L52.437 65.2197Z" fill="#B2B2D6"/>
<path d="M53.1944 65.3447C53.1944 65.3447 53.2273 65.394 53.1944 65.4105L52.8898 65.5916C52.8898 65.5916 52.8075 65.6081 52.7745 65.5916L52.47 65.4105C52.47 65.4105 52.437 65.3611 52.47 65.3447L52.7745 65.1636C52.7745 65.1636 52.8569 65.1471 52.8898 65.1636L53.1944 65.3447Z" fill="#B2B2D6"/>
<path d="M50.2969 64.7822C50.2969 64.7822 50.3298 64.8316 50.2969 64.848L47.5392 66.4532C47.5392 66.4532 47.4569 66.4697 47.424 66.4532L47.1194 66.2721C47.1194 66.2721 47.0864 66.2227 47.1194 66.2063L49.877 64.6011C49.877 64.6011 49.9594 64.5846 49.9923 64.6011L50.2969 64.7822Z" fill="#B2B2D6"/>
<path d="M50.7415 65.079C50.7415 65.079 50.7744 65.1284 50.7415 65.1449L50.4369 65.326C50.4369 65.326 50.3546 65.3425 50.3216 65.326L50.0171 65.1449C50.0171 65.1449 49.9841 65.0955 50.0171 65.079L50.3216 64.8979C50.3216 64.8979 50.404 64.8815 50.4369 64.8979L50.7415 65.079Z" fill="#B2B2D6"/>
<path d="M51.2361 65.3603C51.2361 65.3603 51.269 65.4097 51.2361 65.4261L50.9315 65.6073C50.9315 65.6073 50.8492 65.6237 50.8163 65.6073L50.5117 65.4261C50.5117 65.4261 50.4788 65.3768 50.5117 65.3603L50.8163 65.1792C50.8163 65.1792 50.8986 65.1627 50.9315 65.1792L51.2361 65.3603Z" fill="#B2B2D6"/>
<path d="M51.9597 65.5009C51.9597 65.5009 51.9927 65.5503 51.9597 65.5668L51.6552 65.7479C51.6552 65.7479 51.5729 65.7643 51.5399 65.7479L51.2353 65.5668C51.2353 65.5668 51.2024 65.5174 51.2353 65.5009L51.5399 65.3198C51.5399 65.3198 51.6222 65.3034 51.6552 65.3198L51.9597 65.5009Z" fill="#B2B2D6"/>
<path d="M52.7088 65.6259C52.7088 65.6259 52.7417 65.6753 52.7088 65.6918L52.4042 65.8729C52.4042 65.8729 52.3219 65.8893 52.2889 65.8729L51.9844 65.6918C51.9844 65.6918 51.9514 65.6424 51.9844 65.6259L52.2889 65.4448C52.2889 65.4448 52.3713 65.4284 52.4042 65.4448L52.7088 65.6259Z" fill="#B2B2D6"/>
<path d="M50.2642 65.3525C50.2642 65.3525 50.2971 65.4019 50.2642 65.4183L49.9596 65.5994C49.9596 65.5994 49.8773 65.6159 49.8444 65.5994L49.5398 65.4183C49.5398 65.4183 49.5069 65.3689 49.5398 65.3525L49.8444 65.1714C49.8444 65.1714 49.9267 65.1549 49.9596 65.1714L50.2642 65.3525Z" fill="#B2B2D6"/>
<path d="M50.7586 65.6337C50.7586 65.6337 50.7915 65.6831 50.7586 65.6996L50.454 65.8807C50.454 65.8807 50.3717 65.8971 50.3387 65.8807L50.0342 65.6996C50.0342 65.6996 50.0012 65.6502 50.0342 65.6337L50.3387 65.4526C50.3387 65.4526 50.4211 65.4362 50.454 65.4526L50.7586 65.6337Z" fill="#B2B2D6"/>
<path d="M51.4824 65.7822C51.4824 65.7822 51.5154 65.8316 51.4824 65.848L51.1779 66.0291C51.1779 66.0291 51.0956 66.0456 51.0626 66.0291L50.758 65.848C50.758 65.848 50.7251 65.7986 50.758 65.7822L51.0626 65.6011C51.0626 65.6011 51.1449 65.5846 51.1779 65.6011L51.4824 65.7822Z" fill="#B2B2D6"/>
<path d="M52.2315 65.9072C52.2315 65.9072 52.2644 65.9566 52.2315 65.973L51.9269 66.1541C51.9269 66.1541 51.8446 66.1706 51.8117 66.1541L51.5071 65.973C51.5071 65.973 51.4741 65.9236 51.5071 65.9072L51.8117 65.7261C51.8117 65.7261 51.894 65.7096 51.9269 65.7261L52.2315 65.9072Z" fill="#B2B2D6"/>
<path d="M49.7866 65.6337C49.7866 65.6337 49.8196 65.6831 49.7866 65.6996L49.4821 65.8807C49.4821 65.8807 49.3998 65.8972 49.3668 65.8807L49.0622 65.6996C49.0622 65.6996 49.0293 65.6502 49.0622 65.6337L49.3668 65.4526C49.3668 65.4526 49.4491 65.4362 49.4821 65.4526L49.7866 65.6337Z" fill="#B2B2D6"/>
<path d="M50.2722 65.915C50.2722 65.915 50.3052 65.9644 50.2722 65.9808L49.9677 66.1619C49.9677 66.1619 49.8853 66.1784 49.8524 66.1619L49.5478 65.9808C49.5478 65.9808 49.5149 65.9314 49.5478 65.915L49.8524 65.7339C49.8524 65.7339 49.9347 65.7174 49.9677 65.7339L50.2722 65.915Z" fill="#B2B2D6"/>
<path d="M51.0051 66.0556C51.0051 66.0556 51.0381 66.105 51.0051 66.1215L50.7006 66.3026C50.7006 66.3026 50.6182 66.319 50.5853 66.3026L50.2807 66.1215C50.2807 66.1215 50.2478 66.0721 50.2807 66.0556L50.5853 65.8745C50.5853 65.8745 50.6676 65.858 50.7006 65.8745L51.0051 66.0556Z" fill="#B2B2D6"/>
<path d="M51.7542 66.1728C51.7542 66.1728 51.7871 66.2222 51.7542 66.2386L51.4496 66.4198C51.4496 66.4198 51.3673 66.4362 51.3344 66.4198L51.0298 66.2386C51.0298 66.2386 50.9968 66.1893 51.0298 66.1728L51.3344 65.9917C51.3344 65.9917 51.4167 65.9752 51.4496 65.9917L51.7542 66.1728Z" fill="#B2B2D6"/>
<path d="M49.3094 65.915C49.3094 65.915 49.3423 65.9644 49.3094 65.9808L49.0048 66.1619C49.0048 66.1619 48.9225 66.1784 48.8895 66.1619L48.5849 65.9808C48.5849 65.9808 48.552 65.9314 48.5849 65.915L48.8895 65.7339C48.8895 65.7339 48.9719 65.7174 49.0048 65.7339L49.3094 65.915Z" fill="#B2B2D6"/>
<path d="M49.7949 66.1962C49.7949 66.1962 49.8279 66.2456 49.7949 66.2621L49.4904 66.4432C49.4904 66.4432 49.408 66.4596 49.3751 66.4432L49.0705 66.2621C49.0705 66.2621 49.0376 66.2127 49.0705 66.1962L49.3751 66.0151C49.3751 66.0151 49.4574 65.9987 49.4904 66.0151L49.7949 66.1962Z" fill="#B2B2D6"/>
<path d="M50.5276 66.329C50.5276 66.329 50.5605 66.3784 50.5276 66.3949L50.223 66.576C50.223 66.576 50.1407 66.5925 50.1078 66.576L49.8032 66.3949C49.8032 66.3949 49.7703 66.3455 49.8032 66.329L50.1078 66.1479C50.1078 66.1479 50.1901 66.1315 50.223 66.1479L50.5276 66.329Z" fill="#B2B2D6"/>
<path d="M51.2769 66.454C51.2769 66.454 51.3098 66.5034 51.2769 66.5199L50.9723 66.701C50.9723 66.701 50.89 66.7175 50.8571 66.701L50.5525 66.5199C50.5525 66.5199 50.5195 66.4705 50.5525 66.454L50.8571 66.2729C50.8571 66.2729 50.9394 66.2565 50.9723 66.2729L51.2769 66.454Z" fill="#B2B2D6"/>
<path d="M48.832 66.1962C48.832 66.1962 48.865 66.2456 48.832 66.2621L48.5275 66.4432C48.5275 66.4432 48.4452 66.4596 48.4122 66.4432L48.1077 66.2621C48.1077 66.2621 48.0747 66.2127 48.1077 66.1962L48.4122 66.0151C48.4122 66.0151 48.4945 65.9987 48.5275 66.0151L48.832 66.1962Z" fill="#B2B2D6"/>
<path d="M49.3174 66.4697C49.3174 66.4697 49.3503 66.5191 49.3174 66.5355L49.0128 66.7166C49.0128 66.7166 48.9305 66.7331 48.8976 66.7166L48.593 66.5355C48.593 66.5355 48.5601 66.4861 48.593 66.4697L48.8976 66.2886C48.8976 66.2886 48.9799 66.2721 49.0128 66.2886L49.3174 66.4697Z" fill="#B2B2D6"/>
<path d="M50.0503 66.6103C50.0503 66.6103 50.0832 66.6597 50.0503 66.6761L49.7457 66.8573C49.7457 66.8573 49.6634 66.8737 49.6305 66.8573L49.3259 66.6761C49.3259 66.6761 49.293 66.6268 49.3259 66.6103L49.6305 66.4292C49.6305 66.4292 49.7128 66.4127 49.7457 66.4292L50.0503 66.6103Z" fill="#B2B2D6"/>
<path d="M50.7993 66.7275C50.7993 66.7275 50.8323 66.7769 50.7993 66.7933L50.4948 66.9744C50.4948 66.9744 50.4124 66.9909 50.3795 66.9744L50.0749 66.7933C50.0749 66.7933 50.042 66.7439 50.0749 66.7275L50.3795 66.5464C50.3795 66.5464 50.4618 66.5299 50.4948 66.5464L50.7993 66.7275Z" fill="#B2B2D6"/>
<path d="M48.3545 66.4619C48.3545 66.4619 48.3874 66.5112 48.3545 66.5277L48.0499 66.7088C48.0499 66.7088 47.9676 66.7253 47.9347 66.7088L47.6301 66.5277C47.6301 66.5277 47.5972 66.4783 47.6301 66.4619L47.9347 66.2808C47.9347 66.2808 48.017 66.2643 48.0499 66.2808L48.3545 66.4619Z" fill="#B2B2D6"/>
<path d="M48.8401 66.7509C48.8401 66.7509 48.873 66.8003 48.8401 66.8168L48.5355 66.9979C48.5355 66.9979 48.4532 67.0143 48.4203 66.9979L48.1157 66.8168C48.1157 66.8168 48.0828 66.7674 48.1157 66.7509L48.4203 66.5698C48.4203 66.5698 48.5026 66.5534 48.5355 66.5698L48.8401 66.7509Z" fill="#B2B2D6"/>
<path d="M49.5647 66.8994C49.5647 66.8994 49.5976 66.9487 49.5647 66.9652L49.2601 67.1463C49.2601 67.1463 49.1778 67.1628 49.1449 67.1463L48.8403 66.9652C48.8403 66.9652 48.8074 66.9158 48.8403 66.8994L49.1449 66.7183C49.1449 66.7183 49.2272 66.7018 49.2601 66.7183L49.5647 66.8994Z" fill="#B2B2D6"/>
<path d="M50.322 67.0165C50.322 67.0165 50.355 67.0659 50.322 67.0824L50.0175 67.2635C50.0175 67.2635 49.9351 67.28 49.9022 67.2635L49.5976 67.0824C49.5976 67.0824 49.5647 67.033 49.5976 67.0165L49.9022 66.8354C49.9022 66.8354 49.9845 66.819 50.0175 66.8354L50.322 67.0165Z" fill="#B2B2D6"/>
<path d="M47.3582 66.4931C47.3582 66.4931 47.3911 66.5425 47.3582 66.5589L47.0536 66.7401C47.0536 66.7401 46.9713 66.7565 46.9383 66.7401L46.6338 66.5589C46.6338 66.5589 46.6008 66.5096 46.6338 66.4931L46.9383 66.312C46.9383 66.312 47.0207 66.2955 47.0536 66.312L47.3582 66.4931Z" fill="#B2B2D6"/>
<path d="M47.8772 66.7431C47.8772 66.7431 47.9101 66.7925 47.8772 66.809L47.5726 66.9901C47.5726 66.9901 47.4903 67.0065 47.4574 66.9901L47.1528 66.809C47.1528 66.809 47.1199 66.7596 47.1528 66.7431L47.4574 66.562C47.4574 66.562 47.5397 66.5455 47.5726 66.562L47.8772 66.7431Z" fill="#B2B2D6"/>
<path d="M48.3628 67.0165C48.3628 67.0165 48.3957 67.0659 48.3628 67.0824L48.0582 67.2635C48.0582 67.2635 47.9759 67.28 47.943 67.2635L47.6384 67.0824C47.6384 67.0824 47.6055 67.033 47.6384 67.0165L47.943 66.8354C47.943 66.8354 48.0253 66.819 48.0582 66.8354L48.3628 67.0165Z" fill="#B2B2D6"/>
<path d="M49.0874 67.1728C49.0874 67.1728 49.1203 67.2222 49.0874 67.2386L48.7828 67.4197C48.7828 67.4197 48.7005 67.4362 48.6676 67.4197L48.363 67.2386C48.363 67.2386 48.3301 67.1892 48.363 67.1728L48.6676 66.9917C48.6676 66.9917 48.7499 66.9752 48.7828 66.9917L49.0874 67.1728Z" fill="#B2B2D6"/>
<path d="M49.8447 67.29C49.8447 67.29 49.8777 67.3394 49.8447 67.3558L49.5402 67.5369C49.5402 67.5369 49.4578 67.5534 49.4249 67.5369L49.1203 67.3558C49.1203 67.3558 49.0874 67.3064 49.1203 67.29L49.4249 67.1089C49.4249 67.1089 49.5072 67.0924 49.5402 67.1089L49.8447 67.29Z" fill="#B2B2D6"/>
<path d="M46.8809 66.7587C46.8809 66.7587 46.9138 66.8081 46.8809 66.8246L46.5763 67.0057C46.5763 67.0057 46.494 67.0221 46.4611 67.0057L46.1565 66.8246C46.1565 66.8246 46.1236 66.7752 46.1565 66.7587L46.4611 66.5776C46.4611 66.5776 46.5434 66.5612 46.5681 66.5776L46.8727 66.7587H46.8809Z" fill="#B2B2D6"/>
<path d="M47.3999 67.0165C47.3999 67.0165 47.4329 67.0659 47.3999 67.0824L47.0953 67.2635C47.0953 67.2635 47.013 67.28 46.9801 67.2635L46.6755 67.0824C46.6755 67.0824 46.6426 67.033 46.6755 67.0165L46.9801 66.8354C46.9801 66.8354 47.0624 66.819 47.0953 66.8354L47.3999 67.0165Z" fill="#B2B2D6"/>
<path d="M47.8855 67.3056C47.8855 67.3056 47.9185 67.355 47.8855 67.3715L47.5809 67.5526C47.5809 67.5526 47.4986 67.569 47.4657 67.5526L47.1611 67.3715C47.1611 67.3715 47.1282 67.3221 47.1611 67.3056L47.4657 67.1245C47.4657 67.1245 47.548 67.108 47.5809 67.1245L47.8855 67.3056Z" fill="#B2B2D6"/>
<path d="M48.6101 67.454C48.6101 67.454 48.643 67.5034 48.6101 67.5199L48.3055 67.701C48.3055 67.701 48.2232 67.7175 48.1903 67.701L47.8857 67.5199C47.8857 67.5199 47.8528 67.4705 47.8857 67.454L48.1903 67.2729C48.1903 67.2729 48.2726 67.2565 48.3055 67.2729L48.6101 67.454Z" fill="#B2B2D6"/>
<path d="M49.3672 67.5712C49.3672 67.5712 49.4001 67.6206 49.3672 67.6371L49.0626 67.8182C49.0626 67.8182 48.9803 67.8347 48.9474 67.8182L48.6428 67.6371C48.6428 67.6371 48.6099 67.5877 48.6428 67.5712L48.9474 67.3901C48.9474 67.3901 49.0297 67.3737 49.0626 67.3901L49.3672 67.5712Z" fill="#B2B2D6"/>
<path d="M46.1813 66.9083C46.1813 66.9083 46.2143 66.9577 46.1813 66.9741L45.8768 67.1552C45.8768 67.1552 45.7944 67.1717 45.7615 67.1552L45.6792 67.1058C45.6792 67.1058 45.6463 67.0564 45.6792 67.04L45.9838 66.8589C45.9838 66.8589 46.0661 66.8424 46.099 66.8589L46.1813 66.9083Z" fill="#B2B2D6"/>
<path d="M46.4033 67.0411C46.4033 67.0411 46.4362 67.0905 46.4033 67.1069L46.0987 67.288C46.0987 67.288 46.0164 67.3045 45.9834 67.288L45.9011 67.2386C45.9011 67.2386 45.8682 67.1892 45.9011 67.1728L46.2057 66.9917C46.2057 66.9917 46.288 66.9752 46.3209 66.9917L46.4033 67.0411Z" fill="#B2B2D6"/>
<path d="M46.9143 67.3056C46.9143 67.3056 46.9472 67.355 46.9143 67.3715L46.6097 67.5526C46.6097 67.5526 46.5274 67.569 46.4945 67.5526L46.1899 67.3715C46.1899 67.3715 46.157 67.3221 46.1899 67.3056L46.4945 67.1245C46.4945 67.1245 46.5768 67.108 46.6097 67.1245L46.9143 67.3056Z" fill="#B2B2D6"/>
<path d="M45.918 67.329C45.918 67.329 45.9509 67.3784 45.918 67.3949L45.6134 67.576C45.6134 67.576 45.5311 67.5925 45.4982 67.576L45.1936 67.3949C45.1936 67.3949 45.1607 67.3455 45.1936 67.329L45.4982 67.1479C45.4982 67.1479 45.5805 67.1315 45.6134 67.1479L45.918 67.329Z" fill="#B2B2D6"/>
<path d="M46.4364 67.579C46.4364 67.579 46.4694 67.6284 46.4364 67.6449L46.0907 67.8507C46.0907 67.8507 46.0084 67.8671 45.9755 67.8507L45.6709 67.6696C45.6709 67.6696 45.638 67.6202 45.6709 67.6037L46.0166 67.3979C46.0166 67.3979 46.0989 67.3815 46.1319 67.3979L46.4364 67.579Z" fill="#B2B2D6"/>
<path d="M47.4085 67.579C47.4085 67.579 47.4414 67.6284 47.4085 67.6449L46.5853 68.1223C46.5853 68.1223 46.503 68.1388 46.4701 68.1223L46.1655 67.9412C46.1655 67.9412 46.1326 67.8918 46.1655 67.8754L46.9887 67.3979C46.9887 67.3979 47.071 67.3815 47.1039 67.3979L47.4085 67.579Z" fill="#B2B2D6"/>
<path d="M48.1326 67.7197C48.1326 67.7197 48.1655 67.769 48.1326 67.7855L47.828 67.9666C47.828 67.9666 47.7457 67.9831 47.7128 67.9666L47.4082 67.7855C47.4082 67.7855 47.3753 67.7361 47.4082 67.7197L47.7128 67.5386C47.7128 67.5386 47.7951 67.5221 47.828 67.5386L48.1326 67.7197Z" fill="#B2B2D6"/>
<path d="M48.8818 67.8447C48.8818 67.8447 48.9148 67.8941 48.8818 67.9105L48.5773 68.0916C48.5773 68.0916 48.495 68.1081 48.462 68.0916L48.1575 67.9105C48.1575 67.9105 48.1245 67.8611 48.1575 67.8447L48.462 67.6636C48.462 67.6636 48.5443 67.6471 48.5773 67.6636L48.8818 67.8447Z" fill="#B2B2D6"/>
<path d="M47.6554 68.0087C47.6554 68.0087 47.6883 68.0581 47.6554 68.0746L47.0709 68.4121C47.0709 68.4121 46.9886 68.4285 46.9557 68.4121L46.6511 68.231C46.6511 68.231 46.6182 68.1816 46.6511 68.1651L47.2356 67.8276C47.2356 67.8276 47.3179 67.8112 47.3508 67.8276L47.6554 68.0087Z" fill="#B2B2D6"/>
<path d="M48.4046 68.1259C48.4046 68.1259 48.4375 68.1753 48.4046 68.1918L48.1 68.3729C48.1 68.3729 48.0177 68.3893 47.9847 68.3729L47.6802 68.1918C47.6802 68.1918 47.6472 68.1424 47.6802 68.1259L47.9847 67.9448C47.9847 67.9448 48.0671 67.9284 48.1 67.9448L48.4046 68.1259Z" fill="#B2B2D6"/>
<path d="M47.9269 68.4072C47.9269 68.4072 47.9598 68.4565 47.9269 68.473L47.5482 68.6953C47.5482 68.6953 47.4659 68.7117 47.433 68.6953L47.1284 68.5142C47.1284 68.5142 47.0955 68.4648 47.1284 68.4483L47.5071 68.2261C47.5071 68.2261 47.5894 68.2096 47.6223 68.2261L47.9269 68.4072Z" fill="#B2B2D6"/>
<path d="M54.4048 64.9317C54.4048 64.9317 54.4378 64.9811 54.4048 64.9976L54.0262 65.2198C54.0262 65.2198 53.9438 65.2363 53.9109 65.2198L53.8286 65.1704C53.8286 65.1704 53.7957 65.121 53.8286 65.1046L54.2073 64.8823C54.2073 64.8823 54.2896 64.8659 54.3225 64.8823L54.4048 64.9317Z" fill="#B2B2D6"/>
<path d="M53.8534 65.2598C53.8534 65.2598 53.8864 65.3092 53.8534 65.3257L53.5489 65.5068C53.5489 65.5068 53.4665 65.5233 53.4336 65.5068L53.3513 65.4574C53.3513 65.4574 53.3184 65.408 53.3513 65.3915L53.6559 65.2104C53.6559 65.2104 53.7382 65.194 53.7711 65.2104L53.8534 65.2598Z" fill="#B2B2D6"/>
<path d="M53.3762 65.5333C53.3762 65.5333 53.4091 65.5827 53.3762 65.5991L53.0716 65.7802C53.0716 65.7802 52.9893 65.7967 52.9563 65.7802L52.874 65.7308C52.874 65.7308 52.8411 65.6814 52.874 65.665L53.1786 65.4839C53.1786 65.4839 53.2609 65.4674 53.2938 65.4839L53.3762 65.5333Z" fill="#B2B2D6"/>
<path d="M52.8989 65.8145C52.8989 65.8145 52.9318 65.8639 52.8989 65.8804L52.5943 66.0615C52.5943 66.0615 52.512 66.0779 52.479 66.0615L52.3967 66.0121C52.3967 66.0121 52.3638 65.9627 52.3967 65.9462L52.7013 65.7651C52.7013 65.7651 52.7836 65.7487 52.8165 65.7651L52.8989 65.8145Z" fill="#B2B2D6"/>
<path d="M52.4213 66.088C52.4213 66.088 52.4542 66.1373 52.4213 66.1538L52.1167 66.3349C52.1167 66.3349 52.0344 66.3514 52.0015 66.3349L51.9192 66.2855C51.9192 66.2855 51.8862 66.2361 51.9192 66.2197L52.2238 66.0386C52.2238 66.0386 52.3061 66.0221 52.339 66.0386L52.4213 66.088Z" fill="#B2B2D6"/>
<path d="M51.936 66.377C51.936 66.377 51.9689 66.4264 51.936 66.4429L51.6314 66.624C51.6314 66.624 51.5491 66.6404 51.5161 66.624L51.4338 66.5746C51.4338 66.5746 51.4009 66.5252 51.4338 66.5087L51.7384 66.3276C51.7384 66.3276 51.8207 66.3112 51.8536 66.3276L51.936 66.377Z" fill="#B2B2D6"/>
<path d="M51.4577 66.6505C51.4577 66.6505 51.4906 66.6998 51.4577 66.7163L51.1531 66.8974C51.1531 66.8974 51.0708 66.9139 51.0379 66.8974L50.9556 66.848C50.9556 66.848 50.9226 66.7986 50.9556 66.7822L51.2601 66.6011C51.2601 66.6011 51.3424 66.5846 51.3754 66.6011L51.4577 66.6505Z" fill="#B2B2D6"/>
<path d="M50.9802 66.9239C50.9802 66.9239 51.0131 66.9733 50.9802 66.9897L50.6756 67.1708C50.6756 67.1708 50.5933 67.1873 50.5603 67.1708L50.478 67.1214C50.478 67.1214 50.4451 67.0721 50.478 67.0556L50.7826 66.8745C50.7826 66.8745 50.8649 66.858 50.8978 66.8745L50.9802 66.9239Z" fill="#B2B2D6"/>
<path d="M50.5029 67.2051C50.5029 67.2051 50.5358 67.2545 50.5029 67.271L50.1983 67.4521C50.1983 67.4521 50.116 67.4686 50.083 67.4521L50.0007 67.4027C50.0007 67.4027 49.9678 67.3533 50.0007 67.3369L50.3053 67.1558C50.3053 67.1558 50.3876 67.1393 50.4205 67.1558L50.5029 67.2051Z" fill="#B2B2D6"/>
<path d="M50.0256 67.4864C50.0256 67.4864 50.0585 67.5358 50.0256 67.5522L49.721 67.7334C49.721 67.7334 49.6387 67.7498 49.6057 67.7334L49.5234 67.684C49.5234 67.684 49.4905 67.6346 49.5234 67.6181L49.828 67.437C49.828 67.437 49.9103 67.4205 49.9433 67.437L50.0256 67.4864Z" fill="#B2B2D6"/>
<path d="M49.5483 67.7598C49.5483 67.7598 49.5812 67.8092 49.5483 67.8257L49.2437 68.0068C49.2437 68.0068 49.1614 68.0233 49.1284 68.0068L49.0461 67.9574C49.0461 67.9574 49.0132 67.908 49.0461 67.8915L49.3507 67.7104C49.3507 67.7104 49.433 67.694 49.4659 67.7104L49.5483 67.7598Z" fill="#B2B2D6"/>
<path d="M49.0707 68.0333C49.0707 68.0333 49.1037 68.0827 49.0707 68.0991L48.7661 68.2802C48.7661 68.2802 48.6838 68.2967 48.6509 68.2802L48.5686 68.2308C48.5686 68.2308 48.5357 68.1814 48.5686 68.165L48.8732 67.9839C48.8732 67.9839 48.9555 67.9674 48.9884 67.9839L49.0707 68.0333Z" fill="#B2B2D6"/>
<path d="M48.5934 68.3145C48.5934 68.3145 48.6264 68.3639 48.5934 68.3804L48.2889 68.5615C48.2889 68.5615 48.2065 68.5779 48.1736 68.5615L48.0913 68.5121C48.0913 68.5121 48.0584 68.4627 48.0913 68.4462L48.3959 68.2651C48.3959 68.2651 48.4782 68.2487 48.5111 68.2651L48.5934 68.3145Z" fill="#B2B2D6"/>
<path d="M48.1078 68.588C48.1078 68.588 48.1408 68.6373 48.1078 68.6538L47.8033 68.8349C47.8033 68.8349 47.7209 68.8514 47.688 68.8349L47.6057 68.7855C47.6057 68.7855 47.5728 68.7361 47.6057 68.7197L47.9103 68.5386C47.9103 68.5386 47.9926 68.5221 48.0255 68.5386L48.1078 68.588Z" fill="#B2B2D6"/>
<path d="M47.4658 69.602L47.9103 69.8572L56.8007 64.2101L58.801 56.9661L58.3565 56.7109L49.0216 62.1028L47.4658 69.602Z" fill="#DADAF5"/>
<path d="M47.9106 69.852L57.2455 64.4684L58.8013 56.9609L49.4665 62.3528L47.9106 69.852Z" fill="#CCCCF5"/>
<path d="M54.3809 66.6898L54.5538 65.9489C54.5538 65.9489 54.455 65.3974 54.455 65.1257C54.455 64.8541 54.6608 64.8047 54.8337 65.0352C55.0066 65.2657 55.1547 65.7431 55.2206 66.0477C55.2864 66.3523 54.9325 67.0849 54.7761 67.1837C54.6279 67.2825 54.0352 67.9163 53.92 68.0727C53.8047 68.2291 53.4425 68.6243 53.2367 68.7478C53.0309 68.8712 52.3724 69.0276 52.0266 68.9371C51.8373 68.8877 51.6644 68.7889 51.4751 68.7313C51.3269 68.6901 51.2035 68.7477 51.1294 68.5502C51.1211 68.5173 51.1211 68.4761 51.1211 68.4432C51.1211 68.3608 51.1376 68.2703 51.1705 68.1962C51.2034 68.1221 51.2693 68.0563 51.3516 68.0398C51.3681 68.0398 51.5163 68.0398 51.5245 68.0563C51.5245 68.0563 51.4092 67.7846 51.2693 67.6282C51.1294 67.4718 50.9812 67.1837 50.8824 66.9779C50.7754 66.7721 50.9318 66.5745 51.0882 66.5663C51.2528 66.5581 51.4504 66.7886 51.5327 66.8956C51.615 66.9944 52.0678 67.5788 52.0678 67.5788L52.3394 67.3977L52.3641 66.9203C52.3641 66.9203 52.1172 66.163 52.1419 65.8337C52.1666 65.5044 52.4876 65.3892 52.6276 65.595C52.7675 65.8008 53.0803 66.5416 53.1544 66.7556C53.2285 66.9779 53.319 67.2907 53.319 67.2907L53.459 67.1837C53.459 67.1837 53.3931 65.9572 53.3766 65.8913C53.3602 65.8255 53.1791 64.9693 53.1791 64.7553C53.1791 64.5413 53.6318 64.5413 53.7389 64.7471C53.8459 64.9529 53.994 65.7761 54.0764 66.0312C54.1587 66.2864 54.1998 66.8297 54.1998 66.8297L54.3892 66.698L54.3809 66.6898Z" fill="#FF9C78"/>
<path d="M36.1391 53.2192C35.2994 53.5237 34.9125 53.6966 34.7973 54.8902C34.682 56.0838 34.6738 58.2982 34.9537 60.1751C35.0113 60.5702 37.876 61.4922 38.2299 61.1876C38.5839 60.883 38.1559 58.2324 38.1229 57.4586C38.09 56.6848 36.8305 53.9436 36.1555 53.2109L36.1391 53.2192Z" fill="#3B4157"/>
<path d="M41.1684 57.5874C41.4236 57.2911 43.8931 57.6862 43.3745 58.7728C42.8559 59.8594 39.3903 65.4571 38.4436 66.2802C37.5052 67.1034 36.0646 66.5272 35.9412 65.7863C36.9125 63.1933 37.5134 62.4031 38.2461 61.4399C38.9787 60.4768 41.1601 57.5874 41.1601 57.5874H41.1684Z" fill="#3B4157"/>
<path d="M38.3535 60.6113C38.3535 60.6113 38.7157 63.55 38.584 64.7436C38.4523 65.9372 36.5425 66.9909 35.9498 65.7809C35.3571 64.5708 35.1349 61.5991 34.9456 60.1832C35.3818 59.3683 38.3535 60.6113 38.3535 60.6113Z" fill="#3B4157"/>
<path d="M45.7371 4.76562L38.1638 15.1706L35.9742 26.2589L20.1855 34.9188L17.6172 52.9383L6.22437 59.6719V62.0509L7.46737 62.7753L19.3459 54.3047L21.9224 36.2935L37.7029 27.6336L39.9008 16.5371L47.474 6.14034L45.7371 4.76562Z" fill="#0A8A34"/>
<path d="M44.709 5.67173L43.0215 4.69214L49.4258 0L51.1134 0.979589L44.709 5.67173Z" fill="#0EBA47"/>
<path d="M49.8127 9.01703L48.1252 8.03744L43.0215 4.69531L44.709 5.6749L49.8127 9.01703Z" fill="#076426"/>
<path d="M44.709 5.6687L51.1133 0.976562L49.8127 9.01082L44.709 5.6687Z" fill="#0EC54A"/>
<path d="M46.9798 5.47656L39.4065 15.8816L37.2169 26.9698L21.4282 35.6297L18.8599 53.6492L7.46704 60.3828V62.7701L20.5886 55.0157L23.1651 37.0044L38.9455 28.3446L41.1434 17.2481L48.7167 6.85128L46.9798 5.47656Z" fill="#0EC74B"/>
<path d="M35.9742 26.2578L20.1855 34.9177L21.4286 35.6339L37.2172 26.974L35.9742 26.2578Z" fill="#0EBA47"/>
<path d="M17.6172 52.9453L6.22437 59.6789L7.46737 60.3951L18.8602 53.6615L17.6172 52.9453Z" fill="#0EBA47"/>
</svg>
