<svg width="78" height="98" viewBox="0 0 78 98" fill="none" xmlns="http://www.w3.org/2000/svg">
<path d="M73.5529 62.5803C78.5778 65.4817 78.6089 70.1954 73.6152 73.0968C68.6214 75.9981 60.4929 75.9981 55.4603 73.0968C50.4354 70.1954 50.4043 65.4817 55.4058 62.5881C60.3996 59.679 68.5281 59.679 73.5529 62.5881V62.5803Z" fill="#E2E7E8"/>
<path d="M0 77.6436L20.6984 89.8558L65.4866 64.0158L44.0726 51.5703L0 77.6436Z" fill="#E2E7E8"/>
<path d="M15.6112 83.1823L14.5533 82.5601L14.4678 51.6797L15.5256 52.2864L15.6112 83.1823Z" fill="#241B11"/>
<path d="M15.5256 52.2902L14.4678 51.6834L16.0701 50.7578L17.128 51.3723L15.5256 52.2902Z" fill="#3B2C1C"/>
<path d="M17.128 51.375L17.2136 82.2632L15.6112 83.1888L15.5256 52.2929L17.128 51.375Z" fill="#352719"/>
<path d="M46.8737 65.7995L45.8158 65.185L45.7302 34.2969L46.7881 34.9114L46.8737 65.7995Z" fill="#241B11"/>
<path d="M46.7881 34.9151L45.7302 34.3006L47.3248 33.375L48.3904 33.9895L46.7881 34.9151Z" fill="#3B2C1C"/>
<path d="M48.3904 33.9922L48.476 64.8804L46.8737 65.806L46.7881 34.9178L48.3904 33.9922Z" fill="#352719"/>
<path d="M51.9376 35.5738L49.2929 34.0337L49.2074 4.25781L51.8521 5.79794L51.9376 35.5738Z" fill="#443320"/>
<path d="M9.26528 60.2213L6.62061 58.689L49.2931 34.0469L51.9378 35.587L9.26528 60.2213Z" fill="#6D5333"/>
<path d="M9.26576 60.2145L6.62109 58.6821L6.53552 28.9062L9.1802 30.4386L9.26576 60.2145Z" fill="#888888"/>
<path d="M9.1802 30.4322L6.53552 28.8999L49.208 4.25781L51.8527 5.79794L9.1802 30.4322Z" fill="#DBDBDB"/>
<path d="M6.86255 28.9425L54.311 1.54688L54.4121 36.8532L6.96366 64.2488L6.86255 28.9425ZM51.9386 35.5697L51.853 5.7939L9.18052 30.436L9.26608 60.2118L51.9386 35.5775V35.5697Z" fill="#715634"/>
<path d="M51.8527 5.79688L51.9382 35.5727L9.26574 60.207L9.18018 30.4312L51.8527 5.79688Z" fill="#E3E5E5"/>
<path d="M6.96283 64.2449L4.31816 62.7126L4.21704 27.4062L6.86172 28.9386L6.96283 64.2449Z" fill="#443320"/>
<path d="M6.86172 28.9436L4.21704 27.4113L51.6655 0.015625L54.3102 1.54798L6.86172 28.9436Z" fill="#936F44"/>
<path d="M14.9034 32.2035L14.919 35.805L17.8359 34.117L17.8281 30.5156L14.9034 32.2035Z" fill="#FBAC20"/>
<path d="M37.4376 17.3598L37.4532 20.9612L40.3701 19.2733L40.3623 15.6797L37.4376 17.3598Z" fill="#FBAC20"/>
<path d="M47.005 26.5239L47.0128 30.1253L49.9375 28.4374L49.9297 24.8359L47.005 26.5239Z" fill="#FBAC20"/>
<path d="M19.0258 47.6098L19.0413 51.2034L21.9582 49.5155L21.9504 45.9219L19.0258 47.6098Z" fill="#FBAC20"/>
<path d="M44.8345 11.2739L44.8422 14.8753L47.7669 13.1874L47.7591 9.58594L44.8345 11.2739Z" fill="#E89818"/>
<path d="M11.629 42.3129L11.6368 45.9143L14.5615 44.2264L14.5537 40.625L11.629 42.3129Z" fill="#E89818"/>
<path d="M44.8345 32.4145L44.8422 36.0159L47.7669 34.328L47.7514 30.7266L44.8345 32.4145Z" fill="#E89818"/>
<path d="M45.5892 16.8285L45.6048 20.4222L48.5217 18.7343L48.5139 15.1406L45.5892 16.8285Z" fill="#E89818"/>
<path d="M20.2936 28.0473L20.3014 31.6487L23.2261 29.9608L23.2105 26.3672L20.2936 28.0473Z" fill="#E89818"/>
<path d="M25.5056 24.5239L25.5212 28.1253L28.4381 26.4374L28.4303 22.8438L25.5056 24.5239Z" fill="#E89818"/>
<path d="M13.0908 50.2582L13.1064 53.8597L16.0233 52.1717L16.0155 48.5703L13.0908 50.2582Z" fill="#E89818"/>
<path d="M56.7598 39.706C56.7598 39.706 56.2776 38.5859 54.7997 38.5703C54.7997 38.5703 55.1653 39.9627 56.7598 39.706Z" fill="#131C24"/>
<path d="M55.3295 38.0078C55.3295 38.0078 54.1005 39.5713 53.9838 39.9913C53.8749 40.4036 53.3538 42.1537 54.2172 43.3516C54.6839 43.9972 54.9484 43.0949 55.0806 41.9281C55.1428 41.3992 55.0728 40.987 55.7729 40.4191C56.2785 40.0069 56.8541 39.1746 57.0719 38.7468C57.2897 38.3112 55.3295 38.0078 55.3295 38.0078Z" fill="#EFB185"/>
<path d="M57.0406 38.8344C56.8228 39.27 56.2005 40.0167 56.0994 40.6623C55.9749 41.4401 55.1348 41.3935 55.0726 41.9224C54.9715 42.8325 54.7615 43.5948 54.4737 43.5714C54.6059 42.8869 53.8048 42.3502 54.6759 40.7556C54.9949 40.1723 56.0449 38.9666 56.6361 38.4766C56.9861 38.6477 57.1184 38.6632 57.0328 38.8344H57.0406Z" fill="#E6A376"/>
<path d="M56.5587 38.4688C56.5587 38.4688 56.2943 40.7012 56.1154 41.3623C55.9365 42.0235 55.532 42.4124 55.4542 42.2646C55.3686 42.1168 55.7887 40.1256 55.0653 40.1722C54.6764 40.1956 56.4498 38.7799 56.5587 38.4688Z" fill="#EFB185"/>
<path d="M61.9636 20.4719C61.9636 20.4719 59.7234 19.9507 58.79 24.4C57.8566 28.8493 57.8566 30.5839 57.2032 32.1162C56.5498 33.6408 54.7997 38.5879 54.7997 38.5879C54.7997 38.5879 56.2153 38.6579 56.7598 39.7235C56.7598 39.7235 60.4313 33.6097 61.1547 30.9261C61.878 28.2348 64.2894 21.7087 61.9636 20.4797V20.4719Z" fill="#2D1420"/>
<path d="M57.212 32.1061C57.8654 30.5815 57.8654 28.8469 58.7988 24.3899C59.3044 21.9708 60.1989 21.0218 60.9068 20.6562C63.0225 22.0564 60.689 28.388 59.9812 31.0249C59.4367 33.0395 57.3131 37.1465 56.2708 39.1067C55.5163 38.5544 54.8085 38.57 54.8085 38.57C54.8085 38.57 56.5586 33.6229 57.212 32.0983V32.1061Z" fill="#401E2C"/>
<path d="M64.2046 63.5147C64.2046 63.5147 64.7958 64.907 64.2046 65.2571C63.6057 65.6149 63.5279 66.0116 62.5789 65.9338C61.6222 65.856 61.7622 66.1671 61.4355 66.5249C61.1088 66.8828 57.7407 68.3529 57.1029 67.6373C56.465 66.9216 58.2541 66.0816 58.8841 65.6693C59.522 65.2571 61.031 63.5925 61.0699 63.1102C61.1088 62.6357 64.2046 63.5069 64.2046 63.5069V63.5147Z" fill="#111114"/>
<path d="M64.2039 65.2584C63.605 65.6162 63.5272 66.0129 62.5782 65.9351C61.6215 65.8573 61.7615 66.1685 61.4348 66.5263C61.1081 66.8841 57.74 68.3542 57.1022 67.6386C56.8844 67.3897 56.9544 67.133 57.1566 66.8841C57.39 66.923 57.7167 66.9852 58.1445 67.063C59.1401 67.2341 60.4158 66.0907 60.9058 65.6707C61.3959 65.2506 62.0259 65.414 62.8738 65.2662C63.7216 65.1262 63.6049 63.8272 63.6049 63.8272L64.235 63.6094C64.3517 63.9205 64.7017 64.9628 64.2039 65.2662V65.2584Z" fill="#0A0A0A"/>
<path d="M70.2172 68.0234C70.2172 68.0234 70.4661 69.6647 69.8361 70.5514C69.206 71.4381 67.8215 72.9783 67.2147 72.9083C66.6158 72.8383 66.5225 72.566 66.5225 72.566C66.5225 72.566 66.2736 71.2359 66.7092 69.898C67.1525 68.5679 67.1836 68.0156 67.1836 68.0156H70.2094L70.2172 68.0234Z" fill="#111114"/>
<path d="M69.8432 70.5514C69.2909 71.3292 68.1475 72.6127 67.4785 72.8616C68.3653 71.7182 67.0351 71.9515 68.0386 71.407C69.4153 70.6603 68.5364 70.038 69.1509 69.8591C69.7654 69.6802 69.3142 68.1634 69.3142 68.1634L69.6487 68.0156H70.2243C70.2243 68.0156 70.4732 69.6569 69.8432 70.5436V70.5514Z" fill="#0A0A0A"/>
<path d="M62.9205 41.3098C62.9205 41.3098 60.0891 40.9986 59.1401 38.9062C59.1401 38.9062 58.8835 43.5344 59.4513 48.9093C60.0269 54.2764 60.5014 63.7195 60.5014 63.7195C60.5014 63.7195 62.3371 65.4463 64.2273 63.7195C64.2273 63.7195 64.7562 57.4812 64.2273 54.0275C64.2273 54.0275 64.585 47.9759 63.9939 44.9579C63.4027 41.9321 62.9205 41.3176 62.9205 41.3176V41.3098Z" fill="#131C24"/>
<path d="M60.5021 63.7164C60.5021 63.7164 60.0276 54.2734 59.452 48.9063C58.8764 43.5391 59.0786 38.2031 59.0786 38.2031C59.7709 39.7433 61.5444 41.0189 62.4 41.2134C62.33 43.2669 62.1433 49.303 62.1744 51.3098C62.2056 53.2233 62.5789 61.134 62.7345 64.4553C61.4744 64.6265 60.5021 63.7086 60.5021 63.7086V63.7164Z" fill="#2A3D4C"/>
<path d="M69.5788 40.9922C69.5788 40.9922 69.8511 44.1347 69.9133 49.0118C69.9755 53.8888 70.3255 55.7323 70.4422 56.479C70.5589 57.2258 70.9789 65.3931 70.7378 67.7733C70.7378 67.7733 69.1977 70.1535 66.7708 67.7733C66.7708 67.7733 66.3585 59.4037 65.9463 57.498C65.534 55.5923 63.216 46.336 62.2749 43.0146C61.8626 41.5445 61.7615 40.9922 61.7615 40.9922C61.7615 40.9922 65.8452 43.9324 69.5788 40.9922Z" fill="#1D2833"/>
<path d="M66.7714 67.763C66.7714 67.763 66.3592 59.3934 65.9469 57.4877C65.5347 55.582 63.2167 46.3256 62.2755 43.0042C61.8632 41.5341 60.9065 40.4062 60.9065 40.4062C60.9065 40.4062 63.5901 42.2886 65.9158 42.2809C66.0169 42.9965 67.0048 49.8337 67.2304 52.8206C67.4559 55.7842 69.4861 66.2073 68.9416 68.8209C68.3427 68.8364 67.6115 68.5797 66.7714 67.763Z" fill="#2A3D4C"/>
<path d="M66.9115 21.5068C66.9115 21.5068 71.0885 24.0192 71.1663 24.3615C71.2518 24.7037 72.3175 25.5827 70.4429 29.2775C70.4429 29.2775 68.0004 33.26 68.7861 37.4604C69.245 39.9028 69.7117 41.1862 69.7117 41.1862C69.7117 41.1862 67.5882 43.9009 62.33 41.5363C61.2643 41.054 59.5375 39.4439 59.0708 38.2071C59.0708 38.2071 59.8253 34.7146 59.4364 30.5376C59.0552 26.3606 59.0552 20.9779 61.4432 20.4334C61.4432 20.4334 62.0888 19.7567 66.9037 21.5068H66.9115Z" fill="#401E2C"/>
<path d="M66.561 17.875C66.561 17.875 65.5576 20.0685 66.8022 21.2508C67.4944 21.912 66.4055 23.9033 64.0486 24.121C64.0486 24.121 62.9674 24.0277 63.0141 23.631C63.123 22.7365 62.7029 22.3009 62.2284 21.702C61.7539 21.103 66.5532 17.8672 66.5532 17.8672L66.561 17.875Z" fill="#EFB185"/>
<path d="M66.8025 21.2515C66.8881 21.3293 66.9425 21.4304 66.9736 21.5393C65.9624 20.7848 64.2667 20.9793 64.2667 20.9793L66.1102 18.179C66.188 18.1246 66.258 18.0779 66.3202 18.0312L66.4214 18.2413C66.1958 18.918 65.8769 20.3648 66.8103 21.2437L66.8025 21.2515Z" fill="#DD9569"/>
<path d="M66.8716 16.6741C66.8716 16.6741 66.7083 19.3965 65.0826 20.8744C63.6358 22.1812 61.8779 23.1691 61.2323 21.3023C60.7267 19.8166 59.3732 16.0518 60.6022 15.064C62.1812 13.7883 62.6246 12.4504 64.7481 12.8782C64.7481 12.8782 67.2061 13.5783 66.8716 16.6663V16.6741Z" fill="#EFB185"/>
<path d="M66.8718 16.6816C66.8718 16.6816 67.0118 18.9762 65.0983 20.9131C64.6861 21.3253 64.1338 21.6909 63.706 21.9554C64.4527 21.2009 64.5072 20.9986 65.0517 20.1274C65.5884 19.264 64.0016 19.8085 64.8183 17.685C65.0983 16.9616 63.3715 18.105 62.9515 18.1595C60.4702 18.4784 60.4313 17.0316 60.2913 16.4405C60.299 16.1682 60.3301 15.9115 60.3846 15.6782L60.5479 15.1959C60.5713 15.1492 60.5946 15.1026 60.6102 15.0637C60.828 14.6825 61.0458 14.3481 61.2713 14.0603C62.337 13.9202 65.355 13.5158 65.4172 13.5235C65.4561 13.5235 66.0862 14.1458 66.6696 14.7448C66.864 15.2504 66.9574 15.8804 66.8718 16.6738V16.6816Z" fill="#E6A376"/>
<path d="M66.1795 19.4026C66.1795 19.4026 67.8985 17.2558 66.794 14.72C66.794 14.72 66.0939 12.6587 63.6982 12.7365C62.5469 12.7754 60.6023 13.2577 60.089 15.669C59.9334 16.4235 60.1512 17.8625 62.8192 16.7113C63.2003 16.5402 64.2349 16.2446 64.6627 16.5246C65.0905 16.8046 65.2305 17.4347 65.1294 18.0025C65.0438 18.5003 65.4716 18.4848 65.5105 18.3759C65.5494 18.267 65.8761 16.8358 66.4595 17.2869C66.9884 17.6914 66.2028 19.3093 66.1639 19.4104L66.1795 19.4026Z" fill="#341C09"/>
<path d="M66.1796 19.4031C66.2107 19.302 67.0041 17.684 66.4751 17.2796C65.884 16.8284 65.5651 18.2597 65.5262 18.3686C65.4873 18.4774 65.0595 18.493 65.145 17.9952C65.2384 17.4274 65.1061 16.7973 64.6783 16.5173C64.2894 16.2606 63.3871 16.564 62.8348 16.704C63.2471 16.3384 64.1572 16.0895 64.3672 15.2727C64.6472 14.176 65.1917 13.6004 65.744 13.3281C66.5296 13.9115 66.8096 14.7205 66.8096 14.7205C67.9142 17.2485 66.1951 19.4031 66.1951 19.4031H66.1796Z" fill="#221101"/>
<path d="M58.7517 15.3806C58.7517 15.3806 59.8718 18.1886 62.9598 16.773C62.9598 16.773 64.5078 16.0962 64.9278 14.4939C65.0211 14.1516 65.3089 13.5682 65.8456 13.4282C65.8456 13.4282 64.7956 12.3393 62.5943 12.8449C61.5597 13.0782 60.6341 14.2683 60.393 14.4705C60.1518 14.6806 59.6073 15.4662 58.7517 15.3884V15.3806Z" fill="#341C09"/>
<path d="M71.1742 24.3691C71.2597 24.7114 72.3254 25.5904 70.4508 29.2851C70.4508 29.2851 68.0083 33.2677 68.794 37.468C69.2529 39.9105 69.7196 41.1939 69.7196 41.1939C69.7196 41.1939 68.6617 42.5318 66.2038 42.5007C65.597 38.8915 66.3126 32.5054 66.6549 28.1106C66.8805 25.2792 68.2495 23.7858 69.354 23.0312C70.2796 23.6302 71.1353 24.2136 71.1664 24.3691H71.1742Z" fill="#2D1420"/>
<path d="M59.0786 38.2006C59.0786 38.2006 59.8331 34.7081 59.4442 30.531C59.1564 27.3497 59.0863 23.4682 60.1287 21.5625C60.8598 21.7025 61.9722 22.4648 63.1078 25.3506C63.1078 25.3506 63.6834 26.7741 65.3091 27.7152C66.3203 28.2986 65.9625 29.8854 64.9668 32.359C63.3645 36.3337 63.9012 40.1841 64.2668 42.222C63.6756 42.0742 63.03 41.8487 62.33 41.5375C61.2643 41.0553 59.5375 39.4451 59.0708 38.2084L59.0786 38.2006Z" fill="#59253B"/>
<path d="M62.1983 25.1244C62.1983 25.1244 62.2995 23.3743 62.6184 23.0554C62.9373 22.7365 62.5951 22.1997 62.2528 22.612C61.9106 23.0243 61.7939 23.6154 61.7939 23.6154C61.7939 23.6154 61.4672 21.593 62.0506 21.3519C62.6262 21.1108 60.4404 21.3052 60.1293 22.262C59.8104 23.2187 59.297 24.2066 61.016 26.0734C61.016 26.0734 61.8405 25.9178 62.2061 25.1322L62.1983 25.1244Z" fill="#E6A376"/>
<path d="M69.0819 24.2233C70.2409 23.5621 72.4966 24.091 71.3143 26.9768C70.132 29.8626 65.0293 36.5054 63.4425 36.3499C61.8557 36.1943 62.4391 33.0285 63.6914 31.1928C64.9438 29.357 67.9929 24.8455 69.0741 24.2233H69.0819Z" fill="#401E2C"/>
<path d="M62.9906 36.2475C62.9906 36.2475 60.0426 32.5528 60.3848 25.3966C60.3848 25.3966 61.2405 25.8322 62.2828 24.9766C62.2828 24.9766 66.7787 37.4143 62.9906 36.2397V36.2475Z" fill="#401E2C"/>
<path d="M22.2151 36.8894C22.5574 36.6949 22.8607 36.6172 23.0241 36.6094L22.8919 37.2083C22.7518 37.2005 22.534 37.2394 22.2151 37.4183C21.4762 37.8461 21.0873 38.694 21.0873 39.4641C21.0873 40.3119 21.5695 40.5608 22.1996 40.1952C22.534 40.0008 22.7518 39.783 22.9152 39.5963L23.0163 40.0397C22.8607 40.2186 22.5263 40.5375 22.0984 40.7864C21.1261 41.3464 20.4961 40.9575 20.4961 39.8296C20.4961 38.7018 21.165 37.4883 22.2151 36.8816V36.8894Z" fill="#2B3232"/>
<path d="M25.1086 35.2028C25.1708 35.1639 25.2175 35.1484 25.2719 35.1328V35.7629C25.2175 35.7862 25.1552 35.8095 25.0775 35.8562C24.6652 36.0973 24.3774 36.6185 24.2996 37.1708C24.2841 37.2719 24.2685 37.3808 24.2685 37.4975V39.4576L23.7007 39.7921V37.2563C23.6929 36.8285 23.6851 36.4551 23.6696 36.1207L24.1829 35.8251L24.2063 36.5407L24.2296 36.5252C24.3696 35.9418 24.7274 35.4362 25.1163 35.2106L25.1086 35.2028Z" fill="#2B3232"/>
<path d="M28.3829 35.0445C28.3829 35.1845 28.3751 35.2934 28.3673 35.3712L26.1194 36.6702C26.1349 37.5725 26.6405 37.6503 27.2239 37.3158C27.6439 37.0747 27.8929 36.8491 28.1107 36.6158L28.2118 37.0358C28.0095 37.2536 27.6595 37.5881 27.1461 37.8759C26.1583 38.4437 25.5671 38.0392 25.5593 36.9269C25.5593 35.8224 26.1272 34.6167 27.0606 34.08C28.1029 33.4811 28.3829 34.3756 28.3829 35.0445ZM26.1271 36.1802L27.8229 35.2001C27.8229 34.7723 27.6673 34.2044 27.0139 34.5778C26.4227 34.9201 26.166 35.6901 26.1271 36.1802Z" fill="#2B3232"/>
<path d="M31.363 34.4833C31.363 34.8022 31.3786 35.1055 31.4175 35.3311L30.8885 35.6345L30.8419 35.1989L30.8185 35.2144C30.6396 35.6111 30.2974 36.0623 29.8385 36.3268C29.1851 36.7001 28.8506 36.3734 28.8506 35.8367C28.8506 34.9577 29.5195 34.0788 30.733 33.3787C30.7485 33.3709 30.7641 33.3632 30.7719 33.3554V33.2776C30.7719 32.9742 30.7019 32.4686 30.0407 32.842C29.7451 33.0131 29.4262 33.3009 29.2084 33.5965L29.0762 33.2309C29.3406 32.8809 29.7218 32.5309 30.1263 32.2975C31.1063 31.7297 31.3475 32.3597 31.3475 33.0987V34.4833H31.363ZM30.803 34.4444V33.8065C30.803 33.8065 30.733 33.8454 30.7019 33.861C30.0951 34.211 29.4495 34.7399 29.4495 35.4167C29.4495 35.8523 29.6984 35.9145 29.994 35.7434C30.4141 35.5022 30.6785 35.0433 30.7641 34.6777C30.7874 34.5999 30.7952 34.5144 30.7952 34.4444H30.803Z" fill="#2B3232"/>
<path d="M32.9728 29.6875V30.7454L33.8128 30.2631V30.7765L32.9805 31.2587V33.2422C32.9805 33.7012 33.0972 33.8956 33.4239 33.709C33.5717 33.6234 33.6884 33.5378 33.7584 33.4678L33.7817 33.9579C33.665 34.0745 33.4861 34.2146 33.2683 34.3468C32.9961 34.5024 32.7783 34.5257 32.6383 34.4246C32.4749 34.3234 32.4127 34.0279 32.4127 33.5923V31.5854L31.9071 31.8732V31.3599L32.4049 31.0721V30.1931L32.9728 29.6875Z" fill="#2B3232"/>
<path d="M34.4736 33.5605L34.4658 29.8813L35.0414 29.5469L35.057 33.2261L34.4736 33.5605Z" fill="#2B3232"/>
<path d="M34.7385 29.1047C34.5285 29.2214 34.3807 29.128 34.3807 28.8947C34.3807 28.6613 34.5363 28.3891 34.7385 28.2724C34.9563 28.1479 35.0963 28.2491 35.0963 28.4824C35.1041 28.708 34.9563 28.9725 34.7308 29.1047H34.7385Z" fill="#2B3232"/>
<path d="M38.6434 27.4766L37.3988 31.8792L36.8465 32.1981L35.6176 29.2189L36.2398 28.8611L36.8777 30.5724C36.9788 30.8446 37.0643 31.1013 37.1343 31.3658H37.1577C37.2277 31.0158 37.321 30.6502 37.4222 30.2612L38.0444 27.8266L38.6511 27.4766H38.6434Z" fill="#2B3232"/>
<path d="M41.7315 27.3414C41.7315 27.4814 41.716 27.5981 41.716 27.6681L39.468 28.9671C39.4836 29.8694 39.9892 29.9472 40.5648 29.6127C40.9848 29.3716 41.2337 29.1382 41.4515 28.9127L41.5526 29.3327C41.3426 29.5583 41.0004 29.885 40.487 30.1806C39.5069 30.7484 38.908 30.3439 38.908 29.2316C38.908 28.127 39.4758 26.9214 40.4092 26.3847C41.4515 25.7857 41.7315 26.6803 41.7393 27.3492L41.7315 27.3414ZM39.468 28.4849L41.1715 27.5048C41.1715 27.077 41.0159 26.5091 40.3625 26.8903C39.7792 27.2247 39.5225 28.0026 39.468 28.4926V28.4849Z" fill="#2B3232"/>
<path d="M31.2378 26.7529C38.6973 22.4436 44.5467 22.2414 44.5544 26.2939C44.5622 30.3387 38.7362 36.8882 31.2766 41.1896C23.8249 45.4911 17.9755 45.6933 17.96 41.6486C17.9522 37.596 23.7782 31.0543 31.2378 26.7529ZM31.2766 40.5596C38.3006 36.4992 44.0177 30.2454 44.0099 26.6128C44.0022 22.9803 38.2695 23.3303 31.2455 27.3907C24.2216 31.451 18.5122 37.6971 18.52 41.3296C18.5278 44.9622 24.2527 44.6121 31.2844 40.5596H31.2766Z" fill="#2B3232"/>
<path d="M52.6675 76.3694C57.6924 79.2707 57.7235 83.9845 52.7298 86.8858C47.736 89.7872 39.6076 89.7872 34.5749 86.8858C29.55 83.9845 29.5189 79.2707 34.5205 76.3772C39.5142 73.468 47.6427 73.468 52.6675 76.3772V76.3694Z" fill="#E2E7E8"/>
<path d="M44.5235 76.6039C44.5235 76.6039 43.3179 76.7828 43.6057 77.4829C43.8935 78.1829 45.2858 79.2408 45.4725 79.6842C45.6592 80.1275 46.7948 81.6988 47.1604 81.551C47.526 81.4032 48.4828 81.6288 48.3739 79.832C48.265 78.0351 46.1414 76.5339 44.5235 76.6039Z" fill="#111114"/>
<path d="M42.2133 83.2087C42.2133 83.2087 42.7967 84.9277 41.3344 85.3322C39.872 85.7367 40.3076 84.8188 37.1185 85.6278C33.9293 86.4367 33.5637 84.7877 33.6337 84.4143C33.7037 84.0488 35.835 83.3876 36.5273 83.2087C37.2196 83.0298 38.5419 82.6953 38.5419 82.6953H42.3222L42.2056 83.2087H42.2133Z" fill="#111114"/>
<path d="M48.2414 52.9531C48.2414 52.9531 48.257 63.3607 48.257 64.5352C48.257 65.7098 49.5638 74.9428 48.7781 78.972C48.7781 78.972 46.5068 81.2511 44.5 78.972C44.5 78.972 43.8544 67.4132 43.2788 64.7997C42.6954 62.1939 42.8899 54.2132 42.8899 54.2132L48.2337 52.9531H48.2414Z" fill="#24323D"/>
<path d="M44.2586 54.4399C44.2586 54.4399 43.7374 61.1605 43.2085 67.8188C43.2085 67.8188 42.874 81.0422 42.5629 82.9479C42.5629 82.9479 38.3003 84.0057 37.8725 81.9989C37.8725 81.9989 37.9814 70.3624 37.8725 67.9277C37.7714 65.4931 37.5147 58.7103 38.4792 54.7977C39.4359 50.8852 44.2664 54.4399 44.2664 54.4399H44.2586Z" fill="#2B3C4B"/>
<path d="M42.5559 82.946C42.867 81.0403 43.2015 67.817 43.2015 67.817C43.5593 63.3288 43.9093 58.8251 44.1038 56.3516L41.4669 56.9972C41.4669 56.9972 39.5689 61.9831 39.8567 69.4582C40.0823 75.2454 40.1757 80.9392 40.2068 83.2183C41.3813 83.2338 42.5559 82.9383 42.5559 82.9383V82.946Z" fill="#314656"/>
<path d="M48.7786 78.9645C49.5643 74.9353 48.2575 65.6945 48.2575 64.5277C48.2575 63.361 48.2419 53.918 48.2419 53.0234L45.9551 54.7814C45.9551 54.7814 45.2317 62.2175 45.9551 66.4568C46.6162 70.3149 46.1884 77.8211 46.5151 79.9757C47.783 79.9757 48.7864 78.9645 48.7864 78.9645H48.7786Z" fill="#2A3944"/>
<path d="M49.4168 35.8831C48.1256 35.8442 47.2389 40.029 45.9788 43.3659L39.826 40.659C39.5616 40.3401 39.0171 39.6634 38.8148 39.2356C38.5426 38.66 38.2626 38.6133 38.1381 38.6289C38.0137 38.6444 38.1692 39.0178 38.1926 39.2823C38.2159 39.5389 38.6359 40.0368 38.3092 39.9745C37.9825 39.9123 36.4502 39.0256 36.0613 39.3212C35.8824 39.4534 35.5712 39.36 36.528 40.4412C37.2125 41.2191 38.387 41.7014 38.9937 41.9191C41.9184 44.7505 46.0877 46.454 46.0877 46.454C46.5466 46.5862 47.06 46.3995 47.06 46.3995C49.1135 44.7661 50.2025 41.4213 50.6147 38.3022C50.9103 36.0698 49.4168 35.8909 49.4168 35.8909V35.8831Z" fill="#EFB185"/>
<path d="M48.9189 35.6521C49.5878 35.4499 50.8635 35.6054 50.8635 37.6511C50.8635 39.6969 50.7934 40.3969 50.1012 42.0615C49.7589 42.886 47.2932 42.5127 46.6475 41.167C46.2742 40.3892 47.5887 36.0488 48.9189 35.6521Z" fill="#DEF0F9"/>
<path d="M49.3544 35.2965C49.3544 35.2965 51.3068 36.3233 50.1245 39.6602C48.9344 42.9972 48.1021 45.1596 48.141 46.4119C48.1799 47.6642 48.561 51.8957 48.8099 52.7513C48.8099 52.7513 49.0822 55.5282 42.7272 57.045C42.7272 57.045 37.5079 57.4651 38.4335 54.0581C39.3591 50.6512 39.7947 45.1207 39.6936 43.7984C39.5847 42.476 38.8458 39.8236 42.1827 38.1123C45.5119 36.4011 47.2543 35.1176 49.3544 35.2888V35.2965Z" fill="#DEF0F9"/>
<path d="M39.6933 43.8058C39.7944 45.1282 39.3588 50.6509 38.4332 54.0656C37.7954 56.4302 40.1056 56.9514 41.5835 57.0447C42.0891 55.528 41.3423 52.7822 42.5091 49.4608C43.9403 45.3615 43.8081 42.6313 43.1236 40.4222C42.6802 38.991 41.8246 38.9288 41.2179 38.7188C39.0088 40.4067 39.6 42.6313 39.6933 43.8058Z" fill="#C1DBE5"/>
<path d="M48.8024 52.7517C48.5535 51.8883 48.1801 47.6646 48.1334 46.4123C48.0946 45.1599 48.9579 43.0131 50.1169 39.6606C51.2137 36.4948 50.0236 35.6391 49.3469 35.2969C48.9657 36.9381 43.2408 37.5215 43.3575 38.626C43.4897 39.855 44.9909 41.0296 45.0376 43.2309C45.0843 45.4322 44.7343 48.6758 44.3142 50.2937C43.9564 51.7016 44.0498 55.1163 44.3453 56.5942C49.0357 55.0385 48.8024 52.7595 48.8024 52.7595V52.7517Z" fill="#F3FCFF"/>
<path d="M47.0437 33.5915C47.0437 33.5915 46.8026 35.3416 47.3782 36.4539C47.9071 37.4651 43.7534 38.2897 43.6679 37.364C43.6679 37.2629 44.4846 35.7694 43.5201 33.9571C43.0145 33.0081 47.0437 33.5915 47.0437 33.5915Z" fill="#EFB185"/>
<path d="M47.3552 36.5122C46.9274 35.6877 46.9429 34.5054 46.9896 33.9531L43.9404 35.3921C43.9404 35.3921 43.9404 35.3921 43.9404 35.3999C44.0493 35.431 46.0795 35.9833 46.4918 37.4612C47.1218 37.2201 47.5496 36.8778 47.3552 36.5045V36.5122Z" fill="#DD9569"/>
<path d="M42.7811 28.8393C42.7811 28.8393 42.1044 30.4184 42.2055 31.7951C42.3144 33.273 42.0888 33.5686 42.1666 34.2298C42.1977 34.5098 42.2133 34.9376 42.4777 35.2021C42.9289 35.6532 43.8623 35.8321 45.1457 35.3888C46.6936 34.8521 48.366 32.7674 47.7437 30.8539C47.1215 28.9327 45.1224 27.3303 42.7733 28.8393H42.7811Z" fill="#EFB185"/>
<path d="M47.6344 32.9092C47.0511 31.1824 45.5576 29.0978 45.5732 28.9889C45.5809 28.9267 45.0831 28.5922 44.5075 28.2422C43.963 28.2655 43.3796 28.4444 42.7729 28.8333C42.7729 28.8333 42.594 29.2534 42.4307 29.8523C42.7885 30.2724 43.5274 30.7546 43.6363 31.1047C43.8852 31.9292 43.7063 33.1737 43.4497 33.7182C43.193 34.2627 44.1653 35.0872 43.9553 35.5695C43.9475 35.5928 43.9397 35.6161 43.9475 35.6317C44.3053 35.6161 44.702 35.5384 45.1454 35.3906C46.141 35.0483 47.1755 34.076 47.6344 32.9092Z" fill="#E6A376"/>
<path d="M42.6881 28.5002C42.6881 28.5002 42.4392 29.6281 43.427 30.2192C44.1971 30.6859 44.1271 31.9383 44.0882 32.1794C44.0493 32.4205 43.7849 33.5173 43.8782 33.6573C44.0571 33.9295 44.7105 33.0972 45.0139 33.1595C45.7761 33.3228 45.465 34.0307 44.7494 34.7696C43.9949 35.5475 45.9395 35.913 46.8496 35.2752C47.3396 34.933 47.5107 34.7307 48.1719 33.4939C49.1209 31.6893 49.2142 29.5036 47.0829 28.2902C44.9516 27.0767 43.5126 28.049 42.6959 28.5002H42.6881Z" fill="#221101"/>
<path d="M46.8415 35.2756C47.3316 34.9333 47.6971 34.8166 48.3505 33.5721C49.2995 31.7675 49.5328 28.7183 47.0826 27.8938C44.7647 27.1082 43.1934 28.065 42.68 28.4928C42.68 28.4928 42.6334 28.6639 42.68 28.9828C43.3568 29.1073 44.8736 29.2395 45.3403 30.0562C45.9159 31.0519 46.5771 30.7485 46.507 31.9775C46.437 33.1598 46.7093 34.7155 44.7102 35.3456C45.4414 35.8901 46.4915 35.5089 46.8415 35.26V35.2756Z" fill="#341C09"/>
<path d="M43.9166 36.8155L42.5476 37.9278C42.5476 37.9278 46.7168 39.2113 47.9847 37.1811C48.1636 36.8933 47.9769 35.9132 47.2458 35.7188C47.2458 35.7188 47.0669 37.3911 43.9166 36.8233V36.8155Z" fill="#DEF0F9"/>
<path d="M41.459 38.9378C40.1678 38.8989 39.2811 43.0837 38.021 46.4206L31.8682 43.7137C31.6038 43.3948 31.0593 42.7181 30.8571 42.2903C30.5848 41.7224 30.3048 41.668 30.1803 41.6836C30.0559 41.7069 30.2114 42.0725 30.2348 42.3369C30.2581 42.5936 30.6781 43.0915 30.3514 43.0214C30.017 42.9592 28.4924 42.0725 28.0957 42.3681C27.9168 42.5081 27.6057 42.4069 28.5624 43.4882C29.2469 44.266 30.4215 44.7483 31.0282 44.9661C33.9529 47.7974 38.1221 49.5009 38.1221 49.5009C38.581 49.6331 39.0944 49.4464 39.0944 49.4464C41.1479 47.813 42.2369 44.4682 42.6491 41.3491C42.9447 39.1167 41.4513 38.9378 41.4513 38.9378H41.459Z" fill="#EFB185"/>
<path d="M40.9684 38.7146C41.6374 38.5124 42.913 38.6679 42.913 40.7137C42.913 42.7594 42.8508 43.4672 42.1585 45.1318C41.8163 45.9563 39.3505 45.5752 38.6971 44.2373C38.3237 43.4594 39.6383 39.1191 40.9684 38.7224V38.7146Z" fill="#DEF0F9"/>
<path d="M8.99186 42.8554C4.88484 41.8753 4.30147 49.9649 7.4284 52.3528C7.97289 52.7651 9.64525 52.3917 9.76193 51.785C10.2597 49.3115 6.63499 46.7213 8.47848 44.3722C8.49404 44.3799 8.70406 44.1933 8.82852 44.0221C9.13188 43.6099 9.99528 43.1898 8.99186 42.8554Z" fill="#2B0D04"/>
<path d="M24.9307 58.3399C24.9307 58.3399 26.7741 59.2577 27.7231 59.0399C28.6721 58.8299 29.9633 58.161 29.4266 57.8576C28.8899 57.5542 27.4509 57.6554 27.3731 57.2664C27.3031 56.8775 28.2054 56.9631 27.7776 56.7453C27.3498 56.5275 26.5174 56.4575 24.9618 57.2742C24.9618 57.2742 24.5106 57.7409 24.9307 58.3399Z" fill="#EFB185"/>
<path d="M15.3627 48.938C15.3627 48.938 13.9082 48.3857 13.9004 50.0736C13.9004 50.0736 14.126 52.2983 15.8917 55.5574C15.8917 55.5574 17.5563 58.7621 18.4119 58.9255C19.2753 59.0811 25.4747 58.9177 25.4747 58.9177C25.4747 58.9177 25.1013 58.0154 25.4903 56.9031C25.4903 56.9031 20.0454 56.3119 19.6409 55.8919C19.2364 55.4719 16.5451 49.2569 15.355 48.938H15.3627Z" fill="#CEE2EA"/>
<g opacity="0.1">
<path d="M4.26276 88.7685C0.606894 90.8764 0.591347 94.3067 4.22388 96.4147C7.85641 98.5226 13.7602 98.5226 17.4161 96.4147C21.072 94.3067 21.0953 90.8842 17.4628 88.7685C13.8302 86.6605 7.92641 86.6605 4.27055 88.7685H4.26276Z" fill="black"/>
</g>
<path d="M15.0368 87.6718C15.0368 87.6718 15.1612 88.8386 15.6824 89.4609C16.2035 90.0832 18.576 91.4988 18.4126 92.1444C18.2493 92.7901 16.5613 92.8678 15.4879 91.81C14.4145 90.7521 14.1267 90.5965 13.6755 90.5032C13.2244 90.4099 12.571 89.8498 13.0299 88.8542C13.0299 88.8542 14.4689 88.4263 15.0368 87.6641V87.6718Z" fill="black"/>
<path d="M15.612 61.2109C15.612 61.2109 17.5644 70.794 16.4909 76.0989C16.4909 76.0989 16.0009 80.2837 15.7676 81.4426C15.5342 82.5939 15.5653 88.8633 15.5653 88.8633C15.5653 88.8633 13.8074 89.6178 12.9129 88.7933C12.9129 88.7933 11.7772 82.3449 13.0218 78.2379C13.0218 78.2379 11.5516 70.3895 11.5205 67.8304C11.4894 65.2713 11.1627 63.07 11.1627 63.07L15.6042 61.2187L15.612 61.2109Z" fill="#231D21"/>
<path d="M16.4986 76.1145C16.4986 76.1145 16.0085 80.2993 15.7752 81.4583C15.5418 82.6095 15.573 88.8789 15.573 88.8789C15.573 88.8789 15.2774 88.9956 14.8729 89.0889C14.7484 87.2221 14.5073 83.9707 14.4062 83.2318C14.2584 82.1895 15.4485 76.449 15.5418 74.3255C15.6352 72.1942 13.2783 64.2135 13.2783 64.2135L13.9317 61.9344L15.6196 61.2344C15.6196 61.2344 17.572 70.8174 16.4986 76.1223V76.1145Z" fill="#31282E"/>
<path d="M9.68454 90.0625C9.68454 90.0625 9.77789 91.237 10.2757 91.8671C10.7813 92.5049 13.1148 93.9828 12.9359 94.6207C12.757 95.2663 11.0691 95.2974 10.019 94.2162C8.96893 93.135 8.6889 92.9639 8.23775 92.8627C7.7866 92.7616 7.14878 92.186 7.63882 91.1982C7.63882 91.1982 9.0856 90.8092 9.67676 90.0625H9.68454Z" fill="black"/>
<path d="M7.64612 64.3515C7.64612 64.3515 5.75596 67.0506 6.66604 72.5733L7.07051 79.1617C7.07051 79.1617 5.81818 81.2696 6.72048 87.6791L7.58389 91.5294C7.58389 91.5294 8.64953 92.3072 9.83186 90.7126C9.83186 90.7126 9.7463 81.2385 10.1897 79.7762C10.5164 78.7105 12.002 74.2535 12.5854 69.952C12.7954 68.3808 15.2301 65.7828 15.0979 64.4293L7.64612 64.3438V64.3515Z" fill="#31282E"/>
<path d="M7.58389 91.545L6.72048 87.6947C5.81818 81.2853 7.07051 79.1773 7.07051 79.1773L6.66604 72.589C5.75596 67.0663 7.64612 64.3672 7.64612 64.3672H7.86391L9.93298 65.7051C9.93298 65.7051 7.88725 76.1437 8.03504 78.7962C8.18283 81.4486 7.4361 84.5444 7.53722 86.1935C7.59945 87.2513 8.07393 89.9427 8.4084 91.7317C7.91836 91.7862 7.59166 91.5528 7.59166 91.5528L7.58389 91.545Z" fill="#231D21"/>
<path d="M6.38646 52.7984C6.38646 52.7984 8.05882 49.6481 14.9116 48.8625C14.9116 48.8625 16.0006 48.4113 15.8917 51.935C15.8762 52.4406 16.4051 53.3118 16.7629 53.7707C17.1207 54.2296 18.0697 55.9953 15.9928 58.1033C15.9928 58.1033 15.1916 61.2458 16.1484 63.2759C17.004 65.0883 12.5236 66.8618 8.7122 66.4884C8.2455 66.4418 6.94651 65.9906 7.35876 64.3571C7.77102 62.7237 8.99223 60.0012 8.22995 56.991C7.45988 53.9729 5.88086 54.3307 6.39423 52.7984H6.38646Z" fill="#CEE2EA"/>
<path d="M6.38593 52.6797C5.87255 54.2121 7.45936 53.8542 8.22164 56.8723C8.99171 59.8903 7.76271 62.7139 7.35045 64.3551C6.93819 65.9886 7.94161 66.3775 8.40832 66.4242C9.03837 66.4864 9.80066 66.5642 10.4385 66.5175C9.1006 63.5928 10.9985 58.1557 11.0841 55.2233C11.1697 52.1119 8.36165 50.8984 8.36165 50.8984C6.87597 51.8318 6.38593 52.6797 6.38593 52.6797Z" fill="#BAD1DE"/>
<path d="M16.1488 63.2671C15.192 61.237 15.9932 58.0945 15.9932 58.0945C18.0623 55.9788 17.1211 54.2208 16.7633 53.7619C16.4055 53.303 15.8765 52.4318 15.8921 51.9262C15.931 50.5416 15.791 49.7716 15.6043 49.3438C15.2076 49.8027 14.4142 49.6393 14.6787 51.2572C14.8342 52.2218 14.5153 53.6452 13.0296 53.653C11.5362 53.653 12.3762 56.0488 12.4618 56.7177C13.0685 61.3381 10.6028 63.5083 11.3962 66.4252C14.3131 66.0285 16.8099 64.6673 16.1488 63.2749V63.2671Z" fill="#DDEDF2"/>
<path d="M16.2496 61.2761C16.2496 61.2761 18.2486 61.7506 19.1276 61.3228C20.0066 60.9027 21.1033 59.9615 20.52 59.7904C19.9288 59.6115 18.5442 60.0471 18.3809 59.6737C18.2175 59.3082 19.1276 59.1915 18.6609 59.0748C18.1942 58.9581 17.3697 59.0748 16.0396 60.226C16.0396 60.226 15.7051 60.7861 16.2574 61.2683L16.2496 61.2761Z" fill="#EFB185"/>
<path d="M6.77541 52.3181C6.77541 52.3181 8.2222 51.7114 9.07782 53.9282C9.94123 56.1451 11.388 59.8632 11.388 59.8632L11.7536 60.3688L16.6929 59.6532C16.6929 59.6532 16.0473 60.9211 17.1285 61.5978C17.1285 61.5978 11.0769 64.3436 9.31118 62.5079C9.31118 62.5079 4.30187 53.0182 6.77541 52.3181Z" fill="#CEE2EA"/>
<path d="M14.3751 47.3914C14.3751 47.3914 13.2706 48.9082 13.9551 50.3939C14.1417 50.7984 14.6551 52.4941 11.9949 51.9963C11.9949 51.9963 9.17909 50.8295 9.92582 49.9505C10.4236 49.3594 10.8904 48.5349 9.87138 45.7891L14.3673 47.3992L14.3751 47.3914Z" fill="#E8A476"/>
<path d="M9.93419 49.9516C9.84863 50.0449 9.8175 50.1383 9.8175 50.2316C12.3455 50.535 13.9245 48.6448 13.9245 48.6448L10.4709 46.0312C10.4709 46.0312 10.3153 46.1557 10.082 46.3579C10.8287 48.6448 10.3931 49.3993 9.93419 49.9438V49.9516Z" fill="#DB9669"/>
<path d="M13.5576 42.4574C13.5576 42.4574 14.2732 42.6441 14.4599 44.7287C14.4832 44.9621 14.8721 45.2343 15.0121 45.7944C15.1522 46.37 15.4633 48.6802 14.1332 49.0302C13.1687 49.2791 10.7184 48.8591 9.73058 46.58C8.74272 44.3087 10.5084 41.1429 13.5498 42.4574H13.5576Z" fill="#F1B287"/>
<path d="M10.9597 46.8787C10.9597 46.8787 10.5008 45.7586 9.86292 46.1553C9.66846 46.2876 9.45843 46.5365 9.81624 47.1121C10.1818 47.6799 10.8819 48.17 11.3953 48.0611L10.9519 46.8787H10.9597Z" fill="#F1B287"/>
<path d="M8.99149 42.8559C8.48589 42.7315 8.02697 42.7548 7.62249 42.8793C7.2569 43.8593 7.52137 44.5905 8.00364 45.3295C8.07364 45.0028 8.22142 44.6839 8.47033 44.3649C8.48589 44.3727 8.69591 44.186 8.82036 44.0149C9.12372 43.6027 9.98713 43.1826 8.98371 42.8481L8.99149 42.8559Z" fill="#EFF3FC"/>
<path d="M13.4023 41.5078C12.3989 40.66 11.1855 40.8466 10.0109 41.2278C8.99194 41.5545 8.00408 42.6357 7.97297 43.6391C7.9263 45.0237 8.393 46.8205 10.0343 47.645C10.641 47.9483 9.59867 46.4704 10.4076 46.3927C10.6643 46.3693 10.7421 45.9415 10.9288 45.8637C11.061 45.926 12.08 45.3737 13.1845 45.0003C13.2623 44.9692 13.3712 44.3003 13.449 44.2769C13.5501 44.238 13.6357 44.8448 13.729 44.8136C14.3124 44.6114 14.7091 44.3236 14.7091 44.3236C14.9502 43.3046 14.1102 42.1067 13.4023 41.5078Z" fill="#2B0D04"/>
<path d="M10.618 45.9423C10.9913 46.2846 11.1314 46.7358 10.9214 46.9613C10.7191 47.1791 10.2524 47.0858 9.87903 46.7513C9.50567 46.4091 9.37343 45.9501 9.57567 45.7323C9.77791 45.5068 10.2524 45.6001 10.618 45.9423Z" fill="#F1B287"/>
</svg>
