<svg width="89" height="84" viewBox="0 0 89 84" fill="none" xmlns="http://www.w3.org/2000/svg">
<path d="M88.2253 67.9962L69.7198 57.2372L82.2705 49.9913L56.361 34.9375L31.7427 49.1482L4.06783 65.1242L0.879639 66.9686L26.7891 82.0225L42.045 73.2132L60.5505 83.9723L88.2253 67.9962Z" fill="#E2E7E8"/>
<path d="M70.688 52.9282L71.9439 52.1992L72.0318 23.0312L70.7758 23.7602L70.688 52.9282Z" fill="#E6DAB0"/>
<path d="M70.7759 23.7563L72.0318 23.0273L55.0721 13.2344L53.8162 13.9721L70.7759 23.7563Z" fill="#AEB6BC"/>
<path d="M53.8159 13.9688L53.7368 43.1279L70.6878 52.9208L70.7756 23.7529L53.8159 13.9688Z" fill="#BEAF84"/>
<path d="M28.4668 77.7719L29.7227 77.0429L29.8106 47.875L28.5546 48.604L28.4668 77.7719Z" fill="#E6DAB0"/>
<path d="M28.5547 48.599L29.8106 47.8701L12.8509 38.0859L11.595 38.8149L28.5547 48.599Z" fill="#AEB6BC"/>
<path d="M11.5947 38.8125L11.5156 67.9716L28.4666 77.7645L28.5544 48.5966L11.5947 38.8125Z" fill="#BEAF84"/>
<path d="M4.00488 40.7812V42.6432L25.8655 55.3433L25.8567 53.4901L4.00488 40.7812Z" fill="#6B4125"/>
<path d="M25.8574 53.4954L25.8662 55.3486L75.63 26.6198L75.6212 24.7578L25.8574 53.4954Z" fill="#885937"/>
<path d="M4.00488 40.7835L25.8567 53.4923L75.6204 24.7547L53.7598 12.0547L4.00488 40.7835Z" fill="#AA814F"/>
<g opacity="0.1">
<path d="M12.4901 39.7019C13.6056 40.3431 13.6144 41.3882 12.5077 42.0382C11.4011 42.6793 9.60057 42.6793 8.48515 42.0382C7.36972 41.397 7.36095 40.3519 8.46759 39.7107C9.57423 39.0696 11.3835 39.0608 12.4901 39.7107V39.7019Z" fill="black"/>
</g>
<path d="M12.0092 39.4548C12.8524 39.9467 12.8612 40.7371 12.018 41.229C11.1749 41.7208 9.81353 41.7208 8.96159 41.229C8.11844 40.7371 8.10965 39.9467 8.96159 39.4548C9.79596 38.963 11.1661 38.963 12.018 39.4548H12.0092Z" fill="#DFE5F3"/>
<path d="M7.64307 36.9247L8.32813 40.4467H12.6405L13.3343 36.8281L7.64307 36.9247Z" fill="#DFE5F3"/>
<path d="M12.4911 35.6752C13.6065 36.3164 13.6153 37.3703 12.5087 38.0115C11.4021 38.6526 9.60155 38.6526 8.48612 38.0115C7.3707 37.3703 7.36193 36.3251 8.46857 35.684C9.57521 35.0428 11.3845 35.0428 12.4911 35.684V35.6752Z" fill="#9FB0BC"/>
<path d="M11.8756 35.9852C12.6924 36.4595 12.7011 37.2236 11.8756 37.6891C11.0675 38.1546 9.7501 38.1546 8.93329 37.6891C8.11648 37.2148 8.11648 36.4595 8.9245 35.9852C9.74131 35.5197 11.05 35.511 11.8668 35.9852H11.8756Z" fill="#388852"/>
<path d="M8.36214 37.0709C8.36214 37.0709 6.26303 34.4185 8.327 29.6406C8.327 29.6406 10.1363 31.9242 9.0999 37.7911C9.0999 37.7911 8.69589 37.6418 8.36214 37.0709Z" fill="#388852"/>
<path d="M8.34592 29.6562C8.38984 31.5007 8.48646 34.6888 8.74116 37.5345C8.94317 37.7101 9.09247 37.7716 9.09247 37.7716C10.0586 32.3087 8.54795 29.9461 8.33716 29.6562H8.34592Z" fill="#2C7741"/>
<path d="M9.39082 36.7263C9.39082 36.7263 7.71329 33.7928 10.4623 29.375C10.4623 29.375 11.9203 31.9045 10.0144 37.5519C10.0144 37.5519 9.63674 37.3411 9.39082 36.7351V36.7263Z" fill="#388852"/>
<path d="M10.3212 29.375C10.0841 31.2018 9.71521 34.3725 9.53955 37.2269C9.70643 37.4289 9.85572 37.5167 9.85572 37.5167C11.6299 32.2558 10.4793 29.7 10.3212 29.375Z" fill="#2C7741"/>
<path d="M9.50534 37.8901C9.50534 37.8901 6.98467 37.003 6.36108 32.9453C6.36108 32.9453 8.53044 33.7094 10.3046 38.0569C10.3046 38.0569 9.97083 38.1272 9.50534 37.8901Z" fill="#388852"/>
<path d="M6.38574 32.9531C7.18498 34.1652 8.59901 36.2467 9.96035 38.0472C10.1624 38.0823 10.2941 38.056 10.2941 38.056C8.64292 33.9983 6.64923 33.0673 6.38574 32.9531Z" fill="#2C7741"/>
<path d="M10.6207 37.5037C10.6207 37.5037 9.27694 35.9667 10.3748 33.0156C10.3748 33.0156 11.5429 34.3418 11.0862 37.9165C11.0862 37.9165 10.8403 37.8374 10.6207 37.5037Z" fill="#388852"/>
<path d="M10.3933 33.0234C10.4724 34.1301 10.6304 36.0623 10.8676 37.7662C10.9905 37.8716 11.0871 37.8979 11.0871 37.8979C11.5087 34.5692 10.5251 33.1903 10.3933 33.0234Z" fill="#2C7741"/>
<path d="M11.2181 36.5145C11.2181 36.5145 9.92695 34.1782 12.1578 30.7266C12.1578 30.7266 13.2732 32.7378 11.7011 37.1644C11.7011 37.1644 11.4113 36.9975 11.2181 36.5145Z" fill="#388852"/>
<path d="M12.1658 30.7578C11.955 32.1894 11.6212 34.6925 11.4543 36.9409C11.5861 37.1078 11.7003 37.1693 11.7003 37.1693C13.167 33.0413 12.2975 31.0125 12.1745 30.7578H12.1658Z" fill="#2C7741"/>
<path d="M11.5505 36.9534C11.5505 36.9534 11.2431 34.9772 13.6848 33.1328C13.6848 33.1328 13.957 34.8279 11.7174 37.533C11.7174 37.533 11.5593 37.3398 11.5505 36.9534Z" fill="#388852"/>
<path d="M13.6936 33.1641C13.1754 34.1214 12.3059 35.7814 11.6121 37.3184C11.656 37.4677 11.7262 37.5467 11.7262 37.5467C13.8078 35.026 13.72 33.3836 13.7024 33.1728L13.6936 33.1641Z" fill="#2C7741"/>
<path d="M53.718 24.9087L61.5084 29.4406L67.5422 25.945L59.7606 21.4219L53.718 24.9087Z" fill="#C0C5D1"/>
<path d="M55.9829 25.2034L56.1673 25.3087L57.9942 24.2548L57.8097 24.1406L55.9829 25.2034Z" fill="#E2E6ED"/>
<path d="M56.7131 25.618L56.9064 25.7322L59.6203 24.1601L59.4358 24.0547L56.7131 25.618Z" fill="#E2E6ED"/>
<path d="M56.3452 25.417L56.5384 25.5312L58.9186 24.1523L58.7254 24.0469L56.3452 25.417Z" fill="#E2E6ED"/>
<path d="M58.6284 23.2533L60.2006 24.1667L61.6058 23.3587L60.0249 22.4453L58.6284 23.2533Z" fill="#E2E6ED"/>
<path d="M57.4507 26.0498L57.6351 26.1552L60.0241 24.7851L59.8308 24.6797L57.4507 26.0498Z" fill="#E2E6ED"/>
<path d="M57.0801 25.8362L57.2645 25.9416L59.1001 24.8876L58.9157 24.7734L57.0801 25.8362Z" fill="#E2E6ED"/>
<path d="M55.6067 24.9696L55.7999 25.0838L58.5226 23.5116L58.3294 23.4062L55.6067 24.9696Z" fill="#E2E6ED"/>
<path d="M59.5859 27.3049L59.7704 27.4103L61.606 26.3476L61.4216 26.2422L59.5859 27.3049Z" fill="#E2E6ED"/>
<path d="M60.3228 27.7284L60.5072 27.8426L63.2299 26.2704L63.0367 26.1562L60.3228 27.7284Z" fill="#E2E6ED"/>
<path d="M59.9529 27.5273L60.1373 27.6415L62.5175 26.2626L62.333 26.1484L59.9529 27.5273Z" fill="#E2E6ED"/>
<path d="M61.054 28.167L61.2472 28.2724L63.6273 26.9023L63.4341 26.7969L61.054 28.167Z" fill="#E2E6ED"/>
<path d="M60.6824 27.9534L60.8756 28.0587L62.7024 27.0048L62.518 26.8906L60.6824 27.9534Z" fill="#E2E6ED"/>
<path d="M59.2163 27.0868L59.4007 27.201L62.1234 25.6288L61.939 25.5234L59.2163 27.0868Z" fill="#E2E6ED"/>
<path d="M58.9868 24.2681L66.7772 28.8L72.811 25.3044L65.0294 20.7812L58.9868 24.2681Z" fill="#E2E6ED"/>
<path d="M61.0515 24.468L61.2359 24.5822L63.0716 23.5195L62.8871 23.4141L61.0515 24.468Z" fill="#A5AAB4"/>
<path d="M61.79 24.9003L61.9745 25.0057L64.6972 23.4423L64.5039 23.3281L61.79 24.9003Z" fill="#A5AAB4"/>
<path d="M61.4202 24.6992L61.6046 24.8046L63.9848 23.4257L63.8003 23.3203L61.4202 24.6992Z" fill="#A5AAB4"/>
<path d="M63.696 22.519L65.2682 23.4324L66.6734 22.6244L65.1013 21.7109L63.696 22.519Z" fill="#A5AAB4"/>
<path d="M62.5183 25.3154L62.7115 25.4296L65.0917 24.0507L64.8985 23.9453L62.5183 25.3154Z" fill="#A5AAB4"/>
<path d="M62.1497 25.093L62.3429 25.2072L64.1697 24.1445L63.9853 24.0391L62.1497 25.093Z" fill="#A5AAB4"/>
<path d="M60.6826 24.2674L60.8671 24.3728L63.5897 22.8095L63.4053 22.6953L60.6826 24.2674Z" fill="#A5AAB4"/>
<path d="M48.6494 29.4766V30.1616L50.81 31.4176V30.7413L48.6494 29.4766Z" fill="#323A3B"/>
<path d="M45.9976 31.0136V31.6898L48.65 30.1616V29.4766L45.9976 31.0136Z" fill="#232829"/>
<path d="M45.9976 31.0078V31.6841L48.1582 32.94V32.2638L45.9976 31.0078Z" fill="#1D1F1F"/>
<path d="M48.1565 32.2704V32.9467L50.8089 31.4185V30.7422L48.1565 32.2704Z" fill="#141515"/>
<path d="M55.3135 33.3359V34.0122L56.0249 34.4338V33.7575L55.3135 33.3359Z" fill="#323A3B"/>
<path d="M52.6523 34.8729L52.6611 35.5492L55.3136 34.0122V33.3359L52.6523 34.8729Z" fill="#232829"/>
<path d="M52.6523 34.8729L53.3638 35.2857L56.025 33.7575L55.3136 33.3359L52.6523 34.8729Z" fill="#202222"/>
<path d="M53.3655 35.286V35.9623L56.0267 34.4341V33.7578L53.3655 35.286Z" fill="#141515"/>
<path d="M52.6523 34.8828L52.6611 35.5591L53.3638 35.9719V35.2956L52.6523 34.8828Z" fill="#1D1F1F"/>
<path d="M45.363 31.3828V32.0591L52.9163 36.4417L52.9075 35.7655L45.363 31.3828Z" fill="#323A3B"/>
<path d="M35.3782 37.1532V37.8294L45.3643 32.0591V31.3828L35.3782 37.1532Z" fill="#232829"/>
<path d="M42.9231 41.5282L42.9319 42.2044L52.918 36.4341L52.9092 35.7578L42.9231 41.5282Z" fill="#303637"/>
<path d="M35.3782 37.1328V37.8091L42.9314 42.1918L42.9227 41.5155L35.3782 37.1328Z" fill="#454E4F"/>
<path d="M35.3782 37.1532L42.9227 41.5358L52.9088 35.7655L45.3643 31.3828L35.3782 37.1532Z" fill="#4D5758"/>
<path d="M57.3613 33.9583L42.8872 42.3109L34.1658 37.2431L48.64 28.8906L57.3701 33.9583H57.3613ZM42.9223 41.5204L52.9084 35.7588L45.3639 31.3762L35.3778 37.1465L42.9223 41.5292V41.5204ZM48.1569 32.2632L50.8093 30.735L48.6487 29.4791L45.9963 31.0073L48.1569 32.2632ZM53.3739 35.2933L56.0263 33.7651L55.3149 33.3523L52.6625 34.8805L53.3739 35.2933Z" fill="#384141"/>
<path d="M45.9976 31.0136L48.1582 32.2695L50.8106 30.7413L48.65 29.4766L45.9976 31.0136Z" fill="#202222"/>
<path d="M34.1658 37.2344V37.9106L42.8959 42.9784V42.3021L34.1658 37.2344Z" fill="#323A3B"/>
<path d="M42.8965 42.3134V42.9897L57.3619 34.6372V33.9609L42.8965 42.3134Z" fill="#232829"/>
<path d="M70.1235 29.5254C68.2878 29.0775 66.7421 34.6371 63.7471 38.7299L56.9404 34.154C55.0784 35.006 55.7635 35.4187 55.7635 35.4187C58.7409 40.3899 63.2728 42.3748 63.2728 42.3748C63.8876 42.6998 64.6781 42.5944 64.6781 42.5944C68.1122 40.8817 70.0356 37.3773 71.5639 33.0474C72.6617 29.947 70.1147 29.5342 70.1147 29.5342L70.1235 29.5254Z" fill="#EFB185"/>
<path d="M70.3348 28.4102C70.3348 28.4102 76.4389 29.8418 70.3348 38.774C70.3348 38.774 66.1541 39.3975 65.2056 35.4716C65.2056 35.4716 67.252 28.0589 70.3348 28.419V28.4102Z" fill="#E51C25"/>
<path d="M56.9656 34.112C56.9656 34.112 54.5239 31.0819 51.7397 31.3981C51.7397 31.3981 51.6431 32.2325 52.8113 32.6892C53.9794 33.1371 54.3044 34.2877 54.278 34.4546C54.2517 34.6214 53.2943 34.6039 52.8727 34.5775C52.4424 34.5512 51.8539 35.1748 52.8727 35.3768C53.8916 35.5788 55.5954 36.2463 56.623 36.1057C56.623 36.1057 57.7648 34.964 56.9656 34.1208V34.112Z" fill="#EFB185"/>
<path d="M66.0764 69.7842C66.0764 69.9774 65.9534 70.1706 65.6987 70.3111L53.6486 77.2672C53.5257 77.3374 53.3851 77.3901 53.2358 77.4253H53.227C53.0777 77.4604 52.9196 77.478 52.7615 77.478H52.7352C52.5859 77.478 52.4366 77.4604 52.2873 77.4253C52.2697 77.4253 52.2521 77.4253 52.2346 77.4165C52.094 77.3813 51.9535 77.3286 51.8394 77.2584C51.7867 77.2232 51.7427 77.1881 51.6988 77.1618C51.6988 77.1618 51.6813 77.153 51.6725 77.1442C51.6286 77.1091 51.5934 77.0652 51.5583 77.0212C51.5319 76.9773 51.5144 76.9422 51.4968 76.8983C51.4968 76.8983 51.4968 76.8895 51.4968 76.8807C51.488 76.8368 51.4705 76.7929 51.4705 76.749V77.6536C51.4705 77.68 51.4705 77.7063 51.4793 77.7239C51.4793 77.7414 51.4792 77.759 51.488 77.7678C51.488 77.7678 51.488 77.7678 51.488 77.7854C51.488 77.7854 51.488 77.7854 51.488 77.7941C51.4968 77.8205 51.5056 77.8468 51.5232 77.8644C51.5232 77.8732 51.5407 77.882 51.5407 77.8907C51.5407 77.8995 51.5495 77.9083 51.5583 77.9171C51.5583 77.9171 51.5671 77.9347 51.5758 77.9347C51.6022 77.961 51.6285 77.9874 51.6549 78.0137C51.6812 78.0401 51.7164 78.0576 51.7427 78.084C51.7691 78.1015 51.7867 78.1191 51.813 78.1367C51.813 78.1367 51.8218 78.1367 51.8306 78.1367C51.9184 78.1894 52.015 78.2333 52.1116 78.2596C52.1467 78.2684 52.1906 78.2772 52.2258 78.2948C52.2433 78.2948 52.2521 78.2948 52.2697 78.2948C52.2961 78.2948 52.3224 78.3123 52.3487 78.3123C52.4014 78.3211 52.4541 78.3299 52.5068 78.3387C52.5507 78.3387 52.6034 78.3387 52.6474 78.3387H52.7791C52.7791 78.3387 52.8582 78.3387 52.9021 78.3387C52.946 78.3387 52.9899 78.3299 53.025 78.3299C53.0689 78.3299 53.1129 78.3123 53.1568 78.3035C53.2007 78.2948 53.2446 78.286 53.2885 78.2772C53.3412 78.2596 53.3939 78.2421 53.4466 78.2245C53.5081 78.1982 53.5696 78.1718 53.631 78.1367L65.6811 71.1806C65.9358 71.0313 66.0588 70.8469 66.0588 70.6537V69.7578L66.0764 69.7842Z" fill="#242626"/>
<path d="M66.7683 76.4237C66.7683 76.4237 66.7683 76.4413 66.7683 76.4501C66.7507 76.4852 66.7331 76.5291 66.7156 76.5642C66.7156 76.5642 66.7068 76.573 66.698 76.5818C66.6717 76.6169 66.6365 76.6608 66.5926 76.696C66.5663 76.7223 66.5311 76.7399 66.496 76.7575C66.4697 76.775 66.4521 76.7926 66.417 76.8102C66.3028 76.8804 66.1623 76.9243 66.0305 76.9595C66.0042 76.9595 65.9866 76.9683 65.969 76.977C65.8285 77.0122 65.6792 77.0297 65.5387 77.0297H65.5036C65.3542 77.0297 65.1961 77.0122 65.0556 76.977C65.0468 76.977 65.038 76.977 65.0205 76.977C64.8712 76.9419 64.7306 76.8892 64.6077 76.8189L52.5664 69.8629C52.3117 69.7136 52.1887 69.5292 52.1887 69.3359V70.2318C52.1887 70.425 52.3117 70.6182 52.5664 70.7588L64.6165 77.7148C64.678 77.7499 64.7394 77.7763 64.8009 77.8026C64.8536 77.8202 64.9063 77.8378 64.959 77.8553C64.9853 77.8553 65.0117 77.8729 65.0381 77.8729H65.0468C65.0468 77.8729 65.0732 77.8817 65.0908 77.8904C65.1347 77.8904 65.1786 77.908 65.2137 77.9168C65.2576 77.9168 65.3015 77.9168 65.3367 77.9344C65.3806 77.9344 65.4157 77.9344 65.4684 77.9344C65.4772 77.9344 65.4948 77.9344 65.5123 77.9344H65.6002C65.6002 77.9344 65.688 77.9344 65.7407 77.9256C65.7934 77.9256 65.8461 77.908 65.8988 77.8992C65.9251 77.8992 65.9427 77.8905 65.969 77.8817C65.9866 77.8817 66.0042 77.8729 66.0305 77.8641C66.0656 77.8553 66.1096 77.8465 66.1447 77.8378C66.2413 77.8026 66.3379 77.7675 66.4257 77.7148C66.4257 77.7148 66.4345 77.7148 66.4433 77.7148C66.4697 77.6972 66.4872 77.6797 66.5048 77.6621C66.5399 77.6357 66.5663 77.6182 66.5926 77.6006C66.6278 77.5743 66.6541 77.5391 66.6717 77.5128C66.6717 77.5128 66.6717 77.4952 66.6892 77.4952C66.6892 77.4864 66.698 77.4777 66.7068 77.4689C66.7068 77.4513 66.7244 77.4425 66.7244 77.4337C66.7419 77.4074 66.7507 77.381 66.7595 77.3547C66.7595 77.3547 66.7595 77.3547 66.7595 77.3459C66.7595 77.3459 66.7595 77.3459 66.7595 77.3371C66.7595 77.3196 66.7595 77.302 66.7683 77.2844C66.7683 77.2581 66.7683 77.2317 66.7683 77.2142V76.3183C66.7683 76.3183 66.7683 76.3183 66.7683 76.3095C66.7683 76.3535 66.7683 76.3974 66.7507 76.4413L66.7683 76.4237Z" fill="#242626"/>
<path d="M66.417 75.775C66.9176 76.0648 66.9176 76.5391 66.417 76.8289C65.9163 77.1187 65.1083 77.1187 64.6077 76.8289L52.5664 69.8729C52.057 69.583 52.057 69.1088 52.5664 68.8189C53.0582 68.5291 53.875 68.5291 54.3757 68.8189L66.417 75.775Z" fill="#3B3F3F"/>
<path d="M45.7759 64.2313C45.7759 64.2313 44.239 64.7407 44.7835 65.5839C45.3193 66.4182 47.3744 67.4985 47.7082 68.0255C48.0419 68.5613 49.8776 70.353 50.3255 70.0807C50.7734 69.8084 52.0557 69.8875 51.5112 67.5688C50.9666 65.2501 47.8575 63.7746 45.7759 64.2313Z" fill="#111114"/>
<path d="M45.2419 48.0635C45.2419 48.0635 42.7739 49.0735 45.6547 61.5188L47.1654 68.0621C47.1654 68.0621 48.755 70.4861 52.1189 68.0621L50.4677 54.3959L45.2419 48.0547V48.0635Z" fill="#29383D"/>
<path d="M47.8417 70.6314C47.8417 70.6314 48.8517 72.8095 46.981 73.5473C45.1102 74.285 45.5581 73.0203 41.4829 74.5222C37.4076 76.0328 36.6875 73.9161 36.7401 73.4243C36.7841 72.9325 39.4804 71.7731 40.3762 71.4306C41.2633 71.0881 43.661 70.1307 43.661 70.1307L47.9207 69.9375L47.8417 70.6314Z" fill="#111114"/>
<path d="M40.9542 51.2822C40.9542 51.2822 39.145 52.1342 41.9379 64.237C42.945 68.605 43.4486 70.786 43.4486 70.7802C43.4486 70.7802 45.0471 73.2043 48.4021 70.7802L46.7421 57.114L40.9542 51.2734V51.2822Z" fill="#29383D"/>
<path d="M47.0336 59.4174L45.4526 58.6094L46.8842 71.6168C47.3497 71.4499 47.8504 71.1865 48.4125 70.7912L47.0336 59.4174Z" fill="#243135"/>
<path d="M51.3884 62.0592L49.3333 60.1094L50.9756 68.7429C51.327 68.5761 51.7134 68.3653 52.1174 68.0667L51.3884 62.0592Z" fill="#243135"/>
<path d="M51.8382 76.2281C51.3288 76.5179 51.3376 76.9922 51.8382 77.2821C52.3389 77.5719 53.1469 77.5719 53.6475 77.2821L65.6976 70.326C66.1982 70.0362 66.207 69.5619 65.6976 69.2721C65.2058 68.9822 64.389 68.9822 63.8795 69.2721L51.8382 76.2281Z" fill="#3B3F3F"/>
<path d="M61.0337 63.6615C61.0337 63.4331 60.8844 63.2048 60.5858 63.0291C59.9798 62.6778 58.9873 62.6778 58.3725 63.0291C58.0124 63.2399 57.8719 63.521 57.9246 63.7844C57.9246 63.7493 57.907 63.7142 57.907 63.6703L57.9333 72.6112C57.9333 72.6464 57.9333 72.6727 57.9421 72.699C57.9421 72.7166 57.9509 72.7342 57.9597 72.7517C57.9597 72.7517 57.9597 72.7605 57.9597 72.7693C57.9597 72.7693 57.9597 72.7693 57.9597 72.7781C57.9685 72.8132 57.9773 72.8396 58.0036 72.8659C58.0036 72.8835 58.0212 72.8923 58.03 72.9098C58.03 72.9186 58.0475 72.9274 58.0475 72.945C58.0475 72.945 58.0563 72.9625 58.0651 72.9625C58.0914 72.9977 58.1266 73.0328 58.1617 73.0679C58.1968 73.1031 58.2407 73.1294 58.2934 73.1558C58.3198 73.1733 58.3374 73.1909 58.3549 73.2085L58.3725 73.2172C58.4779 73.2787 58.5921 73.3226 58.715 73.3666C58.7589 73.3841 58.8029 73.3841 58.8555 73.4017C58.8819 73.4017 58.9082 73.4105 58.9258 73.4192C58.9521 73.4192 58.9785 73.4368 59.0048 73.4368C59.0751 73.4456 59.1366 73.4544 59.2069 73.4632C59.2596 73.4632 59.321 73.4719 59.3825 73.4719C59.4177 73.4719 59.444 73.4719 59.4703 73.4719C59.4879 73.4719 59.5143 73.4719 59.5318 73.4719C59.5845 73.4719 59.6372 73.4719 59.6899 73.4632C59.7338 73.4632 59.7953 73.4632 59.8392 73.4456C59.8919 73.4456 59.9446 73.428 59.9973 73.4192C60.0149 73.4192 60.0324 73.4105 60.05 73.4017C60.05 73.4017 60.05 73.4017 60.0588 73.4017C60.0939 73.4017 60.1203 73.3841 60.1554 73.3753C60.2169 73.3578 60.2871 73.3314 60.3486 73.3138C60.4277 73.2787 60.5067 73.2436 60.577 73.2085C60.8844 73.0328 61.0337 72.7957 61.0337 72.5673L61.0073 63.6439L61.0337 63.6615ZM58.2934 64.2499C58.2934 64.2499 58.3373 64.2851 58.3725 64.3026C58.3461 64.2851 58.3198 64.2675 58.2934 64.2499ZM57.9421 63.8371C57.9421 63.8371 57.9773 63.9162 58.0036 63.9513C57.9773 63.9162 57.9597 63.8723 57.9421 63.8371ZM58.03 64.0128C58.03 64.0128 58.0826 64.0743 58.109 64.1006C58.0826 64.0743 58.0563 64.0479 58.03 64.0216V64.0128Z" fill="#111114"/>
<path d="M57.6962 65.6119C57.6698 65.5592 57.6435 65.5065 57.5908 65.445C57.5908 65.445 57.5908 65.445 57.5908 65.4363C57.5469 65.3836 57.5029 65.3221 57.4415 65.2606C57.4063 65.2167 57.3536 65.164 57.3097 65.1201C57.2834 65.0937 57.2482 65.0586 57.2219 65.0322C57.1077 64.9181 56.9672 64.7951 56.8091 64.6546C56.774 64.6282 56.7476 64.6019 56.7125 64.5755C56.572 64.4526 56.4227 64.3296 56.247 64.1979C56.2207 64.1803 56.1943 64.154 56.168 64.1276C55.9747 63.9783 55.7727 63.829 55.5531 63.6709C55.5004 63.6358 55.439 63.5918 55.3863 63.5479C55.193 63.4074 54.9911 63.2581 54.7715 63.1176C54.7276 63.0912 54.6924 63.0649 54.6485 63.0297C54.4026 62.8629 54.1479 62.6872 53.8844 62.5203C53.8054 62.4676 53.7263 62.4149 53.6473 62.3623C53.4014 62.2042 53.1642 62.0461 52.9095 61.888C52.8656 61.8616 52.8217 61.8353 52.7865 61.8089C52.4967 61.6245 52.1981 61.4401 51.8907 61.2556C51.8117 61.2029 51.7238 61.1502 51.636 61.1063C51.3198 60.9219 50.9948 60.7286 50.6699 60.5354C50.1868 60.2544 49.7126 59.9909 49.2558 59.745C49.2295 59.7274 49.2031 59.7186 49.1768 59.701C48.7464 59.4639 48.3336 59.2443 47.9384 59.0423C47.9033 59.0248 47.8681 59.0072 47.833 58.9896C47.4465 58.7964 47.0865 58.612 46.7351 58.4539C46.7 58.4363 46.6649 58.4187 46.6297 58.41C46.2872 58.2431 45.9623 58.1026 45.6637 57.9796C45.6373 57.9708 45.6197 57.962 45.5934 57.9532C45.3826 57.8654 45.1981 57.7952 45.0137 57.7249C44.9786 57.7161 44.9346 57.6985 44.8995 57.6898C44.7239 57.6283 44.5658 57.5756 44.4253 57.5404C44.3989 57.5317 44.3726 57.5229 44.3374 57.5141C44.2584 57.4965 44.1881 57.479 44.1179 57.4614C44.0739 57.4614 44.0388 57.4438 43.9949 57.4438C43.9773 57.4438 43.9598 57.4438 43.9422 57.4438C43.8807 57.4438 43.828 57.4438 43.7841 57.4438C43.7402 57.4438 43.6963 57.4614 43.6699 57.479L56.8179 49.8379C56.8179 49.8379 56.8267 49.8379 56.8354 49.8379C56.8442 49.8379 56.853 49.8379 56.8706 49.8291C56.8881 49.8291 56.8969 49.8291 56.9145 49.8203C56.9145 49.8203 56.9233 49.8203 56.9321 49.8203C56.9321 49.8203 56.9321 49.8203 56.9409 49.8203C56.9409 49.8203 56.9584 49.8203 56.9672 49.8203C56.9936 49.8203 57.0287 49.8203 57.0638 49.8203C57.0726 49.8203 57.0814 49.8203 57.0989 49.8203C57.1165 49.8203 57.1429 49.8203 57.1604 49.8203C57.1868 49.8203 57.2043 49.8203 57.2307 49.8203C57.2395 49.8203 57.257 49.8203 57.2746 49.8291C57.3448 49.8467 57.4327 49.8642 57.5205 49.8818C57.5381 49.8818 57.5469 49.8818 57.5644 49.8906H57.582C57.7313 49.9257 57.8982 49.9784 58.0738 50.0487C58.109 50.0574 58.1441 50.0662 58.1705 50.0838C58.3549 50.1541 58.5569 50.2243 58.7677 50.3122C58.7677 50.3122 58.7765 50.3122 58.7852 50.3122C58.794 50.3122 58.8028 50.3209 58.8204 50.3209C59.119 50.4439 59.444 50.5932 59.7865 50.7513C59.8304 50.7689 59.8743 50.7952 59.9182 50.8128C60.2432 50.9709 60.5945 51.1377 60.9634 51.3222C61.0161 51.3485 61.0776 51.3749 61.1391 51.41C61.5167 51.6032 61.9032 51.8052 62.2984 52.0248C62.3511 52.0512 62.4038 52.0775 62.4477 52.1039C62.8956 52.3498 63.3611 52.6045 63.8354 52.8855C64.1604 53.07 64.4853 53.2632 64.7927 53.4564C64.8806 53.5091 64.9596 53.553 65.0474 53.6057C65.3548 53.7902 65.6447 53.9746 65.9345 54.1503C65.9784 54.1766 66.0311 54.2117 66.075 54.2381C66.321 54.3962 66.5669 54.5543 66.804 54.7036C66.883 54.7563 66.9621 54.809 67.0412 54.8617C67.3046 55.0373 67.5593 55.2042 67.7965 55.3711C67.8492 55.4062 67.8931 55.4413 67.937 55.4677C68.139 55.6082 68.3322 55.7487 68.5255 55.8805C68.5869 55.9244 68.6572 55.9683 68.7099 56.021C68.9207 56.1703 69.1227 56.3284 69.3071 56.4689C69.351 56.4953 69.3774 56.5304 69.4213 56.5568C69.5706 56.6797 69.7112 56.7939 69.8429 56.8993C69.878 56.9344 69.9307 56.9696 69.9658 57.0047C70.1152 57.1277 70.2469 57.2506 70.3611 57.3648C70.3611 57.3648 70.3786 57.3824 70.3874 57.3911C70.4226 57.4263 70.4489 57.4614 70.484 57.4965C70.5192 57.5317 70.5543 57.5668 70.5807 57.6019C70.5807 57.6019 70.5982 57.6195 70.607 57.6283C70.6421 57.6634 70.6685 57.7073 70.7036 57.7425C70.7124 57.76 70.73 57.7688 70.7387 57.7864C70.7387 57.7864 70.7387 57.7864 70.7387 57.7952C70.7387 57.7952 70.7387 57.7952 70.7475 57.8039C70.7651 57.8215 70.7739 57.8479 70.7914 57.8654C70.7914 57.8742 70.8002 57.883 70.809 57.8918C70.809 57.9006 70.8178 57.9093 70.8266 57.9269C70.8266 57.9269 70.8353 57.9445 70.8441 57.9532C70.8441 57.962 70.8441 57.9708 70.8529 57.9796C70.8529 57.9884 70.8529 57.9972 70.8617 58.0059C70.8617 58.0059 70.8617 58.0235 70.8705 58.0323V58.0499C70.8705 58.0499 70.8705 58.0674 70.8705 58.0762V58.0938C70.8705 58.0938 70.8705 58.1026 70.8705 58.1113C70.8705 58.164 70.8441 58.1992 70.809 58.2343L57.661 65.8754C57.7049 65.849 57.7313 65.8051 57.7313 65.7612C57.7313 65.7173 57.7225 65.6734 57.6962 65.6207V65.6119Z" fill="#184C9F"/>
<path d="M50.6598 60.5304C46.7514 58.2732 43.5896 56.9557 43.5896 57.5881C43.5896 58.2205 46.7427 60.5567 50.651 62.8139C54.5594 65.0711 57.73 66.3885 57.73 65.7562C57.73 65.1238 54.5682 62.7876 50.6598 60.5392V60.5304Z" fill="#0B357C"/>
<path d="M69.6328 54.8164C69.6328 54.8164 69.1937 61.0699 62.343 59.1903C55.4924 57.3108 50.776 55.4839 50.776 55.4839C50.776 55.4839 42.0458 49.4677 45.4887 47.9219C45.4887 47.9219 48.6681 44.7425 69.6328 54.8077V54.8164Z" fill="#29383D"/>
<path d="M69.6328 54.8164C69.6328 54.8164 69.1937 61.0699 62.343 59.1903C55.4924 57.3108 50.776 55.4839 50.776 55.4839C50.776 55.4839 42.0458 49.4677 45.4887 47.9219C45.4887 47.9219 48.6681 44.7425 69.6328 54.8077V54.8164Z" fill="#29383D"/>
<path d="M65.9172 57.5366C65.9172 57.5366 65.4781 63.7901 58.6274 61.9105C51.7768 60.031 43.9864 56.0523 43.9864 56.0523C43.9864 56.0523 38.3214 52.1879 41.7731 50.6509C41.7731 50.6509 44.9525 47.4627 65.9084 57.5366H65.9172Z" fill="#29383D"/>
<path d="M41.7822 50.6438C40.9391 51.0215 40.6405 51.5309 40.6756 52.093C46.0331 52.1369 57.9164 56.2121 57.9164 56.2121L58.013 53.9989C44.1273 48.3163 41.7822 50.6438 41.7822 50.6438Z" fill="#354751"/>
<path d="M45.7267 47.6282C44.8835 48.0058 44.5937 48.5153 44.62 49.0774C49.9864 49.1213 61.8608 53.1965 61.8608 53.1965L61.9574 50.9832C48.0717 45.3007 45.7267 47.6282 45.7267 47.6282Z" fill="#304047"/>
<path d="M70.5819 28.4291C70.5819 28.4291 73.489 29.9485 71.7236 34.9021C69.9671 39.8556 68.7287 43.0526 68.7902 44.9145C68.8516 46.7765 69.4137 53.0387 69.7738 54.321C69.7738 54.321 70.1779 58.4314 60.7538 60.6886C60.7538 60.6886 53.0161 61.3209 54.3863 56.262C55.7564 51.2031 56.4063 43.0087 56.257 41.0501C56.0989 39.0915 55.001 35.1568 59.9458 32.6185C64.8818 30.0803 67.464 28.1744 70.5819 28.4291Z" fill="#E51C25"/>
<path d="M56.263 41.0357C56.4211 42.9943 55.7624 51.1887 54.3923 56.2476C53.4437 59.752 56.8691 60.5249 59.056 60.6654C59.8026 58.4082 58.6959 54.3417 60.4261 49.4233C62.5604 43.3456 62.3584 39.2967 61.3395 36.0207C60.6808 33.8952 59.4161 33.8074 58.5115 33.5C55.2354 35.9943 56.1138 39.2967 56.2543 41.0445L56.263 41.0357Z" fill="#CC111E"/>
<path d="M69.7712 54.2982C69.4023 53.0159 68.849 46.7537 68.7875 44.8917C68.726 43.0385 70.0083 39.8503 71.721 34.8792C73.3458 30.1892 71.5804 28.9157 70.5792 28.4062C70.0171 30.8391 61.5328 31.7086 61.6997 33.3422C61.8929 35.1603 64.1238 36.9081 64.1853 40.1665C64.2467 43.425 63.7373 48.238 63.1138 50.6357C62.578 52.7172 62.7185 57.785 63.1489 59.9807C70.1049 57.6708 69.7624 54.2894 69.7624 54.2894L69.7712 54.2982Z" fill="#F72B3A"/>
<path d="M67.1645 25.8703C67.1645 25.8703 66.7956 28.47 67.6651 30.1124C68.4468 31.6055 62.29 32.8351 62.1671 31.465C62.1583 31.3244 63.3791 29.1024 61.9475 26.4148C61.2009 25.0096 67.1645 25.8703 67.1645 25.8703Z" fill="#EFB185"/>
<path d="M67.6287 30.2317C66.9876 29.0109 67.0227 27.2631 67.0842 26.4375L62.561 28.5717C62.561 28.5717 62.561 28.5717 62.561 28.5893C62.7279 28.6332 65.7316 29.4588 66.3465 31.6457C67.2774 31.2856 67.9098 30.7762 67.6287 30.2317Z" fill="#DD9569"/>
<path d="M60.8397 18.8337C60.8397 18.8337 59.8384 21.1787 59.9878 23.2163C60.1458 25.412 59.8121 25.8512 59.9351 26.8261C59.9878 27.2477 60.0053 27.8713 60.4006 28.2753C61.068 28.9428 62.4557 29.2062 64.3528 28.5563C66.654 27.7659 69.1219 24.6743 68.1997 21.8286C67.2775 18.983 64.3177 16.6028 60.8397 18.8337Z" fill="#EFB185"/>
<path d="M68.0402 24.8975C67.1795 22.3417 64.9662 19.2413 64.9838 19.0832C65.0014 18.9866 64.2548 18.4948 63.4029 17.9766C62.5948 18.0029 61.7341 18.2752 60.8295 18.8548C60.8295 18.8548 60.566 19.4872 60.3289 20.3743C60.8646 20.9979 61.9537 21.7093 62.1118 22.2275C62.4807 23.4483 62.226 25.2927 61.8483 26.1007C61.4706 26.9087 62.911 28.1296 62.5949 28.841C62.5773 28.8761 62.5773 28.9024 62.5773 28.9376C63.1042 28.9112 63.6927 28.8058 64.3514 28.5775C65.8182 28.0681 67.3552 26.6189 68.0402 24.9062V24.8975Z" fill="#E6A376"/>
<path d="M60.1818 17.8616C60.1818 17.8616 59.8129 19.8816 61.7891 20.9004C62.9747 21.5152 62.8342 23.4387 62.7639 23.7988C62.7025 24.1589 62.316 25.7837 62.4566 25.9945C62.7288 26.4073 63.695 25.1689 64.1341 25.2655C65.2671 25.5115 64.8016 26.5566 63.7476 27.6457C62.6322 28.805 65.5042 29.3408 66.8656 28.3922C67.5858 27.8916 67.8492 27.5842 68.8154 25.7486C70.2294 23.0786 70.3611 19.8289 67.1993 18.0372C64.0375 16.2367 62.1492 18.6872 60.1818 17.8616Z" fill="#221101"/>
<path d="M66.8656 28.3922C67.5858 27.8916 67.8493 27.5842 68.8154 25.7486C70.2295 23.0786 70.3612 19.8289 67.1994 18.0372C64.0375 16.2367 62.1492 18.6872 60.1819 17.8616C60.1819 17.8616 60.1204 18.2041 60.1819 18.6784C61.1919 18.8628 63.9497 19.4601 64.6436 20.6633C65.4955 22.1476 66.4792 21.6909 66.3738 23.5178C66.2684 25.2743 66.6724 27.5842 63.7038 28.5152C64.7841 29.3232 66.3386 28.7611 66.8656 28.3922Z" fill="#341C09"/>
<path d="M59.154 34.7207C57.3184 34.2728 55.7638 39.8411 52.7688 43.9252L45.9621 39.3493C44.1002 40.2012 44.7852 40.614 44.7852 40.614C47.7626 45.5851 52.2946 47.5701 52.2946 47.5701C52.9094 47.895 53.7086 47.7896 53.7086 47.7896C57.1427 46.077 59.0574 42.5726 60.5944 38.2427C61.6922 35.1423 59.1452 34.7295 59.1452 34.7295L59.154 34.7207Z" fill="#EFB185"/>
<path d="M59.3545 33.5912C59.3545 33.5912 65.4586 35.0228 59.3545 43.9462C59.3545 43.9462 55.1739 44.5698 54.2253 40.6439C54.2253 40.6439 56.2717 33.2311 59.3545 33.5824V33.5912Z" fill="#E51C25"/>
<path d="M44.987 40.8786C44.987 40.8786 41.5441 39.5348 40.6746 36.8297C40.6746 36.8297 41.3069 36.4784 42.1501 37.427C42.9845 38.3755 44.0472 38.3316 44.1702 38.2525C44.2931 38.1735 43.8979 37.2864 43.6959 36.8912C43.5026 36.496 43.7662 35.7582 44.3458 36.6453C44.9255 37.5411 46.1551 38.92 46.4537 39.9301C46.4537 39.9301 45.997 41.3617 44.9957 40.8698L44.987 40.8786Z" fill="#EFB185"/>
<path d="M61.2523 47.931C60.8483 47.5095 59.7417 51.2246 58.7756 56.2133C57.8095 61.2107 57.3527 65.5846 57.7568 66.0062C58.1608 66.4278 59.2674 62.7126 60.2335 57.7239C61.1996 52.7353 61.6564 48.3526 61.2523 47.931Z" fill="#0B357C"/>
<path d="M74.5232 39.0739C74.5232 39.0212 74.5232 38.9773 74.5056 38.9334C74.5056 38.907 74.5056 38.8807 74.4968 38.8543C74.4968 38.8455 74.4968 38.828 74.4968 38.8192C74.4968 38.8016 74.4968 38.7928 74.488 38.7841C74.488 38.7753 74.488 38.7665 74.488 38.7577C74.488 38.7489 74.4881 38.7401 74.4793 38.7314C74.4793 38.7314 74.4793 38.7226 74.4793 38.7138C74.4793 38.7138 74.4793 38.705 74.4793 38.6962C74.4793 38.6962 74.4793 38.6874 74.4793 38.6787C74.4793 38.6787 74.4793 38.6699 74.4793 38.6611C74.4793 38.6611 74.4793 38.6611 74.4793 38.6523C74.4793 38.6523 74.4793 38.6523 74.4705 38.6435C74.4705 38.6435 74.4705 38.6435 74.4705 38.6347H74.4617C74.4617 38.6347 74.4529 38.626 74.4441 38.6172H74.4266C74.4266 38.6172 74.4178 38.6172 74.409 38.6172H74.4002H74.3827C74.3827 38.6172 74.3739 38.6172 74.3651 38.6172C74.3651 38.6172 74.3563 38.6172 74.3475 38.6172L74.33 38.626L61.182 47.927C61.2084 47.9095 61.2259 47.9007 61.2523 47.9007C61.2523 47.9007 61.2962 47.9095 61.3137 47.9358C61.3137 47.9358 61.3137 47.9358 61.3137 47.9446C61.3137 47.9446 61.3137 47.9446 61.3137 47.9534C61.3137 47.9534 61.3137 47.9534 61.3137 47.9622C61.3137 47.9622 61.3137 47.9709 61.3137 47.9797C61.3137 47.9797 61.3137 47.9885 61.3137 47.9973C61.3137 47.9973 61.3137 48.0061 61.3225 48.0149C61.3225 48.0236 61.3225 48.0324 61.3225 48.0412C61.3225 48.05 61.3313 48.0588 61.3313 48.0676C61.3313 48.0763 61.3313 48.0939 61.3313 48.1027C61.3313 48.1203 61.3313 48.129 61.3401 48.1378C61.3401 48.1642 61.3489 48.1905 61.3577 48.2169C61.3577 48.2608 61.3664 48.3047 61.3752 48.3574C61.507 49.6485 61.0503 53.4602 60.2335 57.7111C59.364 62.1992 58.3803 65.6596 57.8972 66.0022L70.9222 58.3962C71.4053 58.0537 72.5119 52.9069 73.3814 48.4189C74.207 44.168 74.6549 40.3562 74.5232 39.0651V39.0739Z" fill="#1A4789"/>
<path d="M49.0088 34.8935H50.5985L50.2735 34.8672L49.0088 34.8935Z" fill="#AAC6C3"/>
<path d="M49.0088 34.9056L50.2735 34.8793L50.1066 33.9922L49.0088 34.9056Z" fill="#384141"/>
<path d="M55.4551 33.0391L50.2732 34.8571L50.5982 34.8835L55.78 33.0654L55.4551 33.0391Z" fill="#232829"/>
<path d="M55.2007 32.5938L50.0276 34.4118L50.2735 34.8685L55.4554 33.0505L55.2007 32.5938Z" fill="#384141"/>
<path d="M55.2885 32.1641L50.1067 33.9821L50.0276 34.4125L55.2007 32.5944L55.2885 32.1641Z" fill="#4D5758"/>
<path d="M55.2 32.5944L55.4547 33.0511L55.7796 33.0775L55.8587 32.6471L55.6127 32.1904L55.2878 32.1641L55.2 32.5944Z" fill="#384141"/>
<path d="M55.4116 32.6385L55.5258 32.8405L55.6663 32.8493L55.7015 32.6649L55.5961 32.4629L55.4468 32.4453L55.4116 32.6385Z" fill="#232829"/>
<path d="M49.0088 34.9056L50.0276 34.4226L50.1066 33.9922L49.0088 34.9056Z" fill="#4D5758"/>
<path d="M49.2108 34.791L49.0088 34.8876L49.2284 34.7031L49.2108 34.791Z" fill="#5A5C5D"/>
<path d="M49.2108 34.7969L49.2635 34.8935H49.0088L49.2108 34.7969Z" fill="#6D6F70"/>
<path d="M20.1999 40.4274L19.7607 41.4198L19.9276 41.4462L23.0982 41.9117L23.836 42.0171L24.1698 42.0698L25.4433 39.189L23.9151 38.9606L24.7758 39.0924L23.5023 41.9644L20.6127 41.5428L21.8862 38.662L21.0343 38.5391L20.1999 40.4274Z" fill="#D1D1D1"/>
<path d="M21.8851 38.6641L20.6116 41.5448L23.5011 41.9664L24.7746 39.0944L23.9139 38.9627L21.8851 38.6641Z" fill="#EB452E"/>
<path d="M25.4434 39.1875L24.1699 42.0683L26.998 42.4811L27.0683 42.4899L28.3418 39.6091L25.4434 39.1875Z" fill="#F36648"/>
<path d="M19.9274 41.4453L19.8044 41.5331L22.1495 42.6047L23.098 41.9108L19.9274 41.4453Z" fill="#A4066C"/>
<path d="M29.0067 39.706L28.3392 39.6094L27.0657 42.4902L27.7332 42.5868L29.0067 39.706Z" fill="#D1D1D1"/>
<path d="M29.0262 39.7188L27.7439 42.5908L30.6335 43.0123L31.907 40.1403L29.0262 39.7188Z" fill="#F59678"/>
<path d="M18.8909 41.5155L20.0414 43.114L22.1493 42.6046L19.4705 41.375L18.8909 41.5155Z" fill="#419E3E"/>
<path d="M32.5743 40.2266L31.3096 43.1073L31.6346 43.1513L31.6609 43.1601L34.1991 43.5289L35.4727 40.6481L34.2958 40.4813L32.5743 40.2266Z" fill="#F5B8A0"/>
<path d="M32.575 40.245L31.9076 40.1484L30.634 43.0204L30.9063 43.0644L31.3103 43.1258L32.575 40.245Z" fill="#D1D1D1"/>
<path d="M20.1984 40.4219L19.7417 40.7556L19.1182 41.2123L19.4695 41.3704L22.1482 42.6L22.7718 42.8811L25.4418 44.1107L26.0654 44.3917L26.7329 44.6904L31.379 46.8246L34.5672 44.4883L31.6601 43.1621L33.9876 44.2249L30.7994 46.5523L28.4631 45.4808L31.6338 43.1533L31.3088 43.1094L30.9048 43.048L27.9186 45.2349L25.5736 44.1634L27.7342 42.5825L27.0667 42.4859L26.9964 42.4771L25.029 43.9175L22.6928 42.846L23.8346 42.0116L23.0968 41.9062L22.1482 42.6L19.8032 41.5285L19.9262 41.4407L19.7593 41.4143L20.1984 40.4219Z" fill="#D1D1D1"/>
<path d="M19.4701 41.3726L19.1188 41.2145L19.7423 40.7578L18.5566 41.0476L20.3044 43.4805L22.7724 42.8833L22.1488 42.6022L20.0409 43.1116L18.8904 41.5131L19.4701 41.3726Z" fill="#D1D1D1"/>
<path d="M34.2954 40.4922L35.4723 40.6591L34.1987 43.5398L34.9189 43.6452L36.1924 40.7645L34.2954 40.4922Z" fill="#D1D1D1"/>
<path d="M23.8356 42.0234L22.6938 42.8578L25.0301 43.9293L26.9975 42.4889L24.1694 42.0761L23.8356 42.0234Z" fill="#A93C7B"/>
<path d="M27.7433 42.5859L25.574 44.1669L27.919 45.2384L30.9052 43.0514L30.6329 43.0075L27.7433 42.5859Z" fill="#B15D8C"/>
<path d="M21.7197 45.4524L22.4663 46.4975L22.8615 47.0509L27.5955 45.9003L26.7347 44.6971L26.0672 44.3984L21.7197 45.4524Z" fill="#98BB8B"/>
<path d="M22.4662 46.5079L21.7196 45.4627L26.0671 44.4088L25.4436 44.1277L21.4474 45.0938L20.5339 43.8203L22.4662 46.5079Z" fill="#D1D1D1"/>
<path d="M31.6347 43.1641L28.4641 45.4915L30.8004 46.563L33.9885 44.2356L31.6611 43.1729L31.6347 43.1641Z" fill="#B982A4"/>
<path d="M23.1238 47.4162L24.2743 49.0147L29.0083 47.8641L28.1476 46.6609L27.8577 46.2656L23.1238 47.4162Z" fill="#B8CBB2"/>
<path d="M22.8599 47.0491L24.555 49.4117L29.2889 48.2612L28.1472 46.6627L29.0079 47.8659L24.2739 49.0165L23.1234 47.418L27.8573 46.2675L26.7331 44.6953L27.5938 45.8986L22.8599 47.0491Z" fill="#D1D1D1"/>
<path d="M20.3047 43.4801L20.5331 43.805L21.4465 45.0785L25.4427 44.1124L22.7727 42.8828L20.3047 43.4801Z" fill="#73AB67"/>
<g opacity="0.1">
<path d="M36.54 27.1126L42.2928 30.4501L55.9326 22.5806L50.171 19.2344L36.54 27.1126Z" fill="black"/>
</g>
<path d="M39.3486 25.8203V26.6371L43.336 28.9558V28.1302L39.3486 25.8203Z" fill="#A9B5C4"/>
<path d="M43.3362 28.1339V28.9594L52.7866 23.4965V22.6797L43.3362 28.1339Z" fill="#C3C5C5"/>
<path d="M39.3486 25.8223L43.336 28.1322L52.7864 22.6781L48.799 20.3594L39.3486 25.8223Z" fill="#E6E7EC"/>
<path opacity="0.5" d="M39.3486 25.8223L52.7864 22.6781L48.799 20.3594L39.3486 25.8223Z" fill="#939599"/>
<path d="M43.0308 26.6185L42.3281 26.2057L42.3018 18.8281L43.0132 19.2409L43.0308 26.6185Z" fill="#A9B5C4"/>
<path d="M43.0132 19.2442L42.3018 18.8314L48.722 15.125L49.4334 15.5378L43.0132 19.2442Z" fill="#C0C5D1"/>
<path d="M49.4332 15.5469L49.4508 22.9245L43.0305 26.6309L43.0129 19.2532L49.4332 15.5469Z" fill="#D5DFE6"/>
<path d="M36.5746 26.5795L35.8895 26.3863L32.9561 11.9297L33.6411 12.1141L36.5746 26.5795Z" fill="#C8D2DB"/>
<path d="M33.6411 12.0966L32.9561 11.9122L52.0237 0.898438L52.7087 1.09166L33.6411 12.0966Z" fill="#E1EAEF"/>
<path d="M52.7075 1.08594L55.641 15.5425L36.5734 26.5563L33.6399 12.0909L52.7075 1.08594Z" fill="#D5DFE6"/>
<path d="M52.1984 2.23438L54.7982 15.2594L37.1446 25.4738L34.4395 12.282L52.1984 2.23438Z" fill="#939599"/>
<path d="M49.9338 6.5L51.6288 14.9755L40.1321 21.6329L38.3667 13.0345L49.9338 6.5Z" fill="#6876A5"/>
<path d="M49.9413 9.32031L50.0115 9.69798L43.5737 13.5888L43.5034 13.2199L49.9413 9.32031Z" fill="#17CFBF"/>
<path d="M49.7852 8.30469L49.8555 8.69113L43.4177 12.5819L43.3474 12.2131L49.7852 8.30469Z" fill="#17CFBF"/>
<path d="M50.4261 11.5938L50.4964 11.9714L44.0585 15.8622L43.9883 15.4933L50.4261 11.5938Z" fill="#17CFBF"/>
<path d="M50.2662 10.5938L50.3453 10.9714L43.8986 14.8622L43.8284 14.4933L50.2662 10.5938Z" fill="#17CFBF"/>
<path d="M36.1526 12.1016L36.2932 12.8218L35.327 13.3839L35.1689 12.6637L36.1526 12.1016Z" fill="#17CFBF"/>
<path d="M36.5921 13.9609L36.7414 14.6811L35.7665 15.2432L35.6172 14.5142L36.5921 13.9609Z" fill="#17CFBF"/>
<path d="M36.9864 15.9609L37.1357 16.6811L36.1608 17.2432L36.0115 16.523L36.9864 15.9609Z" fill="#17CFBF"/>
<path d="M37.3118 17.7812L37.4523 18.5015L36.4774 19.0636L36.3281 18.3346L37.3118 17.7812Z" fill="#17CFBF"/>
<path d="M39.3672 13.4022L42.3797 11.8125L43.135 15.6857L40.1225 17.2754L39.3672 13.4022ZM40.1752 16.6958L42.8715 15.273C42.6871 14.7109 42.2743 14.3771 41.8 14.3683C41.8352 14.2278 41.8352 14.0697 41.8088 13.9292C41.721 13.4988 41.3697 13.288 41.0271 13.4725C40.6846 13.6569 40.4651 14.1575 40.5529 14.5879C40.5792 14.7284 40.6407 14.8514 40.7198 14.9392C40.3421 15.3959 40.1225 16.0546 40.1752 16.687V16.6958Z" fill="#17CFBF"/>
<path d="M41.0454 13.4901C41.388 13.3056 41.7393 13.5076 41.8271 13.9468C41.8534 14.0873 41.8447 14.2366 41.8183 14.3859C42.2926 14.3859 42.7054 14.7285 42.8898 15.2906L40.1935 16.7134C40.1496 16.081 40.3604 15.4223 40.738 14.9656C40.659 14.8778 40.5975 14.7636 40.5711 14.6143C40.4833 14.1751 40.6941 13.6745 41.0454 13.4989V13.4901Z" fill="#17CFBF"/>
<g opacity="0.1">
<path d="M16.4492 38.6439L22.202 41.9901L35.8418 34.1119L30.0802 30.7656L16.4492 38.6439Z" fill="black"/>
</g>
<path d="M19.262 37.3594V38.1762L23.2494 40.4949V39.6781L19.262 37.3594Z" fill="#A9B5C4"/>
<path d="M23.2495 39.6729V40.4897L32.6999 35.0356V34.2188L23.2495 39.6729Z" fill="#C3C5C5"/>
<path d="M19.262 37.3526L23.2494 39.6713L32.6998 34.2171L28.7123 31.8984L19.262 37.3526Z" fill="#E6E7EC"/>
<path opacity="0.5" d="M19.262 37.3526L32.6998 34.2171L28.7123 31.8984L19.262 37.3526Z" fill="#939599"/>
<path d="M22.9421 38.1254L22.2395 37.7126L22.2219 30.3438L22.9245 30.7478L22.9421 38.1254Z" fill="#A9B5C4"/>
<path d="M22.9245 30.751L22.2219 30.347L28.6334 26.6406L29.3448 27.0446L22.9245 30.751Z" fill="#C0C5D1"/>
<path d="M29.3451 27.0469L29.3626 34.4245L22.9424 38.1309L22.9248 30.7532L29.3451 27.0469Z" fill="#D5DFE6"/>
<path d="M16.4779 38.0873L15.7929 37.8941L12.8594 23.4375L13.5444 23.6307L16.4779 38.0873Z" fill="#C8D2DB"/>
<path d="M13.5444 23.6132L12.8594 23.42L31.9358 12.4062L32.6208 12.5995L13.5444 23.6132Z" fill="#E1EAEF"/>
<path d="M32.6196 12.5938L35.5531 27.0504L16.4767 38.0641L13.5432 23.6075L32.6196 12.5938Z" fill="#D5DFE6"/>
<path d="M32.1117 13.7422L34.7115 26.7672L17.0579 36.9817L14.3528 23.7898L32.1117 13.7422Z" fill="#939599"/>
<path d="M29.8373 18.0078L31.5412 26.4833L20.0444 33.1407L18.2791 24.551L29.8373 18.0078Z" fill="#6876A5"/>
<path d="M29.8546 20.8281L29.9249 21.2058L23.487 25.0966L23.4167 24.7365L29.8546 20.8281Z" fill="#17CFBF"/>
<path d="M29.6949 19.8203L29.7652 20.198L23.3273 24.0888L23.2571 23.7199L29.6949 19.8203Z" fill="#17CFBF"/>
<path d="M30.3385 23.1016L30.4087 23.4792L23.9709 27.37L23.9006 27.0012L30.3385 23.1016Z" fill="#17CFBF"/>
<path d="M30.1788 22.1016L30.2491 22.488L23.8112 26.37L23.741 26.0099L30.1788 22.1016Z" fill="#17CFBF"/>
<path d="M16.066 23.6172L16.2065 24.3286L15.2404 24.8995L15.0823 24.1705L16.066 23.6172Z" fill="#17CFBF"/>
<path d="M16.5045 25.4688L16.6537 26.1889L15.6789 26.751L15.5295 26.0221L16.5045 25.4688Z" fill="#17CFBF"/>
<path d="M16.8985 27.4688L17.0478 28.1889L16.0641 28.751L15.9148 28.0221L16.8985 27.4688Z" fill="#17CFBF"/>
<path d="M17.2254 29.2891L17.3659 30.0093L16.391 30.5714L16.2417 29.8512L17.2254 29.2891Z" fill="#17CFBF"/>
<path d="M19.2795 24.91L22.2921 23.3203L23.0474 27.1935L20.0349 28.7745L19.2795 24.9012V24.91ZM20.0963 28.2036L22.7927 26.7808C22.6082 26.2187 22.1955 25.8849 21.7212 25.8849C21.7563 25.7444 21.7651 25.5863 21.7387 25.4458C21.6509 25.0154 21.2996 24.8046 20.9571 24.9891C20.6058 25.1735 20.395 25.6741 20.4828 26.1045C20.5091 26.245 20.5706 26.368 20.6497 26.4558C20.272 26.9125 20.0524 27.5712 20.1051 28.2036H20.0963Z" fill="#17CFBF"/>
<path d="M20.9578 24.9967C21.3004 24.8122 21.6517 25.023 21.7395 25.4534C21.7659 25.6027 21.7571 25.752 21.7219 25.8925C22.1962 25.8925 22.609 26.2351 22.7935 26.7884L20.0971 28.2112C20.0444 27.5788 20.264 26.9201 20.6416 26.4634C20.5626 26.3756 20.5099 26.2614 20.4748 26.1121C20.3869 25.6817 20.6065 25.1811 20.9491 24.9967H20.9578Z" fill="#17CFBF"/>
<path d="M58.619 14.0009C59.5851 14.5542 59.5851 15.4589 58.6278 16.0122C57.6704 16.5655 56.1159 16.5655 55.1498 16.0122C54.1836 15.4589 54.1836 14.5542 55.141 14.0009C56.0983 13.4476 57.6529 13.4476 58.619 14.0009Z" fill="#F9739C"/>
<path d="M58.6187 14.0009C57.6525 13.4476 56.098 13.4476 55.1406 14.0009C54.1833 14.5542 54.1921 15.4589 55.1494 16.0122C56.1155 16.5655 57.6701 16.5655 58.6274 16.0122C59.5848 15.4589 59.576 14.5542 58.6187 14.0009ZM58.3113 15.8365C57.5296 16.2933 56.2473 16.2933 55.4568 15.8365C54.6664 15.3798 54.6664 14.6421 55.448 14.1854C56.2297 13.7287 57.512 13.7287 58.3025 14.1854C59.0929 14.6421 59.0929 15.3798 58.3025 15.8365H58.3113Z" fill="#EF567F"/>
<path d="M55.456 11.4141C55.456 11.4228 55.456 11.4316 55.456 11.4404C55.456 11.4404 55.4472 11.458 55.4384 11.4668C55.4384 11.4668 55.4296 11.4755 55.4208 11.4843C55.4208 11.4843 55.412 11.4931 55.4033 11.5019C55.3769 11.5195 55.3506 11.5282 55.3242 11.5458C55.3242 11.5458 55.3242 11.5458 55.3154 11.5458C55.2891 11.5546 55.2539 11.5634 55.2276 11.5722C55.1925 11.5722 55.1573 11.5722 55.131 11.5722C55.0959 11.5722 55.0695 11.5634 55.0432 11.5546C54.9905 11.5282 54.9553 11.4931 54.9553 11.458L55.9039 18.6336C55.9039 18.6336 55.939 18.7126 56.0005 18.7302C56.0093 18.7302 56.0268 18.739 56.0444 18.7478C56.0532 18.7478 56.0707 18.7478 56.0795 18.7478C56.0795 18.7478 56.0883 18.7478 56.0971 18.7478C56.1059 18.7478 56.1146 18.7478 56.1234 18.7478C56.1322 18.7478 56.141 18.7478 56.1498 18.7478C56.1498 18.7478 56.1673 18.7478 56.1761 18.7478C56.1761 18.7478 56.1761 18.7478 56.1849 18.7478C56.1849 18.7478 56.1937 18.7478 56.2025 18.7478C56.2113 18.7478 56.2201 18.7478 56.2288 18.7478C56.2376 18.7478 56.2552 18.7478 56.264 18.7478C56.264 18.7478 56.2728 18.7478 56.2815 18.7478C56.2815 18.7478 56.2815 18.7478 56.2903 18.7478C56.2903 18.7478 56.3079 18.7478 56.3167 18.739C56.3342 18.7302 56.3518 18.7214 56.3694 18.7038C56.3694 18.7038 56.3694 18.7039 56.3781 18.6951C56.3781 18.6951 56.3869 18.6863 56.3957 18.6775C56.3957 18.6775 56.4045 18.6599 56.4133 18.6599C56.4133 18.6599 56.4133 18.6511 56.4133 18.6424C56.4133 18.6424 56.4133 18.6336 56.4133 18.6248V18.6072L55.4647 11.4316C55.4647 11.4404 55.4647 11.4492 55.4647 11.458L55.456 11.4141Z" fill="#5B7F2A"/>
<path d="M55.3596 11.2871C55.4738 11.331 55.4826 11.4276 55.3947 11.5067C55.2981 11.5769 55.1313 11.6033 55.0171 11.5594C54.9029 11.5154 54.8941 11.4188 54.9907 11.3398C55.0873 11.2695 55.2542 11.2432 55.3596 11.2871Z" fill="#4B6E21"/>
<path d="M59.5499 11.8133C59.5499 11.8133 59.5411 11.8221 59.5323 11.8309C59.5323 11.8309 59.5147 11.8397 59.5059 11.8484C59.5059 11.8484 59.4884 11.8484 59.4796 11.8484C59.4796 11.8484 59.4708 11.8484 59.462 11.8484C59.4357 11.8484 59.4093 11.8484 59.3742 11.8484H59.3654C59.3303 11.8484 59.3039 11.8485 59.2688 11.8309C59.2425 11.8221 59.2073 11.8045 59.181 11.787C59.1546 11.7694 59.1283 11.7518 59.1107 11.7255C59.0668 11.6816 59.058 11.6377 59.0668 11.5938L56.8535 18.4795C56.8535 18.4795 56.8535 18.5673 56.8974 18.6113C56.9062 18.62 56.915 18.6288 56.9326 18.6376C56.9326 18.6376 56.9501 18.6552 56.9589 18.6552C56.9589 18.6552 56.9677 18.6552 56.9765 18.6552C56.9765 18.6552 56.994 18.6552 57.0028 18.664C57.0028 18.664 57.0204 18.664 57.0292 18.6727C57.0292 18.6727 57.0467 18.6727 57.0555 18.6815C57.0555 18.6815 57.0555 18.6815 57.0643 18.6815C57.0643 18.6815 57.0731 18.6815 57.0819 18.6815C57.0907 18.6815 57.0994 18.6815 57.1082 18.6815C57.117 18.6815 57.1346 18.6815 57.1433 18.6815C57.1433 18.6815 57.1521 18.6815 57.1609 18.6815C57.1609 18.6815 57.1609 18.6815 57.1785 18.6815C57.1785 18.6815 57.196 18.6815 57.2048 18.6815C57.2312 18.6815 57.2487 18.6815 57.2663 18.6815C57.2663 18.6815 57.2751 18.6815 57.2839 18.6815C57.2839 18.6815 57.3014 18.6815 57.3102 18.6815C57.3102 18.6815 57.3278 18.6815 57.3278 18.6727C57.3278 18.6727 57.3278 18.6727 57.3366 18.664C57.3366 18.664 57.3366 18.6552 57.3366 18.6464L59.5499 11.7606C59.5499 11.7606 59.5499 11.7782 59.5411 11.787L59.5499 11.8133Z" fill="#5B7F2A"/>
<path d="M59.5224 11.66C59.6015 11.7479 59.5751 11.8445 59.461 11.8708C59.3468 11.8972 59.1799 11.8445 59.1009 11.7566C59.0218 11.6688 59.0482 11.5722 59.1623 11.5459C59.2765 11.5195 59.4434 11.5722 59.5224 11.66Z" fill="#4B6E21"/>
<path d="M57.5211 10.8398C57.5211 10.8398 57.5211 10.8574 57.5124 10.8662C57.5124 10.8662 57.4948 10.8837 57.4948 10.8925C57.4948 10.8925 57.486 10.9013 57.4772 10.9101C57.4772 10.9101 57.4684 10.9101 57.4597 10.9189C57.4333 10.9364 57.407 10.9452 57.3806 10.954C57.3806 10.954 57.3806 10.954 57.3718 10.954C57.3455 10.954 57.3103 10.9628 57.284 10.9628C57.284 10.9628 57.2137 10.9628 57.1874 10.954C57.1523 10.954 57.1259 10.9364 57.0996 10.9189C57.0469 10.8837 57.0205 10.8486 57.0205 10.8047L57.0029 18.0418C57.0029 18.0418 57.0293 18.1208 57.082 18.1559C57.0908 18.1559 57.1083 18.1735 57.1171 18.1735C57.1259 18.1735 57.1347 18.1735 57.1523 18.1823C57.1523 18.1823 57.161 18.1823 57.1698 18.1823C57.1698 18.1823 57.1874 18.1823 57.1962 18.1823C57.1962 18.1823 57.2137 18.1823 57.2225 18.1823C57.2225 18.1823 57.2401 18.1823 57.2488 18.1823H57.2752C57.2752 18.1823 57.2928 18.1823 57.3016 18.1823C57.3104 18.1823 57.3279 18.1823 57.3367 18.1823C57.3367 18.1823 57.3367 18.1823 57.3543 18.1823C57.3543 18.1823 57.3543 18.1823 57.3718 18.1823C57.3718 18.1823 57.3894 18.1823 57.3982 18.1823C57.4157 18.1823 57.4421 18.1647 57.4597 18.1559C57.4597 18.1559 57.4596 18.156 57.4684 18.1472C57.4684 18.1472 57.486 18.1384 57.486 18.1296C57.486 18.1296 57.4948 18.1208 57.5036 18.112C57.5036 18.112 57.5036 18.1033 57.5036 18.0945C57.5036 18.0945 57.5036 18.0945 57.5036 18.0857C57.5036 18.0857 57.5036 18.0769 57.5036 18.0681L57.5211 10.831C57.5211 10.831 57.5211 10.8486 57.5211 10.8574V10.8398Z" fill="#2F6680"/>
<path d="M57.4413 10.7024C57.5467 10.7638 57.5467 10.8605 57.4413 10.9219C57.3359 10.9834 57.1691 10.9834 57.0637 10.9219C56.9583 10.8605 56.9583 10.7638 57.0637 10.7024C57.1691 10.6409 57.3359 10.6409 57.4413 10.7024Z" fill="#4EAAD5"/>
<path d="M58.4608 10.8681C58.4608 10.8681 58.4608 10.8857 58.4432 10.8945C58.4432 10.8945 58.4257 10.912 58.4169 10.912C58.4169 10.912 58.3993 10.9208 58.3905 10.9296C58.3905 10.9296 58.3817 10.9296 58.373 10.9384C58.3466 10.9472 58.3203 10.9559 58.2852 10.9647C58.2852 10.9647 58.2851 10.9647 58.2764 10.9647C58.2412 10.9647 58.2149 10.9647 58.1798 10.9647C58.1446 10.9647 58.1183 10.9559 58.0831 10.9471C58.048 10.9384 58.0217 10.9208 58.0041 10.9032C57.9514 10.8681 57.9338 10.8242 57.9338 10.7891L57.24 17.991C57.24 17.991 57.2575 18.0701 57.3102 18.1052C57.319 18.1052 57.3366 18.1228 57.3454 18.1228C57.3542 18.1228 57.363 18.1315 57.3805 18.1403C57.3805 18.1403 57.3893 18.1403 57.3981 18.1403C57.4069 18.1403 57.4156 18.1403 57.4244 18.1403C57.4332 18.1403 57.442 18.1403 57.4508 18.1403C57.4596 18.1403 57.4683 18.1403 57.4771 18.1403C57.4771 18.1403 57.4771 18.1403 57.4859 18.1403C57.4859 18.1403 57.4859 18.1403 57.5035 18.1403C57.5122 18.1403 57.521 18.1403 57.5298 18.1403C57.5386 18.1403 57.5562 18.1403 57.565 18.1403C57.565 18.1403 57.5649 18.1403 57.5825 18.1403C57.5825 18.1403 57.5825 18.1403 57.5913 18.1403C57.5913 18.1403 57.6089 18.1403 57.6176 18.1403C57.6352 18.1403 57.6616 18.1315 57.6791 18.1228C57.6791 18.1228 57.6791 18.1228 57.6879 18.1228C57.6879 18.1228 57.7055 18.1228 57.7055 18.114C57.7055 18.114 57.7143 18.1052 57.723 18.0964C57.723 18.0964 57.723 18.0876 57.723 18.0788C57.723 18.0788 57.723 18.0788 57.723 18.0701C57.723 18.0701 57.723 18.0613 57.723 18.0525L58.4169 10.8505C58.4169 10.8505 58.4169 10.8681 58.4169 10.8769L58.4608 10.8681Z" fill="#770F13"/>
<path d="M58.3991 10.7298C58.4957 10.8001 58.4869 10.8967 58.3815 10.9494C58.2761 11.0021 58.1004 10.9845 58.0038 10.9143C57.9072 10.844 57.916 10.7474 58.0214 10.6947C58.1268 10.642 58.3024 10.6596 58.3991 10.7298Z" fill="#C51820"/>
<path d="M56.2123 11.9551C56.2123 11.9551 56.2123 11.9726 56.2035 11.9726C56.2035 11.9726 56.1947 11.9902 56.186 11.9902C56.186 11.9902 56.1772 11.9902 56.1684 12.0078C56.1684 12.0078 56.1684 12.0078 56.1596 12.0165C56.1421 12.0253 56.1157 12.0429 56.0894 12.0429C56.0894 12.0429 56.0894 12.0429 56.0806 12.0429C56.0542 12.0429 56.0279 12.0517 56.0015 12.0517C56.0015 12.0517 55.94 12.0517 55.9137 12.0517C55.8873 12.0517 55.861 12.0341 55.8347 12.0253C55.7907 11.999 55.7644 11.9726 55.7644 11.9375L56.0103 18.1206C56.0103 18.1206 56.0367 18.1909 56.0806 18.2085C56.0894 18.2085 56.0981 18.2173 56.1157 18.226C56.1245 18.226 56.1333 18.226 56.1421 18.226C56.1421 18.226 56.1421 18.226 56.1596 18.226C56.1596 18.226 56.1772 18.226 56.186 18.226C56.186 18.226 56.2035 18.226 56.2123 18.226C56.2211 18.226 56.2299 18.226 56.2387 18.226C56.2387 18.226 56.2387 18.226 56.2475 18.226C56.2475 18.226 56.265 18.226 56.2738 18.226C56.2826 18.226 56.2914 18.226 56.3001 18.226C56.3001 18.226 56.3089 18.226 56.3177 18.226C56.3177 18.226 56.3177 18.226 56.3265 18.226C56.3265 18.226 56.3353 18.226 56.3441 18.226C56.3616 18.226 56.3792 18.2085 56.3967 18.1997C56.3967 18.1997 56.3968 18.1997 56.4055 18.1997C56.4055 18.1997 56.4143 18.1909 56.4231 18.1821C56.4231 18.1821 56.4231 18.1733 56.4319 18.1646V18.1558C56.4319 18.1558 56.4319 18.1558 56.4319 18.147C56.4319 18.147 56.4319 18.1382 56.4319 18.1294L56.1772 11.9463C56.1772 11.9463 56.1772 11.9639 56.1772 11.9726L56.2123 11.9551Z" fill="#770F13"/>
<path d="M56.1429 11.8406C56.2308 11.8845 56.2396 11.9724 56.1429 12.0251C56.0551 12.0778 55.9146 12.0865 55.818 12.0426C55.7302 11.9987 55.7214 11.9109 55.818 11.8582C55.9058 11.8055 56.0463 11.7967 56.1429 11.8406Z" fill="#C51820"/>
<path d="M57.1942 11.8642C57.1942 11.8642 57.1854 11.8817 57.1766 11.8905C57.1766 11.8905 57.1591 11.9081 57.1503 11.9081C57.1503 11.9081 57.1327 11.9081 57.1327 11.9169C57.1327 11.9169 57.1239 11.9169 57.1151 11.9257C57.0888 11.9344 57.0624 11.9432 57.0273 11.9432C57.0273 11.9432 57.0273 11.9432 57.0098 11.9432C56.9834 11.9432 56.9483 11.9432 56.9219 11.9432C56.8868 11.9432 56.8605 11.9257 56.8253 11.9169C56.799 11.9081 56.7638 11.8905 56.7463 11.873C56.6936 11.8378 56.676 11.7939 56.6848 11.75L55.6133 18.908C55.6133 18.908 55.6309 18.9871 55.6748 19.031C55.6836 19.0398 55.7011 19.0486 55.7099 19.0574C55.7187 19.0574 55.7274 19.0661 55.7362 19.0749C55.7362 19.0749 55.745 19.0749 55.7538 19.0749C55.7538 19.0749 55.7538 19.0749 55.7626 19.0749C55.7626 19.0749 55.7802 19.0749 55.7889 19.0749C55.7889 19.0749 55.8065 19.0749 55.8153 19.0749C55.8241 19.0749 55.8329 19.0749 55.8416 19.0749C55.8416 19.0749 55.8416 19.0749 55.8504 19.0749C55.8504 19.0749 55.8592 19.0749 55.868 19.0749C55.8768 19.0749 55.8856 19.0749 55.8943 19.0749C55.9031 19.0749 55.9207 19.0749 55.9295 19.0749C55.9295 19.0749 55.9383 19.0749 55.947 19.0749C55.947 19.0749 55.947 19.0749 55.9646 19.0749C55.9646 19.0749 55.9822 19.0749 55.9909 19.0749C56.0173 19.0749 56.0349 19.0661 56.0524 19.0574C56.0524 19.0574 56.0524 19.0574 56.07 19.0574C56.07 19.0574 56.0876 19.0573 56.0876 19.0486C56.0876 19.0486 56.1051 19.0398 56.1051 19.031C56.1051 19.031 56.1051 19.0222 56.1139 19.0134C56.1139 19.0134 56.1139 19.0134 56.1139 19.0047C56.1139 19.0047 56.1139 18.9959 56.1139 18.9871L57.1854 11.829C57.1854 11.8378 57.1854 11.8466 57.1766 11.8554L57.1942 11.8642Z" fill="#ED8001"/>
<path d="M57.142 11.7148C57.2386 11.7938 57.2211 11.8904 57.1069 11.9344C56.9927 11.9783 56.8259 11.9519 56.7292 11.8817C56.6326 11.8026 56.6502 11.706 56.7556 11.6621C56.8698 11.6182 57.0367 11.6445 57.1333 11.7148H57.142Z" fill="#FCA922"/>
<path d="M55.1493 16.0166C56.1154 16.5699 57.67 16.5699 58.6273 16.0166C59.286 15.6301 59.488 15.0856 59.2333 14.5938H58.759C59.0313 15.0065 58.882 15.4984 58.3023 15.8321C57.5207 16.2888 56.2384 16.2888 55.4479 15.8321C54.8682 15.4984 54.7101 15.0065 54.9824 14.5938H54.5169C54.271 15.0768 54.473 15.6301 55.1405 16.0166H55.1493Z" fill="#EF567F"/>
<path d="M59.3388 15.1054C59.3388 15.1054 59.3388 15.1581 59.3388 15.1844C59.3388 15.202 59.33 15.2284 59.3212 15.2459C59.3212 15.2723 59.3125 15.2986 59.3037 15.3162C59.3037 15.3337 59.2861 15.3513 59.2773 15.3777C59.2686 15.404 59.251 15.4304 59.2422 15.4567C59.2334 15.4743 59.2246 15.4918 59.2071 15.5094C59.1895 15.5358 59.1719 15.5621 59.1456 15.5972C59.128 15.6236 59.1017 15.6499 59.0841 15.6763C59.0841 15.6763 59.0753 15.6851 59.0665 15.6938C59.0314 15.729 58.9963 15.7641 58.9611 15.7992C58.9348 15.8168 58.9085 15.8432 58.8821 15.8607C58.8558 15.8783 58.8382 15.8958 58.8118 15.9134C58.7855 15.931 58.7504 15.9486 58.724 15.9749C58.6889 15.9925 58.6625 16.0188 58.6274 16.0364C58.5571 16.0803 58.4781 16.1154 58.3903 16.1506C58.3639 16.1593 58.3463 16.1681 58.32 16.1769C58.2585 16.2033 58.1882 16.2296 58.1268 16.2472C58.1004 16.2472 58.0829 16.2647 58.0565 16.2735C58.0126 16.2911 57.9687 16.2999 57.9335 16.3086C57.8984 16.3174 57.8721 16.3262 57.8369 16.335C57.793 16.3438 57.7491 16.3526 57.7052 16.3613C57.6701 16.3613 57.6437 16.3789 57.6086 16.3789C57.5207 16.3965 57.4242 16.4053 57.3275 16.414C57.3012 16.414 57.2661 16.414 57.2397 16.414C57.187 16.414 57.1255 16.4228 57.0728 16.4228C57.0377 16.4228 57.0026 16.4228 56.9674 16.4228C56.9235 16.4228 56.8796 16.4228 56.8357 16.4228C56.8005 16.4228 56.7567 16.4228 56.7215 16.4228C56.6776 16.4228 56.6425 16.4228 56.5986 16.4228C56.5634 16.4228 56.5283 16.4228 56.4844 16.414C56.4405 16.414 56.4053 16.414 56.3614 16.3965C56.3263 16.3965 56.2912 16.3877 56.256 16.3789C56.2121 16.3789 56.1682 16.3613 56.1243 16.3526C56.0891 16.3526 56.054 16.335 56.0189 16.335C55.9662 16.3262 55.9135 16.3086 55.8696 16.2999C55.8432 16.2999 55.8169 16.2823 55.7818 16.2735C55.6939 16.2472 55.6061 16.2208 55.5182 16.1857C55.4743 16.1681 55.4304 16.1506 55.3865 16.133C55.3689 16.1242 55.3426 16.1154 55.3251 16.1066C55.2636 16.0803 55.2021 16.0452 55.1406 16.01C54.6575 15.729 54.4116 15.3601 54.4116 15L54.394 19.8218C54.394 20.1907 54.6312 20.5596 55.123 20.8318C55.1845 20.867 55.2372 20.8933 55.2987 20.9284C55.325 20.9372 55.3426 20.946 55.369 20.9548C55.4041 20.9724 55.4392 20.9899 55.4743 20.9987C55.4743 20.9987 55.4744 20.9987 55.4831 20.9987C55.571 21.0338 55.6588 21.0602 55.7466 21.0865H55.7642C55.7818 21.0865 55.8081 21.0953 55.8257 21.1041C55.8784 21.1217 55.9311 21.1304 55.9838 21.1392C55.9926 21.1392 56.0101 21.1392 56.0189 21.148C56.0364 21.148 56.054 21.148 56.0804 21.1568C56.1243 21.1568 56.1682 21.1744 56.2121 21.1831C56.2297 21.1831 56.2472 21.1831 56.2648 21.1919C56.2824 21.1919 56.2999 21.1919 56.3175 21.1919C56.3614 21.1919 56.3966 21.2007 56.4405 21.2095C56.458 21.2095 56.4756 21.2095 56.502 21.2095C56.5195 21.2095 56.5371 21.2095 56.5546 21.2095C56.5986 21.2095 56.6425 21.2095 56.6776 21.2095C56.7039 21.2095 56.7215 21.2095 56.7391 21.2095H56.7918C56.8357 21.2095 56.8796 21.2095 56.9323 21.2095C56.9499 21.2095 56.9762 21.2095 56.9938 21.2095C57.0114 21.2095 57.0201 21.2095 57.0377 21.2095C57.0904 21.2095 57.1519 21.2095 57.2046 21.2007C57.2309 21.2007 57.2485 21.2007 57.2748 21.2007C57.2748 21.2007 57.2836 21.2007 57.2924 21.2007C57.389 21.1919 57.4769 21.1743 57.5735 21.1656C57.5735 21.1656 57.5734 21.1656 57.5822 21.1656C57.6086 21.1656 57.6349 21.1568 57.6613 21.148C57.7052 21.1392 57.7579 21.1304 57.8018 21.1217C57.8369 21.1217 57.8633 21.1041 57.8984 21.0953C57.9423 21.0865 57.9862 21.069 58.0302 21.0602C58.0302 21.0602 58.0477 21.0602 58.0565 21.0602C58.0741 21.0602 58.0828 21.0514 58.1004 21.0426C58.1707 21.0163 58.2322 20.9987 58.2936 20.9723C58.32 20.9636 58.3376 20.9548 58.3639 20.946C58.443 20.9109 58.522 20.867 58.5923 20.8318C58.601 20.8318 58.6098 20.823 58.6274 20.8143C58.6537 20.8055 58.6713 20.7879 58.6889 20.7703C58.7152 20.7528 58.7504 20.7352 58.7767 20.7089C58.8031 20.6913 58.8206 20.6737 58.847 20.6562C58.8733 20.6386 58.8997 20.6123 58.9172 20.5947C58.9172 20.5947 58.926 20.5859 58.9348 20.5771C58.9699 20.5508 58.9963 20.5156 59.0226 20.4893C59.0226 20.4893 59.0314 20.4717 59.0402 20.4717C59.0578 20.4542 59.0753 20.4366 59.0841 20.419C59.0841 20.419 59.0929 20.4015 59.1017 20.3927C59.1192 20.3663 59.1456 20.34 59.1544 20.3048C59.1544 20.2961 59.1719 20.2785 59.1807 20.2697C59.1807 20.2697 59.1807 20.2609 59.1807 20.2522C59.1983 20.2258 59.2071 20.1995 59.2159 20.1731C59.2159 20.1555 59.2334 20.1468 59.2334 20.1292C59.2334 20.1292 59.2334 20.1204 59.2334 20.1116C59.2334 20.0853 59.251 20.0677 59.251 20.0414C59.251 20.0238 59.2598 20.0062 59.2686 19.9887C59.2686 19.9887 59.2686 19.9799 59.2686 19.9711C59.2686 19.9447 59.2686 19.9184 59.2686 19.9008C59.2686 19.8833 59.2686 19.8657 59.2686 19.8481V19.8306V15.0088C59.2686 15.0088 59.2686 15.0615 59.2686 15.079L59.3388 15.1054Z" fill="#E8486A"/>
</svg>
