<svg width="82" height="78" viewBox="0 0 82 78" fill="none" xmlns="http://www.w3.org/2000/svg">
<path d="M71.5792 42.0889C70.9089 42.16 71.0917 43.9067 72.0362 45.9277C72.9806 47.9487 73.1533 48.9846 74.4431 49.076C75.7329 49.1674 76.1594 46.0394 74.9204 44.638C73.6814 43.2365 72.8791 41.9467 71.5792 42.0889Z" fill="#2C1D1B"/>
<path d="M58.0217 39.0082C57.4733 39.2418 56.7015 40.755 57.2397 41.9229C57.7881 43.0908 62.5004 42.6541 63.2316 41.8416C63.9628 41.0292 63.8105 39.8917 63.8105 39.8917C63.8105 39.8917 62.7949 38.8152 61.4035 38.47C60.0021 38.1247 58.0217 39.0184 58.0217 39.0184V39.0082Z" fill="#2C1D1B"/>
<path d="M57.22 35.9453C57.22 35.9453 55.3615 37.4179 55.5646 37.7226C55.7677 38.0272 58.4082 41.0435 59.6269 42.1301C60.8455 43.2168 64.3289 46.426 64.7149 47.6751C65.0906 48.9141 65.1922 50.4984 64.6742 51.7272C64.1563 52.9561 66.5124 52.1639 67.3452 49.5742C68.1779 46.9845 68.4217 45.7151 67.4569 44.994C66.5023 44.273 65.5679 43.4504 64.7047 42.709C63.8415 41.9676 64.3696 38.5452 61.8205 37.357C59.2816 36.1688 57.2098 35.9453 57.2098 35.9453H57.22Z" fill="#FFB19C"/>
<path d="M65.0084 42.6328C65.0084 42.6328 63.7796 43.4351 63.2312 44.1155C62.6828 44.796 62.764 44.9991 62.764 44.9991C62.764 44.9991 63.7593 46.1873 64.0944 46.6544C64.4295 47.1216 64.7139 48.4114 64.6834 49.4676C64.6631 50.5136 64.267 51.255 64.1959 51.9963C64.1147 52.7377 64.8256 53.2049 65.8716 52.5752C66.9177 51.9557 67.8926 51.0113 68.0449 49.9449C68.1973 48.8786 68.9082 47.0201 69.091 45.9639C69.2738 44.9178 68.5121 45.1108 67.263 44.2882C66.024 43.4757 65.0084 42.6328 65.0084 42.6328Z" fill="#E1E7FF"/>
<path d="M65.0492 31.5156C65.0492 31.5156 56.6606 32.9374 56.031 34.3186C55.4115 35.7099 55.4622 37.02 55.7161 38.5738C55.8989 39.7011 57.2395 41.915 57.2395 41.915C57.2395 41.915 57.1075 40.7979 57.9402 39.9753C58.773 39.1425 59.9002 38.8277 60.3877 38.848C62.7641 38.9293 63.8102 39.8839 63.8102 39.8839L63.7289 38.9293C63.7289 38.9293 66.9584 39.4777 69.8122 39.4574C72.148 39.4472 74.0674 35.3646 74.0674 35.3646L65.0492 31.5156Z" fill="#2C1D1B"/>
<path d="M77.266 43.2193C77.266 43.2193 71.6498 42.3662 70.0351 42.1631C65.9119 41.6451 64.155 42.0818 62.1035 41.6451C60.0521 41.2084 56.5789 41.2389 54.9539 41.2795C54.1212 41.2998 54.2126 41.8888 53.7353 43.2903C53.4306 44.2043 59.0873 44.0012 59.7271 43.9911C60.3669 43.9809 66.5517 46.0628 70.0351 47.3425C73.5185 48.6221 75.4786 48.683 77.2355 47.7588C78.9924 46.8347 77.266 43.2091 77.266 43.2091V43.2193Z" fill="#FFC8B5"/>
<path d="M63.3943 41.6565C63.3943 41.6565 62.1756 41.687 61.2007 41.1183C60.1546 40.5191 59.2406 40.9253 58.7938 40.8948C57.1181 40.7831 55.7064 40.1941 54.2745 40.7527C53.1878 41.169 52.9644 43.1494 53.3909 43.7283C53.8479 44.3579 58.1133 44.5712 59.9617 44.5001C61.7897 44.429 62.7545 44.9774 62.7545 44.9774L63.3841 41.6565H63.3943Z" fill="#E1E7FF"/>
<path d="M64.6833 41.8801C64.6833 41.8801 64.267 40.8747 63.7998 40.5903C63.3326 40.3059 63.1295 40.9254 62.8147 40.9254C62.4999 40.9254 61.8804 40.509 61.728 40.5903C61.5757 40.6715 60.7429 42.5605 60.8445 43.7284C60.9461 44.8963 61.5148 46.115 61.9819 46.115C62.4491 46.115 62.9061 45.9626 63.2209 46.115C63.5357 46.2673 64.0029 46.0134 64.1553 46.115C64.3076 46.2165 64.6732 45.5158 64.6732 45.5158L63.8404 45.0791C63.8404 45.0791 63.1905 44.5104 63.485 43.3425C63.7896 42.1746 63.9521 41.8699 63.9521 41.8699L64.663 41.8902L64.6833 41.8801Z" fill="white"/>
<path d="M68.4806 33.4297C68.4806 33.4297 68.0236 37.3802 68.2369 39.3911C68.2369 39.3911 69.8415 39.9192 70.5524 39.9801C71.964 41.3003 72.614 42.1737 72.614 42.1737L71.5781 42.0722C71.5781 42.0722 72.5835 42.387 73.5991 44.6213C75.2341 48.2367 74.442 49.0593 74.442 49.0593C74.442 49.0593 75.6607 49.2319 77.4278 49.0593C79.4589 48.8562 80.0073 48.2773 80.4745 47.1094C81.5205 44.4994 80.8706 42.5597 80.2815 40.366C79.6925 38.1724 77.1333 33.8359 77.1333 33.8359L68.4806 33.4399V33.4297Z" fill="#3F2A28"/>
<path d="M61.4737 16.307C61.4737 16.307 59.7777 19.3842 59.0262 21.2934C58.62 22.3192 58.0919 25.2542 57.8684 26.7369C57.5942 27.0213 57.2693 27.4478 57.0661 27.9657C56.6701 28.9711 56.0404 30.2 55.4717 30.8195C54.903 31.439 57.9903 32.0991 57.7263 31.4695C58.4473 30.921 60.1433 29.7836 60.3769 28.8188C60.3769 28.8188 60.387 28.8391 60.3972 28.8493C60.5698 28.4532 60.8136 27.9454 61.3214 27.3158C62.7635 25.5284 65.6172 19.8412 65.6172 19.8412L61.4839 16.2969L61.4737 16.307Z" fill="#FFC8B5"/>
<path d="M60.5499 19.6328C60.5499 19.6328 59.5953 21.6639 60.1335 23.3092C60.6718 24.9544 62.4287 25.8684 62.4287 25.8684L61.992 20.4148L60.5601 19.6328H60.5499Z" fill="#3F2A28"/>
<path d="M62.7625 31.8241C63.9202 33.5506 70.8057 38.3644 74.0657 37.6738C77.1734 37.0137 78.1788 35.8966 78.3209 35.1755C78.585 33.8045 77.9046 32.0069 77.021 30.3617C75.7719 28.0361 74.9188 26.7463 74.7563 26.5838C74.4313 26.2588 74.2892 25.7104 74.2485 25.1011C73.954 24.8167 74.2892 22.7044 73.3244 21.3536C71.9838 19.4749 70.1863 19.2514 69.384 18.7944C68.3075 18.1749 67.8403 17.5148 66.8044 17.4437C65.9209 17.3828 63.2296 17.2 62.2547 18.8858C60.9751 21.0998 60.8329 22.5622 62.2547 26.2995C62.8945 27.9853 63.0164 29.5899 63.8288 30.8187C63.3413 31.1742 63.3109 31.3265 62.7726 31.8241H62.7625Z" fill="#FDC142"/>
<path d="M70.7673 19.3773C70.7064 19.3469 69.6502 20.271 69.4065 22.0787C69.1729 23.8864 69.4268 25.3997 70.7673 26.6996C72.0977 28.0097 73.2453 28.0097 73.9562 27.5831C74.6671 27.1566 74.7484 26.5879 74.7484 26.5879C74.7484 26.5879 74.6163 23.4396 73.9562 22.2209C73.2961 21.0124 72.1485 19.9461 70.7673 19.3672V19.3773Z" fill="#3F2A28"/>
<path d="M62.6423 21.0756C62.6423 21.0756 61.9821 23.4723 62.9368 25.4425C63.8914 27.4127 65.5671 27.7682 66.5827 26.3058C67.5982 24.8433 69.4161 21.2076 69.3958 20.0093C69.3755 18.8109 66.6436 17.9375 66.6436 17.9375L62.6321 21.0756H62.6423Z" fill="#3F2A28"/>
<path d="M65.9223 17.8148C65.4957 18.5156 65.6785 19.1655 64.9981 19.653C64.5208 19.9983 63.2716 20.8311 63.3123 20.892C63.7185 22.8013 62.8654 23.9184 63.4443 25.1066C64.1552 26.569 65.4145 26.9245 66.4605 24.7004C67.273 22.9536 67.1511 23.1364 68.2682 21.1967C69.2838 19.4397 67.0394 18.9523 65.9223 17.8047V17.8148Z" fill="#FFB19C"/>
<path d="M65.0888 13.281C63.799 12.7529 62.0827 12.3974 60.8132 13.1896C59.8281 13.8091 59.0461 15.7285 59.8891 19.0291C60.1836 20.1767 60.8031 21.6493 62.103 21.9133C63.474 22.1875 65.4848 20.847 66.2262 19.8416C68.0136 17.4347 68.1253 14.5302 65.0888 13.2709V13.281Z" fill="#FFC8B5"/>
<path d="M57.8995 14.6055C59.6565 14.443 62.175 16.9109 65.2522 16.3117C66.2779 17.0937 66.4201 18.0077 66.5725 19.3482C67.1107 18.942 67.2833 18.4748 68.045 17.7639C68.2684 17.5507 68.7255 15.4891 67.0803 13.0619C65.6788 11.0003 64.3179 11.2135 62.7438 11.569C60.0322 9.12145 57.2089 13.2142 57.9097 14.5954L57.8995 14.6055Z" fill="#3F2A28"/>
<path d="M65.0686 17.4083C65.0686 17.4083 65.8912 16.2709 66.4904 17.0224C67.0896 17.7638 66.1045 18.9723 66.1045 18.9723L65.0686 17.4083Z" fill="#FFC8B5"/>
<path d="M56.2136 30.8844C56.2136 30.9656 56.3253 31.0468 56.4675 31.1281C56.5183 31.0773 56.5589 31.0164 56.6097 30.9656C56.6808 30.8742 56.7316 30.7828 56.7417 30.7015C56.8128 30.4781 56.7823 30.2141 56.7417 30.0312C56.5081 30.3156 56.1933 30.6305 56.2238 30.8742L56.2136 30.8844Z" fill="#3A2625"/>
<path d="M61.0986 32.4272L60.7939 32.4881L59.8596 32.742C59.8596 32.742 59.7783 32.7623 59.7377 32.7725C59.2604 32.9045 58.712 33.0873 58.2855 33.067C57.991 33.0568 57.6863 32.8029 57.4222 32.5998C57.3511 32.5389 56.9957 32.3459 56.9043 32.2952C56.5488 32.1428 56.1122 31.9702 56.0918 31.7874C56.0715 31.5944 56.2746 31.3405 56.4676 31.1171C56.3254 31.0359 56.2239 30.9546 56.2137 30.8734C56.1832 30.6296 56.4981 30.3046 56.7317 30.0304C56.7012 29.8883 56.6707 29.7969 56.6707 29.7969L56.3762 29.8781L55.4419 30.132L55.3911 30.3656C54.6802 30.6703 54.0201 31.0968 53.5225 31.4726L53.4717 31.2796L52.517 31.0359C52.4459 31.1679 52.4053 31.3405 52.385 31.5335C52.3342 31.9296 52.385 32.3967 52.5069 32.6506C52.5069 32.6709 52.5272 32.7014 52.5475 32.7217C52.5475 32.7319 52.5678 32.742 52.578 32.7522C52.6389 32.8233 52.7405 32.8944 52.8623 32.9654C53.2381 33.1787 53.6138 33.2904 53.949 33.4428C54.1419 33.5342 54.731 33.8084 54.995 34.0115C55.2184 34.1943 55.8786 34.702 56.2442 34.9153C56.6504 35.1489 57.0058 35.2911 57.6457 35.0067C58.062 34.8239 58.4073 34.57 58.7222 34.4177C59.4635 34.0724 60.1541 33.8997 60.8447 33.392C61.0072 33.2802 61.0783 33.1584 61.0783 33.067C61.1189 32.9553 61.1392 32.8436 61.1392 32.742C61.1392 32.5491 61.0986 32.4069 61.0986 32.4069V32.4272Z" fill="#3A2625"/>
<path d="M60.8039 32.1749C60.8039 32.2765 60.743 32.3882 60.5602 32.4999C59.9509 32.8756 58.6509 33.1092 57.94 33.3834C57.0565 33.7287 56.7112 33.4545 56.2643 33.2006C55.919 32.9975 55.6753 32.6725 55.4621 32.4999C55.2183 32.3069 54.6801 32.0023 54.3856 31.8804C54.0707 31.7484 53.4512 31.5757 53.1059 31.3726C52.6591 31.1187 52.588 30.9156 53.177 30.4078C53.1872 30.3977 53.2075 30.3875 53.2278 30.3672C53.1161 30.4383 53.0145 30.5094 52.9333 30.5805C52.3036 31.1289 52.3747 31.3421 52.852 31.6163C53.2278 31.8296 53.8879 32.0124 54.2231 32.1546C54.5277 32.2866 55.1167 32.6116 55.3706 32.8147C55.5941 32.9975 55.8581 33.353 56.2339 33.5662C56.7112 33.8405 57.0768 34.1248 58.0213 33.7592C58.783 33.4647 60.1743 33.2209 60.8344 32.8147C61.2203 32.571 61.1391 32.3171 60.7938 32.1648L60.8039 32.1749Z" fill="#4F2D2D"/>
<path d="M53.1159 31.3749C53.4612 31.578 54.0806 31.7506 54.3955 31.8827C54.6798 32.0045 55.2282 32.3092 55.472 32.5021C55.6751 32.6646 55.929 32.9998 56.2743 33.2029C56.7211 33.4568 57.0562 33.7208 57.9499 33.3857C58.6608 33.1115 59.9608 32.8779 60.5701 32.5021C60.7428 32.3904 60.8138 32.2787 60.8138 32.1772C60.56 32.0655 60.174 32.0045 59.7373 32.035C59.2397 32.0756 58.6812 31.8522 58.2851 31.71C57.8687 31.5678 56.9953 30.9889 56.9039 30.9483C56.7008 30.8569 56.4774 30.7147 56.4165 30.5421C56.3758 30.4101 56.4469 30.339 56.5485 30.2171C56.9039 29.821 56.5688 29.3437 55.4923 29.5773C54.5478 29.7804 53.7658 30.0343 53.2377 30.3694C53.2174 30.3796 53.2072 30.3898 53.1869 30.4101C52.5979 30.9178 52.669 31.121 53.1159 31.3749Z" fill="#4F2D2D"/>
<path opacity="0.5" d="M53.1159 31.3749C53.4612 31.578 54.0806 31.7506 54.3955 31.8827C54.6798 32.0045 55.2282 32.3092 55.472 32.5021C55.6751 32.6646 55.929 32.9998 56.2743 33.2029C56.7211 33.4568 57.0562 33.7208 57.9499 33.3857C58.6608 33.1115 59.9608 32.8779 60.5701 32.5021C60.7428 32.3904 60.8138 32.2787 60.8138 32.1772C60.56 32.0655 60.174 32.0045 59.7373 32.035C59.2397 32.0756 58.6812 31.8522 58.2851 31.71C57.8687 31.5678 56.9953 30.9889 56.9039 30.9483C56.7008 30.8569 56.4774 30.7147 56.4165 30.5421C56.3758 30.4101 56.4469 30.339 56.5485 30.2171C56.9039 29.821 56.5688 29.3437 55.4923 29.5773C54.5478 29.7804 53.7658 30.0343 53.2377 30.3694C53.2174 30.3796 53.2072 30.3898 53.1869 30.4101C52.5979 30.9178 52.669 31.121 53.1159 31.3749Z" fill="#6B4545"/>
<path d="M55.0239 30.7656V30.857C55.0239 31.0601 55.3388 31.2328 55.7348 31.2328C56.1309 31.2328 56.4457 31.0601 56.4457 30.857V30.7656H55.0341H55.0239Z" fill="#3A2625"/>
<path d="M55.7348 30.3828C55.3489 30.3828 55.0239 30.5555 55.0239 30.7586C55.0239 30.9617 55.3388 31.1343 55.7348 31.1343C56.1309 31.1343 56.4457 30.9617 56.4457 30.7586C56.4457 30.5555 56.1309 30.3828 55.7348 30.3828Z" fill="#593535"/>
<path d="M56.1914 30.6187C56.1914 30.4867 55.9883 30.375 55.7242 30.375C55.4602 30.375 55.2571 30.4867 55.2571 30.6187C55.2571 30.6492 55.2672 30.6898 55.2977 30.7203C55.2977 30.5984 55.4907 30.4969 55.7242 30.4969C55.9578 30.4969 56.1508 30.5984 56.1508 30.7203C56.1711 30.6898 56.1914 30.6593 56.1914 30.6187Z" fill="#3A2625"/>
<path d="M55.7339 30.4766C55.5003 30.4766 55.3074 30.5781 55.3074 30.7C55.3785 30.7914 55.541 30.8523 55.7339 30.8523C55.9269 30.8523 56.0894 30.7914 56.1605 30.7C56.1605 30.5781 55.9675 30.4766 55.7339 30.4766Z" fill="#4F2D2D"/>
<path d="M55.9378 30.6359C55.9378 30.6359 55.9073 30.4633 55.9073 30.4125C55.9073 30.3414 55.9073 30.2703 55.9073 30.2703L55.5315 30.25C55.5315 30.25 55.5315 30.3312 55.5315 30.4125C55.5315 30.4937 55.5112 30.6664 55.5112 30.6664C55.5112 30.7273 55.6026 30.7781 55.7245 30.7781C55.8464 30.7781 55.9378 30.7273 55.9378 30.6664V30.6461V30.6359Z" fill="#442525"/>
<path d="M56.1009 30.0984C56.0298 30.0273 55.8876 29.9766 55.7251 29.9766C55.5626 29.9766 55.4306 30.0273 55.3493 30.0984H55.2986V30.2101C55.2986 30.332 55.4915 30.4335 55.7251 30.4335C55.9587 30.4335 56.1517 30.332 56.1517 30.2101V30.0984H56.1009Z" fill="#593535"/>
<path d="M55.7337 29.875C55.5001 29.875 55.3071 29.9766 55.3071 30.0984C55.3071 30.2203 55.5001 30.3219 55.7337 30.3219C55.9673 30.3219 56.1602 30.2203 56.1602 30.0984C56.1602 29.9766 55.9673 29.875 55.7337 29.875Z" fill="#6B4545"/>
<path d="M56.9141 31.8281V31.9196C56.9141 32.1227 57.2289 32.2953 57.6249 32.2953C58.021 32.2953 58.3359 32.1227 58.3359 31.9196V31.8281H56.9242H56.9141Z" fill="#3A2625"/>
<path d="M57.6249 31.4453C57.239 31.4453 56.9141 31.618 56.9141 31.8211C56.9141 32.0242 57.2289 32.1969 57.6249 32.1969C57.9601 32.1969 58.2445 32.075 58.3156 31.9023C58.3257 31.8719 58.3359 31.8515 58.3359 31.8211C58.3359 31.618 58.021 31.4453 57.6249 31.4453Z" fill="#593535"/>
<path d="M57.6238 31.4961C57.9387 31.4961 58.1926 31.6281 58.2231 31.7906C58.2231 31.7906 58.2231 31.7703 58.2231 31.7601C58.2231 31.5875 57.959 31.4453 57.6238 31.4453C57.2887 31.4453 57.0247 31.5875 57.0247 31.7601C57.0247 31.7601 57.0247 31.7804 57.0247 31.7906C57.0551 31.6281 57.309 31.4961 57.6238 31.4961Z" fill="#3A2625"/>
<path d="M57.6238 32.0734C57.9387 32.0734 58.1926 31.9414 58.2231 31.7789C58.1926 31.6164 57.9387 31.4844 57.6238 31.4844C57.309 31.4844 57.0551 31.6164 57.0247 31.7789C57.0551 31.9414 57.309 32.0734 57.6238 32.0734Z" fill="#4F2D2D"/>
<path d="M56.9141 32.9531V33.0445C56.9141 33.2476 57.2289 33.4203 57.6249 33.4203C58.021 33.4203 58.3359 33.2476 58.3359 33.0445V32.9531H56.9242H56.9141Z" fill="#3A2625"/>
<path d="M57.6249 32.5703C57.239 32.5703 56.9141 32.743 56.9141 32.9461C56.9141 33.1492 57.2289 33.3218 57.6249 33.3218C58.021 33.3218 58.3359 33.1492 58.3359 32.9461C58.3359 32.743 58.021 32.5703 57.6249 32.5703Z" fill="#593535"/>
<path d="M58.0828 32.7984C58.0828 32.6664 57.8797 32.5547 57.6156 32.5547C57.3516 32.5547 57.1484 32.6664 57.1484 32.7984C57.1484 32.8289 57.1586 32.8695 57.1891 32.9C57.1891 32.7781 57.382 32.6766 57.6156 32.6766C57.8492 32.6766 58.0421 32.7781 58.0421 32.9C58.0625 32.8695 58.0828 32.839 58.0828 32.7984Z" fill="#3A2625"/>
<path d="M57.6253 32.6562C57.3917 32.6562 57.1987 32.7578 57.1987 32.8796C57.2698 32.971 57.4323 33.032 57.6253 33.032C57.8182 33.032 57.9807 32.971 58.0518 32.8796C58.0518 32.7578 57.8588 32.6562 57.6253 32.6562Z" fill="#4F2D2D"/>
<path d="M57.8279 32.8234C57.8279 32.8234 57.7975 32.6508 57.7975 32.6C57.7975 32.5289 57.7975 32.4578 57.7975 32.4578L57.4217 32.4375C57.4217 32.4375 57.4217 32.5187 57.4217 32.6C57.4217 32.6812 57.4014 32.8539 57.4014 32.8539C57.4014 32.9148 57.4928 32.9656 57.6147 32.9656C57.7365 32.9656 57.8279 32.9148 57.8279 32.8539V32.8336V32.8234Z" fill="#442525"/>
<path d="M57.991 32.2859C57.9199 32.2148 57.7778 32.1641 57.6153 32.1641C57.4528 32.1641 57.3208 32.2148 57.2395 32.2859H57.1887V32.3976C57.1887 32.5195 57.3817 32.621 57.6153 32.621C57.8489 32.621 58.0418 32.5195 58.0418 32.3976V32.2859H57.991Z" fill="#593535"/>
<path d="M57.6238 32.0625C57.3902 32.0625 57.1973 32.1641 57.1973 32.2859C57.1973 32.4078 57.3902 32.5094 57.6238 32.5094C57.8574 32.5094 58.0503 32.4078 58.0503 32.2859C58.0503 32.1641 57.8574 32.0625 57.6238 32.0625Z" fill="#6B4545"/>
<path d="M54.0402 30.925C53.9894 30.8742 53.8879 30.8438 53.766 30.8438C53.6441 30.8438 53.5426 30.8742 53.4918 30.925H53.4512V31.0062C53.4512 31.0976 53.5933 31.1687 53.766 31.1687C53.9386 31.1687 54.0808 31.0976 54.0808 31.0062V30.925H54.0402Z" fill="#DB1943"/>
<path d="M53.766 30.7422C53.5933 30.7422 53.4512 30.8133 53.4512 30.9047C53.4512 30.9961 53.5933 31.0671 53.766 31.0671C53.9386 31.0671 54.0808 30.9961 54.0808 30.9047C54.0808 30.8133 53.9386 30.7422 53.766 30.7422Z" fill="#F13454"/>
<path d="M54.8312 30.9485C54.7804 30.8977 54.6789 30.8672 54.557 30.8672C54.4351 30.8672 54.3336 30.8977 54.2828 30.9485H54.2422V31.0297C54.2422 31.1211 54.3844 31.1922 54.557 31.1922C54.7297 31.1922 54.8718 31.1211 54.8718 31.0297V30.9485H54.8312Z" fill="#38C1BD"/>
<path d="M54.557 30.7812C54.3844 30.7812 54.2422 30.8523 54.2422 30.9437C54.2422 31.0351 54.3844 31.1062 54.557 31.1062C54.7297 31.1062 54.8718 31.0351 54.8718 30.9437C54.8718 30.8523 54.7297 30.7812 54.557 30.7812Z" fill="#50D6D6"/>
<path d="M53.9872 30.4562C53.9364 30.4055 53.8349 30.375 53.713 30.375C53.5911 30.375 53.4896 30.4055 53.4388 30.4562H53.3982V30.5375C53.3982 30.6289 53.5404 30.7 53.713 30.7C53.8857 30.7 54.0278 30.6289 54.0278 30.5375V30.4562H53.9872Z" fill="#FEA947"/>
<path d="M53.713 30.2891C53.5404 30.2891 53.3982 30.3602 53.3982 30.4516C53.3982 30.543 53.5404 30.6141 53.713 30.6141C53.8857 30.6141 54.0278 30.543 54.0278 30.4516C54.0278 30.3602 53.8857 30.2891 53.713 30.2891Z" fill="#FDC142"/>
<path d="M54.7995 30.4719C54.7487 30.4211 54.6471 30.3906 54.5253 30.3906C54.4034 30.3906 54.3019 30.4211 54.2511 30.4719H54.2104V30.5531C54.2104 30.6445 54.3526 30.7156 54.5253 30.7156C54.6979 30.7156 54.8401 30.6445 54.8401 30.5531V30.4719H54.7995Z" fill="#442EAF"/>
<path d="M54.5253 30.3047C54.3526 30.3047 54.2104 30.3758 54.2104 30.4672C54.2104 30.5586 54.3526 30.6296 54.5253 30.6296C54.6979 30.6296 54.8401 30.5586 54.8401 30.4672C54.8401 30.3758 54.6979 30.3047 54.5253 30.3047Z" fill="#4742A5"/>
<path d="M55.8893 31.5344C55.8385 31.4836 55.737 31.4531 55.6151 31.4531C55.4932 31.4531 55.3917 31.4836 55.3409 31.5344H55.3003V31.6156C55.3003 31.707 55.4425 31.7781 55.6151 31.7781C55.7878 31.7781 55.9299 31.707 55.9299 31.6156V31.5344H55.8893Z" fill="#3A2625"/>
<path d="M55.6259 31.3672C55.4532 31.3672 55.311 31.4383 55.311 31.5297C55.311 31.6211 55.4532 31.6922 55.6259 31.6922C55.7985 31.6922 55.9407 31.6211 55.9407 31.5297C55.9407 31.4383 55.7985 31.3672 55.6259 31.3672Z" fill="#6B4545"/>
<path d="M56.7133 32.0344C56.6625 31.9836 56.561 31.9531 56.4391 31.9531C56.3172 31.9531 56.2258 31.9836 56.1649 32.0344H56.1243V32.1156C56.1243 32.207 56.2664 32.2781 56.4391 32.2781C56.6117 32.2781 56.7539 32.207 56.7539 32.1156V32.0344H56.7133Z" fill="#3A2625"/>
<path d="M56.4391 31.8516C56.2664 31.8516 56.1243 31.9227 56.1243 32.0141C56.1243 32.1055 56.2664 32.1766 56.4391 32.1766C56.6117 32.1766 56.7539 32.1055 56.7539 32.0141C56.7539 31.9227 56.6117 31.8516 56.4391 31.8516Z" fill="#6B4545"/>
<path d="M56.7829 31.3703C56.7321 31.3195 56.6305 31.2891 56.5087 31.2891C56.3868 31.2891 56.2852 31.3195 56.2344 31.3703H56.1938V31.4516C56.1938 31.543 56.336 31.614 56.5087 31.614C56.6813 31.614 56.8235 31.543 56.8235 31.4516V31.3703H56.7829Z" fill="#3A2625"/>
<path d="M56.5087 31.1875C56.336 31.1875 56.1938 31.2586 56.1938 31.35C56.1938 31.4414 56.336 31.5125 56.5087 31.5125C56.6813 31.5125 56.8235 31.4414 56.8235 31.35C56.8235 31.2586 56.6813 31.1875 56.5087 31.1875Z" fill="#6B4545"/>
<path d="M57.0959 31.6953V31.7664C57.0959 31.9187 57.3295 32.0406 57.6139 32.0406C57.8983 32.0406 58.1318 31.9187 58.1318 31.7664V31.6953H57.0959Z" fill="#3A2625"/>
<path d="M57.9101 31.6484C57.9101 31.5977 57.9609 31.5469 58.032 31.5164C58.0015 31.4961 57.9609 31.4758 57.9203 31.4555C57.8695 31.5063 57.768 31.5469 57.6461 31.5469C57.5141 31.5469 57.4024 31.5062 57.3617 31.4453C57.3008 31.4656 57.25 31.4859 57.2094 31.5164C57.2805 31.5469 57.3313 31.5977 57.3313 31.6484C57.3313 31.7195 57.2601 31.7703 57.1484 31.8008C57.1891 31.8515 57.2602 31.8922 57.3414 31.9226C57.3719 31.8515 57.4938 31.7906 57.6461 31.7906C57.7883 31.7906 57.9 31.8414 57.9406 31.9023C58.0015 31.8719 58.0625 31.8414 58.0929 31.8008C57.9812 31.7703 57.9101 31.7195 57.9101 31.6484Z" fill="#593535"/>
<path d="M57.3317 31.6398C57.3317 31.5891 57.281 31.5383 57.2099 31.5078C57.1388 31.5586 57.0981 31.6094 57.0981 31.6805C57.0981 31.7211 57.1184 31.7617 57.1489 31.7922C57.2606 31.7617 57.3317 31.7109 57.3317 31.6398Z" fill="#6B4545"/>
<path d="M58.0335 31.5078C57.9624 31.5383 57.9116 31.5891 57.9116 31.6398C57.9116 31.7109 57.9827 31.7617 58.0944 31.7922C58.1249 31.7617 58.1452 31.7211 58.1452 31.6805C58.1452 31.6195 58.1046 31.5586 58.0335 31.5078Z" fill="#6B4545"/>
<path d="M57.6465 31.7891C57.4942 31.7891 57.3723 31.8398 57.3418 31.9211C57.423 31.9516 57.5144 31.9617 57.6262 31.9617C57.748 31.9617 57.8598 31.9414 57.941 31.9008C57.9004 31.8297 57.7887 31.7891 57.6465 31.7891Z" fill="#6B4545"/>
<path d="M57.6476 31.5484C57.7695 31.5484 57.8711 31.5078 57.9218 31.457C57.8406 31.4265 57.739 31.4062 57.6273 31.4062C57.5359 31.4062 57.4445 31.4164 57.3633 31.4469C57.4141 31.5078 57.5258 31.5484 57.6476 31.5484Z" fill="#6B4545"/>
<path d="M55.6971 34.2238C55.6971 34.2238 55.7581 34.1629 55.7885 34.173C55.8901 34.1832 56.0932 34.3457 56.276 34.4879C56.3776 34.5691 56.6924 34.7418 56.9361 34.7621C57.1799 34.7824 57.4338 34.7824 57.4947 34.8332C57.5557 34.8839 57.1291 35.1784 57.0682 35.1683C57.0377 35.1683 56.4385 34.9855 56.0831 34.7418C55.7682 34.5285 55.687 34.2238 55.687 34.2238H55.6971Z" fill="#4F2D2D"/>
<path d="M55.7687 34.2109C55.7687 34.2109 55.6774 34.211 55.657 34.2922C55.6469 34.3227 55.6367 34.3734 55.6367 34.4242C55.6367 34.607 55.85 34.8 56.1445 34.9929C56.5203 35.2468 57.0483 35.3382 57.3733 35.2164C57.5054 35.1656 57.5358 35.1148 57.5358 34.9421C57.5358 34.8203 57.4851 34.8 57.3937 34.8101C57.2109 34.8304 56.9671 34.8914 56.5812 34.7492C56.1953 34.607 55.9515 34.282 55.7586 34.2109H55.7687Z" fill="#563434"/>
<path d="M55.6971 33.4738C55.6971 33.4738 55.7581 33.4129 55.7885 33.423C55.8901 33.4332 56.0932 33.5957 56.276 33.7378C56.3776 33.8191 56.6924 33.9917 56.9361 34.012C57.1799 34.0323 57.4338 34.0324 57.4947 34.0831C57.5557 34.1339 57.1291 34.4284 57.0682 34.4183C57.0377 34.4183 56.4385 34.2355 56.0831 33.9917C55.7682 33.7785 55.687 33.4738 55.687 33.4738H55.6971Z" fill="#4F2D2D"/>
<path d="M55.7687 33.4609C55.7687 33.4609 55.6774 33.461 55.657 33.5422C55.6469 33.5727 55.6367 33.6235 55.6367 33.6742C55.6367 33.857 55.85 34.05 56.1445 34.2429C56.5203 34.4968 57.0483 34.5882 57.3733 34.4664C57.5054 34.4156 57.5358 34.3648 57.5358 34.1921C57.5358 34.0703 57.4851 34.05 57.3937 34.0601C57.2109 34.0804 56.9671 34.1414 56.5812 33.9992C56.1953 33.857 55.9515 33.532 55.7586 33.4609H55.7687Z" fill="#563434"/>
<path d="M52.4474 31.8672C52.4474 31.8672 52.3763 32.0094 52.488 32.1312C52.6098 32.2531 52.8231 32.3547 52.8841 32.4765C52.945 32.5984 52.7927 32.7406 52.7927 32.7406L52.3864 32.4765C52.3864 32.4765 52.2239 32.2125 52.2747 32.1008C52.3255 31.9789 52.4474 31.8672 52.4474 31.8672Z" fill="#4F2D2D"/>
<path d="M52.3962 32.0477C52.3962 32.0477 52.4063 32.2 52.5485 32.2914C52.6907 32.3828 52.8532 32.464 52.843 32.6164C52.843 32.7586 52.711 32.8296 52.5891 32.7789C52.3251 32.6773 52.2438 32.5351 52.254 32.2508C52.2642 31.9664 52.447 31.875 52.447 31.875L52.3962 32.0477Z" fill="#563434"/>
<path d="M52.4646 31.1875C52.4646 31.1875 52.3935 31.3297 52.5052 31.4516C52.6271 31.5734 52.8403 31.675 52.9013 31.7968C52.9622 31.9187 52.8099 32.0609 52.8099 32.0609L52.3935 31.7968C52.3935 31.7968 52.231 31.5328 52.2818 31.4211C52.3326 31.2992 52.4544 31.1875 52.4544 31.1875H52.4646Z" fill="#4F2D2D"/>
<path d="M52.414 31.3679C52.414 31.3679 52.4242 31.5203 52.5664 31.6117C52.7085 31.7031 52.871 31.7843 52.8609 31.9367C52.8609 32.0788 52.7288 32.1499 52.607 32.0992C52.3429 31.9976 52.2617 31.8554 52.2718 31.5711C52.282 31.2867 52.4648 31.1953 52.4648 31.1953L52.414 31.3679Z" fill="#563434"/>
<path d="M54.8734 33.0815L54.3656 32.787C54.3047 32.7464 54.2539 32.655 54.2539 32.5738C54.2539 32.4925 54.3047 32.4519 54.3656 32.4925L54.8734 32.787C54.9343 32.8276 54.9851 32.919 54.9851 33.0003C54.9851 33.0815 54.9343 33.1222 54.8734 33.0815Z" fill="#FDC142"/>
<path d="M54.8734 33.6596L54.3656 33.3651C54.3047 33.3245 54.2539 33.2331 54.2539 33.1519C54.2539 33.0706 54.3047 33.03 54.3656 33.0706L54.8734 33.3651C54.9343 33.4058 54.9851 33.4972 54.9851 33.5784C54.9851 33.6597 54.9343 33.7003 54.8734 33.6596Z" fill="#FDC142"/>
<path d="M71.6508 19.8281C70.6048 20.9656 70.0157 22.9764 70.1173 24.7333C70.1782 25.8606 70.4118 27.0793 70.8586 28.0745C70.1477 30.4002 69.3353 31.7915 69.8025 34.1375C66.3902 33.2031 64.9481 33.8836 62.5615 33.1219C62.1756 33 61.1905 32.1368 60.7639 32.0556C59.9616 31.9032 59.4945 31.5782 59.3624 31.9845C59.2812 32.2485 59.9616 32.5125 60.4897 33.0813C60.8452 33.4672 60.0937 33.9039 59.5148 33.782C58.9156 33.6601 57.4329 32.9696 57.3008 33.1828C57.2196 33.325 57.3008 33.4672 57.4227 33.6601C57.2094 33.7008 57.0368 33.6805 57.0876 33.914C57.1079 34.0257 57.1383 34.1679 57.2602 34.3304C57.2196 34.4828 57.1282 34.6656 57.1485 34.7671C57.2399 35.2749 58.0828 36.0874 59.5859 36.1788C60.3679 36.2295 61.7998 35.539 62.5919 35.478C63.8106 35.935 67.2839 37.3873 69.8025 37.763C70.8485 37.9154 71.6102 38.1693 72.575 36.9303C72.9101 36.5037 73.5194 34.8179 73.7835 33.9547C74.1796 32.6243 74.6061 30.3799 74.6061 28.9479C75.6521 23.9717 73.8444 20.2445 71.6406 19.8484L71.6508 19.8281Z" fill="#FFC8B5"/>
<path d="M4.54112 53.6328V57.6951C4.54112 58.1927 3.7896 58.5888 2.85528 58.5888C1.92096 58.5888 1.16943 58.1826 1.16943 57.6951V53.6328H4.54112Z" fill="#2C1D1B"/>
<path d="M34.2052 70.875V74.9373C34.2052 75.4349 33.4536 75.831 32.5193 75.831C31.585 75.831 30.8335 75.4247 30.8335 74.9373V70.875H34.2052Z" fill="#2C1D1B"/>
<path d="M47.9044 62.8984V66.9607C47.9044 67.4583 47.1529 67.8544 46.2186 67.8544C45.2842 67.8544 44.5327 67.4482 44.5327 66.9607V62.8984H47.9044Z" fill="#2C1D1B"/>
<path d="M0 44.6346L32.5185 63.4023L49.4175 53.6427L16.9092 34.875L0 44.6346Z" fill="white"/>
<path d="M0 44.6328V55.0322L32.5184 73.7999V63.4005L0 44.6328Z" fill="#E1E7FF"/>
<path d="M49.4171 53.6328V64.0322L32.5181 73.7918V63.3924L49.4171 53.6328Z" fill="#D2DCF9"/>
<path d="M15.7639 45.892L27.1586 52.4729L33.5668 48.766L22.1722 42.1953L15.7639 45.892Z" fill="#4C3634"/>
<path d="M27.1586 52.4793V53.3121L15.7639 46.7312V45.8984L27.1586 52.4793Z" fill="#3F2A28"/>
<path d="M33.5667 48.7812V49.6242L27.1584 53.3208V52.4881L33.5667 48.7812Z" fill="#332221"/>
<path d="M20.2747 36.8281V45.3183L28.5109 50.0813V41.581L20.2747 36.8281Z" fill="#422D2C"/>
<path d="M28.5105 50.0886L29.4753 49.4792V41.1719L28.5105 41.5883V50.0886Z" fill="#332221"/>
<path d="M47.6543 53.3173L8.53467 30.7311V0.101562L47.6543 22.6878V53.3173Z" fill="#262626"/>
<path d="M46.222 54.3251L7.10229 31.7389V1.10938L46.222 23.6956V54.3251Z" fill="#3A2625"/>
<path d="M8.53425 0.101562L7.10229 1.10696L46.222 23.6932L47.6539 22.6878L8.53425 0.101562Z" fill="#4C3634"/>
<path d="M47.6539 53.3248L46.2219 54.3302V23.7007L47.6539 22.6953V53.3248Z" fill="#2C1D1B"/>
<path d="M54.6096 29.3276C54.3455 29.2769 54.1831 29.5003 54.0815 29.6831C54.0815 29.6831 53.1066 29.7135 52.8324 29.8862C52.5785 30.0487 52.1722 30.1706 52.0402 30.9526C51.9183 31.7142 52.0402 32.029 52.4972 32.3439C52.7003 32.4861 52.8832 32.2931 52.7004 32.0189C53.0355 32.1915 53.2386 31.8564 53.1269 31.6533C53.2284 31.6228 53.462 31.6025 53.4417 31.44C53.4214 31.2674 53.198 31.0338 53.1777 30.9729C53.1371 30.851 52.9847 30.6073 53.3401 30.3432C53.6042 30.1502 54.0206 29.9674 54.3151 29.8557C54.4979 29.9471 54.7619 30.1604 55.0564 29.9877C55.2189 29.8963 55.1479 29.7135 54.9549 29.6018C54.7213 29.4596 54.7213 29.3479 54.5995 29.3276H54.6096Z" fill="#FFC8B5"/>
<path d="M69.7502 63.4812L69.6487 63.3086C69.6487 63.3086 74.4016 60.7087 76.3108 58.8807C76.8085 58.4034 76.9811 57.8956 76.8084 57.3675C76.3514 55.8949 73.4571 54.4833 69.7807 53.9248C66.5004 53.4271 64.0427 54.1076 61.8796 54.7169C60.7828 55.0216 59.7367 55.3161 58.772 55.377C56.3854 55.5395 54.4761 55.0012 53.3996 53.8841C52.6278 53.0818 52.313 52.0358 52.445 50.7562C52.6786 48.5219 54.141 46.5314 55.4308 44.7745C56.2432 43.6574 57.015 42.6113 57.34 41.6669C58.4571 38.3967 58.3353 37.2796 58.386 35.8984L58.5892 35.9695C58.5892 35.9695 58.6704 38.4272 57.533 41.7278C57.1978 42.6926 56.426 43.7589 55.6034 44.8862C54.3339 46.6228 52.8918 48.593 52.6583 50.7765C52.5262 51.985 52.8309 52.9904 53.552 53.742C54.5878 54.8185 56.4362 55.3262 58.7618 55.1739C59.7063 55.1129 60.6914 54.8388 61.8288 54.5239C64.0224 53.9146 66.5004 53.224 69.8213 53.7216C73.5688 54.2903 76.5241 55.7629 77.0116 57.3066C77.2045 57.9058 77.0115 58.505 76.453 59.0331C74.5234 60.8712 69.801 63.4609 69.7502 63.4914V63.4812Z" fill="#594140"/>
<path d="M74.1926 64.6498H73.2888L65.1947 59.9782C64.6361 59.6532 63.7932 59.6228 63.3058 59.897L54.6024 64.924H53.4649V65.7974C53.4243 66.031 53.5766 66.295 53.9118 66.488L62.4527 71.4135C63.0112 71.7385 63.8542 71.7689 64.3416 71.4947L73.8677 66.0005C74.0911 65.8787 74.1825 65.706 74.1825 65.5232V64.6498H74.1926Z" fill="#4742A5"/>
<path d="M73.8675 65.0864L64.3414 70.5807C63.8641 70.8549 63.011 70.8244 62.4525 70.4994L53.9116 65.5739C53.353 65.2489 53.2921 64.7615 53.7795 64.4873L63.3056 58.9829C63.7829 58.7087 64.6359 58.7392 65.1945 59.0641L73.7354 63.9896C74.294 64.3146 74.3549 64.8021 73.8675 65.0763V65.0864Z" fill="#5C65C8"/>
<path d="M73.5008 64.6803L63.6194 70.3878V67.5747L73.5008 61.8672V64.6803Z" fill="#30308C"/>
<path d="M54.1135 62.1094V64.9124L63.6192 70.4066V67.5934L54.1135 62.1094Z" fill="#363696"/>
<path d="M74.1926 61.6186H73.2888L65.1947 56.9469C64.6361 56.622 63.7932 56.5915 63.3058 56.8657L54.6024 61.8928H53.4649V62.7662C53.4243 62.9997 53.5766 63.2638 53.9118 63.4567L62.4527 68.3822C63.0112 68.7072 63.8542 68.7377 64.3416 68.4635L73.8677 62.9591C74.0911 62.8373 74.1825 62.6646 74.1825 62.4818V61.6084L74.1926 61.6186Z" fill="#4742A5"/>
<path d="M73.8675 62.0552L64.3414 67.5494C63.8641 67.8236 63.011 67.7932 62.4525 67.4682L53.9116 62.5427C53.353 62.2177 53.2921 61.7302 53.7795 61.456L63.3056 55.9516C63.7829 55.6774 64.6359 55.7079 65.1945 56.0329L73.7354 60.9584C74.294 61.2834 74.3549 61.7708 73.8675 62.045V62.0552Z" fill="#5C65C8"/>
<path d="M72.7498 61.557L64.3307 66.4215C63.9042 66.6653 63.1527 66.6348 62.6652 66.3505L55.1195 61.9937C54.632 61.7093 54.5711 61.2726 54.9976 61.0289L63.4167 56.1643C63.8432 55.9206 64.5948 55.951 65.0822 56.2354L72.6279 60.5922C73.1154 60.8765 73.1763 61.3133 72.7498 61.557Z" fill="#6F7CD8"/>
<path d="M62.7258 65.4101L62.0962 65.0445C61.69 64.8109 61.5376 64.5265 62.0454 64.2219C62.543 63.9375 63.1016 63.9984 63.4875 64.2219L63.7211 64.3539L64.4422 63.9375L64.8585 64.1813L62.7258 65.4101ZM63.1321 64.4554C62.9086 64.3234 62.675 64.3234 62.4516 64.4554C62.2282 64.5875 62.2688 64.6992 62.5024 64.8312L62.6954 64.9429L63.3352 64.5671L63.1321 64.4453V64.4554Z" fill="white"/>
<path d="M61.0394 64.4304L60.623 64.1866L62.3495 63.1914L61.6183 62.7648L62.0245 62.5312L63.1721 63.1914L61.0394 64.4202V64.4304Z" fill="white"/>
<path d="M59.2415 63.4132L58.7439 63.1187L60.2977 61.5547L60.7446 61.8086L60.3485 62.164L60.9071 62.489L61.5266 62.2656L61.9531 62.5093L59.2517 63.403L59.2415 63.4132ZM60.4399 62.6617L60.0438 62.4383L59.8915 62.5804C59.729 62.7328 59.5259 62.9054 59.3532 63.0679H59.3634C59.6376 62.9663 59.9321 62.8546 60.1962 62.7632L60.4399 62.6718V62.6617Z" fill="white"/>
<path d="M59.069 61.7172L58.2566 62.8343L57.8097 62.5804L58.1347 62.2046C58.2464 62.0828 58.3378 61.971 58.4495 61.8492H58.4394C58.2261 61.9101 58.023 61.9609 57.8097 62.0218L57.1496 62.2046L56.7129 61.9507L58.6425 61.4836L59.4041 61.0469L59.8205 61.2906L59.0588 61.7273L59.069 61.7172Z" fill="white"/>
<path d="M56.9046 77.9023C56.61 77.9023 56.3155 77.882 56.0007 77.8515C52.2939 77.4148 50.6792 75.4649 49.1456 72.2456C47.9981 69.8489 43.6006 64.9945 42.2804 63.5625C40.4321 61.5618 39.9446 57.5707 40.4321 55.8036C41.3258 52.5538 43.6514 50.1367 43.6717 50.1164C43.7123 50.0758 43.7733 50.0758 43.8139 50.1164C43.8545 50.157 43.8545 50.2179 43.8139 50.2586C43.7936 50.2789 41.5086 52.6655 40.625 55.8645C40.1477 57.5808 40.625 61.4806 42.4226 63.4305C44.1186 65.2687 48.191 69.8082 49.3183 72.1644C50.8213 75.3126 52.3954 77.2219 56.0109 77.6484C57.7475 77.8515 59.1591 77.4656 60.0833 76.5414C61.0684 75.5563 61.302 74.2057 61.2004 73.3526C60.977 71.5246 61.4746 69.8387 62.5714 68.7216C62.6121 68.681 62.673 68.681 62.7136 68.7216C62.7542 68.7622 62.7542 68.8231 62.7136 68.8638C61.6676 69.9403 61.1801 71.5652 61.3934 73.3323C61.5051 74.226 61.2614 75.6478 60.2255 76.6836C59.4232 77.4961 58.2756 77.9023 56.8843 77.9023H56.9046Z" fill="#594140"/>
<path d="M65.5356 57.8531C65.5356 57.9343 65.6474 58.0156 65.7895 58.0968C65.8403 58.0461 65.881 57.9851 65.9317 57.9343C66.0028 57.8429 66.0536 57.7515 66.0638 57.6703C66.1348 57.4469 66.1044 57.1828 66.0638 57C65.8302 57.2844 65.5153 57.5992 65.5458 57.8531H65.5356Z" fill="#3A2625"/>
<path d="M70.4203 59.4061L70.1156 59.467L69.1711 59.7209C69.1711 59.7209 69.0899 59.7412 69.0492 59.7514C68.5719 59.8834 68.0235 60.0662 67.597 60.0561C67.2923 60.0459 66.9978 59.792 66.7338 59.5889C66.6627 59.528 66.3072 59.335 66.2158 59.2842C65.8604 59.1319 65.4237 58.9593 65.4034 58.7765C65.3831 58.5835 65.5862 58.3296 65.7893 58.096C65.6471 58.0148 65.5455 57.9335 65.5354 57.8523C65.5049 57.6086 65.8198 57.2836 66.0533 56.9992C66.0229 56.857 65.9924 56.7656 65.9924 56.7656L65.6979 56.8469L64.7534 57.1008L64.7026 57.3344C63.9917 57.639 63.3316 58.0656 62.834 58.4515L62.7832 58.2585L61.8286 58.0148C61.7575 58.1468 61.7169 58.3194 61.6965 58.5124C61.6458 58.9085 61.6965 59.3756 61.8184 59.6397C61.8184 59.66 61.8387 59.6905 61.859 59.7108C61.859 59.7209 61.8794 59.7311 61.8895 59.7413C61.9504 59.8123 62.052 59.8834 62.1739 59.9545C62.5496 60.1678 62.9254 60.2795 63.2605 60.4318C63.4535 60.5232 64.0527 60.7974 64.3066 61.0006C64.53 61.1834 65.1901 61.6912 65.5557 61.9044C65.962 62.138 66.3174 62.2802 66.9673 61.9958C67.3837 61.813 67.729 61.549 68.0438 61.4068C68.7852 61.0615 69.4758 60.8889 70.1664 60.3811C70.3289 60.2694 70.4 60.1475 70.4 60.0561C70.4406 59.9444 70.4609 59.8327 70.4609 59.7311C70.4609 59.5381 70.4203 59.396 70.4203 59.396V59.4061Z" fill="#3A2625"/>
<path d="M70.1366 59.1124C70.1366 59.214 70.0757 59.3257 69.8929 59.4374C69.2835 59.8131 67.9734 60.0467 67.2625 60.3209C66.379 60.6662 66.0337 60.392 65.5869 60.1381C65.2416 59.935 64.9877 59.61 64.7846 59.4374C64.5408 59.2444 63.9924 58.9397 63.7081 58.8179C63.3932 58.6858 62.7737 58.5132 62.4284 58.3101C61.9816 58.0562 61.9105 57.8531 62.4995 57.3453C62.5097 57.3352 62.53 57.325 62.5503 57.3047C62.4386 57.3758 62.337 57.4469 62.2558 57.5179C61.6262 58.0664 61.6972 58.2796 62.1745 58.5538C62.5503 58.7671 63.2104 58.9499 63.5456 59.0921C63.8502 59.2241 64.4393 59.5491 64.6932 59.7522C64.9166 59.935 65.1806 60.2904 65.5564 60.5037C66.0337 60.7779 66.3993 61.0623 67.3539 60.6967C68.1156 60.4022 69.5171 60.1584 70.167 59.7522C70.5631 59.5085 70.4717 59.2546 70.1264 59.1023L70.1366 59.1124Z" fill="#4F2D2D"/>
<path d="M62.4286 58.3123C62.7739 58.5154 63.3934 58.6881 63.7082 58.8201C63.9926 58.942 64.541 59.2467 64.7847 59.4396C64.9878 59.6021 65.2417 59.9373 65.587 60.1404C66.0339 60.3943 66.3792 60.6685 67.2627 60.3232C67.9736 60.049 69.2735 59.8154 69.893 59.4396C70.0657 59.3279 70.1469 59.2162 70.1367 59.1146C69.8828 59.0029 69.4969 58.942 69.0602 58.9725C68.5626 59.0131 68.0041 58.7897 67.608 58.6475C67.1916 58.5053 66.3182 57.9264 66.2167 57.8858C66.0136 57.7944 65.7901 57.6522 65.7292 57.4796C65.6886 57.3476 65.7597 57.2663 65.8612 57.1546C66.2268 56.7585 65.8815 56.2812 64.805 56.5148C63.8605 56.7179 63.0785 56.9718 62.5505 57.3069C62.5301 57.3171 62.52 57.3273 62.4997 57.3476C61.9107 57.8553 61.9817 58.0584 62.4286 58.3123Z" fill="#4F2D2D"/>
<path opacity="0.5" d="M62.4286 58.3123C62.7739 58.5154 63.3934 58.6881 63.7082 58.8201C63.9926 58.942 64.541 59.2467 64.7847 59.4396C64.9878 59.6021 65.2417 59.9373 65.587 60.1404C66.0339 60.3943 66.3792 60.6685 67.2627 60.3232C67.9736 60.049 69.2735 59.8154 69.893 59.4396C70.0657 59.3279 70.1469 59.2162 70.1367 59.1146C69.8828 59.0029 69.4969 58.942 69.0602 58.9725C68.5626 59.0131 68.0041 58.7897 67.608 58.6475C67.1916 58.5053 66.3182 57.9264 66.2167 57.8858C66.0136 57.7944 65.7901 57.6522 65.7292 57.4796C65.6886 57.3476 65.7597 57.2663 65.8612 57.1546C66.2268 56.7585 65.8815 56.2812 64.805 56.5148C63.8605 56.7179 63.0785 56.9718 62.5505 57.3069C62.5301 57.3171 62.52 57.3273 62.4997 57.3476C61.9107 57.8553 61.9817 58.0584 62.4286 58.3123Z" fill="#6B4545"/>
<path d="M64.3391 57.7109V57.8023C64.3391 58.0054 64.6539 58.1781 65.05 58.1781C65.4461 58.1781 65.7609 58.0054 65.7609 57.8023V57.7109H64.3493H64.3391Z" fill="#3A2625"/>
<path d="M65.05 57.3203C64.6539 57.3203 64.3391 57.493 64.3391 57.6961C64.3391 57.8992 64.6539 58.0718 65.05 58.0718C65.4461 58.0718 65.7609 57.8992 65.7609 57.6961C65.7609 57.493 65.4461 57.3203 65.05 57.3203Z" fill="#593535"/>
<path d="M65.5183 57.5562C65.5183 57.4242 65.3152 57.3125 65.0512 57.3125C64.7871 57.3125 64.584 57.4242 64.584 57.5562C64.584 57.5867 64.5941 57.6273 64.6246 57.6578C64.6246 57.5359 64.8176 57.4344 65.0512 57.4344C65.2847 57.4344 65.4777 57.5359 65.4777 57.6578C65.498 57.6273 65.5183 57.5968 65.5183 57.5562Z" fill="#3A2625"/>
<path d="M65.0501 57.4141C64.8165 57.4141 64.6235 57.5156 64.6235 57.6375C64.6946 57.7289 64.8571 57.7898 65.0501 57.7898C65.243 57.7898 65.4055 57.7289 65.4766 57.6375C65.4766 57.5156 65.2837 57.4141 65.0501 57.4141Z" fill="#4F2D2D"/>
<path d="M65.2615 57.5734C65.2615 57.5734 65.231 57.4008 65.231 57.35C65.231 57.2789 65.231 57.2078 65.231 57.2078L64.8553 57.1875C64.8553 57.1875 64.8553 57.2687 64.8553 57.35C64.8553 57.4312 64.835 57.6039 64.835 57.6039C64.835 57.6648 64.9264 57.7156 65.0483 57.7156C65.1701 57.7156 65.2615 57.6648 65.2615 57.6039V57.5836V57.5734Z" fill="#442525"/>
<path d="M65.4246 57.0281C65.3535 56.957 65.2114 56.9062 65.0489 56.9062C64.8864 56.9062 64.7442 56.957 64.6731 57.0281H64.6223V57.1398C64.6223 57.2617 64.8153 57.3633 65.0489 57.3633C65.2824 57.3633 65.4754 57.2617 65.4754 57.1398V57.0281H65.4246Z" fill="#593535"/>
<path d="M65.0489 56.8047C64.8153 56.8047 64.6223 56.9062 64.6223 57.0281C64.6223 57.15 64.8153 57.2515 65.0489 57.2515C65.2824 57.2515 65.4754 57.15 65.4754 57.0281C65.4754 56.9062 65.2824 56.8047 65.0489 56.8047Z" fill="#6B4545"/>
<path d="M66.2375 58.7656V58.857C66.2375 59.0601 66.5524 59.2328 66.9485 59.2328C67.3445 59.2328 67.6593 59.0601 67.6593 58.857V58.7656H66.2477H66.2375Z" fill="#3A2625"/>
<path d="M66.9485 59.1421C67.3411 59.1421 67.6593 58.9739 67.6593 58.7664C67.6593 58.5589 67.3411 58.3906 66.9485 58.3906C66.5558 58.3906 66.2375 58.5589 66.2375 58.7664C66.2375 58.9739 66.5558 59.1421 66.9485 59.1421Z" fill="#593535"/>
<path d="M66.9483 58.4414C67.2631 58.4414 67.517 58.5734 67.5475 58.7359C67.5475 58.7359 67.5475 58.7156 67.5475 58.7054C67.5475 58.5328 67.2834 58.3906 66.9483 58.3906C66.6132 58.3906 66.3491 58.5328 66.3491 58.7054C66.3491 58.7054 66.3491 58.7258 66.3491 58.7359C66.3796 58.5734 66.6335 58.4414 66.9483 58.4414Z" fill="#3A2625"/>
<path d="M66.9483 59.0187C67.2631 59.0187 67.517 58.8867 67.5475 58.7242C67.517 58.5617 67.2631 58.4297 66.9483 58.4297C66.6335 58.4297 66.3796 58.5617 66.3491 58.7242C66.3796 58.8867 66.6335 59.0187 66.9483 59.0187Z" fill="#4F2D2D"/>
<path d="M66.2375 59.8906V59.982C66.2375 60.1851 66.5524 60.3578 66.9485 60.3578C67.3445 60.3578 67.6593 60.1851 67.6593 59.982V59.8906H66.2477H66.2375Z" fill="#3A2625"/>
<path d="M66.9485 60.2593C67.3411 60.2593 67.6593 60.0911 67.6593 59.8836C67.6593 59.676 67.3411 59.5078 66.9485 59.5078C66.5558 59.5078 66.2375 59.676 66.2375 59.8836C66.2375 60.0911 66.5558 60.2593 66.9485 60.2593Z" fill="#593535"/>
<path d="M67.4062 59.7359C67.4062 59.6039 67.2031 59.4922 66.9391 59.4922C66.675 59.4922 66.4719 59.6039 66.4719 59.7359C66.4719 59.7664 66.4821 59.807 66.5125 59.8375C66.5125 59.7156 66.7055 59.6141 66.9391 59.6141C67.1727 59.6141 67.3656 59.7156 67.3656 59.8375C67.3859 59.807 67.4062 59.7765 67.4062 59.7359Z" fill="#3A2625"/>
<path d="M66.9488 59.5938C66.7152 59.5938 66.5222 59.6953 66.5222 59.8172C66.5933 59.9086 66.7558 59.9695 66.9488 59.9695C67.1417 59.9695 67.3042 59.9086 67.3753 59.8172C67.3753 59.6953 67.1823 59.5938 66.9488 59.5938Z" fill="#4F2D2D"/>
<path d="M67.1514 59.7687C67.1514 59.7687 67.1209 59.5961 67.1209 59.5453C67.1209 59.4742 67.1209 59.4031 67.1209 59.4031L66.7452 59.3828C66.7452 59.3828 66.7452 59.464 66.7452 59.5453C66.7452 59.6265 66.7249 59.7992 66.7249 59.7992C66.7249 59.8601 66.8162 59.9109 66.9381 59.9109C67.06 59.9109 67.1514 59.8601 67.1514 59.7992V59.7789V59.7687Z" fill="#442525"/>
<path d="M67.3145 59.2234C67.2434 59.1523 67.1012 59.1016 66.9388 59.1016C66.7763 59.1016 66.6341 59.1523 66.563 59.2234H66.5122V59.3351C66.5122 59.457 66.7052 59.5585 66.9388 59.5585C67.1723 59.5585 67.3653 59.457 67.3653 59.3351V59.2234H67.3145Z" fill="#593535"/>
<path d="M66.9473 59.4469C67.1829 59.4469 67.3738 59.3468 67.3738 59.2234C67.3738 59.1 67.1829 59 66.9473 59C66.7117 59 66.5208 59.1 66.5208 59.2234C66.5208 59.3468 66.7117 59.4469 66.9473 59.4469Z" fill="#6B4545"/>
<path d="M63.3532 57.8547C63.3024 57.8039 63.2009 57.7734 63.079 57.7734C62.9571 57.7734 62.8555 57.8039 62.8048 57.8547H62.7642V57.9359C62.7642 58.0273 62.9063 58.0984 63.079 58.0984C63.2516 58.0984 63.3938 58.0273 63.3938 57.9359V57.8547H63.3532Z" fill="#DB1943"/>
<path d="M63.079 57.6719C62.9063 57.6719 62.7642 57.743 62.7642 57.8344C62.7642 57.9258 62.9063 57.9969 63.079 57.9969C63.2516 57.9969 63.3938 57.9258 63.3938 57.8344C63.3938 57.743 63.2516 57.6719 63.079 57.6719Z" fill="#F13454"/>
<path d="M64.1439 57.8703C64.0932 57.8195 63.9916 57.7891 63.8698 57.7891C63.7479 57.7891 63.6463 57.8195 63.5955 57.8703H63.5549V57.9516C63.5549 58.043 63.6971 58.1141 63.8698 58.1141C64.0424 58.1141 64.1846 58.043 64.1846 57.9516V57.8703H64.1439Z" fill="#38C1BD"/>
<path d="M63.8698 57.7031C63.6971 57.7031 63.5549 57.7742 63.5549 57.8656C63.5549 57.957 63.6971 58.0281 63.8698 58.0281C64.0424 58.0281 64.1846 57.957 64.1846 57.8656C64.1846 57.7742 64.0424 57.7031 63.8698 57.7031Z" fill="#50D6D6"/>
<path d="M63.3024 57.386C63.2516 57.3352 63.1501 57.3047 63.0282 57.3047C62.9063 57.3047 62.8048 57.3352 62.754 57.386H62.7134V57.4672C62.7134 57.5586 62.8556 57.6297 63.0282 57.6297C63.2008 57.6297 63.343 57.5586 63.343 57.4672V57.386H63.3024Z" fill="#FEA947"/>
<path d="M63.0282 57.2031C62.8556 57.2031 62.7134 57.2742 62.7134 57.3656C62.7134 57.457 62.8556 57.5281 63.0282 57.5281C63.2008 57.5281 63.343 57.457 63.343 57.3656C63.343 57.2742 63.2008 57.2031 63.0282 57.2031Z" fill="#FDC142"/>
<path d="M64.1132 57.4015C64.0624 57.3508 63.9609 57.3203 63.839 57.3203C63.7171 57.3203 63.6155 57.3508 63.5648 57.4015H63.5242V57.4828C63.5242 57.5742 63.6663 57.6453 63.839 57.6453C64.0116 57.6453 64.1538 57.5742 64.1538 57.4828V57.4015H64.1132Z" fill="#442EAF"/>
<path d="M63.839 57.5594C64.0129 57.5594 64.1538 57.4866 64.1538 57.3969C64.1538 57.3071 64.0129 57.2344 63.839 57.2344C63.6651 57.2344 63.5242 57.3071 63.5242 57.3969C63.5242 57.4866 63.6651 57.5594 63.839 57.5594Z" fill="#4742A5"/>
<path d="M65.2104 58.4406C65.1596 58.3899 65.058 58.3594 64.9362 58.3594C64.8143 58.3594 64.7127 58.3899 64.662 58.4406H64.6213V58.5219C64.6213 58.6133 64.7635 58.6844 64.9362 58.6844C65.1088 58.6844 65.251 58.6133 65.251 58.5219V58.4406H65.2104Z" fill="#3A2625"/>
<path d="M64.9362 58.2734C64.7635 58.2734 64.6213 58.3445 64.6213 58.4359C64.6213 58.5273 64.7635 58.5984 64.9362 58.5984C65.1088 58.5984 65.251 58.5273 65.251 58.4359C65.251 58.3445 65.1088 58.2734 64.9362 58.2734Z" fill="#6B4545"/>
<path d="M66.0343 58.9406C65.9835 58.8898 65.882 58.8594 65.7601 58.8594C65.6383 58.8594 65.5367 58.8898 65.4859 58.9406H65.4453V59.0219C65.4453 59.1133 65.5875 59.1844 65.7601 59.1844C65.9328 59.1844 66.075 59.1133 66.075 59.0219V58.9406H66.0343Z" fill="#3A2625"/>
<path d="M65.7601 58.7734C65.5875 58.7734 65.4453 58.8445 65.4453 58.9359C65.4453 59.0273 65.5875 59.0984 65.7601 59.0984C65.9328 59.0984 66.075 59.0273 66.075 58.9359C66.075 58.8445 65.9328 58.7734 65.7601 58.7734Z" fill="#6B4545"/>
<path d="M66.0959 58.3078C66.0451 58.257 65.9435 58.2266 65.8217 58.2266C65.6998 58.2266 65.5982 58.257 65.5475 58.3078H65.5068V58.3891C65.5068 58.4805 65.649 58.5516 65.8217 58.5516C65.9943 58.5516 66.1365 58.4805 66.1365 58.3891V58.3078H66.0959Z" fill="#3A2625"/>
<path d="M65.8324 58.125C65.6598 58.125 65.5176 58.1961 65.5176 58.2875C65.5176 58.3789 65.6598 58.45 65.8324 58.45C66.005 58.45 66.1472 58.3789 66.1472 58.2875C66.1472 58.1961 66.005 58.125 65.8324 58.125Z" fill="#6B4545"/>
<path d="M66.4203 58.6172V58.6883C66.4203 58.8406 66.6539 58.9625 66.9382 58.9625C67.2226 58.9625 67.4562 58.8406 67.4562 58.6883V58.6172H66.4102H66.4203Z" fill="#3A2625"/>
<path d="M67.2324 58.5859C67.2324 58.5351 67.2832 58.4843 67.3542 58.4539C67.3238 58.4336 67.2831 58.4133 67.2425 58.3929C67.1917 58.4437 67.0902 58.4843 66.9683 58.4843C66.8363 58.4843 66.7246 58.4437 66.684 58.3828C66.623 58.4031 66.5723 58.4234 66.5316 58.4539C66.6027 58.4843 66.6535 58.5351 66.6535 58.5859C66.6535 58.657 66.5824 58.7078 66.4707 58.7382C66.5113 58.789 66.5824 58.8297 66.6637 58.8601C66.6941 58.789 66.816 58.7281 66.9683 58.7281C67.1105 58.7281 67.2222 58.7789 67.2628 58.8398C67.3238 58.8093 67.3847 58.7789 67.4152 58.7382C67.3035 58.7078 67.2324 58.657 67.2324 58.5859Z" fill="#593535"/>
<path d="M66.654 58.5773C66.654 58.5266 66.6032 58.4758 66.5321 58.4453C66.461 58.4961 66.4204 58.5469 66.4204 58.618C66.4204 58.6586 66.4407 58.6992 66.4712 58.7297C66.5829 58.6992 66.654 58.6484 66.654 58.5773Z" fill="#6B4545"/>
<path d="M67.3557 58.4453C67.2847 58.4758 67.2339 58.5266 67.2339 58.5773C67.2339 58.6484 67.305 58.6992 67.4167 58.7297C67.4471 58.6992 67.4674 58.6586 67.4674 58.6179C67.4674 58.557 67.4268 58.4961 67.3557 58.4453Z" fill="#6B4545"/>
<path d="M66.9687 58.7188C66.8164 58.7188 66.6945 58.7797 66.6641 58.8508C66.7453 58.8812 66.8367 58.8914 66.9484 58.8914C67.0703 58.8914 67.182 58.8711 67.2734 58.8305C67.2328 58.7594 67.1211 58.7188 66.9789 58.7188H66.9687Z" fill="#6B4545"/>
<path d="M66.9693 58.4859C67.0912 58.4859 67.1927 58.4453 67.2435 58.3945C67.1623 58.364 67.0506 58.3438 66.9389 58.3438C66.8475 58.3438 66.7561 58.3539 66.6748 58.3844C66.7256 58.4453 66.8373 58.4859 66.9592 58.4859H66.9693Z" fill="#6B4545"/>
<path d="M65.0063 61.1613C65.0063 61.1613 65.0672 61.1004 65.0977 61.1105C65.2094 61.1207 65.4023 61.2832 65.5851 61.4253C65.6867 61.5066 66.0015 61.6792 66.2453 61.6995C66.489 61.7198 66.753 61.7199 66.8038 61.7706C66.8647 61.8214 66.4382 62.1159 66.3773 62.1058C66.3468 62.1058 65.7476 61.923 65.3922 61.6792C65.0774 61.466 64.9961 61.1613 64.9961 61.1613H65.0063Z" fill="#4F2D2D"/>
<path d="M65.0778 61.1484C65.0778 61.1484 64.9864 61.1484 64.9661 61.2297C64.9559 61.2601 64.9458 61.3109 64.9458 61.3617C64.9458 61.5445 65.1591 61.7375 65.4536 61.9304C65.8293 62.1843 66.3574 62.2757 66.6824 62.1538C66.8144 62.1031 66.8449 62.0523 66.8449 61.8796C66.8449 61.7578 66.7941 61.7375 66.7027 61.7476C66.5199 61.7679 66.2762 61.8289 65.8903 61.6867C65.5044 61.5445 65.2606 61.2195 65.0677 61.1484H65.0778Z" fill="#563434"/>
<path d="M65.0063 60.4035C65.0063 60.4035 65.0672 60.3425 65.0977 60.3527C65.2094 60.3629 65.4023 60.5253 65.5851 60.6675C65.6867 60.7488 66.0015 60.9214 66.2453 60.9418C66.489 60.9621 66.753 60.962 66.8038 61.0128C66.8647 61.0636 66.4382 61.3581 66.3773 61.348C66.3468 61.348 65.7476 61.1652 65.3922 60.9214C65.0774 60.7081 64.9961 60.4035 64.9961 60.4035H65.0063Z" fill="#4F2D2D"/>
<path d="M65.0778 60.3906C65.0778 60.3906 64.9864 60.3906 64.9661 60.4719C64.9559 60.5023 64.9458 60.5531 64.9458 60.6039C64.9458 60.7867 65.1591 60.9796 65.4536 61.1726C65.8293 61.4265 66.3574 61.5179 66.6824 61.396C66.8144 61.3452 66.8449 61.2945 66.8449 61.1218C66.8449 61 66.7941 60.9797 66.7027 60.9898C66.5199 61.0101 66.2762 61.0711 65.8903 60.9289C65.5044 60.7867 65.2606 60.4617 65.0677 60.3906H65.0778Z" fill="#563434"/>
<path d="M61.7598 58.7891C61.7598 58.7891 61.6887 58.9313 61.8004 59.0531C61.9223 59.175 62.1355 59.2765 62.1964 59.3984C62.2574 59.5203 62.1051 59.6625 62.1051 59.6625L61.6887 59.3984C61.6887 59.3984 61.5262 59.1344 61.577 59.0227C61.6277 58.9008 61.7496 58.7891 61.7496 58.7891H61.7598Z" fill="#4F2D2D"/>
<path d="M61.7086 58.9695C61.7086 58.9695 61.7187 59.1219 61.8609 59.2133C62.0031 59.3047 62.1656 59.3859 62.1554 59.5382C62.1554 59.6804 62.0234 59.7515 61.8914 59.7007C61.6273 59.5992 61.5461 59.457 61.5563 59.1726C61.5664 58.8883 61.7492 58.7969 61.7492 58.7969L61.6984 58.9695H61.7086Z" fill="#563434"/>
<path d="M61.7788 58.125C61.7788 58.125 61.7077 58.2672 61.8194 58.389C61.9413 58.5109 62.1546 58.6124 62.2155 58.7343C62.2765 58.8562 62.1241 58.9984 62.1241 58.9984L61.7077 58.7343C61.7077 58.7343 61.5452 58.4703 61.596 58.3586C61.6468 58.2468 61.7687 58.125 61.7687 58.125H61.7788Z" fill="#4F2D2D"/>
<path d="M61.7276 58.3055C61.7276 58.3055 61.7378 58.4578 61.88 58.5492C62.0221 58.6406 62.1846 58.7219 62.1745 58.8742C62.1745 59.0164 62.0424 59.0875 61.9104 59.0367C61.6464 58.9351 61.5651 58.7929 61.5753 58.5086C61.5854 58.2242 61.7683 58.1328 61.7683 58.1328L61.7175 58.3055H61.7276Z" fill="#563434"/>
<path d="M64.1886 60.0112L63.6808 59.7167C63.6199 59.6761 63.5691 59.5847 63.5691 59.5034C63.5691 59.4222 63.6199 59.3816 63.6808 59.4222L64.1886 59.7167C64.2495 59.7573 64.3003 59.8487 64.3003 59.93C64.3003 60.0112 64.2495 60.0518 64.1886 60.0112Z" fill="#FDC142"/>
<path d="M64.1886 60.605L63.6808 60.3105C63.6199 60.2698 63.5691 60.1784 63.5691 60.0972C63.5691 60.016 63.6199 59.9753 63.6808 60.0159L64.1886 60.3105C64.2495 60.3511 64.3003 60.4425 64.3003 60.5237C64.3003 60.605 64.2495 60.6456 64.1886 60.605Z" fill="#FDC142"/>
</svg>
