<svg width="70" height="96" viewBox="0 0 70 96" fill="none" xmlns="http://www.w3.org/2000/svg">
<path d="M45.9771 55.3945L43.4563 53.9332V52.2344L45.968 53.6957L45.9771 55.3945Z" fill="#7B7B7C"/>
<path d="M45.9679 51.0287L43.4471 49.5673L43.438 47.8594L45.9588 49.3299L45.9679 51.0287Z" fill="#7B7B7C"/>
<path d="M45.9497 46.6615L43.438 45.191L43.4288 43.4922L45.9497 44.9627V46.6615Z" fill="#7B7B7C"/>
<path d="M45.9414 42.2852L43.4205 40.8238V39.125L45.9322 40.5864L45.9414 42.2852Z" fill="#7B7B7C"/>
<path d="M45.9139 31.3633L43.393 29.902L43.3839 28.2031L45.9047 29.6645L45.9139 31.3633Z" fill="#7B7B7C"/>
<path d="M45.8956 26.9961L43.3839 25.5348L43.3748 23.8359L45.8956 25.2973V26.9961Z" fill="#7B7B7C"/>
<path d="M45.8856 22.6211L43.3647 21.1597V19.4609L45.8765 20.9223L45.8856 22.6211Z" fill="#7B7B7C"/>
<path d="M45.8773 18.2553L43.3564 16.7939L43.3473 15.0859L45.8681 16.5564L45.8773 18.2553Z" fill="#7B7B7C"/>
<path d="M6.57492 78.1425L4.05408 76.6812L43.4559 53.9297L45.9767 55.391L6.57492 78.1425Z" fill="#C7C6C8"/>
<path d="M6.57492 78.1446L4.05408 76.6832V74.9844L6.56578 76.4457L6.57492 78.1446Z" fill="#606060"/>
<path d="M6.56578 76.4472L4.05408 74.9858L43.4559 52.2344L45.9676 53.6957L6.56578 76.4472Z" fill="#9A9A9A"/>
<path d="M6.5666 73.7753L4.04578 72.314L43.4476 49.5625L45.9684 51.0239L6.5666 73.7753Z" fill="#C7C6C8"/>
<path d="M6.56658 73.7787L4.04576 72.3173L4.03662 70.6094L6.55747 72.0707L6.56658 73.7787Z" fill="#606060"/>
<path d="M6.55747 72.0722L4.03662 70.6109L43.4384 47.8594L45.9592 49.3299L6.55747 72.0722Z" fill="#9A9A9A"/>
<path d="M45.9589 49.3359L45.9681 51.0348L6.56624 73.7863L6.55713 72.0783L45.9589 49.3359Z" fill="#8A8A8A"/>
<path d="M6.54831 69.4003L4.02747 67.939L43.4384 45.1875L45.9501 46.658L6.54831 69.4003Z" fill="#C7C6C8"/>
<path d="M6.54831 69.4024L4.02747 67.941V66.2422L6.54831 67.7035V69.4024Z" fill="#606060"/>
<path d="M6.54831 67.705L4.02747 66.2437L43.4293 43.4922L45.9501 44.9627L6.54831 67.705Z" fill="#9A9A9A"/>
<path d="M6.53828 65.0332L4.01746 63.5627L43.4192 40.8203L45.9401 42.2817L6.53828 65.0332Z" fill="#C7C6C8"/>
<path d="M6.51166 54.1113L3.99084 52.6499L43.3926 29.8984L45.9135 31.3598L6.51166 54.1113Z" fill="#C7C6C8"/>
<path d="M6.50168 52.4068L3.98083 50.9455L43.3826 28.2031L45.9035 29.6645L6.50168 52.4068Z" fill="#9A9A9A"/>
<path d="M6.49338 49.7349L3.97253 48.2736L43.3835 25.5312L45.8952 26.9926L6.49338 49.7349Z" fill="#C7C6C8"/>
<path d="M6.49338 48.0488L3.97253 46.5783L43.3743 23.8359L45.8952 25.2973L6.49338 48.0488Z" fill="#9A9A9A"/>
<path d="M6.4842 45.3691L3.96338 43.9077L43.3652 21.1562L45.886 22.6176L6.4842 45.3691Z" fill="#C7C6C8"/>
<path d="M6.47507 43.6737L3.95422 42.2124L43.3651 19.4609L45.8769 20.9223L6.47507 43.6737Z" fill="#9A9A9A"/>
<path d="M6.46593 41.0019L3.95422 39.5405L43.356 16.7891L45.8769 18.2504L6.46593 41.0019Z" fill="#C7C6C8"/>
<path d="M6.46592 39.2988L3.94507 37.8374L43.3469 15.0859L45.8677 16.5564L6.46592 39.2988Z" fill="#9A9A9A"/>
<path d="M30.2038 22.675L27.6921 21.2136L28.8521 20.5469L31.3729 22.0082L30.2038 22.675Z" fill="#C7C6C8"/>
<path d="M6.52916 63.3378L4.01746 61.8765L43.4192 39.125L45.9309 40.5864L6.52916 63.3378Z" fill="#9A9A9A"/>
<path d="M6.53828 65.0352L4.01746 63.5647V61.875L6.52916 63.3363L6.53828 65.0352Z" fill="#606060"/>
<path d="M32.761 16.4285L30.2401 14.958V13.8438L32.761 15.3143V16.4285Z" fill="#7B7B7C"/>
<path d="M31.373 22.0116L28.8522 20.5503L28.843 15.7734L31.3547 17.2348L31.373 22.0116Z" fill="#7B7B7C"/>
<path d="M31.3547 17.2274L28.843 15.766L30.2404 14.9531L32.7613 16.4236L31.3547 17.2274Z" fill="#C7C6C8"/>
<path d="M30.2038 22.6743L27.6921 21.213L27.6738 16.4453L30.1947 17.9067L30.2038 22.6743Z" fill="#67190F"/>
<mask id="mask0_2119_26871" style="mask-type:luminance" maskUnits="userSpaceOnUse" x="22" y="19" width="7" height="7">
<path d="M25.9177 20.4966C25.9177 20.04 25.7898 19.7477 25.5249 19.6016L28.0458 21.0629C28.3107 21.2182 28.4294 21.5104 28.4385 21.958C28.4385 22.9444 27.7809 24.1774 26.3743 24.9903C25.5341 24.4971 24.6938 24.013 23.8535 23.5289C24.6938 24.013 25.5341 24.5062 26.3743 24.9903C26.0729 25.1638 25.7716 25.2917 25.5067 25.3648C24.6664 24.8807 23.8261 24.3875 22.9858 23.9034C23.2507 23.8304 23.5521 23.7025 23.8535 23.5289C25.2601 22.7161 25.9268 21.483 25.9177 20.4966Z" fill="white"/>
</mask>
<g mask="url(#mask0_2119_26871)">
<path d="M25.4331 25.3809L22.9122 23.9196C23.0492 23.883 23.1954 23.8374 23.3506 23.7734L25.8715 25.2348C25.7162 25.2987 25.5701 25.3444 25.4331 25.3809Z" fill="#B4B3B5"/>
<path d="M25.8717 25.2368L23.3508 23.7755C23.5152 23.7115 23.6797 23.6293 23.8532 23.5289C24.2368 23.3097 24.5656 23.0539 24.8396 22.7891L27.3604 24.2504C27.0864 24.5244 26.7576 24.771 26.374 24.9902C26.2005 25.0907 26.0361 25.1729 25.8717 25.2368Z" fill="#B9B8BA"/>
<path d="M27.3503 24.2457L24.8295 22.7843C24.9117 22.7021 24.9847 22.6199 25.0578 22.5469L27.5787 24.0082C27.5056 24.0904 27.4325 24.1726 27.3503 24.2457Z" fill="#B4B3B5"/>
<path d="M27.5792 24.0021L25.0583 22.5407C25.104 22.4859 25.1588 22.422 25.2045 22.3672L27.7253 23.8285C27.6797 23.8833 27.634 23.9473 27.5792 24.0021Z" fill="#B0AFB0"/>
<path d="M27.7257 23.8276L25.2048 22.3662C25.2414 22.3114 25.2779 22.2657 25.3144 22.2109L27.8353 23.6723C27.7987 23.7271 27.7622 23.7728 27.7257 23.8276Z" fill="#ABAAAC"/>
<path d="M27.8347 23.6765L25.3138 22.2151C25.3138 22.2151 25.3778 22.1238 25.4052 22.0781L27.926 23.5395C27.8986 23.5852 27.8621 23.6308 27.8347 23.6765Z" fill="#A6A6A7"/>
<path d="M27.927 23.5424L25.4061 22.081C25.4061 22.081 25.4609 21.9988 25.4792 21.9531L28 23.4145C28 23.4145 27.9544 23.4967 27.927 23.5424Z" fill="#A2A1A2"/>
<path d="M28.0094 23.4082L25.4885 21.9469C25.4885 21.9469 25.5342 21.8647 25.5525 21.8281L28.0733 23.2895C28.0733 23.2895 28.0276 23.3717 28.0002 23.4082H28.0094Z" fill="#9D9C9E"/>
<path d="M28.0726 23.291L25.5518 21.8296C25.5518 21.8296 25.5974 21.7475 25.6157 21.7109L28.1365 23.1723C28.1365 23.1723 28.0909 23.2545 28.0726 23.291Z" fill="#989899"/>
<path d="M28.1367 23.166L25.6158 21.7047C25.6158 21.7047 25.6524 21.6225 25.6706 21.5859L28.1915 23.0473C28.1915 23.0473 28.155 23.1295 28.1367 23.166Z" fill="#949394"/>
<path d="M28.1908 23.0502L25.6699 21.5888C25.6699 21.5888 25.7065 21.5066 25.7247 21.4609L28.2456 22.9223C28.2456 22.9223 28.209 23.0045 28.1908 23.0502Z" fill="#8F8F90"/>
<path d="M28.2466 22.9187L25.7257 21.4573C25.7257 21.4573 25.7622 21.366 25.7714 21.3203L28.2831 22.7817C28.2831 22.7817 28.2557 22.873 28.2374 22.9187H28.2466Z" fill="#8B8A8B"/>
<path d="M28.2915 22.7872L25.7798 21.3258C25.7981 21.2802 25.8072 21.2254 25.8255 21.1797L28.3463 22.641C28.3372 22.6867 28.3189 22.7324 28.3006 22.7872H28.2915Z" fill="#868587"/>
<path d="M28.3373 22.6414L25.8164 21.18C25.8347 21.1252 25.8438 21.0704 25.8529 21.0156L28.3738 22.477C28.3646 22.5318 28.3464 22.5866 28.3373 22.6414Z" fill="#818182"/>
<path d="M28.3738 22.4683L25.853 21.0069C25.8713 20.9339 25.8804 20.8699 25.8895 20.7969L28.4104 22.2582C28.4104 22.3221 28.3921 22.3952 28.3738 22.4683Z" fill="#7D7C7D"/>
<path d="M28.4105 22.2685L25.8896 20.8072C25.9079 20.7067 25.9079 20.5971 25.9079 20.4966C25.9079 20.04 25.78 19.7477 25.5151 19.6016L28.036 21.0629C28.3009 21.2182 28.4196 21.5104 28.4287 21.958C28.4287 22.0585 28.4287 22.1589 28.4105 22.2685Z" fill="#787879"/>
</g>
<mask id="mask1_2119_26871" style="mask-type:luminance" maskUnits="userSpaceOnUse" x="22" y="23" width="4" height="3">
<path d="M22.4048 24.0054C22.5418 24.0145 22.7518 23.9871 22.9893 23.9141C23.8296 24.3981 24.6699 24.8913 25.5102 25.3754C25.2636 25.4485 25.0626 25.4759 24.9256 25.4667C24.1675 25.0283 23.1629 24.4438 22.4048 24.0054Z" fill="white"/>
</mask>
<g mask="url(#mask1_2119_26871)">
<path d="M24.9165 25.4613L22.4048 24L24.9256 25.4613H24.9165Z" fill="#A2A1A2"/>
<path d="M24.9256 25.4613L22.4048 24C22.4048 24 22.4596 24 22.4961 24L25.0169 25.4613C25.0169 25.4613 24.953 25.4613 24.9256 25.4613Z" fill="#A6A6A7"/>
<path d="M25.0163 25.464L22.4955 24.0027C22.5412 24.0027 22.596 24.0026 22.6508 23.9844L25.1716 25.4457C25.1168 25.4457 25.062 25.464 25.0163 25.464Z" fill="#ABAAAC"/>
<path d="M25.172 25.438L22.6511 23.9767C22.7333 23.9675 22.8155 23.9493 22.916 23.9219L25.4368 25.3832C25.3364 25.4106 25.2542 25.4289 25.172 25.438Z" fill="#B0AFB0"/>
<path d="M25.4366 25.3887L22.9158 23.9274C23.0528 23.8909 23.1989 23.8452 23.3542 23.7812L25.875 25.2426C25.7197 25.3065 25.5736 25.3522 25.4366 25.3887Z" fill="#B4B3B5"/>
</g>
<path d="M28.8249 18.7013L26.3041 17.2399L27.6741 16.4453L30.1949 17.9067L28.8249 18.7013Z" fill="#C7C6C8"/>
<mask id="mask2_2119_26871" style="mask-type:luminance" maskUnits="userSpaceOnUse" x="22" y="20" width="6" height="5">
<path d="M24.5854 20.9544L27.1063 22.4158C27.2067 22.4706 27.2524 22.5711 27.2524 22.7263C27.2524 23.1099 26.9692 23.5301 26.4395 23.8406C25.9463 24.1237 25.4713 24.2151 25.1517 24.2151L22.6309 22.7537C22.9414 22.7537 23.4255 22.6624 23.9095 22.3792C24.4393 22.0687 24.7224 21.6577 24.7224 21.265C24.7224 21.1097 24.6767 21.0092 24.5763 20.9453L24.5854 20.9544Z" fill="white"/>
</mask>
<g mask="url(#mask2_2119_26871)">
<path d="M25.1513 24.2192L22.6305 22.7578C22.6305 22.7578 22.6853 22.7578 22.7127 22.7578L25.2335 24.2192C25.2335 24.2192 25.1696 24.2192 25.1422 24.2192H25.1513Z" fill="#8A2214"/>
<path d="M25.2337 24.2231L22.7129 22.7618C22.786 22.7618 22.859 22.7526 22.9412 22.7344L25.462 24.1957C25.3798 24.2049 25.3068 24.214 25.2429 24.214L25.2337 24.2231Z" fill="#8E2315"/>
<path d="M25.4617 24.1972L22.9409 22.7358C23.0323 22.7267 23.1236 22.6993 23.2241 22.6719L25.7449 24.1332C25.6444 24.1606 25.5531 24.1789 25.4617 24.1972Z" fill="#922415"/>
<path d="M25.7356 24.1348L23.2147 22.6734C23.3243 22.646 23.4431 22.6004 23.5618 22.5547L26.0826 24.016C25.9639 24.0617 25.8452 24.1074 25.7447 24.1348H25.7356Z" fill="#962516"/>
<path d="M26.0825 24.0171L23.5616 22.5557C23.6712 22.51 23.79 22.4461 23.9087 22.3822C24.0823 22.2817 24.2193 22.1721 24.338 22.0625L26.8588 23.5239C26.7401 23.6426 26.5939 23.7522 26.4295 23.8435C26.3108 23.9075 26.1921 23.9714 26.0734 24.0171H26.0825Z" fill="#9A2616"/>
<path d="M26.868 23.5215L24.3472 22.0601C24.3472 22.0601 24.4111 21.9962 24.4385 21.9688L26.9594 23.4301C26.9594 23.4301 26.9045 23.4941 26.868 23.5215Z" fill="#962516"/>
<path d="M26.9504 23.4315L24.4296 21.9702C24.4296 21.9702 24.4661 21.9245 24.4844 21.9062L27.0052 23.3676C27.0052 23.3676 26.9687 23.4133 26.9504 23.4315Z" fill="#922415"/>
<path d="M27.0053 23.3599L24.4845 21.8985C24.4845 21.8985 24.5119 21.862 24.5302 21.8438L27.0419 23.3051C27.0419 23.3051 27.0144 23.3416 27.0053 23.3599Z" fill="#8E2315"/>
<path d="M27.042 23.3117L24.5303 21.8504C24.5303 21.8504 24.5485 21.8138 24.5577 21.8047L27.0785 23.266C27.0785 23.266 27.0602 23.3026 27.042 23.3117Z" fill="#8A2214"/>
<path d="M27.0786 23.2648L24.5577 21.8035C24.5577 21.8035 24.576 21.7761 24.5851 21.7578L27.106 23.2192C27.106 23.2192 27.0877 23.2466 27.0786 23.2648Z" fill="#862114"/>
<path d="M27.1052 23.2245L24.5844 21.7631C24.5844 21.7631 24.6026 21.7357 24.6117 21.7266L27.1326 23.1879C27.1326 23.1879 27.1143 23.2153 27.1052 23.2336V23.2245Z" fill="#832013"/>
<path d="M27.1335 23.1776L24.6127 21.7162C24.6127 21.7162 24.6309 21.6888 24.6309 21.6797L27.1518 23.141C27.1518 23.141 27.1427 23.1684 27.1335 23.1867V23.1776Z" fill="#7F1F12"/>
<path d="M27.1518 23.1385L24.631 21.6772C24.631 21.6772 24.6401 21.6498 24.6493 21.6406L27.1701 23.102C27.1701 23.102 27.161 23.1294 27.1518 23.1385Z" fill="#7B1E12"/>
<path d="M27.1701 23.1008L24.6493 21.6394C24.6493 21.6394 24.6584 21.612 24.6675 21.5938L27.1884 23.0551C27.1884 23.0551 27.1793 23.0825 27.1701 23.0916V23.1008Z" fill="#771D11"/>
<path d="M27.1884 23.0539L24.6676 21.5926C24.6676 21.5926 24.6768 21.5651 24.6859 21.5469L27.2067 23.0082C27.2067 23.0082 27.2067 23.0357 27.1884 23.0539Z" fill="#731C11"/>
<path d="M27.1976 23.0148L24.6768 21.5535C24.6768 21.5535 24.6859 21.5261 24.695 21.5078L27.2159 22.9692C27.2159 22.9692 27.2159 22.9966 27.1976 23.0148Z" fill="#6F1B10"/>
<path d="M27.2151 22.9615L24.6942 21.5001C24.6942 21.5001 24.6942 21.4636 24.7034 21.4453L27.2242 22.9067C27.2242 22.9067 27.2242 22.9432 27.2059 22.9615H27.2151Z" fill="#6C1A10"/>
<path d="M27.2342 22.9094L24.7134 21.4481C24.7134 21.4481 24.7134 21.4024 24.7225 21.375L27.2433 22.8364C27.2433 22.8364 27.2433 22.882 27.2342 22.9094Z" fill="#68190F"/>
<path d="M27.243 22.8438L24.7222 21.3824C24.7222 21.3824 24.7222 21.3093 24.7222 21.2728C24.7222 21.1175 24.6765 21.0171 24.576 20.9531L27.0969 22.4145C27.1974 22.4693 27.243 22.5698 27.243 22.725C27.243 22.7616 27.243 22.7981 27.243 22.8346V22.8438Z" fill="#64180F"/>
</g>
<mask id="mask3_2119_26871" style="mask-type:luminance" maskUnits="userSpaceOnUse" x="23" y="20" width="5" height="3">
<path d="M23.8669 20.9531C24.2231 20.8892 24.4515 20.8892 24.5885 20.9622L27.1093 22.4236C26.9723 22.3505 26.744 22.3505 26.3878 22.4145C25.6297 21.9761 24.625 21.3915 23.8669 20.9531Z" fill="white"/>
</mask>
<g mask="url(#mask3_2119_26871)">
<path d="M26.3882 22.4093L23.8673 20.948C23.8673 20.948 23.9312 20.9388 23.9586 20.9297L26.4795 22.391C26.4795 22.391 26.4247 22.391 26.3882 22.4093Z" fill="#B0AFB0"/>
<path d="M26.4789 22.395L23.958 20.9336C24.0585 20.9154 24.1498 20.9062 24.232 20.9062L26.7528 22.3676C26.6706 22.3676 26.5793 22.3859 26.4789 22.395Z" fill="#ABAAAC"/>
<path d="M26.7535 22.3676L24.2327 20.9062C24.2783 20.9062 24.324 20.9062 24.3697 20.9062L26.8905 22.3676C26.8905 22.3676 26.8083 22.3676 26.7626 22.3676H26.7535Z" fill="#A6A6A7"/>
<path d="M26.89 22.3676L24.3691 20.9062C24.3691 20.9062 24.4239 20.9062 24.4513 20.9062L26.9722 22.3676C26.9722 22.3676 26.9174 22.3676 26.89 22.3585V22.3676Z" fill="#A2A1A2"/>
<path d="M26.9632 22.3754L24.4424 20.9141C24.4424 20.9141 24.4789 20.914 24.4972 20.9232L27.018 22.3845C27.018 22.3845 26.9815 22.3754 26.9632 22.3754Z" fill="#9D9C9E"/>
<path d="M27.028 22.391L24.5072 20.9297C24.5072 20.9297 24.5346 20.9388 24.5529 20.948L27.0737 22.4093C27.0737 22.4093 27.0463 22.4002 27.028 22.391Z" fill="#989899"/>
<path d="M27.073 22.3989L24.5521 20.9375C24.5521 20.9375 24.5795 20.9466 24.5887 20.9558L27.1095 22.4171C27.1095 22.4171 27.0912 22.408 27.073 22.3989Z" fill="#949394"/>
<path d="M27.1004 22.4301L24.5796 20.9688H24.5887L27.1096 22.4301H27.1004Z" fill="#8F8F90"/>
</g>
<path d="M24.9147 25.46L22.403 23.9986L22.6313 22.7656L25.1521 24.227L24.9147 25.46Z" fill="#721C11"/>
<path d="M28.8249 18.7006L26.3041 17.2393L26.2949 16.125L28.8158 17.5864L28.8249 18.7006Z" fill="#67190F"/>
<path d="M32.7612 15.3125V16.4268L31.3547 17.2305L31.3729 22.0073L30.2038 22.6741L30.1947 17.9064L28.8247 18.701L28.8156 17.5867L32.7612 15.3125Z" fill="#942416"/>
<path d="M28.8158 17.5885L26.2949 16.1271L30.2406 13.8438L32.7614 15.3143L28.8158 17.5885Z" fill="#A52818"/>
<path d="M24.3221 26.073L21.8013 24.6116V23.5156L24.3221 24.9861V26.073Z" fill="#7B7B7C"/>
<path d="M27.957 19.3493L25.4453 17.8879L25.701 16.6641L28.2219 18.1254L27.957 19.3493Z" fill="#8B8A8C"/>
<mask id="mask4_2119_26871" style="mask-type:luminance" maskUnits="userSpaceOnUse" x="23" y="19" width="6" height="3">
<path d="M26.277 20.9633L23.7561 19.5019C23.9022 19.5841 24.1671 19.5659 24.5781 19.5019C24.9983 19.438 25.3088 19.4654 25.528 19.5933L28.0488 21.0546C27.8296 20.9267 27.51 20.8994 27.099 20.9633C26.688 21.0181 26.4231 21.0455 26.277 20.9633Z" fill="white"/>
</mask>
<g mask="url(#mask4_2119_26871)">
<path d="M26.2767 20.9627L23.7559 19.4922V19.5013L26.2767 20.9627Z" fill="#771D11"/>
<path d="M26.2767 20.9614L23.7559 19.5C23.7559 19.5 23.7741 19.5091 23.7924 19.5183L26.3041 20.9796C26.3041 20.9796 26.2858 20.9705 26.2767 20.9614Z" fill="#7B1E12"/>
<path d="M26.3042 20.9692L23.7925 19.5078C23.7925 19.5078 23.8199 19.517 23.829 19.5261L26.3407 20.9875C26.3407 20.9875 26.3133 20.9783 26.3042 20.9692Z" fill="#7F1F12"/>
<path d="M26.35 21.0004L23.8383 19.5391C23.8383 19.5391 23.8748 19.539 23.8931 19.5482L26.4139 21.0095C26.4139 21.0095 26.3774 21.0096 26.3591 21.0004H26.35Z" fill="#832013"/>
<path d="M26.404 21.0004L23.8832 19.5391C23.8832 19.5391 23.938 19.5391 23.9654 19.5391L26.4862 21.0004C26.4862 21.0004 26.4314 21.0004 26.404 21.0004Z" fill="#862114"/>
<path d="M26.4873 21.016L23.9664 19.5547C23.9664 19.5547 24.0578 19.5547 24.1126 19.5547L26.6334 21.016C26.5786 21.016 26.5238 21.016 26.4873 21.016Z" fill="#8A2214"/>
<path d="M26.6329 21.0123L24.1121 19.5509C24.2399 19.5509 24.3952 19.5236 24.5687 19.5053C24.6783 19.487 24.7788 19.4779 24.8793 19.4688L27.4001 20.9301C27.2996 20.9301 27.1992 20.9484 27.0896 20.9667C26.9069 20.9941 26.7607 21.0123 26.6329 21.0123Z" fill="#8E2315"/>
<path d="M27.4092 20.9301L24.8884 19.4688C24.9615 19.4688 25.0254 19.4688 25.0893 19.4688L27.6102 20.9301C27.5463 20.9301 27.4823 20.9301 27.4092 20.9301Z" fill="#8A2214"/>
<path d="M27.6015 20.9379L25.0807 19.4766C25.1264 19.4766 25.1812 19.4857 25.2268 19.4948L27.7476 20.9562C27.702 20.9562 27.6563 20.9471 27.6015 20.9379Z" fill="#862114"/>
<path d="M27.7471 20.9535L25.2263 19.4922C25.2263 19.4922 25.2994 19.5105 25.3359 19.5196L27.8568 20.9809C27.8568 20.9809 27.7837 20.9627 27.7471 20.9535Z" fill="#832013"/>
<path d="M27.866 20.9692L25.3452 19.5078C25.3452 19.5078 25.4091 19.5261 25.4365 19.5444L27.9574 21.0057C27.9574 21.0057 27.8935 20.9783 27.8569 20.9692H27.866Z" fill="#7F1F12"/>
<path d="M27.9568 21.016L25.4359 19.5547C25.4359 19.5547 25.4907 19.5821 25.5181 19.5912L28.039 21.0526C28.039 21.0526 27.9842 21.0252 27.9568 21.016Z" fill="#7B1E12"/>
<path d="M28.0392 21.0473L25.5183 19.5859L25.5275 19.5951L28.0483 21.0564L28.0392 21.0473Z" fill="#771D11"/>
</g>
<mask id="mask5_2119_26871" style="mask-type:luminance" maskUnits="userSpaceOnUse" x="24" y="17" width="4" height="3">
<path d="M25.2009 17.918C26.0412 18.4021 26.8815 18.8953 27.7218 19.3794C27.8222 19.3611 27.8953 19.352 27.9684 19.352L26.8998 19.699L25.4567 17.8906L24.3789 18.2377C25.3836 17.8998 25.3105 17.8998 25.2101 17.918H25.2009Z" fill="white"/>
</mask>
<g mask="url(#mask5_2119_26871)">
<path d="M27.5383 19.4289L25.0175 17.9675C25.0997 17.9493 25.1727 17.931 25.2367 17.9219L27.7575 19.3832C27.6936 19.3832 27.6205 19.4106 27.5383 19.4289Z" fill="#B0AFB0"/>
<path d="M27.758 19.3781L25.2372 17.9167C25.3103 17.9076 25.3742 17.8984 25.429 17.8984L27.9498 19.3598C27.895 19.3598 27.8311 19.3598 27.758 19.3781Z" fill="#ABAAAC"/>
<path d="M27.9493 19.3598L25.4285 17.8984H25.4467L27.9676 19.3598H27.9584H27.9493Z" fill="#A6A6A7"/>
</g>
<mask id="mask6_2119_26871" style="mask-type:luminance" maskUnits="userSpaceOnUse" x="23" y="17" width="5" height="4">
<path d="M24.3668 18.2494C24.7138 18.0484 24.9878 17.9662 25.1979 17.9297C26.0382 18.4138 26.8785 18.907 27.7187 19.391C27.5087 19.4276 27.2347 19.5098 26.8876 19.7107C26.3852 20.003 26.1478 20.3957 26.1478 20.7062C25.3075 20.213 24.4672 19.729 23.627 19.2449C23.6544 19.2723 23.6635 19.2723 23.8461 19.3728C24.6134 19.8203 25.3806 20.2678 26.1478 20.7062C26.1478 20.8524 26.1843 20.9346 26.2757 20.9894L23.7548 19.528C23.6635 19.4824 23.627 19.391 23.627 19.2449C23.627 18.9435 23.8644 18.5416 24.3668 18.2585V18.2494Z" fill="white"/>
</mask>
<g mask="url(#mask6_2119_26871)">
<path d="M26.2753 20.9908L23.7544 19.5294C23.6631 19.4837 23.6266 19.3924 23.6266 19.2463C23.6266 19.2189 23.6266 19.1915 23.6266 19.1641L26.1474 20.6254C26.1474 20.6254 26.1474 20.6802 26.1474 20.7076C26.1474 20.8537 26.184 20.936 26.2753 20.9908Z" fill="#787879"/>
<path d="M26.1474 20.6255L23.6266 19.1642C23.6266 19.1642 23.6266 19.1276 23.6357 19.1094L26.1565 20.5707C26.1565 20.5707 26.1565 20.6073 26.1565 20.6255H26.1474Z" fill="#7D7C7D"/>
<path d="M26.1566 20.5695L23.6357 19.1082C23.6357 19.1082 23.6358 19.0808 23.6449 19.0625L26.1657 20.5239C26.1657 20.5239 26.1566 20.5513 26.1566 20.5695Z" fill="#818182"/>
<path d="M26.1749 20.5292L23.6541 19.0678C23.6541 19.0678 23.654 19.0404 23.6632 19.0312L26.184 20.4926C26.184 20.4926 26.184 20.52 26.1749 20.5383V20.5292Z" fill="#868587"/>
<path d="M26.1841 20.4822L23.6632 19.0209C23.6632 19.0209 23.6632 18.9935 23.6724 18.9844L26.1932 20.4457C26.1932 20.4457 26.184 20.4731 26.1749 20.4822H26.1841Z" fill="#8B8A8B"/>
<path d="M26.2023 20.4432L23.6815 18.9819C23.6815 18.9819 23.6906 18.9544 23.6998 18.9453L26.2206 20.4067C26.2206 20.4067 26.2115 20.4341 26.2023 20.4432Z" fill="#8F8F90"/>
<path d="M26.2115 20.4041L23.6907 18.9428C23.6907 18.9428 23.6998 18.9154 23.709 18.9062L26.2298 20.3676C26.2298 20.3676 26.2207 20.395 26.2115 20.4041Z" fill="#949394"/>
<path d="M26.2298 20.3729L23.709 18.9115C23.709 18.9115 23.7181 18.8841 23.7272 18.875L26.2481 20.3364C26.2481 20.3364 26.2389 20.3637 26.2298 20.3729Z" fill="#989899"/>
<path d="M26.2481 20.3338L23.7273 18.8725C23.7273 18.8725 23.7364 18.8451 23.7456 18.8359L26.2664 20.2973C26.2664 20.2973 26.2481 20.3247 26.239 20.3338H26.2481Z" fill="#9D9C9E"/>
<path d="M26.2748 20.2961L23.7539 18.8347C23.7539 18.8347 23.7722 18.8073 23.7813 18.7891L26.3022 20.2504C26.3022 20.2504 26.2839 20.2778 26.2748 20.2869V20.2961Z" fill="#A2A1A2"/>
<path d="M26.2939 20.2492L23.7731 18.7879C23.7731 18.7879 23.7913 18.7605 23.8005 18.7422L26.3213 20.2035C26.3213 20.2035 26.303 20.2309 26.2939 20.2492Z" fill="#A6A6A7"/>
<path d="M26.3214 20.2037L23.8005 18.7423C23.8005 18.7423 23.8279 18.7058 23.8371 18.6875L26.3579 20.1489C26.3579 20.1489 26.3305 20.1854 26.3214 20.2037Z" fill="#ABAAAC"/>
<path d="M26.3672 20.1503L23.8463 18.6889C23.8463 18.6889 23.8828 18.6433 23.9011 18.625L26.422 20.0864C26.422 20.0864 26.3854 20.1229 26.3672 20.1503Z" fill="#B0AFB0"/>
<path d="M26.4121 20.0904L23.8912 18.6291C23.8912 18.6291 23.9461 18.5743 23.9735 18.5469L26.4943 20.0082C26.4943 20.0082 26.4395 20.063 26.4121 20.0996V20.0904Z" fill="#B4B3B5"/>
<path d="M26.4945 19.9988L23.9736 18.5374C24.0832 18.437 24.2111 18.3365 24.3572 18.2452C24.4851 18.1721 24.613 18.1082 24.7226 18.0625L27.2434 19.5239C27.1338 19.5695 27.0059 19.6243 26.8781 19.7065C26.7228 19.7978 26.5949 19.8983 26.4853 19.9988H26.4945Z" fill="#B9B8BA"/>
<path d="M27.2434 19.5306L24.7225 18.0692C24.823 18.0236 24.9235 17.9962 25.0057 17.9688L27.5265 19.4301C27.4352 19.4575 27.3438 19.4849 27.2342 19.5306H27.2434Z" fill="#B4B3B5"/>
<path d="M27.5355 19.4367L25.0146 17.9753C25.0968 17.9571 25.1699 17.9388 25.2338 17.9297L27.7547 19.391C27.6908 19.391 27.6177 19.4184 27.5355 19.4367Z" fill="#B0AFB0"/>
</g>
<mask id="mask7_2119_26871" style="mask-type:luminance" maskUnits="userSpaceOnUse" x="24" y="16" width="5" height="3">
<path d="M26.9071 18.5991L24.3862 17.1377C24.9616 16.7998 25.3909 16.6901 25.7015 16.6719L28.2223 18.1332C27.9118 18.1515 27.4916 18.2702 26.9071 18.5991Z" fill="white"/>
</mask>
<g mask="url(#mask7_2119_26871)">
<path d="M26.9068 18.6104L24.386 17.149C24.5869 17.0303 24.7696 16.9389 24.934 16.875L27.4548 18.3363C27.2904 18.4003 27.1078 18.4916 26.9068 18.6104Z" fill="#9A2616"/>
<path d="M27.4544 18.3314L24.9336 16.8701C25.0706 16.8153 25.1893 16.7696 25.2989 16.7422L27.8198 18.2035C27.7102 18.2309 27.5914 18.2766 27.4544 18.3314Z" fill="#962516"/>
<path d="M27.8205 18.2115L25.2997 16.7501C25.3819 16.7227 25.4641 16.7044 25.5463 16.6953L28.0671 18.1567C27.9941 18.1658 27.9119 18.1841 27.8205 18.2115Z" fill="#922415"/>
<path d="M28.066 18.1515L25.5452 16.6901C25.6 16.6901 25.6456 16.6719 25.7004 16.6719L28.2213 18.1332C28.1756 18.1332 28.1208 18.1424 28.066 18.1515Z" fill="#8E2315"/>
</g>
<mask id="mask8_2119_26871" style="mask-type:luminance" maskUnits="userSpaceOnUse" x="22" y="20" width="5" height="3">
<path d="M22.8527 20.8559C23.0993 21.0021 23.4464 21.0203 22.46 20.0156L23.8665 20.9381C24.2866 21.1847 24.7068 21.4313 25.1269 21.6688C25.4466 21.8515 25.7754 22.0433 26.0951 22.2259L24.9808 21.4678L26.3873 22.3903C25.9672 22.4634 25.611 22.4451 25.3644 22.3081C24.6063 21.8697 23.6016 21.2852 22.8436 20.8468L22.8527 20.8559Z" fill="white"/>
</mask>
<g mask="url(#mask8_2119_26871)">
<path d="M25.3736 22.3207L22.8528 20.8594C22.8528 20.8594 22.9076 20.8868 22.935 20.9051L25.4558 22.3664C25.4558 22.3664 25.401 22.339 25.3736 22.3207Z" fill="#949394"/>
<path d="M25.4652 22.3598L22.9443 20.8984C22.9443 20.8984 23.0083 20.9258 23.0448 20.935L25.5565 22.3963C25.5565 22.3963 25.4926 22.3781 25.456 22.3598H25.4652Z" fill="#989899"/>
<path d="M25.5559 22.4066L23.0442 20.9453C23.0442 20.9453 23.1173 20.9636 23.1629 20.9727L25.6838 22.434C25.6838 22.434 25.6016 22.4158 25.565 22.4066H25.5559Z" fill="#9D9C9E"/>
<path d="M25.6749 22.4301L23.1541 20.9688C23.1997 20.9688 23.2545 20.987 23.3093 20.987L25.8302 22.4484C25.7754 22.4484 25.7297 22.4483 25.684 22.4301H25.6749Z" fill="#A2A1A2"/>
<path d="M25.8304 22.4379L23.3096 20.9766C23.3735 20.9766 23.4374 20.9766 23.5105 20.9766L26.0314 22.4379C25.9583 22.4379 25.8944 22.4379 25.8304 22.4379Z" fill="#A6A6A7"/>
<path d="M26.0318 22.4497L23.511 20.9883C23.6023 20.9883 23.6937 20.9701 23.7941 20.9609L26.315 22.4223C26.2145 22.4406 26.1232 22.4497 26.0318 22.4497Z" fill="#ABAAAC"/>
<path d="M26.3148 22.4158L23.7939 20.9544C23.7939 20.9544 23.8396 20.9544 23.867 20.9453L26.3878 22.4066C26.3878 22.4066 26.3422 22.4067 26.3148 22.4158Z" fill="#B0AFB0"/>
</g>
<path d="M21.0527 27.9692L18.5319 26.5078L21.8017 24.6172L24.3225 26.0785L21.0527 27.9692Z" fill="#C7C6C8"/>
<path d="M22.2119 26.2009L19.7002 24.7395L21.8009 23.5156L24.3217 24.9861L22.2119 26.2009Z" fill="#A52818"/>
<path d="M24.1033 23.7123L21.5825 22.2418L21.5734 21.1641L24.0942 22.6254L24.1033 23.7123Z" fill="#7C7B7C"/>
<path d="M6.5108 54.1146L3.98998 52.6533L3.98083 50.9453L6.50168 52.4066L6.5108 54.1146Z" fill="#606060"/>
<path d="M26.9063 18.6064C27.4908 18.2685 27.911 18.1589 28.2215 18.1406L27.9658 19.3645C27.7557 19.3645 27.3904 19.4193 26.8972 19.7116C26.3948 20.0039 26.1574 20.3966 26.1574 20.698C26.1574 21.0816 26.4496 21.0725 27.1072 20.9811C28.0115 20.835 28.4407 21.1364 28.4499 21.9676C28.4499 22.954 27.7922 24.187 26.3857 24.9999C25.8011 25.3378 25.2166 25.4839 24.9335 25.4657L25.1618 24.2327C25.4815 24.2327 25.9564 24.1413 26.4496 23.8582C26.9794 23.5476 27.2625 23.1275 27.2625 22.7439C27.2625 22.3786 27.0159 22.3055 26.3948 22.4151C25.5454 22.5612 24.9883 22.342 24.9883 21.4926C24.9883 20.4788 25.7098 19.3006 26.9154 18.6064H26.9063Z" fill="#942416"/>
<mask id="mask9_2119_26871" style="mask-type:luminance" maskUnits="userSpaceOnUse" x="22" y="17" width="5" height="6">
<path d="M25.3638 22.3206C24.5235 21.8365 23.6832 21.3433 22.8429 20.8593C22.5963 20.7131 22.4502 20.4483 22.4502 20.019C22.4502 19.0052 23.1717 17.827 24.3773 17.1328L26.8982 18.5942C25.6926 19.2883 24.9619 20.4665 24.971 21.4804C24.971 21.9096 25.108 22.1745 25.3546 22.3206H25.3638Z" fill="white"/>
</mask>
<g mask="url(#mask9_2119_26871)">
<path d="M25.3637 22.3205L22.8428 20.8591C22.5962 20.713 22.4501 20.4481 22.4501 20.0188C22.4501 19.9275 22.4501 19.827 22.4683 19.7266L24.9892 21.1879C24.98 21.2884 24.9709 21.3797 24.9709 21.4802C24.9709 21.9095 25.1079 22.1743 25.3545 22.3205H25.3637Z" fill="#64180F"/>
<path d="M24.9984 21.1935L22.4775 19.7322C22.4775 19.6683 22.4958 19.5952 22.5141 19.5312L25.0349 20.9926C25.0166 21.0565 25.0075 21.1296 24.9984 21.1935Z" fill="#68190F"/>
<path d="M25.035 20.9916L22.5142 19.5303C22.5233 19.4755 22.5415 19.4207 22.5507 19.375L25.0715 20.8363C25.0533 20.8911 25.0441 20.9459 25.035 20.9916Z" fill="#6C1A10"/>
<path d="M25.0716 20.8171L22.5508 19.3557C22.5599 19.3101 22.5782 19.2644 22.5965 19.2188L25.1173 20.6801C25.099 20.7258 25.0899 20.7714 25.0808 20.8171H25.0716Z" fill="#6F1B10"/>
<path d="M25.1082 20.683L22.5874 19.2216C22.5874 19.2216 22.6148 19.1394 22.6331 19.0938L25.1539 20.5551C25.1539 20.5551 25.1265 20.6373 25.1082 20.683Z" fill="#731C11"/>
<path d="M25.1623 20.5645L22.6415 19.1031C22.6415 19.1031 22.678 19.0209 22.6872 18.9844L25.208 20.4457C25.208 20.4457 25.1715 20.5279 25.1623 20.5645Z" fill="#771D11"/>
<path d="M25.2081 20.4395L22.6873 18.9781C22.6873 18.9781 22.7238 18.8959 22.7421 18.8594L25.2629 20.3207C25.2629 20.3207 25.2263 20.4029 25.2081 20.4395Z" fill="#7B1E12"/>
<path d="M25.2639 20.3067L22.743 18.8453C22.743 18.8453 22.7796 18.7631 22.807 18.7266L25.3278 20.1879C25.3278 20.1879 25.2821 20.2701 25.2639 20.3067Z" fill="#7F1F12"/>
<path d="M25.3271 20.1973L22.8063 18.7359C22.8063 18.7359 22.8519 18.6537 22.8702 18.6172L25.3911 20.0785C25.3911 20.0785 25.3454 20.1608 25.3271 20.1973Z" fill="#832013"/>
<path d="M25.3912 20.0814L22.8704 18.62C22.8704 18.62 22.9252 18.5379 22.9526 18.4922L25.4734 19.9535C25.4734 19.9535 25.4186 20.0357 25.4004 20.0814H25.3912Z" fill="#862114"/>
<path d="M25.4728 19.9499L22.9519 18.4886C22.9793 18.4429 23.0158 18.3972 23.0432 18.3516L25.5641 19.8129C25.5641 19.8129 25.5002 19.9043 25.4728 19.9499Z" fill="#8A2214"/>
<path d="M25.565 19.8106L23.0442 18.3492C23.0807 18.3036 23.1173 18.2488 23.1538 18.2031L25.6746 19.6645C25.6381 19.7101 25.6016 19.7649 25.565 19.8197V19.8106Z" fill="#8E2315"/>
<path d="M25.674 19.6661L23.1532 18.2048C23.1989 18.15 23.2445 18.0861 23.2993 18.0312L25.8202 19.4926C25.7745 19.5474 25.7197 19.6113 25.674 19.6661Z" fill="#922415"/>
<path d="M25.8113 19.4944L23.2905 18.033C23.3545 17.96 23.4275 17.8778 23.5097 17.8047L26.0306 19.266C25.9575 19.3391 25.8844 19.4213 25.8113 19.4944Z" fill="#962516"/>
<path d="M26.0302 19.2531L23.5094 17.7918C23.7651 17.5451 24.0574 17.3168 24.3862 17.125L26.9071 18.5864C26.5782 18.7782 26.286 18.9974 26.0302 19.2531Z" fill="#9A2616"/>
</g>
<path d="M22.2119 24.8074L19.691 23.346L21.5816 22.25L24.1025 23.7205L22.2119 24.8074Z" fill="#C7C6C8"/>
<path d="M22.2119 26.2025L19.7002 24.7412L19.691 23.3438L22.2119 24.8051V26.2025Z" fill="#7B7B7C"/>
<path d="M22.2027 23.7123L19.691 22.2509L21.5725 21.1641L24.0934 22.6254L22.2027 23.7123Z" fill="#A52818"/>
<path d="M24.2032 21.3386L21.6824 19.8681V18.7812L24.2032 20.2426V21.3386Z" fill="#7B7B7C"/>
<path d="M22.2027 22.4963L19.6819 21.035L21.6821 19.875L24.203 21.3455L22.2027 22.4963Z" fill="#C7C6C8"/>
<path d="M22.2027 23.7165L19.691 22.2551L19.6819 21.0312L22.2027 22.4926V23.7165Z" fill="#7B7B7C"/>
<path d="M17.873 29.8013L15.3613 28.34L16.5213 27.6641L19.0421 29.1254L17.873 29.8013Z" fill="#C7C6C8"/>
<path d="M45.895 25.2969V26.9957L6.49316 49.7381V48.0484L45.895 25.2969Z" fill="#8A8A8A"/>
<path d="M6.49338 49.7383L3.97253 48.2769V46.5781L6.49338 48.0486V49.7383Z" fill="#606060"/>
<path d="M21.0518 27.9618L18.531 26.5005L18.5219 20.6094L21.0336 22.0799L21.0518 27.9618Z" fill="#67190F"/>
<path d="M21.0336 22.0784L18.5219 20.6079L21.682 18.7812L24.2029 20.2426L21.0336 22.0784Z" fill="#A52818"/>
<path d="M24.2025 20.25V21.346L22.2023 22.4968V23.7207L24.0929 22.6339L24.102 23.7207L22.2114 24.8076V26.205L24.3212 24.9903V26.0772L21.0515 27.9678L21.0332 22.0858L24.2025 20.25Z" fill="#942416"/>
<path d="M20.4218 23.5522L17.901 22.0817V20.9766L20.4218 22.4379V23.5522Z" fill="#7B7B7C"/>
<path d="M19.0248 24.3524L16.5131 22.891L17.9013 22.0781L20.4222 23.5486L19.0248 24.3524Z" fill="#C7C6C8"/>
<path d="M19.043 29.1197L16.5222 27.6583L16.5131 22.8906L19.0248 24.352L19.043 29.1197Z" fill="#7B7B7C"/>
<path d="M45.9048 29.6641L45.914 31.3629L6.51217 54.1144L6.50305 52.4064L45.9048 29.6641Z" fill="#8A8A8A"/>
<path d="M17.8738 29.8006L15.3621 28.3393L15.3439 23.5625L17.8647 25.033L17.8738 29.8006Z" fill="#67190F"/>
<path d="M6.48419 45.3789L3.96337 43.9176L3.95422 42.2188L6.47507 43.6801L6.48419 45.3789Z" fill="#606060"/>
<path d="M45.8766 20.9297L45.8858 22.6285L6.48397 45.38L6.47485 43.6812L45.8766 20.9297Z" fill="#8A8A8A"/>
<path d="M16.485 25.8185L13.9733 24.3571L15.3433 23.5625L17.8641 25.033L16.485 25.8185Z" fill="#C7C6C8"/>
<path d="M16.4858 24.703L13.965 23.2416L17.9015 20.9766L20.4223 22.4379L16.4858 24.703Z" fill="#A52818"/>
<path d="M16.4858 25.8178L13.9741 24.3565L13.965 23.2422L16.4858 24.7035V25.8178Z" fill="#67190F"/>
<path d="M20.4221 22.4375V23.5518L19.0247 24.3555L19.043 29.1232L17.8739 29.7991L17.8648 25.0314L16.4856 25.8169V24.7026L20.4221 22.4375Z" fill="#942416"/>
<path d="M6.46592 41.0053L3.95421 39.5439L3.94507 37.8359L6.46592 39.2973V41.0053Z" fill="#606060"/>
<path d="M45.8682 16.5625L45.8774 18.2613L6.46643 41.0128V39.3049L45.8682 16.5625Z" fill="#8A8A8A"/>
<path d="M48.4796 1.47656L3.4425 27.4796L3.6069 86.1804L48.6349 60.1774L48.4705 1.47656H48.4796ZM32.761 15.3138V16.4281L31.3635 17.2409V22.0086L30.2127 22.6845V17.9168L28.8244 18.7114V17.5971L32.761 15.3229V15.3138ZM26.3858 22.4105C25.5364 22.5566 24.9792 22.3374 24.9792 21.488C24.9792 20.4742 25.7008 19.296 26.9064 18.6018C27.4909 18.2639 27.9111 18.1543 28.2216 18.136L27.9659 19.3599C27.7558 19.3599 27.3905 19.4147 26.8973 19.707C26.3949 19.9992 26.1574 20.392 26.1574 20.7025C26.1574 21.0861 26.4497 21.077 27.1073 20.9856C28.0115 20.8395 28.4408 21.1409 28.45 21.9721C28.45 22.9585 27.7923 24.1915 26.3858 25.0044C25.8012 25.3423 25.2167 25.4884 24.9336 25.4702L25.1619 24.2372C25.4816 24.2372 25.9565 24.1458 26.4497 23.8627C26.9795 23.5521 27.2626 23.132 27.2626 22.7484C27.2626 22.3831 27.016 22.31 26.3949 22.4196L26.3858 22.4105ZM24.2029 20.2458V21.3327L22.2027 22.4927V23.7166L24.0933 22.6297V23.7074L22.2118 24.7943V26.1917L24.3216 24.977V26.073L21.0518 27.9545L21.0336 22.0725L24.2029 20.2458ZM20.4216 22.4287V23.543L19.0242 24.3468L19.0425 29.1144L17.8825 29.7903V25.0226L16.4942 25.8173V24.703L20.4308 22.4287H20.4216ZM6.46568 39.2983L45.8675 16.5468V18.2547L6.46568 41.0062V39.2983ZM6.48394 43.6732L45.8857 20.9217V22.6205L6.48394 45.372V43.6732ZM6.49308 48.0481L45.8949 25.2966V26.9955L6.49308 49.747V48.0481ZM6.50222 52.4139L45.904 29.6624V31.3704L6.50222 54.1219V52.4139ZM6.52962 63.3375L45.9314 40.5861V42.2849L6.52962 65.0364V63.3375ZM6.53874 67.7125L45.9405 44.961V46.6598L6.53874 69.4113V67.7125ZM6.54788 72.0783L45.9497 49.3268V51.0348L6.55702 73.7862V72.0783H6.54788ZM6.56614 78.1429V76.4441L45.9588 53.6926V55.3914L6.56614 78.1429Z" fill="#E3E5E5"/>
<path d="M45.9681 53.6953L45.9772 55.3942L6.57543 78.1456L6.56628 76.4468L45.9681 53.6953Z" fill="#8A8A8A"/>
<path d="M45.9498 44.9688V46.6676L6.54797 69.4099V67.7111L45.9498 44.9688Z" fill="#8A8A8A"/>
<path d="M45.9316 40.5938L45.9407 42.2926L6.5389 65.044L6.52979 63.3452L45.9316 40.5938Z" fill="#8A8A8A"/>
<path d="M3.44272 27.48L0.921875 26.0095L45.959 0.015625L48.4799 1.47699L3.44272 27.48Z" fill="#E1EAEF"/>
<path d="M3.60712 86.1778L1.09541 84.7165L0.921875 26.0156L3.44272 27.4861L3.60712 86.1778Z" fill="#C8D2DB"/>
<path d="M30.2402 35.6528C30.2402 35.6528 28.1486 34.7395 27.9477 34.1915C27.7467 33.6343 26.9156 33.7439 27.217 34.3833C27.5184 35.0135 28.1578 35.4793 28.1578 35.4793C28.1578 35.4793 25.573 34.7395 25.6095 33.9266C25.646 33.1046 24.6596 35.8172 25.6187 36.7123C26.5777 37.6165 27.4636 38.7856 30.6329 37.7718C30.6329 37.7718 30.98 36.5205 30.2402 35.6528Z" fill="#F1B287"/>
<path d="M40.3143 21.1273C40.3143 21.1273 39.0174 18.8075 38.5698 18.4604C38.1132 18.1133 36.2317 16.5789 34.3228 17.0264C33.2907 17.2639 34.2588 18.0494 35.638 18.8166C36.2591 19.1637 36.7979 19.2824 37.1359 20.4332C37.3733 21.2644 38.104 22.3969 38.5242 22.8901C38.9443 23.3742 40.3143 21.1273 40.3143 21.1273Z" fill="#EFB185"/>
<path d="M38.4229 22.8136C38.0027 22.3295 37.3999 21.1696 36.6601 20.722C35.7742 20.174 36.2582 19.1602 35.6372 18.8223C34.5685 18.2286 33.7374 17.5893 33.9201 17.2422C34.6964 17.7537 35.7559 17.0412 37.2721 18.9227C37.8201 19.6078 38.7699 21.5166 39.0714 22.503C38.6877 22.8501 38.5964 23.0054 38.432 22.8136H38.4229Z" fill="#E6A376"/>
<path d="M39.1269 22.4004C39.1269 22.4004 36.5239 20.9391 35.8023 20.3728C35.0808 19.8156 34.8068 19.1215 35.026 19.0941C35.2452 19.0667 37.4829 20.6103 37.7934 19.6878C37.9578 19.2037 38.8072 22.099 39.1269 22.3913V22.4004Z" fill="#EFB185"/>
<path d="M60.1156 25.5862C60.1156 25.5862 61.1933 28.719 56.9006 29.2853C52.5987 29.8516 44.4791 29.9612 42.8077 28.4816C41.1362 27.0019 38.1222 22.3895 38.1222 22.3895C38.1222 22.3895 40.2594 22.216 40.3142 20.3984L45.977 25.294C45.977 25.294 59.4123 23.3759 60.1156 25.5862Z" fill="#304047"/>
<path d="M60.1156 25.5862C59.4032 23.3851 45.977 25.294 45.977 25.294L40.3142 20.3984C40.296 21.0743 39.9854 21.5219 39.611 21.8233C40.5974 23.2663 42.4241 25.842 43.6023 26.8741C45.2737 28.3537 53.3934 28.2441 57.6952 27.6778C58.9465 27.5134 59.732 27.1298 60.2252 26.6731C60.28 26.0612 60.1156 25.5862 60.1156 25.5862Z" fill="#354751"/>
<path d="M64.2623 79.5309C70.7836 83.2939 70.8201 89.4042 64.3353 93.1763C57.8597 96.9393 47.3106 96.9393 40.7893 93.1763C34.268 89.4133 34.2314 83.303 40.7162 79.54C47.201 75.7679 57.741 75.7679 64.2623 79.54V79.5309Z" fill="#92BAEB"/>
<path d="M53.6945 79.8438C53.6945 79.8438 52.1235 80.0812 52.5071 80.9854C52.8816 81.8896 54.69 83.2688 54.9275 83.8442C55.165 84.4105 56.6355 86.4564 57.1104 86.2737C57.5853 86.0819 58.8275 86.365 58.6814 84.036C58.5352 81.707 55.786 79.7524 53.6853 79.8529L53.6945 79.8438Z" fill="#111114"/>
<path d="M50.6995 88.4011C50.6995 88.4011 51.4576 90.6388 49.5579 91.1594C47.6581 91.68 48.2244 90.4927 44.0869 91.543C39.9495 92.5934 39.4745 90.4561 39.5658 89.9721C39.6572 89.4971 42.4155 88.6386 43.3197 88.4011C44.2239 88.1636 45.9319 87.7344 45.9319 87.7344H50.8365L50.6904 88.4011H50.6995Z" fill="#111114"/>
<path d="M58.5176 49.1562C58.5176 49.1562 58.545 62.6555 58.545 64.1808C58.545 65.7061 60.2438 77.6801 59.2209 82.9136C59.2209 82.9136 56.2799 85.8637 53.6768 82.9136C53.6768 82.9136 52.8457 67.9164 52.0876 64.5279C51.3387 61.1394 51.5853 50.7911 51.5853 50.7911L58.5176 49.1562Z" fill="#24323D"/>
<path d="M53.3481 51.0749C53.3481 51.0749 52.6813 59.7882 51.9872 68.4376C51.9872 68.4376 51.5488 85.5994 51.1469 88.0654C51.1469 88.0654 45.612 89.4354 45.064 86.8324C45.064 86.8324 45.201 71.7348 45.064 68.5746C44.927 65.4144 44.5982 56.6189 45.8495 51.5407C47.1008 46.4625 53.3572 51.0749 53.3572 51.0749H53.3481Z" fill="#2B3C4B"/>
<path d="M51.1463 88.0596C51.5482 85.5936 51.9866 68.4318 51.9866 68.4318C52.4524 62.6138 52.9091 56.7683 53.1557 53.5625L49.7398 54.4028C49.7398 54.4028 47.2737 60.8693 47.6482 70.569C47.9405 78.0767 48.0592 85.4566 48.1049 88.4249C49.6302 88.4432 51.1463 88.0596 51.1463 88.0596Z" fill="#314656"/>
<path d="M59.2203 82.9068C60.2432 77.6734 58.5444 65.6994 58.5444 64.1741C58.5444 62.6488 58.5261 50.4191 58.517 49.25L55.5486 51.5334C55.5486 51.5334 54.6079 61.1874 55.5486 66.6858C56.4071 71.6909 55.85 81.4272 56.2702 84.2221C57.9142 84.2221 59.2203 82.9068 59.2203 82.9068Z" fill="#2A3944"/>
<path d="M59.3388 24.6371C59.3388 24.6371 62.1885 26.062 60.5718 30.9118C58.9552 35.7617 57.8135 38.9036 57.9049 40.7029C58.0053 42.5113 58.663 48.5942 59.0466 49.8364C59.0466 49.8364 59.5215 53.8277 50.3972 56.2116C50.3972 56.2116 42.8803 56.9696 44.1225 52.0284C45.3555 47.0872 45.8395 39.0954 45.6477 37.1957C45.4559 35.2959 44.3143 31.4872 49.0728 28.9207C53.8313 26.3542 56.3065 24.4545 59.3479 24.6371H59.3388Z" fill="#354751"/>
<path d="M45.6477 37.1845C45.8395 39.0843 45.3646 47.0761 44.1225 52.0173C43.2639 55.4423 46.6159 56.1273 48.744 56.2278C49.429 54.0175 48.269 50.081 49.8583 45.2676C51.8128 39.3126 51.5388 35.3761 50.4885 32.2068C49.8035 30.1518 48.5704 30.097 47.6936 29.8047C44.5517 32.2981 45.465 35.4949 45.6386 37.1845H45.6477Z" fill="#304047"/>
<path d="M59.0562 49.8399C58.6726 48.5977 58.015 42.5148 57.9145 40.7064C57.8232 38.898 59.0014 35.7743 60.5815 30.9153C62.0703 26.3212 60.3258 25.1156 59.3485 24.6406C58.8461 27.0153 50.6077 28.0292 50.8087 29.6184C51.0279 31.3903 53.229 33.0434 53.3569 36.2127C53.4848 39.3821 53.0738 44.0767 52.5167 46.424C52.0326 48.4607 52.27 53.3837 52.7267 55.5118C59.4489 53.1279 59.0562 49.849 59.0562 49.849V49.8399Z" fill="#3B5059"/>
<path d="M55.9594 22.2405C55.9594 22.2405 55.658 24.7705 56.5257 26.3597C57.3203 27.8028 51.347 29.1089 51.2009 27.7754C51.1826 27.6293 52.3334 25.4555 50.8903 22.8616C50.1322 21.5099 55.9594 22.2314 55.9594 22.2314V22.2405Z" fill="#EFB185"/>
<path d="M56.4991 26.4529C55.8507 25.2747 55.8507 23.5759 55.8963 22.7812L51.5397 24.9459C51.5397 24.9459 51.5397 24.9459 51.5397 24.955C51.6949 24.9915 54.645 25.7405 55.2753 27.8595C56.1703 27.4941 56.7823 26.9826 56.49 26.462L56.4991 26.4529Z" fill="#DD9569"/>
<path d="M49.6759 15.5046C49.6759 15.5046 48.7442 17.8062 48.9361 19.7882C49.137 21.9254 48.8173 22.3547 48.9543 23.2954C49.0091 23.6973 49.0365 24.3184 49.4384 24.6929C50.096 25.3322 51.4569 25.5605 53.2927 24.8938C55.5121 24.0809 57.8595 21.0212 56.9096 18.272C55.9597 15.5229 53.0279 13.2669 49.685 15.5046H49.6759Z" fill="#EFB185"/>
<path d="M56.7995 21.2507C55.9044 18.7756 53.6941 15.8072 53.7124 15.6519C53.7215 15.5514 52.9908 15.0948 52.1505 14.6016C51.3651 14.6472 50.5339 14.9304 49.6662 15.5058C49.6662 15.5058 49.4196 16.1268 49.2004 16.9854C49.7302 17.5791 50.8079 18.2549 50.9723 18.7573C51.3559 19.9446 51.1367 21.7348 50.7897 22.5294C50.4334 23.324 51.8674 24.484 51.566 25.1873C51.5569 25.2238 51.5569 25.2512 51.566 25.2786C52.0775 25.2421 52.6529 25.1233 53.2831 24.895C54.7079 24.3744 56.1693 22.9313 56.7995 21.2507Z" fill="#E6A376"/>
<path d="M49.0178 14.5676C49.0178 14.5676 48.6982 16.5404 50.6436 17.4903C51.8127 18.0657 51.7031 19.9472 51.6483 20.2943C51.5935 20.6414 51.2464 22.2306 51.3926 22.4315C51.6666 22.8242 52.5799 21.6004 53.0183 21.6826C54.1235 21.9018 53.6942 22.9247 52.6895 24.0116C51.6209 25.1533 54.434 25.6282 55.731 24.6783C56.4251 24.176 56.6717 23.8746 57.585 22.0661C58.9094 19.4357 58.9733 16.2756 55.8588 14.5859C52.7534 12.9053 50.9542 15.3165 49.027 14.5585L49.0178 14.5676Z" fill="#221101"/>
<path d="M55.722 24.6862C56.4161 24.1838 56.6627 23.8824 57.5761 22.074C58.9004 19.4435 58.9644 16.2834 55.8499 14.5937C52.7445 12.9131 50.9452 15.3244 49.018 14.5663C49.018 14.5663 48.9632 14.9042 49.0363 15.3609C50.0227 15.5161 52.7171 16.0459 53.4112 17.2059C54.2698 18.6307 55.2196 18.174 55.1466 19.9459C55.0735 21.6539 55.5211 23.8916 52.644 24.8597C53.7126 25.6269 55.2196 25.0515 55.722 24.677V24.6862Z" fill="#341C09"/>
<path d="M51.5488 26.9866L49.6034 28.6215C49.6034 28.6215 55.6589 30.3568 57.4308 27.3884C57.6865 26.9683 57.376 25.5617 56.3256 25.2969C56.3256 25.2969 56.1155 27.7173 51.5488 26.9866Z" fill="#DEF0F9"/>
<path d="M49.3755 29.8771C49.3755 29.8771 51.7867 31.9687 48.4713 34.526C45.1558 37.0743 39.3378 41.1113 37.2189 40.6911C35.109 40.2618 29.428 38.3803 29.428 38.3803C29.428 38.3803 30.9716 36.9738 30.1404 35.4211L37.849 36.2888C37.849 36.2888 47.7132 28.3792 49.3664 29.8862L49.3755 29.8771Z" fill="#354751"/>
<path d="M49.3745 29.8764C47.7214 28.3785 37.8572 36.279 37.8572 36.279L30.1486 35.4113C30.3312 35.7493 30.3952 36.0781 30.3952 36.3886C32.8978 36.9275 37.5467 37.8774 38.6244 37.7312C39.9396 37.5577 48.0593 32.0137 49.9865 30.6984C49.7399 30.1778 49.3836 29.8673 49.3836 29.8673L49.3745 29.8764Z" fill="#304047"/>
</svg>
