<svg width="56" height="93" viewBox="0 0 56 93" fill="none" xmlns="http://www.w3.org/2000/svg">
<path d="M45.8998 91.7632L14.7198 73.7632C13.7498 73.2032 13.8798 72.2332 14.9898 71.5832L20.0498 68.6632C21.1698 68.0232 22.8498 67.9532 23.8198 68.5032L54.9998 86.5032C55.9698 87.0632 55.8398 88.0332 54.7298 88.6832L49.6698 91.6032C48.5498 92.2432 46.8698 92.3132 45.8998 91.7632Z" fill="#E3E8F0"/>
<path d="M34.5199 85.8585C34.5299 88.0385 31.4799 89.7985 27.7099 89.7885C23.9399 89.7885 20.8699 88.0085 20.8599 85.8285C20.8499 83.6485 23.8999 81.8885 27.6699 81.8985C31.4399 81.8985 34.5099 83.6785 34.5199 85.8585Z" fill="#E3E8F0"/>
<path d="M50.2999 16.4208L23.5099 0.950797C22.7799 0.530797 22.1099 0.500795 21.5899 0.800795L17.6499 3.0808C17.6499 3.0808 19.6399 4.0008 20.5899 4.4408V65.9808C20.5899 68.1308 21.8999 70.6308 23.5099 71.5608L48.6899 86.1008L48.2399 89.4808L52.1699 87.2108C52.8099 86.8708 53.2199 86.0308 53.2199 84.8208V22.0108C53.2199 19.8608 51.9099 17.3608 50.2999 16.4308V16.4208Z" fill="#001E4F"/>
<path d="M19.5599 73.8401L46.3499 89.3101C47.9599 90.2401 49.2699 89.2501 49.2699 87.1001V24.2901C49.2699 22.1401 47.9599 19.6401 46.3499 18.7101L19.5599 3.24013C17.9499 2.31013 16.6399 3.30013 16.6399 5.45013V68.2601C16.6399 70.4101 17.9499 72.9101 19.5599 73.8401Z" fill="#002766"/>
<path d="M48.2999 23.6444V86.6244C48.2999 88.1144 47.2499 88.7044 45.9499 87.9644L19.9599 72.9544C18.6699 72.2044 17.6199 70.3944 17.6199 68.9144V5.92437C17.6199 4.43437 18.6699 3.84437 19.9599 4.58437L24.7199 7.33437C25.1099 7.55437 25.4499 8.02437 25.5899 8.52437L25.8599 9.48437C25.9999 9.97437 26.3399 10.4444 26.7199 10.6744L39.1999 17.8744C39.5899 18.0944 39.9299 18.0244 40.0699 17.6844L40.3399 17.0244C40.4799 16.6944 40.8199 16.6144 41.2099 16.8344L45.9699 19.5844C47.2699 20.3344 48.3199 22.1444 48.3199 23.6244L48.2999 23.6444Z" fill="#7ABEFF"/>
<path d="M48.2999 23.6422V26.1122L17.6199 8.40218V5.93218C17.6199 4.44218 18.6699 3.85218 19.9599 4.59218L24.7199 7.34218C25.1099 7.56218 25.4499 8.03218 25.5899 8.53218L25.8599 9.49218C25.9999 9.98218 26.3399 10.4522 26.7199 10.6822L39.1999 17.8822C39.5899 18.1022 39.9299 18.0322 40.0699 17.6922L40.3399 17.0322C40.4799 16.7022 40.8199 16.6222 41.2099 16.8422L45.9699 19.5922C47.2699 20.3422 48.3199 22.1522 48.3199 23.6322L48.2999 23.6422Z" fill="#367AFF"/>
<path d="M20.25 11.7422V61.9722L45.66 76.6422V26.4122L20.25 11.7422Z" fill="white"/>
<path d="M26.99 28.4129V29.4529C26.99 29.7929 27.17 30.1029 27.47 30.2729L36.25 35.3429C36.42 35.4429 36.64 35.3129 36.64 35.1129V34.0729C36.64 33.7329 36.46 33.4229 36.16 33.2529L27.38 28.1829C27.21 28.0829 26.99 28.2129 26.99 28.4129Z" fill="#D5E0F1"/>
<path d="M30.8799 33.6206V34.2406C30.8799 34.4406 30.9899 34.6306 31.1599 34.7306L36.3999 37.7506C36.4999 37.8106 36.6299 37.7406 36.6299 37.6206V37.0006C36.6299 36.8006 36.5199 36.6106 36.3499 36.5106L31.1099 33.4906C31.0099 33.4306 30.8799 33.5006 30.8799 33.6206Z" fill="#D5E0F1"/>
<path d="M17.6199 68.8991V63.0391L48.2999 80.7491V86.6091C48.2999 88.0991 47.2499 88.6891 45.9599 87.9491L19.9699 72.9391C18.6699 72.1891 17.6199 70.3791 17.6199 68.8991Z" fill="#367AFF"/>
<path d="M37.9799 80.9097L35.7099 79.5996C35.4399 79.4396 35.2599 79.0097 35.3799 78.7997L36.5099 76.8496C36.6499 76.6196 37.0299 76.8497 37.1699 77.2297L38.2999 80.4797C38.4199 80.8297 38.2399 81.0596 37.9699 80.8996L37.9799 80.9097Z" fill="#7ABEFF"/>
<path d="M30.0199 76.9027L28.1299 75.8127C27.6999 75.5627 27.3499 74.8927 27.3499 74.3227V72.4427C27.3499 71.8627 27.6999 71.6027 28.1299 71.8527L30.0199 72.9427C30.4499 73.1927 30.7999 73.8627 30.7999 74.4327V76.3127C30.7999 76.8927 30.4499 77.1527 30.0199 76.9027Z" fill="#7ABEFF"/>
<path d="M29.6399 73.1355C29.6399 73.7055 30.0399 74.3955 30.5399 74.6855C31.0399 74.9755 31.4399 74.7455 31.4399 74.1755C31.4399 73.6055 31.0399 72.9155 30.5399 72.6255C30.0399 72.3355 29.6399 72.5655 29.6399 73.1355Z" fill="#C73653"/>
<path d="M44.5699 83.7672L41.6899 82.1072C41.5299 82.0172 41.3999 81.7672 41.3999 81.5572V81.4172C41.3999 81.2072 41.5299 81.1072 41.6899 81.1972L44.5699 82.8572C44.7299 82.9472 44.8599 83.1972 44.8599 83.4072V83.5472C44.8599 83.7572 44.7299 83.8572 44.5699 83.7672Z" fill="#7ABEFF"/>
<path d="M44.5699 85.2984L41.6899 83.6384C41.5299 83.5484 41.3999 83.2984 41.3999 83.0884V82.9484C41.3999 82.7384 41.5299 82.6384 41.6899 82.7284L44.5699 84.3884C44.7299 84.4784 44.8599 84.7284 44.8599 84.9384V85.0784C44.8599 85.2884 44.7299 85.3884 44.5699 85.2984Z" fill="#7ABEFF"/>
<path d="M44.5699 82.2359L41.6899 80.5759C41.5299 80.4859 41.3999 80.2359 41.3999 80.0259V79.8859C41.3999 79.6759 41.5299 79.5759 41.6899 79.6659L44.5699 81.3259C44.7299 81.4159 44.8599 81.6659 44.8599 81.8759V82.0159C44.8599 82.2259 44.7299 82.3259 44.5699 82.2359Z" fill="#7ABEFF"/>
<path d="M21.5398 71.999L21.0598 71.719C20.2398 71.249 19.5698 69.969 19.5698 68.879C19.5698 67.789 20.2398 67.279 21.0598 67.759L21.5398 68.039C22.3598 68.509 23.0298 69.789 23.0298 70.879C23.0298 71.969 22.3598 72.479 21.5398 71.999Z" fill="#7ABEFF"/>
<path d="M19.7398 34.9531C19.7398 34.9531 17.9998 36.1331 17.6198 36.7731C17.2398 37.4131 16.6398 39.2531 16.8498 39.5131C17.0598 39.7731 19.0498 39.5331 19.8598 39.2931C20.6698 39.0531 22.6998 38.1031 22.7498 37.9131C22.7998 37.7231 19.7398 34.9631 19.7398 34.9631V34.9531Z" fill="#FF9C78"/>
<path d="M27.9099 29.3527C26.2899 29.0927 25.0199 29.7827 24.1399 30.5627C23.2599 31.3327 19.3399 34.5927 19.2399 35.0927C19.1399 35.5927 20.1299 37.6027 20.7499 38.0227C21.3699 38.4327 22.4499 38.6427 22.4499 38.6427C22.4499 38.6427 27.4199 32.6727 27.6299 31.5927C27.8399 30.5127 27.9099 29.3727 27.9099 29.3727V29.3527Z" fill="#ED3E3F"/>
<path d="M31.3998 28.9138C34.6898 33.9638 31.5498 38.3538 40.8698 35.1338C36.8998 32.5938 33.0898 31.7338 36.2298 29.2938C39.3698 26.8538 37.7198 21.6738 33.8698 22.6938C30.0198 23.7138 31.3998 28.9138 31.3998 28.9138Z" fill="#291925"/>
<path d="M34.8799 22.3906C35.8699 22.5206 37.1399 24.6406 35.1399 26.0906C33.1399 27.5406 34.8799 22.3906 34.8799 22.3906Z" fill="#E22829"/>
<path d="M23.7998 79.7697C23.7998 79.8197 22.5998 81.1597 21.5098 81.8197C20.4198 82.4797 18.8898 83.8197 18.6398 84.4197C18.3798 85.0197 19.0698 85.9997 19.7598 86.0397C20.4498 86.0697 22.4298 85.2097 23.2998 84.2697C24.1798 83.3197 26.8298 82.7897 26.9298 82.0197C27.0298 81.2497 26.5298 79.1797 26.5298 79.1797L23.7898 79.7797L23.7998 79.7697Z" fill="#212430"/>
<path d="M35.0998 80.5153C35.0798 80.5653 34.2198 82.8053 34.2198 82.8053C34.2198 82.8053 32.2098 86.2253 32.0898 86.8853C31.9698 87.5353 32.1598 87.7753 32.1598 87.7753C32.1598 87.7753 33.1198 88.3753 34.3998 88.1353C35.6698 87.8953 36.5998 86.9353 36.8098 85.9853C37.0198 85.0353 37.4498 83.8553 37.6198 83.4353C37.7898 83.0253 37.5998 82.0553 37.4698 81.1853C37.3298 80.3053 36.1598 79.9453 36.1598 79.9453L35.1098 80.5153H35.0998Z" fill="#212430"/>
<path d="M23.7998 79.2541C23.7998 79.3041 22.5998 80.6441 21.5098 81.3041C20.4298 81.9541 18.8898 83.3041 18.6398 83.9041C18.3898 84.5041 19.0698 85.4841 19.7598 85.5241C20.4498 85.5541 22.4298 84.6941 23.2998 83.7541C24.1798 82.8041 26.8298 82.2741 26.9298 81.5041C27.0298 80.7341 26.5298 78.6641 26.5298 78.6641L23.7898 79.2641L23.7998 79.2541Z" fill="white"/>
<path d="M23.5198 79.2625C23.0598 80.2825 22.3798 80.6325 21.8698 81.3625C21.3598 82.0925 22.7998 82.3025 24.2498 81.5625C25.2698 81.0425 26.8298 80.4425 26.7898 79.9225C26.7498 79.3925 25.9798 78.3125 25.9798 78.3125L23.5098 79.2725L23.5198 79.2625Z" fill="#FF9C78"/>
<path d="M35.0998 79.9841C35.0798 80.0341 34.2198 82.2741 34.2198 82.2741C34.2198 82.2741 32.2098 85.6941 32.0898 86.3541C31.9698 87.0041 32.1598 87.2441 32.1598 87.2441C32.1598 87.2441 33.1198 87.8441 34.3998 87.6041C35.6698 87.3641 36.5998 86.4041 36.8098 85.4541C37.0198 84.5041 37.4498 83.3241 37.6198 82.9041C37.7898 82.4941 37.5998 81.5241 37.4698 80.6541C37.3298 79.7741 36.1598 79.4141 36.1598 79.4141L35.1098 79.9841H35.0998Z" fill="white"/>
<path d="M34.61 80.9631C34.63 81.6931 33.79 83.4331 34.25 83.9231C34.71 84.4131 36.0299 83.9931 36.5099 82.9631C36.9899 81.9331 37.61 81.8231 37.5 81.0531C37.39 80.2831 36.75 80.2031 36.75 80.2031L34.61 80.9631Z" fill="#FF9C78"/>
<path d="M23.0898 49.2812C21.9598 51.3112 22.2798 54.5913 22.5798 58.8713C22.7698 61.5213 23.0198 64.7613 23.1098 65.9713C23.1998 67.1813 26.5498 68.8012 27.4798 68.4912C28.4098 68.1812 29.0298 65.2613 29.0298 65.2613C29.0298 65.2613 29.4398 55.6212 29.0298 53.4912C28.6198 51.3612 26.2798 49.9113 26.2798 49.9113L23.0898 49.2913V49.2812Z" fill="#2B3242"/>
<path d="M26.42 52.2409C26.39 55.1709 26.42 55.9609 26.87 56.4409C27.32 56.9209 27.73 57.2009 27.73 57.2009C27.73 57.2009 27.86 60.4009 29.22 63.4609C30.58 66.5209 30.93 68.4209 32.06 68.9709C33.19 69.5209 35.4 68.6909 35.67 68.0809C35.95 67.4609 35.74 65.7709 35.74 65.7709C35.74 65.7709 35.4 62.0509 35.64 60.4009C35.88 58.7509 36 55.5209 35.72 53.2809C35.44 51.0409 33.45 47.7109 33.45 47.7109L26.42 52.2409Z" fill="#333C4F"/>
<path d="M31.8898 65.3497C31.8898 65.3497 29.2398 63.3297 30.5398 66.7097C31.8398 70.0897 33.6398 79.9797 34.2898 81.0497C34.9398 82.1197 37.2498 81.3597 37.4898 81.0497C37.7298 80.7397 37.2898 71.9897 37.0098 69.8597C36.7298 67.7297 34.7398 64.1797 34.7398 64.1797L31.8798 65.3497H31.8898Z" fill="#333C4F"/>
<path d="M23.1099 65.9634C23.0599 70.2934 23.1099 79.2434 23.1099 79.6234C23.1099 80.0034 23.4199 80.6334 24.6999 80.5234C26.5099 80.3634 26.9399 79.4234 26.9399 79.4234C26.9399 79.4234 28.5099 71.9634 28.7799 69.6234C29.0599 67.2834 28.4999 63.7734 28.4999 63.7734L23.0999 65.9734L23.1099 65.9634Z" fill="#2B3242"/>
<path d="M37.5499 38.5683C37.4199 36.7383 36.8299 35.4483 35.6099 33.8683C34.3999 32.2983 32.5399 30.4383 31.9699 29.8983C31.3999 29.3583 27.6899 29.1983 26.2399 29.5083C24.7899 29.8183 23.5599 31.1883 22.4699 34.7183C21.3899 38.2583 21.5699 39.4183 21.8199 40.5983C22.0699 41.7783 22.3899 42.9483 22.6199 44.4683C22.8499 45.9883 22.5899 49.8583 22.6499 50.3783C22.6999 50.8983 24.3799 53.2183 27.2699 53.6283C30.1599 54.0383 32.2999 52.9083 33.3099 52.2083C34.3199 51.5083 34.5699 50.3483 34.6299 49.8883C34.6799 49.4283 34.7599 47.3883 35.1699 45.8383C35.5799 44.2883 37.5399 38.5583 37.5399 38.5583L37.5499 38.5683Z" fill="#E22829"/>
<path d="M36.95 44.1715C36.95 44.1715 38.24 46.0815 39.63 46.7315C41.02 47.3815 42.65 46.7815 42.83 46.3215C43.01 45.8615 41.72 42.5315 40.61 41.5515C39.5 40.5715 36.95 44.1815 36.95 44.1815V44.1715Z" fill="#FF9C78"/>
<path d="M40.5898 45.2805C39.8398 45.0205 39.1098 44.8705 37.9998 45.1505C36.8898 45.4305 31.4898 47.9605 30.4498 47.8905C29.4098 47.8105 28.5398 47.6405 27.9598 47.7005C27.3698 47.7605 26.5698 48.6305 26.2798 48.8105C25.9898 48.9905 26.3198 49.2705 26.3198 49.2705L27.3998 49.1205C27.3998 49.1205 25.0798 51.2105 24.9098 51.5105C24.7498 51.8105 25.1898 52.0005 25.1898 52.0005C25.1898 52.0005 24.8698 52.2605 25.0598 52.4605C25.2498 52.6605 25.6098 52.5705 25.6098 52.5705C25.6098 52.5705 25.4798 52.7905 25.7898 52.8305C26.0998 52.8705 26.4198 52.7105 26.4198 52.7105C26.4198 52.7105 26.3598 53.0205 26.7298 53.0205C27.0998 53.0205 28.7898 52.6405 29.4998 52.2105C30.2098 51.7805 30.8398 51.0605 30.8398 51.0605C30.8398 51.0605 31.7398 50.2105 32.2898 50.0505C32.8298 49.9005 42.6698 48.1505 42.8198 46.2905C42.2998 45.1805 40.5698 45.2605 40.5698 45.2605L40.5898 45.2805Z" fill="#FF9C78"/>
<path d="M18.9499 36.6485C18.9099 37.2185 18.8499 38.5885 17.9299 39.0085C17.9299 39.0085 17.2199 39.6085 16.8499 39.5085C16.4699 39.3985 15.7699 38.3585 15.1699 36.6185C14.5799 34.8785 13.7599 30.1885 13.7599 30.1885C13.7599 30.1885 13.3699 30.0385 13.0099 29.8685C12.6499 29.6985 12.2099 29.2985 12.2099 29.2985C12.2099 29.2985 12.0499 29.2285 11.9199 29.0985C11.8499 29.0285 11.7799 28.9385 11.7699 28.8385C11.7199 28.5585 11.9099 27.8085 11.8999 27.4685C11.8999 27.1385 12.1099 26.4685 12.1099 26.4685C12.1099 26.4685 12.1699 26.2785 12.1699 26.0085C12.1699 25.8085 12.3699 25.6385 12.7399 25.5185C12.8799 25.4685 13.0499 25.4385 13.2399 25.4085C13.9299 25.3085 14.2399 25.6485 14.5699 25.9385C14.8999 26.2285 15.5199 27.8985 15.7099 28.5185C15.8999 29.1385 17.2199 32.9585 17.7599 33.8885C18.2899 34.8185 18.9999 36.0885 18.9699 36.6585L18.9499 36.6485Z" fill="#FF9C78"/>
<path d="M14.1098 28.6285C13.9698 28.3985 14.0198 27.3385 13.9798 27.0785C13.9398 26.8185 13.7498 26.7185 13.7498 26.7185C13.7498 26.7185 13.3898 27.1485 12.9098 27.1185C12.4298 27.0885 12.4698 26.7785 12.6298 26.5885C12.7798 26.3985 13.5298 25.9985 13.7398 25.8685C13.9498 25.7385 14.9798 26.3885 15.2498 26.7285C15.5198 27.0785 15.6398 28.2785 15.6598 28.6285C15.6898 28.9785 15.2298 29.0785 14.7298 28.9985C14.2298 28.9185 14.1098 28.6285 14.1098 28.6285Z" fill="#FF9C78"/>
<path d="M25.8699 29.105C27.0699 29.585 27.0099 30.465 26.9999 31.405C26.9799 32.345 26.9299 33.155 26.9999 33.525C27.0799 33.885 27.3199 34.265 29.0899 34.295C30.8599 34.325 31.9499 33.085 32.2599 32.455C32.5699 31.825 31.8599 29.795 31.8599 29.115C31.8599 28.435 32.8399 25.565 32.8399 25.565L28.7299 24.375L25.8699 29.115V29.105Z" fill="#FF9C78"/>
<path d="M30.0097 23.7095C30.0097 23.7095 28.4997 28.1396 27.5997 28.7896C26.6997 29.4396 26.4097 29.3296 26.4097 29.3296C26.4097 29.3296 24.3997 29.1996 23.8597 28.7896C23.3297 28.3796 23.7897 25.8596 23.7897 25.8596C23.7897 25.8596 22.9297 25.4395 23.2897 24.9595C23.6497 24.4795 24.4397 24.3896 24.4797 23.7196C24.5097 23.0496 24.8397 21.4296 26.5997 20.1796C28.3597 18.9196 29.9997 23.7196 29.9997 23.7196L30.0097 23.7095Z" fill="#FF9C78"/>
<path d="M26.3998 21.3922C26.7398 21.9222 27.4698 22.1622 27.4798 22.5822C27.4998 22.9922 26.9498 23.3422 27.1198 23.8922C27.2898 24.4422 27.7398 24.7522 27.7398 25.1522C27.7398 25.5522 27.4098 27.1322 27.4098 27.1322C27.4098 27.1322 27.9998 26.3022 28.4798 26.1722C28.9598 26.0322 29.7998 25.8322 30.0998 26.1522C30.3898 26.4822 29.4598 27.2722 29.5898 27.9722C29.7198 28.6822 30.0298 30.2122 30.1898 30.3122C30.3498 30.4122 30.7298 30.8222 32.0698 30.3122C33.4098 29.7922 34.9998 27.6822 35.4298 25.5922C35.8598 23.4922 35.4598 22.5822 34.0898 20.8822C32.7098 19.1822 30.6698 19.0622 29.3598 18.8722C28.0498 18.6822 26.1898 19.8522 26.0198 20.4422C25.9998 20.7022 26.3998 20.7322 26.4298 20.9222C26.4598 21.1122 26.3998 21.4222 26.3998 21.4222V21.3922Z" fill="#291925"/>
<path d="M29.0999 26.4207C29.3999 25.7407 30.0499 25.9007 30.3499 26.2807C30.6499 26.6607 30.3499 27.3607 29.7999 27.7107C29.2499 28.0607 28.8099 28.1707 28.4299 27.8507C28.0499 27.5307 28.6899 27.2007 28.8599 26.9907C29.0299 26.7907 29.1099 26.4107 29.1099 26.4107L29.0999 26.4207Z" fill="#FF9C78"/>
<path d="M34.8098 34.9531C33.2098 35.4431 32.3298 36.5231 32.0698 38.3631C31.8098 40.2031 32.5298 41.5331 32.9498 42.0031C33.3598 42.4631 37.5398 45.4131 37.5398 45.4131C37.5398 45.4131 41.7998 43.1131 41.4898 42.1331C41.1798 41.1531 36.8998 35.8731 36.6398 35.4231C36.3798 34.9731 34.8098 34.9531 34.8098 34.9531Z" fill="#ED3E3F"/>
<path d="M13.3299 33.0544L12.5299 32.7844C12.3799 32.5844 12.3299 32.5944 12.3499 32.3944L12.7599 26.9844L13.7699 28.3444L13.3299 33.0544Z" fill="#B52F30"/>
<path d="M13.77 28.3381L12.75 26.9881V24.0781L13.77 25.4381V28.3381Z" fill="#D900AE"/>
<path d="M13.7698 25.4356L15.8498 24.7656C15.8498 24.9356 15.7198 27.8656 15.6298 28.4656C15.6098 28.5956 15.0198 28.4856 14.9698 28.8456C14.8298 29.8456 14.2798 31.4856 14.1698 32.3856C14.1298 32.7156 13.3498 33.0556 13.3298 33.0556L13.7698 28.3456V25.4356Z" fill="#B52F30"/>
<path d="M13.6599 26.2378C13.6599 26.2378 13.7899 27.1878 13.7899 27.3778C13.7899 27.5678 13.6599 27.8178 13.6599 27.9978C13.6599 28.1778 13.4699 28.3578 13.5199 28.5478C13.5699 28.7378 13.5199 29.0178 12.9599 29.0278C12.9599 29.0278 12.4299 29.1078 11.9199 29.0878C11.8499 29.0178 11.7799 28.9278 11.7699 28.8278C11.7199 28.5478 11.9099 27.7978 11.8999 27.4578C11.8999 27.1278 12.1099 26.4578 12.1099 26.4578C12.1099 26.4578 12.1699 26.2678 12.1699 25.9978C12.1699 25.7978 12.3699 25.6278 12.7399 25.5078C12.7899 25.5378 12.8499 25.5578 12.8999 25.5578C13.2199 25.5578 13.7399 25.8678 13.8599 25.8578C13.9799 25.8478 13.6599 26.2478 13.6599 26.2478V26.2378Z" fill="#FF9C78"/>
<path d="M4.94978 15.628C4.87978 19.048 3.76979 23.768 2.46979 26.168C1.16979 28.568 0.16979 27.748 0.23979 24.338C0.30979 20.928 1.41979 16.198 2.71979 13.798C4.01979 11.398 5.01978 12.218 4.94978 15.628ZM2.62979 19.918C2.62979 19.868 2.61979 19.858 2.59979 19.888C2.57979 19.918 2.55978 19.998 2.55978 20.048C2.55978 20.098 2.56978 20.108 2.58978 20.078C2.60978 20.048 2.62979 19.968 2.62979 19.918Z" fill="#FFFEFC"/>
<path d="M1.12988 27.545C1.49988 27.545 1.95988 27.105 2.46988 26.165C3.76988 23.765 4.87987 19.045 4.94987 15.625L7.38988 16.435C7.31988 19.625 6.28989 24.045 5.06989 26.285C4.59989 27.165 4.15989 27.575 3.81989 27.575C2.92989 27.565 2.02988 27.545 1.13988 27.535L1.12988 27.545Z" fill="#FFFEFC"/>
<path d="M6.70973 13.4653C7.15973 13.6553 7.42972 14.6753 7.38972 16.4353L4.94972 15.6253C4.98972 13.7353 4.69973 12.6453 4.21973 12.4453C5.04973 12.7853 5.87972 13.1253 6.69972 13.4653H6.70973Z" fill="#FFFEFC"/>
<path d="M3.94971 27.5653C4.26971 27.4753 4.64972 27.0653 5.06972 26.2953C6.28972 24.0453 7.32971 19.6353 7.38971 16.4453L13.3797 20.2053C13.3497 21.8853 12.7997 24.2053 12.1597 25.3953C11.9397 25.7953 11.7397 26.0153 11.5697 26.0653C9.13972 26.7253 6.37971 26.9153 3.94971 27.5753V27.5653Z" fill="#FFFEFC"/>
<path d="M13.0798 18.6691C13.2798 18.8291 13.3998 19.3491 13.3798 20.1991L7.38982 16.4391C7.41982 14.8291 7.19982 13.8391 6.81982 13.5391C8.78982 15.0991 11.1098 17.1091 13.0798 18.6691Z" fill="#FFFEFC"/>
<path d="M2.61987 19.8672C7.34987 20.8772 12.4099 22.3372 17.1399 23.3472L2.62988 19.9172C2.62988 19.9172 2.62987 19.8672 2.61987 19.8672Z" fill="#FFFEFC"/>
<path d="M17.1398 23.3519C12.3998 22.4219 7.31982 21.0319 2.56982 20.1019C2.56982 20.1019 2.57981 20.1019 2.58981 20.0819C2.60981 20.0419 2.62982 19.9719 2.62982 19.9219L17.1398 23.3519Z" fill="#FFFEFC"/>
<path d="M2.57982 20.0894C2.57982 20.0894 2.56982 20.0694 2.56982 20.0394C2.56982 19.9894 2.58982 19.9194 2.60982 19.8794C2.60982 19.8594 2.62982 19.8594 2.62982 19.8594C7.35982 20.8694 12.4198 22.3294 17.1498 23.3394C16.7198 23.2594 16.1498 23.1394 15.7298 23.0594C15.5198 23.0194 15.2298 22.9594 15.0198 22.9194C14.5898 22.8394 14.0198 22.7194 13.5998 22.6394C13.3898 22.5994 13.0998 22.5394 12.8898 22.4994C12.4598 22.4194 11.8898 22.2994 11.4698 22.2194C11.2598 22.1794 10.9698 22.1194 10.7598 22.0794C10.5498 22.0394 10.2598 21.9794 10.0498 21.9394C7.67982 21.4694 4.96982 20.5494 2.59982 20.0794L2.57982 20.0894Z" fill="#FFFEFC"/>
<path d="M5.30989 14.7274C5.90989 13.6074 6.4499 13.2374 6.8199 13.5374C6.9299 13.5374 7.02989 13.6974 7.11989 13.7674C7.20989 13.8374 12.0999 17.8874 13.0799 18.6674C12.8799 18.5074 12.5999 18.7074 12.2799 19.2974C11.6399 20.4774 11.0899 22.8074 11.0599 24.4874C11.0399 25.5974 11.2399 26.1474 11.5699 26.0574C9.1399 26.7174 6.37989 26.9074 3.94989 27.5674C3.32989 27.7374 2.9399 26.6874 2.9899 24.5774C3.0599 21.3874 4.08989 16.9674 5.30989 14.7274Z" fill="url(#paint0_linear_2119_26631)"/>
<path d="M13.3797 20.1953C13.3697 20.8953 13.2597 21.6953 13.0997 22.4853C14.4497 22.7753 15.7897 23.0553 17.1397 23.3453C16.9697 23.3153 16.7697 23.2753 16.5697 23.2353C16.4997 23.2253 16.4397 23.2053 16.3697 23.1953C16.3197 23.1853 16.2597 23.1753 16.2097 23.1653C16.1697 23.1653 16.1397 23.1553 16.0997 23.1453C15.9697 23.1153 15.8397 23.0953 15.7197 23.0753C15.6897 23.0753 15.6697 23.0653 15.6397 23.0553C15.6397 23.0553 15.5597 23.0353 15.5097 23.0353C15.5097 23.0353 15.5097 23.0353 15.4997 23.0353C15.4297 23.0253 15.3497 23.0053 15.2797 22.9953C15.2497 22.9953 15.2197 22.9853 15.1897 22.9753C15.1297 22.9653 15.0697 22.9553 15.0197 22.9453C14.8897 22.9153 14.7497 22.8953 14.5997 22.8653H14.5797C14.5797 22.8653 14.4897 22.8453 14.4397 22.8353C14.3597 22.8253 14.2897 22.8053 14.2097 22.7953C14.1597 22.7953 14.1097 22.7753 14.0597 22.7653C14.0397 22.7653 14.0097 22.7653 13.9897 22.7553C13.8497 22.7253 13.7197 22.7053 13.5897 22.6753C13.4397 22.6453 13.2597 22.6153 13.0997 22.5753C12.8697 23.6753 12.5397 24.7253 12.1697 25.4053C11.9097 25.8853 11.6697 26.1053 11.4797 26.0853C13.1397 26.3253 14.7997 26.5553 16.4597 26.7953C16.6297 26.8153 16.8497 26.6153 17.0897 26.1753C17.6797 25.0853 18.1797 22.9553 18.2097 21.4053L13.3797 20.2253V20.1953Z" fill="#FFFEFC"/>
<path d="M17.8497 19.925C18.0797 19.985 18.2197 20.485 18.2097 21.375L13.3797 20.195C13.3997 19.235 13.2497 18.685 12.9897 18.625C14.6097 19.065 16.2297 19.495 17.8497 19.935V19.925Z" fill="#FFFEFC"/>
<path d="M18.2098 21.3776C18.1798 22.9276 17.6798 25.0576 17.0898 26.1476C16.4998 27.2376 16.0498 26.8676 16.0798 25.3176C16.1098 23.7676 16.6098 21.6376 17.1998 20.5476C17.7898 19.4576 18.2398 19.8276 18.2098 21.3776Z" fill="#ED3E3F"/>
<path d="M16.4498 26.7666C14.7898 26.5266 13.1298 26.2966 11.4698 26.0566C11.1998 26.0166 11.0398 25.4666 11.0598 24.4766C11.0898 22.7966 11.6398 20.4766 12.2798 19.2866C12.5498 18.7766 12.7998 18.5666 12.9898 18.6166C14.6098 19.0566 16.2298 19.4866 17.8498 19.9266C17.6798 19.8766 17.4498 20.0766 17.1998 20.5466C16.6098 21.6366 16.1098 23.7666 16.0798 25.3166C16.0598 26.2266 16.2098 26.7366 16.4598 26.7666H16.4498Z" fill="#ED3E3F"/>
<path d="M12.2798 19.3022C12.5498 18.7922 12.7998 18.5822 12.9898 18.6322C13.4898 18.7622 13.9798 18.9022 14.4798 19.0322C14.3398 19.1322 14.1798 19.3222 14.0098 19.6322C13.3698 20.8122 12.8198 23.1422 12.7898 24.8222C12.7698 25.5922 12.8698 26.0922 13.0398 26.2922C12.5198 26.2222 11.9898 26.1422 11.4698 26.0722C11.1998 26.0322 11.0398 25.4822 11.0598 24.4922C11.0898 22.8122 11.6398 20.4922 12.2798 19.3022Z" fill="url(#paint1_linear_2119_26631)"/>
<path d="M3.81969 27.5786C2.92969 27.5686 2.02968 27.5486 1.13968 27.5386C0.55968 27.5386 0.209681 26.4086 0.249681 24.3286C0.319681 20.9086 1.42968 16.1886 2.72968 13.7886C3.30968 12.7086 3.83968 12.2786 4.22968 12.4386C4.26968 12.4386 4.31969 12.4786 4.34969 12.4886C4.71969 12.6386 5.09968 12.7986 5.46968 12.9486C5.87968 13.1186 6.29969 13.2886 6.70969 13.4586C6.33969 13.3086 5.84968 13.7086 5.30968 14.7186C4.08968 16.9686 3.04969 21.3786 2.98969 24.5686C2.94969 26.5186 3.27969 27.5686 3.81969 27.5686V27.5786Z" fill="url(#paint2_linear_2119_26631)"/>
<path d="M16.0199 26.8999C15.5699 26.6999 15.2499 26.9299 15.1499 27.4399C15.0499 27.9499 14.6399 29.2699 14.7299 30.0199C14.8199 30.7699 15.6499 30.2099 15.8499 29.8899C16.0599 29.5699 15.9399 27.7999 15.9399 27.7999L16.2299 26.9899L16.0199 26.8999Z" fill="#FF9C78"/>
<defs>
<linearGradient id="paint0_linear_2119_26631" x1="7.40989" y1="23.5274" x2="10.2099" y2="12.8574" gradientUnits="userSpaceOnUse">
<stop stop-color="#D3D6F1"/>
<stop offset="0.35" stop-color="#E9EBF8"/>
<stop offset="0.53" stop-color="#F1F2FA"/>
<stop offset="0.77" stop-color="#F6F7FC"/>
</linearGradient>
<linearGradient id="paint1_linear_2119_26631" x1="11.8598" y1="25.3322" x2="13.9398" y2="17.9822" gradientUnits="userSpaceOnUse">
<stop offset="0.15" stop-color="#D7D9F2"/>
<stop offset="0.3" stop-color="#E2E4F5"/>
<stop offset="0.55" stop-color="#F1F2FA"/>
<stop offset="0.77" stop-color="#F6F7FC"/>
</linearGradient>
<linearGradient id="paint2_linear_2119_26631" x1="2.52968" y1="22.6986" x2="4.59968" y2="15.3386" gradientUnits="userSpaceOnUse">
<stop offset="0.16" stop-color="#E4E6F6"/>
<stop offset="0.27" stop-color="#EBEDF8"/>
<stop offset="0.54" stop-color="#FAFAFD"/>
<stop offset="0.77" stop-color="white"/>
</linearGradient>
</defs>
</svg>
