<svg width="93" height="85" viewBox="0 0 93 85" fill="none" xmlns="http://www.w3.org/2000/svg">
<path d="M0 63.92L34.7387 84.1087L92.78 50.5949L58.0413 30.4062L0 63.92Z" fill="#92BAEB"/>
<path d="M64.297 12.6413C64.297 12.6413 73.0308 11.7342 76.9488 21.375C80.8669 31.0159 87.3377 42.1528 81.6149 52.7007C75.8922 63.2392 52.4026 69.2612 39.4516 56.7683C39.4516 56.7683 26.0517 42.9196 40.1996 27.556C40.1996 27.556 54.5066 11.2947 64.2877 12.6506L64.297 12.6413Z" fill="#FCA922"/>
<path d="M64.2966 12.6428C54.5155 11.2869 40.2086 27.5482 40.2086 27.5482C33.0271 35.3375 32.9429 42.7435 34.598 48.139C38.0205 51.8419 43.7433 52.1225 49.3912 54.9558C57.5265 59.0235 62.9407 52.8518 69.5705 48.485C76.191 44.1181 76.7988 37.6379 75.2933 33.5796C73.7878 29.5119 73.1893 23.6395 74.3863 21.3859C74.9567 20.3199 73.9187 17.7952 72.6657 15.4107C68.7102 12.222 64.2966 12.6522 64.2966 12.6522V12.6428Z" fill="#ED8001"/>
<path d="M36.4493 66.1815C36.6177 64.6479 36.7112 63.0489 36.7673 61.4219L41.424 61.9829C40.9939 62.9461 40.5637 63.8999 40.1897 64.7976C39.6661 67.1259 41.3305 68.033 39.825 70.3146C39.5538 70.7541 38.8058 71.072 38.572 71.1281C37.4966 71.3339 37.0571 71.9791 36.6457 72.5962C36.3745 73.0077 36.1033 73.3911 35.6826 73.681C34.1303 74.7002 30.979 74.1111 30.4647 72.9516C29.7166 71.3152 34.5698 68.8465 36.3184 66.3498C36.3558 66.3124 36.3932 66.247 36.44 66.1815H36.4493Z" fill="#171716"/>
<path d="M25.4625 53.7865C25.1819 53.5621 25.2287 53.2442 24.8453 52.8047C24.4713 53.3283 23.4894 53.7678 23.106 54.2634C23.0312 54.3008 22.9564 54.3289 22.9003 54.3476C19.936 55.638 14.1946 55.1705 13.9608 57.0594C13.7831 58.3966 16.3079 60.6688 18.2716 60.6127C18.8139 60.5847 19.2721 60.3883 19.7397 60.1639C20.4504 59.8366 21.1984 59.5 22.2831 59.902C22.5262 59.9769 23.3678 60.1078 23.8634 59.8646C26.4256 58.6584 25.5279 56.9659 27.1456 55.1985C26.5565 54.7123 25.9955 54.2167 25.4625 53.7865Z" fill="#171716"/>
<path d="M38.8067 47.9171C38.8067 47.9171 38.8067 43.5502 41.7242 39.5947C44.0245 36.4622 51.9541 34.4985 52.0289 34.5078C52.1131 34.5172 58.0603 38.3791 57.4057 39.3797C57.0411 39.9501 45.8293 48.1883 45.5674 48.6091C45.1093 49.3478 44.9596 49.7966 45.0064 50.713C45.1934 54.2851 42.8744 64.328 41.1258 67.0772C39.8447 69.097 36.3568 68.1712 35.8986 66.8901C35.8238 66.6657 38.3766 50.2455 38.8067 47.9171Z" fill="#401E2C"/>
<g style="mix-blend-mode:multiply" opacity="0.3">
<path d="M38.1808 47.9949C38.1902 47.9388 38.1995 47.8827 38.2089 47.8359C37.8535 49.7809 38.0966 48.4812 38.1808 47.9949Z" fill="#123F5D"/>
</g>
<g style="mix-blend-mode:multiply" opacity="0.3">
<path d="M38.1812 47.9949C38.1999 47.9014 38.2092 47.8359 38.2092 47.8359C38.2092 47.8827 38.1905 47.9388 38.1812 47.9949Z" fill="#123F5D"/>
</g>
<g style="mix-blend-mode:multiply" opacity="0.3">
<path d="M52.834 34.375C52.7592 34.375 44.0255 36.4602 41.7251 39.5928C38.8076 43.5483 39.3687 46.8959 39.3687 46.8959C38.8263 47.4009 38.3869 50.3931 38.0596 52.282C40.6778 50.7765 41.6223 45.0257 44.6426 47.5411C45.213 47.8123 42.9314 60.034 41.1641 64.6533C40.8181 65.5604 39.9297 67.309 39.3593 68.0571C39.9017 68.0851 40.4534 67.9916 41.136 67.0846C42.2114 64.7094 45.1289 56.6396 45.0167 50.7204C44.998 49.804 45.1195 49.3552 45.5777 48.6165C45.8395 48.1863 57.0513 39.9575 57.416 39.3871C58.0706 38.3772 52.9276 34.3937 52.8434 34.3843L52.834 34.375Z" fill="#123F5D"/>
</g>
<path d="M54.0118 47.8988C47.7186 46.4681 42.2577 44.6354 42.2577 44.6354C39.0316 51.4989 27.8011 56.2679 26.4359 57.0066C25.7158 56.8009 24.1449 54.5473 23.696 53.5842C26.146 50.6761 37.1427 39.483 40.4062 37.9401C42.454 36.9769 58.6499 38.978 58.7714 38.1926C58.8182 37.8746 62.7362 38.0242 63.0168 38.0616C66.2241 38.5198 65.1488 50.4236 54.0118 47.8988Z" fill="#59253B"/>
<g style="mix-blend-mode:multiply" opacity="0.2">
<path d="M63.0259 38.0697C62.7547 38.0323 58.8273 37.8733 58.7806 38.2006C58.7338 38.5186 55.9846 38.2287 52.5996 37.8359C52.7305 38.1913 52.9081 38.5466 53.1419 38.9019C55.0121 41.7446 60.7629 40.3046 62.231 43.3623C63.1755 45.3354 60.4918 46.4388 59.2481 46.6913C53.4973 47.6077 45.9698 46.4949 42.2574 42.2122C39.2932 49.1786 32.2613 53.2556 25.4912 56.3788C25.884 56.7155 26.2299 56.9586 26.4356 57.0241C27.8102 56.2853 39.0314 51.507 42.2668 44.6528C42.2668 44.6528 47.7184 46.4856 54.0116 47.9162C65.1485 50.441 66.2239 38.5373 63.0165 38.0791L63.0259 38.0697Z" fill="#1A4B6C"/>
</g>
<path d="M54.6944 40.0312L54.657 40.583L45.9045 45.0246L45.942 44.4729L54.6944 40.0312Z" fill="#B4B9BC"/>
<path d="M45.9414 44.4659L45.904 45.0176L32.1675 36.0126L32.1955 35.4609L45.9414 44.4659Z" fill="#7D8183"/>
<path d="M54.6942 40.0284L45.9417 44.4701L32.1958 35.4651L40.9576 31.0234L54.6942 40.0284Z" fill="#E3E5E5"/>
<path d="M41.9016 25.7094C41.9016 25.7094 39.7883 24.5779 38.554 25.0548C37.3196 25.5317 36.4687 25.541 35.7674 26.233C35.0567 26.925 35.412 27.5328 36.1695 27.7479C36.9269 27.9536 38.2828 27.9723 39.648 27.6543C41.0133 27.3458 41.1255 27.5608 41.5182 27.6263C41.9109 27.6824 42.7338 26.766 41.9016 25.7094Z" fill="#EFB185"/>
<path d="M57.5085 11.7414C56.4612 11.2458 54.5068 11.2738 53.5904 14.1913C52.6834 17.1088 50.2147 25.2909 50.2147 25.2909C50.2147 25.2909 41.9766 24.9917 41.0134 25.1039C41.0134 25.1039 42.3132 26.3008 41.3968 27.7408C41.3968 27.7408 49.9997 30.836 52.2532 29.2837C54.5162 27.7315 61.7912 13.7518 57.5085 11.7414Z" fill="#EC6665"/>
<path d="M68.4863 19.307C68.4863 19.307 66.3356 14.2762 55.7129 11.4242C55.7129 11.4242 54.0765 10.4984 53.5622 16.109C53.4874 16.9225 52.4868 18.1943 51.8323 18.8582C51.1777 19.5221 49.3356 22.1404 52.225 25.8901C52.225 25.8901 52.8889 31.0331 50.9813 34.0628C49.2701 36.7746 56.0402 40.4495 62.1651 40.5991C62.9225 40.6178 64.6337 40.3279 64.2971 37.6536C63.9604 34.9792 62.9692 30.2476 64.7646 25.6096C66.56 20.9715 69.0099 21.8411 68.4956 19.307H68.4863Z" fill="#EC6665"/>
<path d="M68.4868 19.3089C69.0011 21.843 66.5605 20.9734 64.7558 25.6115C62.9604 30.2495 63.9516 34.9811 64.2883 37.6555C64.6249 40.3298 62.9137 40.6197 62.1562 40.601C61.1463 40.573 60.1177 40.4514 59.1172 40.255C61.8009 35.8694 60.099 27.1076 60.5292 22.4415C60.9874 17.4949 65.6815 16.1016 65.6815 16.1016C67.8697 17.8689 68.4775 19.3089 68.4775 19.3089H68.4868Z" fill="#D75150"/>
<path d="M50.9718 34.0637C52.8794 31.0247 52.2155 25.891 52.2155 25.891C49.326 22.1413 51.1682 19.523 51.8228 18.8591C52.4773 18.2045 53.4778 16.9234 53.5527 16.1099C53.7584 13.9031 54.1324 12.7062 54.5158 12.0703C55.0582 12.8745 56.3486 12.7623 55.6099 15.287C55.1797 16.7832 55.4135 19.1116 57.7793 19.4014C60.1451 19.6913 58.3497 23.3288 58.0879 24.3668C56.2457 31.5951 59.7336 35.4944 57.9102 39.9829C53.3563 38.7953 49.6627 36.149 50.9718 34.0637Z" fill="#FF8183"/>
<path d="M58.6959 2.9736C58.6959 2.9736 58.7239 8.64962 58.4154 14.0171C58.3686 14.7932 57.3868 16.0369 56.0122 15.5039C56.0122 15.5039 52.7393 8.69637 56.7228 2.82398C57.9852 0.963147 62.0248 -1.38394 65.8868 2.0572L58.6866 2.98295L58.6959 2.9736Z" fill="#301806"/>
<path d="M56.6672 10.1723C56.6672 10.1723 58.3317 12.6596 57.1441 14.9973C56.8169 15.6332 55.8818 18.3076 60.1738 17.6717C60.1738 17.6717 64.7558 15.9979 63.615 14.5298C62.8576 13.5573 62.1656 12.2014 63.961 7.89062L56.6766 10.1723H56.6672Z" fill="#E8A476"/>
<path d="M63.6059 14.5338C63.7275 14.6928 63.7836 14.8424 63.7742 14.992C59.7066 15.3193 57.3127 12.2055 57.3127 12.2055L62.9981 8.25C62.9981 8.25 63.2412 8.45572 63.5966 8.79236C62.2594 12.4018 62.9046 13.6268 63.6059 14.5338Z" fill="#DB9669"/>
<path d="M58.2846 2.32759C58.2846 2.32759 57.1158 2.58006 56.6856 5.8903C56.6389 6.25498 55.9937 6.67577 55.7318 7.56411C55.47 8.47115 54.8341 12.1367 56.9287 12.7819C58.4436 13.2495 62.3897 12.7258 64.1103 9.15376C65.8308 5.58171 63.2219 0.410648 58.2753 2.32759H58.2846Z" fill="#F1B287"/>
<path d="M58.3406 3.68105C58.3406 3.68105 67.4297 8.3004 58.8268 19.6992C58.8268 19.6992 63.7267 20.7746 66.4478 16.763C67.757 14.8367 67.8318 10.6475 67.9907 6.65464C67.9907 6.65464 67.6167 0.445623 62.4269 0.744853C62.4269 0.744853 58.9016 1.63319 58.3406 3.68105Z" fill="#231202"/>
<path d="M58.3407 3.6816C58.3407 3.6816 56.7136 3.16729 55.5354 6.13154C55.5354 6.13154 56.8352 -2.48067 64.718 1.11009C64.718 1.11009 59.8088 0.764108 58.3407 3.6816Z" fill="#301806"/>
<path d="M62.1563 9.56182C62.1563 9.56182 62.9605 7.79449 63.9517 8.47711C64.2603 8.69218 64.5782 9.12232 63.9517 10.0013C63.3346 10.8897 62.1844 11.619 61.3708 11.4227L62.1563 9.56182Z" fill="#F1B287"/>
<path d="M52.3656 33.0532C52.3656 33.0532 49.9811 32.8381 49.0273 33.7545C48.0735 34.6709 46.8205 35.5873 46.4371 36.5037C46.0631 37.4107 46.2127 37.7754 46.9888 37.6726C47.765 37.5791 49.9157 36.5318 51.0471 35.7182C52.1786 34.8953 52.3843 35.0543 52.7677 34.9608C53.1511 34.8673 53.5532 33.6984 52.375 33.0532H52.3656Z" fill="#EFB185"/>
<path d="M52.7585 34.965C52.3751 35.0679 52.1787 34.8996 51.0379 35.7225C49.9064 36.5454 47.7557 37.5833 46.9796 37.6768C46.8674 37.6955 46.7739 37.6955 46.6897 37.6862C47.3536 37.1345 48.4944 36.19 49.5043 35.3952C50.7667 34.3946 52.5715 34.1796 53.1325 34.1328C53.1606 34.5536 52.9548 34.9089 52.7491 34.9557L52.7585 34.965Z" fill="#DB9669"/>
<path d="M67.3827 18.1338C66.2979 17.7317 64.3436 17.9187 63.6797 20.9017C63.0158 23.8846 61.2297 32.2444 61.2297 32.2444C61.2297 32.2444 52.9916 32.6184 52.0471 32.8148C52.0471 32.8148 53.4778 33.6003 52.683 35.1151C52.683 35.1151 61.4729 37.7895 63.5955 36.0502C65.7182 34.3203 71.815 19.7796 67.3733 18.1338H67.3827Z" fill="#EC6665"/>
<path d="M52.0566 32.8148C53.0011 32.6184 61.2392 32.2444 61.2392 32.2444C61.2392 32.2444 63.0159 23.8846 63.6892 20.9017C64.3531 17.9187 66.3075 17.7317 67.3922 18.1338C67.6821 18.246 67.9252 18.405 68.1309 18.6201L68.1776 18.751C68.1776 18.751 65.3069 19.6113 64.2409 25.0816C63.1843 30.5612 64.8674 34.0865 60.1919 34.0023C57.4054 33.9556 54.6562 33.9088 52.8795 33.8714C52.6925 33.1795 52.066 32.8148 52.066 32.8148H52.0566Z" fill="#FF8183"/>
<path d="M44.9771 34.7551L45.6503 34.2969L46.6228 44.5455L45.9589 45.0037L44.9771 34.7551Z" fill="#BDBBBB"/>
<path d="M30.6235 25.3332L31.2874 24.875L45.6505 34.2914L44.9772 34.7496L30.6235 25.3332Z" fill="#D2D0D0"/>
<path d="M44.9772 34.7523L45.9591 45.001L31.596 35.5846L30.6235 25.3359L44.9772 34.7523Z" fill="#D5DFE6"/>
<path d="M44.9772 34.7523L31.596 35.5846L30.6235 25.3359L44.9772 34.7523Z" fill="#E9F0F4"/>
</svg>
