<svg width="83" height="90" viewBox="0 0 83 90" fill="none" xmlns="http://www.w3.org/2000/svg">
<g opacity="0.1">
<path d="M82.9998 76.2095L60.3777 89.3638L8.13196 59.2009L31.3022 45.5781L82.9998 76.2095Z" fill="black"/>
</g>
<path d="M62.0746 74.0938L62.0658 76.6044L49.8751 83.6854L49.884 81.1836L62.0746 74.0938Z" fill="#95C4DE"/>
<path d="M49.8842 81.1893L49.8753 83.6911L20.9678 67.0096L20.9766 64.5078L49.8842 81.1893Z" fill="#A9D6EA"/>
<path d="M62.0753 74.0956L49.8846 81.1854L20.9771 64.5039L33.1766 57.4141L62.0753 74.0956Z" fill="#DEF6FF"/>
<path opacity="0.5" d="M62.0753 74.0956L20.9771 64.5039L33.1766 57.4141L62.0753 74.0956Z" fill="#DEF6FF"/>
<path d="M50.813 76.5177L52.9788 75.2624L53.0496 52.7109L50.8837 53.9663L50.813 76.5177Z" fill="#95C4DE"/>
<path d="M50.8843 53.9713L53.0501 52.716L33.416 41.3828L31.2501 42.6381L50.8843 53.9713Z" fill="#C0C5D1"/>
<path d="M31.2498 42.6406L31.1791 65.192L50.8132 76.5252L50.8839 53.9738L31.2498 42.6406Z" fill="#A9D6EA"/>
<path d="M70.5791 79.0913L72.6742 78.5079L81.6471 34.2891L79.5519 34.8725L70.5791 79.0913Z" fill="#95C4DE"/>
<path d="M79.5524 34.8731L81.6476 34.2896L23.3197 0.617188L21.2246 1.1918L79.5524 34.8731Z" fill="#A9D6EA"/>
<path d="M21.2247 1.19531L12.2518 45.423L70.5796 79.0954L79.5525 34.8766L21.2247 1.19531Z" fill="#DEF6FF"/>
<path d="M22.7895 4.71875L14.8245 44.5528L68.8294 75.803L77.1039 35.4474L22.7895 4.71875Z" fill="url(#paint0_linear_2119_27939)"/>
<path d="M29.6058 13.6797L29.261 15.209L37.7918 20.133L38.1366 18.6037L29.6058 13.6797Z" fill="#649DD5"/>
<path d="M41.274 57.0952L21.5072 45.6825L25.8036 26.6406L45.5703 38.0534L41.274 57.0952ZM24.672 38.0534L41.4596 47.7423L43.3956 39.1761L26.608 29.4872L24.672 38.0534Z" fill="#649DD5"/>
<path d="M27.298 19.9844L26.9797 21.4253L46.7465 32.838L47.0736 31.4059L27.298 19.9844Z" fill="#649DD5"/>
<path d="M52.8282 37.2266L52.563 38.42L64.3647 45.2358L64.6387 44.0424L52.8282 37.2266Z" fill="#649DD5"/>
<path d="M53.4373 34.5391L53.1632 35.7413L64.9738 42.5572L65.2478 41.3549L53.4373 34.5391Z" fill="#649DD5"/>
<path d="M60.4314 69.1073L45.3588 60.3997L51.9624 31.1562L67.035 39.8639L60.4314 69.1073ZM47.7456 59.7721L59.5473 66.5879L61.4657 58.0924L49.6551 51.2766L47.7368 59.7721H47.7456ZM51.2198 44.3724L63.0304 51.1882L63.3044 49.9859L51.4939 43.1701L51.2198 44.3724ZM53.1647 35.7355L64.9752 42.5513L65.2493 41.349L53.4387 34.5332L53.1647 35.7355ZM51.821 41.6761L63.6315 48.4919L63.9056 47.2897L52.1039 40.4739L51.8298 41.6761H51.821ZM52.5547 38.4318L64.3653 45.2476L64.6305 44.0541L52.8288 37.2383L52.5547 38.4318Z" fill="#8FC1EA"/>
<path d="M26.564 23.2188L26.2457 24.6597L46.0125 36.0724L46.3396 34.6315L26.564 23.2188Z" fill="#649DD5"/>
<path d="M46.3923 23.3672L46.0475 24.8965L67.5911 37.3347L67.9359 35.8054L46.3923 23.3672Z" fill="#649DD5"/>
<g opacity="0.8">
<path d="M19.1113 47.0155L61.6417 71.5736L69.9338 34.816L27.4035 10.2578L19.1113 47.0155ZM26.2454 24.6585L26.5725 23.2176L46.3481 34.6303L46.021 36.0713L33.4855 28.8311L26.2454 24.6497V24.6585ZM27.2974 19.9821L47.0641 31.3948L46.737 32.8358L26.9703 21.423L27.2974 19.9821ZM27.5803 18.7268L27.9074 17.2858L47.6741 28.6985L47.347 30.1395L27.5714 18.7268H27.5803ZM68.6873 35.3376L67.9536 38.5819L28.2698 15.6681L29.0035 12.4325L68.6873 35.3464V35.3376ZM60.4217 69.1161L45.3491 60.4084L51.9528 31.165L67.0254 39.8726L60.4217 69.1161ZM45.5613 38.0603L41.2649 57.1022L21.4982 45.6895L25.7945 26.6476L45.5613 38.0603Z" fill="#649DD5"/>
</g>
<path d="M24.6727 38.0594L26.5999 29.4844L43.3875 39.1821L41.4515 47.7483L24.6727 38.0594Z" fill="#8FC1EA"/>
<path d="M27.908 17.2734L27.5809 18.7144L47.3565 30.1271L47.6748 28.6862L27.908 17.2734Z" fill="#649DD5"/>
<path d="M49.6546 51.2656L47.7451 59.7699L59.5468 66.5857L61.4651 58.0814L49.6546 51.2656Z" fill="#649DD5"/>
<path d="M67.9627 38.5713L28.2789 15.6574L29.0127 12.4219L68.6965 35.3358L67.9627 38.5801V38.5713ZM46.0478 24.8954L67.6003 37.3425L67.945 35.8131L46.3926 23.3661L46.0478 24.8954ZM29.2602 15.2065L37.791 20.1306L38.1358 18.6012L29.605 13.6772L29.2602 15.2065Z" fill="#8FC1EA"/>
<path d="M52.1033 40.4766L51.8292 41.6788L63.6309 48.4947L63.905 47.2924L52.1033 40.4766Z" fill="#649DD5"/>
<path d="M51.4849 43.1719L51.2197 44.3741L63.0214 51.1811L63.2955 49.9877L51.4849 43.1719Z" fill="#649DD5"/>
<path d="M25.6447 6.28125L23.3109 17.7824L29.7996 21.4599L32.7788 20.5582L34.7678 19.904L36.2884 12.4252L25.6447 6.28125Z" fill="#FFDF02"/>
<path d="M34.7678 19.912L30.9842 18.25L29.7996 21.4678L34.7678 19.912Z" fill="#EAA700"/>
<path d="M27.0512 9.46094L26.9098 10.1505L33.54 14.0667L33.6991 13.3064L27.0512 9.46094Z" fill="#DEF6FF"/>
<path d="M26.5468 11.5703L26.4054 12.2598L33.0356 16.1761L33.1947 15.407L26.5468 11.5703Z" fill="#DEF6FF"/>
<path d="M25.9005 13.5469L25.759 14.2364L32.3892 18.1526L32.5483 17.3835L25.9005 13.5469Z" fill="#DEF6FF"/>
<path d="M13.8702 17.8902C9.25558 34.5894 4.64983 51.2886 0.0440683 67.9878C-0.327221 69.3315 1.75907 69.9061 2.13036 68.5624C6.73612 51.8632 11.3507 35.164 15.9565 18.4648C16.3278 17.1211 14.2415 16.5465 13.8702 17.8902Z" fill="#DEF6FF"/>
<path d="M24.7877 23.4684C20.1819 40.1675 15.5673 56.8667 10.9615 73.5659C10.5903 74.9096 12.6765 75.4842 13.0478 74.1405C17.6624 57.4413 22.2682 40.7422 26.874 24.043C27.2452 22.6993 25.159 22.1246 24.7877 23.4684Z" fill="#DEF6FF"/>
<path d="M12.4284 26.1341C15.9822 28.3088 19.536 30.4747 23.0897 32.6494C24.2655 33.3654 25.3352 31.5267 24.1683 30.8106C20.6145 28.6359 17.0607 26.4701 13.5069 24.2954C12.3312 23.5793 11.2615 25.4181 12.4284 26.1341Z" fill="#DEF6FF"/>
<path d="M10.4144 34.5746C13.7383 36.7051 17.0711 38.8444 20.395 40.9749C21.5531 41.7175 22.6228 39.8787 21.4735 39.1361C18.1496 37.0056 14.8168 34.8663 11.4929 32.7358C10.3348 31.9932 9.26517 33.832 10.4144 34.5746Z" fill="#DEF6FF"/>
<path d="M8.30125 43.9944C11.5987 45.9392 14.8961 47.8929 18.2023 49.8377C19.3869 50.5361 20.4566 48.6974 19.2808 47.999C15.9834 46.0541 12.686 44.1004 9.37976 42.1556C8.19517 41.4572 7.1255 43.296 8.30125 43.9944Z" fill="#DEF6FF"/>
<path d="M5.86117 51.1251C9.17626 53.2114 12.5002 55.2977 15.8153 57.384C16.9822 58.1177 18.0518 56.2701 16.8938 55.5452C13.5787 53.4589 10.2548 51.3726 6.93968 49.2863C5.77277 48.5526 4.7031 50.4002 5.86117 51.1251Z" fill="#DEF6FF"/>
<path d="M3.69542 59.8259L13.5257 65.7312C14.7103 66.4385 15.78 64.5997 14.6043 63.8925C11.3245 61.9211 8.05365 59.9586 4.77393 57.9872C3.58934 57.28 2.51967 59.1187 3.69542 59.8259Z" fill="#DEF6FF"/>
<path d="M25.9202 26.8711L26.1235 27.2954L25.4251 26.7915L25.2218 26.3672L25.9202 26.8711Z" fill="#0D2445"/>
<path d="M9.7589 56.5519C9.7589 56.5519 10.9435 56.8613 10.581 57.5243C10.2186 58.1873 8.71575 59.1067 8.49474 59.531C8.2649 59.9554 6.97422 61.4052 6.62061 61.2284C6.267 61.0427 5.29458 61.1665 5.58631 59.3808C5.87804 57.6039 8.15882 56.3132 9.7589 56.5519Z" fill="#111114"/>
<path d="M11.2088 63.256C11.2088 63.256 10.4486 64.9179 11.8718 65.466C13.2951 66.023 12.9503 65.0594 16.0533 66.1909C19.1562 67.3225 19.607 65.7135 19.6512 65.3423C19.7485 64.4848 17.5649 64.0958 16.8842 63.8394C16.2035 63.583 14.8863 62.7521 14.8863 62.7521L11.1469 62.7344L11.2088 63.256Z" fill="#111114"/>
<path d="M8.24753 32.7745C8.24753 32.7745 7.16903 43.1617 7.04527 44.3287C6.9215 45.4956 4.67608 54.5833 5.04737 58.694C5.04737 58.694 7.08063 61.1958 9.3172 59.1272C9.3172 59.1272 11.1383 47.6526 11.987 45.1066C12.8356 42.5606 13.4544 34.569 13.4544 34.569L8.24753 32.7656V32.7745Z" fill="#2B3C4B"/>
<path d="M12.0671 34.6485C12.0671 34.6485 11.8992 41.4112 11.7489 48.1121C11.7489 48.1121 10.7323 61.3459 10.8472 63.282C10.8472 63.282 15.0021 64.776 15.6298 62.8134C15.6298 62.8134 16.7171 51.1885 17.0707 48.7663C17.4243 46.3441 18.3702 39.599 17.8133 35.5944C17.2564 31.5898 12.076 34.6485 12.076 34.6485H12.0671Z" fill="#2B3C4B"/>
<path d="M10.8555 63.2844C10.7406 61.3573 11.7572 48.1146 11.7572 48.1146C11.8544 43.5973 11.9694 39.0622 12.0312 36.5781L14.5949 37.4887C14.5949 37.4887 15.9828 42.6602 14.922 50.0948C14.1087 55.8498 13.4368 61.5253 13.1716 63.7972C11.9959 63.6911 10.8555 63.2756 10.8555 63.2756V63.2844Z" fill="#314656"/>
<path d="M5.04737 58.7004C4.67608 54.5897 6.9215 45.5019 7.04527 44.335C7.16019 43.2212 8.14145 33.7533 8.2387 32.8516L10.3427 34.8406C10.3427 34.8406 10.3073 42.346 9.14924 46.5009C8.09725 50.2845 7.75248 57.8164 7.21323 59.9292C5.94908 59.7966 5.04737 58.6916 5.04737 58.6916V58.7004Z" fill="#314656"/>
<path d="M14.5686 12.1035C14.5686 12.1035 12.5619 11.3786 11.6513 14.7909C10.9176 17.5403 10.4314 21.9869 10.7761 23.8699C11.1297 25.7528 12.5618 29.7663 12.5618 29.7663C12.5618 29.7663 15.0371 30.1111 15.0548 28.5463L13.7553 22.4819C13.7553 22.4819 16.9289 12.4218 14.5686 12.1035Z" fill="#EA49BD"/>
<path d="M14.4094 12.0234C14.4094 12.0234 11.9606 12.324 11.8811 16.2844C11.8015 20.236 11.8192 22.8173 11.2888 24.1169C10.7495 25.4075 8.68974 29.6685 8.0886 30.473C8.0886 30.473 6.70952 33.2577 12.7474 37.3595C12.7474 37.3595 18.025 39.8613 18.4051 35.9362C18.7853 32.0112 20.5003 26.0617 21.1368 24.7268C21.7644 23.392 23.5855 20.9167 20.7832 17.8138C17.9808 14.7109 16.6725 12.6865 14.4005 12.0323L14.4094 12.0234Z" fill="#FF61CB"/>
<path d="M21.137 24.7158C20.5005 26.0507 18.7855 32.0001 18.4054 35.9252C18.1401 38.648 15.5234 38.2767 13.941 37.7993C14.0118 36.0136 15.8771 33.4411 15.9655 29.5249C16.0804 24.6716 17.3003 21.8781 18.8827 19.836C19.9082 18.51 20.8276 18.7928 21.5436 18.8105C23.1879 21.4449 21.6939 23.5312 21.1281 24.7246L21.137 24.7158Z" fill="#EA49BD"/>
<path d="M17.4856 11.1484C17.4856 11.1484 17.0524 13.0756 16.0093 14.0038C15.0634 14.8436 19.0768 17.3543 19.5189 16.4172C19.5631 16.32 19.2978 14.4282 21.0217 12.9165C21.9234 12.1209 17.4944 11.1484 17.4944 11.1484H17.4856Z" fill="#EFB185"/>
<path d="M16.0095 14.0908C16.7874 13.4013 17.2294 12.1548 17.3974 11.5625L20.0141 14.2676C19.8904 14.2588 17.5477 14.0378 16.5399 15.4168C15.983 14.9218 15.6647 14.3914 16.0095 14.082V14.0908Z" fill="#DD9569"/>
<path d="M23.8148 7.8677C23.8148 7.8677 23.8943 9.78603 23.249 11.1828C22.5506 12.6856 22.6744 13.0835 22.3296 13.7376C22.1793 14.0117 22.0025 14.4537 21.6135 14.6305C20.9682 14.9222 19.9162 14.7454 18.7493 13.7818C17.3437 12.6149 16.4243 9.7772 17.8299 8.018C19.2355 6.26763 21.9495 5.37476 23.8148 7.8677Z" fill="#EFB185"/>
<path d="M17.1325 10.2047C18.4232 8.63114 20.8012 7.04872 20.8278 6.92495C20.8454 6.85423 21.4996 6.70394 22.2334 6.5625C22.7903 6.80119 23.3295 7.21668 23.8069 7.86201C23.8069 7.86201 23.8246 8.37476 23.7539 9.0643C23.2146 9.36487 22.251 9.56819 22.0035 9.89528C21.4201 10.6644 21.1106 12.0258 21.1637 12.6976C21.2167 13.3695 19.873 13.8469 19.9084 14.4303C19.9084 14.4568 19.9084 14.4834 19.8907 14.501C19.5282 14.3419 19.1393 14.1032 18.7326 13.7761C17.8309 13.0247 17.1325 11.6015 17.1149 10.2047H17.1325Z" fill="#E6A376"/>
<path d="M24.5404 7.35677C24.5404 7.35677 24.2663 8.87729 22.6044 9.07177C21.6054 9.1867 21.1899 10.5923 21.1457 10.8575C21.0927 11.1227 20.9336 12.3692 20.7833 12.4841C20.4827 12.6963 20.1291 11.5735 19.7932 11.5205C18.9268 11.3879 18.9799 12.2543 19.4307 13.3063C19.9169 14.4201 17.7423 14.0311 17.035 13.0057C16.6549 12.4576 16.5577 12.1747 16.3632 10.6277C16.0803 8.36456 16.8494 6.04842 19.5545 5.62409C22.2596 5.19976 22.9403 7.42748 24.5492 7.37444L24.5404 7.35677Z" fill="#131C24"/>
<path d="M17.0258 12.9979C16.6456 12.4498 16.5484 12.1669 16.3539 10.6198C16.071 8.35675 16.8401 6.04061 19.5452 5.61628C22.2503 5.19195 22.931 7.41969 24.5399 7.36665C24.5399 7.36665 24.4957 7.62301 24.3189 7.94126C23.5587 7.79982 21.4547 7.4904 20.6502 8.15342C19.6601 8.97556 19.0855 8.3921 18.6789 9.70046C18.2899 10.9646 17.3882 12.4851 19.227 13.9261C18.2545 14.209 17.2998 13.3957 17.0346 12.9979H17.0258Z" fill="#1D2833"/>
<path d="M19.4837 15.7758L20.4738 17.4732C20.4738 17.4732 15.6117 17.1726 15.0901 14.547C15.0194 14.1758 15.6029 13.2299 16.4427 13.3094C16.4427 13.3094 15.9653 15.1217 19.4837 15.7758Z" fill="#DEF0F9"/>
<path d="M26.1318 23.2884C26.1318 23.2884 26.0434 22.2364 26.2998 21.9889C26.5561 21.7502 27.1573 20.654 27.2191 20.433C27.281 20.212 27.6965 19.8761 27.7849 20.0617C27.8733 20.2474 27.6877 21.6353 27.6346 21.8916C27.5816 22.148 28.7485 21.7325 28.996 21.3082C29.2524 20.8839 29.5883 20.433 29.7032 20.5745C29.8093 20.7159 30.3132 21.9093 29.438 23.0144C28.5629 24.1194 27.3517 24.6145 27.3517 24.6145L26.1318 23.2796V23.2884Z" fill="#EFB185"/>
<path d="M20.0938 18.4429C20.7391 18.328 21.853 18.6551 22.0828 20.1314C22.3127 21.6077 21.3668 27.6014 21.3668 27.6014L25.9195 22.8807C25.9195 22.8807 27.7406 23.6852 27.5726 24.9582C27.5726 24.9582 20.5623 33.1973 19.6518 33.1089C17.203 32.8525 16.7168 19.0352 20.1026 18.4341L20.0938 18.4429Z" fill="#EA49BD"/>
<path d="M19.6518 33.1221C20.5623 33.2194 27.5726 24.9715 27.5726 24.9715C27.5991 24.7328 27.5726 24.5206 27.4842 24.3173L27.2897 23.9637C27.2897 23.9637 27.2544 23.9106 27.2367 23.8841C27.0422 24.0786 21.4198 29.8955 19.7667 31.0359C18.2197 32.1055 20.0142 20.3038 20.306 18.4297C20.2352 18.4297 20.1557 18.4297 20.0938 18.4474C16.7168 19.0485 17.1942 32.8746 19.6429 33.1221H19.6518Z" fill="#FF61CB"/>
<defs>
<linearGradient id="paint0_linear_2119_27939" x1="32.3281" y1="8.65265" x2="58.6366" y2="69.1286" gradientUnits="userSpaceOnUse">
<stop stop-color="#1A6BB2"/>
<stop offset="1" stop-color="#1B4B92"/>
</linearGradient>
</defs>
</svg>
