<svg width="69" height="95" viewBox="0 0 69 95" fill="none" xmlns="http://www.w3.org/2000/svg">
<path d="M23.8645 94.5548L0.75 81.2067L43.6597 56.4375L66.7743 69.7856L23.8645 94.5548Z" fill="#E3E8F0"/>
<path d="M55.0389 89.5202L68.1147 81.9735C68.9622 81.4892 68.8512 80.6215 67.8725 80.0565L54.5345 72.3584C53.5558 71.7934 52.0727 71.7328 51.2252 72.2171L38.1495 79.7639C37.302 80.2482 37.413 81.1159 38.3916 81.6708L51.7297 89.3689C52.7083 89.9339 54.1914 89.9945 55.0389 89.5102V89.5202Z" fill="#E3E8F0"/>
<path d="M43.8413 33.4531V58.3232L64.3831 70.1882V45.3181L43.8413 33.4531ZM45.0419 35.3297L63.1926 45.8125V68.3116L45.0419 57.8288V35.3297Z" fill="#B8BABA"/>
<path d="M45.0321 35.3203L43.1252 36.42V58.9191L45.0321 57.8194V35.3203Z" fill="#B8BABA"/>
<path d="M63.1827 68.3109L61.286 69.4106L43.1252 58.9279L45.0321 57.8281L63.1827 68.3109Z" fill="#CACCCC"/>
<path d="M41.9346 34.5625V59.4326L62.4764 71.2976V46.4275L41.9346 34.5625ZM43.1352 36.4391L61.2858 46.9219V69.421L43.1352 58.9382V36.4391Z" fill="#DCDDDD"/>
<path d="M64.3827 45.3125L62.4758 46.4122V71.2823L64.3827 70.1927V45.3125Z" fill="#B8BABA"/>
<path d="M4.70508 56.0625V80.9326L25.2469 92.7976V67.9275L4.70508 56.0625ZM5.90571 57.9391L24.0563 68.4219V90.921L5.90571 80.4382V57.9391Z" fill="#B8BABA"/>
<path d="M5.89507 57.9297L3.99829 59.0294V81.5285L5.89507 80.4288V57.9297Z" fill="#B8BABA"/>
<path d="M24.0457 90.9203L22.1489 92.02L3.99829 81.5372L5.89507 80.4375L24.0457 90.9203Z" fill="#CACCCC"/>
<path d="M2.79834 57.1719V82.042L23.3401 93.907V69.0369L2.79834 57.1719ZM3.99897 59.0485L22.1496 69.5313V92.0303L3.99897 81.5476V59.0485Z" fill="#DCDDDD"/>
<path d="M25.2465 67.9375L23.3396 69.0372V93.9073L25.2465 92.8076V67.9375Z" fill="#B8BABA"/>
<path d="M24.5719 70.698L1.53809 57.3903V55.4531L24.5719 68.7508V70.698Z" fill="#944719"/>
<path d="M24.5719 68.7518L1.53809 55.4542L43.8828 31.0078L66.9167 44.3055L24.5719 68.7518Z" fill="#BF5C20"/>
<path d="M24.5718 68.7432V70.6905L66.9165 46.234V44.2969L24.5718 68.7432Z" fill="#944719"/>
<path d="M49.1492 49.5432L43.9532 46.5366C43.7716 46.4357 43.4891 46.4357 43.3176 46.5366L30.1208 54.1944L29.4146 54.3659V54.7089C29.4146 54.7796 29.4549 54.8401 29.5457 54.9006L34.8829 57.988C35.0645 58.0888 35.3471 58.0888 35.5186 57.988L49.2905 49.9973C49.3712 49.9468 49.4216 49.8863 49.4216 49.8156V49.4726L49.1492 49.5432Z" fill="#C5C9D8"/>
<path d="M49.2911 49.2724L43.9539 46.185C43.7723 46.0842 43.4898 46.0842 43.3182 46.185L29.5464 54.1758C29.3748 54.2767 29.3748 54.4482 29.5464 54.5491L34.8836 57.6364C35.0652 57.7373 35.3477 57.7373 35.5192 57.6364L49.2911 49.6457C49.4626 49.5448 49.4626 49.3733 49.2911 49.2724Z" fill="#DADAE8"/>
<path d="M32.1191 54.5478V54.4771H32.0586L31.4532 54.124C31.3927 54.0837 31.2918 54.0837 31.2312 54.124L30.6259 54.4771H30.5754V54.5478C30.5754 54.5679 30.5956 54.5881 30.6259 54.6083L31.2413 54.9614C31.3019 55.0018 31.4028 55.0018 31.4633 54.9614L32.0787 54.6083C32.0787 54.6083 32.1292 54.5679 32.1292 54.5478H32.1191Z" fill="#E7E7F0"/>
<path d="M36.0246 56.7978V56.7271H35.9641L35.3587 56.374C35.2982 56.3337 35.1973 56.3337 35.1368 56.374L34.5314 56.7271H34.481V56.7978C34.481 56.818 34.5011 56.8381 34.5314 56.8583L35.1469 57.2114C35.2074 57.2518 35.3083 57.2518 35.3688 57.2114L35.9843 56.8583C35.9843 56.8583 36.0347 56.818 36.0347 56.7978H36.0246Z" fill="#E7E7F0"/>
<path d="M36.9919 56.2353V56.1646H36.9314L36.326 55.8115C36.2655 55.7712 36.1646 55.7712 36.104 55.8115L35.4987 56.1646H35.4482V56.2353C35.4482 56.2555 35.4684 56.2756 35.4987 56.2958L36.1141 56.6489C36.1747 56.6893 36.2756 56.6893 36.3361 56.6489L36.9515 56.2958C36.9515 56.2958 37.002 56.2555 37.002 56.2353H36.9919Z" fill="#E7E7F0"/>
<path d="M37.9499 55.6728V55.6021H37.8894L37.284 55.249C37.2235 55.2087 37.1226 55.2087 37.062 55.249L36.4567 55.6021H36.4062V55.6728C36.4062 55.6929 36.4264 55.7131 36.4567 55.7333L37.0721 56.0864C37.1327 56.1268 37.2336 56.1268 37.2941 56.0864L37.9095 55.7333C37.9095 55.7333 37.96 55.6929 37.96 55.6728H37.9499Z" fill="#E7E7F0"/>
<path d="M38.9191 55.1103V55.0396H38.8586L38.2533 54.6865C38.1927 54.6462 38.0918 54.6462 38.0313 54.6865L37.4259 55.0396H37.3755V55.1103C37.3755 55.1304 37.3957 55.1506 37.4259 55.1708L38.0414 55.5239C38.1019 55.5643 38.2028 55.5643 38.2634 55.5239L38.8788 55.1708C38.8788 55.1708 38.9292 55.1304 38.9292 55.1103H38.9191Z" fill="#E7E7F0"/>
<path d="M33.0883 53.9853V53.9146H33.0278L32.4225 53.5615C32.3619 53.5212 32.261 53.5212 32.2005 53.5615L31.5951 53.9146H31.5447V53.9853C31.5447 54.0055 31.5649 54.0256 31.5951 54.0458L32.2106 54.3989C32.2711 54.4393 32.372 54.4393 32.4325 54.3989L33.048 54.0458C33.048 54.0458 33.0984 54.0055 33.0984 53.9853H33.0883Z" fill="#E7E7F0"/>
<path d="M34.601 54.2274V54.1568H34.5405L33.9352 53.8037C33.8746 53.7633 33.7737 53.7633 33.7132 53.8037L33.1078 54.1568H33.0574V54.2274C33.0574 54.2476 33.0776 54.2678 33.1078 54.288L33.7233 54.6411C33.7838 54.6815 33.8847 54.6815 33.9452 54.6411L34.5607 54.288C34.5607 54.288 34.6111 54.2476 34.6111 54.2274H34.601Z" fill="#E7E7F0"/>
<path d="M35.56 53.6728V53.6021H35.4995L34.8941 53.249C34.8336 53.2087 34.7327 53.2087 34.6722 53.249L34.0668 53.6021H34.0164V53.6728C34.0164 53.6929 34.0365 53.7131 34.0668 53.7333L34.6822 54.0864C34.7428 54.1268 34.8437 54.1268 34.9042 54.0864L35.5197 53.7333C35.5197 53.7333 35.5701 53.6929 35.5701 53.6728H35.56Z" fill="#E7E7F0"/>
<path d="M36.0637 54.5087V54.4381H36.0031L35.3978 54.085C35.3372 54.0446 35.2364 54.0446 35.1758 54.085L34.5705 54.4381H34.52V54.5087C34.52 54.5289 34.5402 54.549 34.5705 54.5692L35.1859 54.9224C35.2464 54.9627 35.3473 54.9627 35.4079 54.9224L36.0233 54.5692C36.0233 54.5692 36.0738 54.5289 36.0738 54.5087H36.0637Z" fill="#E7E7F0"/>
<path d="M37.0422 55.079V55.0084H36.9817L36.3763 54.6553C36.3158 54.6149 36.2149 54.6149 36.1543 54.6553L35.549 55.0084H35.4985V55.079C35.4985 55.0992 35.5187 55.1194 35.549 55.1395L36.1644 55.4927C36.225 55.533 36.3259 55.533 36.3864 55.4927L37.0018 55.1395C37.0018 55.1395 37.0523 55.0992 37.0523 55.079H37.0422Z" fill="#E7E7F0"/>
<path d="M38.0114 54.5243V54.4537H37.9509L37.3455 54.1006C37.285 54.0602 37.1841 54.0602 37.1236 54.1006L36.5182 54.4537H36.4678V54.5243C36.4678 54.5445 36.488 54.5647 36.5182 54.5849L37.1337 54.938C37.1942 54.9784 37.2951 54.9784 37.3556 54.938L37.9711 54.5849C37.9711 54.5849 38.0215 54.5445 38.0215 54.5243H38.0114Z" fill="#E7E7F0"/>
<path d="M38.9692 53.954V53.8834H38.9087L38.3033 53.5303C38.2428 53.4899 38.1419 53.4899 38.0813 53.5303L37.476 53.8834H37.4255V53.954C37.4255 53.9742 37.4457 53.9944 37.476 54.0146L38.0914 54.3677C38.152 54.4081 38.2529 54.4081 38.3134 54.3677L38.9288 54.0146C38.9288 54.0146 38.9793 53.9742 38.9793 53.954H38.9692Z" fill="#E7E7F0"/>
<path d="M39.9384 53.3993V53.3287H39.8779L39.2725 52.9756C39.212 52.9352 39.1111 52.9352 39.0506 52.9756L38.4452 53.3287H38.3948V53.3993C38.3948 53.4195 38.415 53.4397 38.4452 53.4599L39.0607 53.813C39.1212 53.8533 39.2221 53.8533 39.2826 53.813L39.8981 53.4599C39.8981 53.4599 39.9485 53.4195 39.9485 53.3993H39.9384Z" fill="#E7E7F0"/>
<path d="M40.8964 52.829V52.7584H40.8359L40.2305 52.4053C40.17 52.3649 40.0691 52.3649 40.0086 52.4053L39.4032 52.7584H39.3528V52.829C39.3528 52.8492 39.373 52.8694 39.4032 52.8895L40.0187 53.2427C40.0792 53.283 40.1801 53.283 40.2406 53.2427L40.8561 52.8895C40.8561 52.8895 40.9065 52.8492 40.9065 52.829H40.8964Z" fill="#E7E7F0"/>
<path d="M41.8657 52.2743V52.2037H41.8051L41.1998 51.8506C41.1392 51.8102 41.0384 51.8102 40.9778 51.8506L40.3725 52.2037H40.322V52.2743C40.322 52.2945 40.3422 52.3147 40.3725 52.3349L40.9879 52.688C41.0484 52.7284 41.1493 52.7284 41.2099 52.688L41.8253 52.3349C41.8253 52.3349 41.8758 52.2945 41.8758 52.2743H41.8657Z" fill="#E7E7F0"/>
<path d="M42.8247 51.7275V51.6568H42.7641L42.1588 51.3037C42.0982 51.2633 41.9973 51.2633 41.9368 51.3037L41.3315 51.6568H41.281V51.7275C41.281 51.7476 41.3012 51.7678 41.3315 51.788L41.9469 52.1411C42.0074 52.1815 42.1083 52.1815 42.1689 52.1411L42.7843 51.788C42.7843 51.788 42.8347 51.7476 42.8347 51.7275H42.8247Z" fill="#E7E7F0"/>
<path d="M43.7815 51.1728V51.1021H43.7209L43.1156 50.749C43.055 50.7087 42.9541 50.7087 42.8936 50.749L42.2882 51.1021H42.2378V51.1728C42.2378 51.193 42.258 51.2131 42.2882 51.2333L42.9037 51.5864C42.9642 51.6268 43.0651 51.6268 43.1257 51.5864L43.7411 51.2333C43.7411 51.2333 43.7915 51.193 43.7915 51.1728H43.7815Z" fill="#E7E7F0"/>
<path d="M44.7497 50.6181V50.5474H44.6892L44.0838 50.1943C44.0233 50.154 43.9224 50.154 43.8619 50.1943L43.2565 50.5474H43.2061V50.6181C43.2061 50.6382 43.2262 50.6584 43.2565 50.6786L43.872 51.0317C43.9325 51.0721 44.0334 51.0721 44.0939 51.0317L44.7094 50.6786C44.7094 50.6786 44.7598 50.6382 44.7598 50.6181H44.7497Z" fill="#E7E7F0"/>
<path d="M45.7795 51.1181V51.0475H45.719L45.1136 50.6943C45.0531 50.654 44.9522 50.654 44.8917 50.6943L44.2863 51.0475H44.2358V51.1181C44.2358 51.1383 44.256 51.1584 44.2863 51.1786L44.9017 51.5318C44.9623 51.5721 45.0632 51.5721 45.1237 51.5318L45.7391 51.1786C45.7391 51.1786 45.7896 51.1383 45.7896 51.1181H45.7795Z" fill="#E7E7F0"/>
<path d="M46.7487 50.5634V50.4928H46.6882L46.0828 50.1396C46.0223 50.0993 45.9214 50.0993 45.8609 50.1396L45.2555 50.4928H45.2051V50.5634C45.2051 50.5836 45.2253 50.6037 45.2555 50.6239L45.871 50.977C45.9315 51.0174 46.0324 51.0174 46.0929 50.977L46.7084 50.6239C46.7084 50.6239 46.7588 50.5836 46.7588 50.5634H46.7487Z" fill="#E7E7F0"/>
<path d="M48.6965 49.4384V49.3677H48.636L48.0306 49.0146C47.9701 48.9743 47.8692 48.9743 47.8086 49.0146L47.2033 49.3677H47.1528V49.4384C47.1528 49.4586 47.173 49.4787 47.2033 49.4989L47.8187 49.852C47.8793 49.8924 47.9802 49.8924 48.0407 49.852L48.6561 49.4989C48.6561 49.4989 48.7066 49.4586 48.7066 49.4384H48.6965Z" fill="#E7E7F0"/>
<path d="M47.6662 48.7974L47.0609 48.4443C47.0003 48.404 46.8994 48.404 46.8389 48.4443L46.7481 48.4948L46.2235 48.7974H46.173V48.8277L46.1427 48.8479H46.0923V48.9185C46.0923 48.9387 46.1125 48.9589 46.1427 48.9791L46.7582 49.3322C46.8187 49.3725 46.9196 49.3725 46.9801 49.3322L47.6763 48.9286C47.6763 48.9286 47.7268 48.8882 47.7268 48.8681V48.7974H47.6662Z" fill="#E7E7F0"/>
<path d="M45.7087 50.0478V49.9771H45.6482L45.0428 49.624C44.9823 49.5837 44.8814 49.5837 44.8208 49.624L44.2155 49.9771H44.165V50.0478C44.165 50.068 44.1852 50.0881 44.2155 50.1083L44.8309 50.4614C44.8915 50.5018 44.9924 50.5018 45.0529 50.4614L45.6683 50.1083C45.6683 50.1083 45.7188 50.068 45.7188 50.0478H45.7087Z" fill="#E7E7F0"/>
<path d="M46.677 49.4931V49.4225H46.6164L46.0111 49.0693C45.9505 49.029 45.8496 49.029 45.7891 49.0693L45.1838 49.4225H45.1333V49.4931C45.1333 49.5133 45.1535 49.5334 45.1838 49.5536L45.7992 49.9068C45.8597 49.9471 45.9606 49.9471 46.0212 49.9068L46.6366 49.5536C46.6366 49.5536 46.6871 49.5133 46.6871 49.4931H46.677Z" fill="#E7E7F0"/>
<path d="M37.0227 53.954V53.8834H36.9621L36.3568 53.5303C36.2962 53.4899 36.1953 53.4899 36.1348 53.5303L35.5295 53.8834H35.479V53.954C35.479 53.9742 35.4992 53.9944 35.5295 54.0146L36.1449 54.3677C36.2054 54.4081 36.3063 54.4081 36.3669 54.3677L36.9823 54.0146C36.9823 54.0146 37.0327 53.9742 37.0327 53.954H37.0227Z" fill="#E7E7F0"/>
<path d="M37.9909 53.3993V53.3287H37.9304L37.325 52.9756C37.2645 52.9352 37.1636 52.9352 37.1031 52.9756L36.4977 53.3287H36.4473V53.3993C36.4473 53.4195 36.4674 53.4397 36.4977 53.4599L37.1132 53.813C37.1737 53.8534 37.2746 53.8534 37.3351 53.813L37.9506 53.4599C37.9506 53.4599 38.001 53.4195 38.001 53.3993H37.9909Z" fill="#E7E7F0"/>
<path d="M38.9477 52.829V52.7584H38.8872L38.2818 52.4053C38.2213 52.3649 38.1204 52.3649 38.0599 52.4053L37.4545 52.7584H37.4041V52.829C37.4041 52.8492 37.4242 52.8694 37.4545 52.8895L38.0699 53.2427C38.1305 53.283 38.2314 53.283 38.2919 53.2427L38.9074 52.8895C38.9074 52.8895 38.9578 52.8492 38.9578 52.829H38.9477Z" fill="#E7E7F0"/>
<path d="M39.9179 52.2743V52.2037H39.8574L39.252 51.8506C39.1915 51.8102 39.0906 51.8102 39.0301 51.8506L38.4247 52.2037H38.3743V52.2743C38.3743 52.2945 38.3944 52.3147 38.4247 52.3348L39.0402 52.688C39.1007 52.7283 39.2016 52.7283 39.2621 52.688L39.8776 52.3348C39.8776 52.3348 39.928 52.2945 39.928 52.2743H39.9179Z" fill="#E7E7F0"/>
<path d="M40.8759 51.7275V51.6568H40.8154L40.2101 51.3037C40.1495 51.2633 40.0486 51.2633 39.9881 51.3037L39.3827 51.6568H39.3323V51.7275C39.3323 51.7476 39.3525 51.7678 39.3827 51.788L39.9982 52.1411C40.0587 52.1815 40.1596 52.1815 40.2201 52.1411L40.8356 51.788C40.8356 51.788 40.886 51.7476 40.886 51.7275H40.8759Z" fill="#E7E7F0"/>
<path d="M41.8452 51.1493V51.0787H41.7846L41.1793 50.7256C41.1187 50.6852 41.0178 50.6852 40.9573 50.7256L40.352 51.0787H40.3015V51.1493C40.3015 51.1695 40.3217 51.1897 40.352 51.2099L40.9674 51.563C41.0279 51.6034 41.1288 51.6034 41.1894 51.563L41.8048 51.2099C41.8048 51.2099 41.8553 51.1695 41.8553 51.1493H41.8452Z" fill="#E7E7F0"/>
<path d="M42.8042 50.6024V50.5318H42.7436L42.1383 50.1787C42.0777 50.1383 41.9768 50.1383 41.9163 50.1787L41.3109 50.5318H41.2605V50.6024C41.2605 50.6226 41.2807 50.6428 41.3109 50.663L41.9264 51.0161C41.9869 51.0565 42.0878 51.0565 42.1484 51.0161L42.7638 50.663C42.7638 50.663 42.8142 50.6226 42.8142 50.6024H42.8042Z" fill="#E7E7F0"/>
<path d="M43.7702 50.0321V49.9615H43.7097L43.1043 49.6084C43.0438 49.568 42.9429 49.568 42.8824 49.6084L42.277 49.9615H42.2266V50.0321C42.2266 50.0523 42.2467 50.0725 42.277 50.0927L42.8924 50.4458C42.953 50.4861 43.0539 50.4861 43.1144 50.4458L43.7299 50.0927C43.7299 50.0927 43.7803 50.0523 43.7803 50.0321H43.7702Z" fill="#E7E7F0"/>
<path d="M44.7302 49.4775V49.4068H44.6696L44.0643 49.0537C44.0038 49.0133 43.9029 49.0133 43.8423 49.0537L43.237 49.4068H43.1865V49.4775C43.1865 49.4976 43.2067 49.5178 43.237 49.538L43.8524 49.8911C43.913 49.9315 44.0138 49.9315 44.0744 49.8911L44.6898 49.538C44.6898 49.538 44.7403 49.4976 44.7403 49.4775H44.7302Z" fill="#E7E7F0"/>
<path d="M36.5283 53.1103V53.0396H36.4677L35.8624 52.6865C35.8018 52.6462 35.701 52.6462 35.6404 52.6865L35.0351 53.0396H34.9846V53.1103C34.9846 53.1305 35.0048 53.1506 35.0351 53.1708L35.6505 53.5239C35.7111 53.5643 35.8119 53.5643 35.8725 53.5239L36.4879 53.1708C36.4879 53.1708 36.5384 53.1305 36.5384 53.1103H36.5283Z" fill="#E7E7F0"/>
<path d="M37.4863 52.5478V52.4771H37.4258L36.8204 52.124C36.7599 52.0837 36.659 52.0837 36.5984 52.124L35.9931 52.4771H35.9426V52.5478C35.9426 52.568 35.9628 52.5881 35.9931 52.6083L36.6085 52.9614C36.6691 53.0018 36.77 53.0018 36.8305 52.9614L37.4459 52.6083C37.4459 52.6083 37.4964 52.568 37.4964 52.5478H37.4863Z" fill="#E7E7F0"/>
<path d="M38.4555 51.9853V51.9146H38.395L37.7896 51.5615C37.7291 51.5212 37.6282 51.5212 37.5677 51.5615L36.9623 51.9146H36.9119V51.9853C36.9119 52.0054 36.932 52.0256 36.9623 52.0458L37.5778 52.3989C37.6383 52.4393 37.7392 52.4393 37.7997 52.3989L38.4152 52.0458C38.4152 52.0458 38.4656 52.0054 38.4656 51.9853H38.4555Z" fill="#E7E7F0"/>
<path d="M39.4133 51.4228V51.3521H39.3528L38.7474 50.999C38.6869 50.9587 38.586 50.9587 38.5254 50.999L37.9201 51.3521H37.8696V51.4228C37.8696 51.4429 37.8898 51.4631 37.9201 51.4833L38.5355 51.8364C38.5961 51.8768 38.697 51.8768 38.7575 51.8364L39.3729 51.4833C39.3729 51.4833 39.4234 51.4429 39.4234 51.4228H39.4133Z" fill="#E7E7F0"/>
<path d="M40.3816 50.8837V50.8131H40.321L39.7157 50.46C39.6551 50.4196 39.5542 50.4196 39.4937 50.46L38.8883 50.8131H38.8379V50.8837C38.8379 50.9039 38.8581 50.9241 38.8883 50.9443L39.5038 51.2974C39.5643 51.3377 39.6652 51.3377 39.7257 51.2974L40.3412 50.9443C40.3412 50.9443 40.3916 50.9039 40.3916 50.8837H40.3816Z" fill="#E7E7F0"/>
<path d="M41.3405 50.3056V50.235H41.28L40.6746 49.8818C40.6141 49.8415 40.5132 49.8415 40.4527 49.8818L39.8473 50.235H39.7969V50.3056C39.7969 50.3258 39.8171 50.3459 39.8473 50.3661L40.4628 50.7193C40.5233 50.7596 40.6242 50.7596 40.6847 50.7193L41.3002 50.3661C41.3002 50.3661 41.3506 50.3258 41.3506 50.3056H41.3405Z" fill="#E7E7F0"/>
<path d="M42.2985 49.7587V49.6881H42.238L41.6326 49.335C41.5721 49.2946 41.4712 49.2946 41.4107 49.335L40.8053 49.6881H40.7549V49.7587C40.7549 49.7789 40.7751 49.799 40.8053 49.8192L41.4208 50.1724C41.4813 50.2127 41.5822 50.2127 41.6427 50.1724L42.2582 49.8192C42.2582 49.8192 42.3086 49.7789 42.3086 49.7587H42.2985Z" fill="#E7E7F0"/>
<path d="M43.2678 49.1806V49.1099H43.2072L42.6019 48.7568C42.5413 48.7165 42.4405 48.7165 42.3799 48.7568L41.7746 49.1099H41.7241V49.1806C41.7241 49.2007 41.7443 49.2209 41.7746 49.2411L42.39 49.5942C42.4505 49.6346 42.5514 49.6346 42.612 49.5942L43.2274 49.2411C43.2274 49.2411 43.2779 49.2007 43.2779 49.1806H43.2678Z" fill="#E7E7F0"/>
<path d="M44.2255 48.6337V48.5631H44.165L43.5596 48.21C43.4991 48.1696 43.3982 48.1696 43.3377 48.21L42.7323 48.5631H42.6819V48.6337C42.6819 48.6539 42.7021 48.6741 42.7323 48.6943L43.3478 49.0474C43.4083 49.0877 43.5092 49.0877 43.5697 49.0474L44.1852 48.6943C44.1852 48.6943 44.2356 48.6539 44.2356 48.6337H44.2255Z" fill="#E7E7F0"/>
<path d="M34.0451 53.4306V53.36H33.9846L33.3792 53.0068C33.3187 52.9665 33.2178 52.9665 33.1573 53.0068L32.5519 53.36H32.5015V53.4306C32.5015 53.4508 32.5216 53.4709 32.5519 53.4911L33.1673 53.8443C33.2279 53.8846 33.3288 53.8846 33.3893 53.8443L34.0048 53.4911C34.0048 53.4911 34.0552 53.4508 34.0552 53.4306H34.0451Z" fill="#E7E7F0"/>
<path d="M35.0156 52.8603V52.7896H34.9551L34.3497 52.4365C34.2892 52.3962 34.1883 52.3962 34.1277 52.4365L33.5224 52.7896H33.4719V52.8603C33.4719 52.8804 33.4921 52.9006 33.5224 52.9208L34.1378 53.2739C34.1984 53.3143 34.2993 53.3143 34.3598 53.2739L34.9752 52.9208C34.9752 52.9208 35.0257 52.8804 35.0257 52.8603H35.0156Z" fill="#E7E7F0"/>
<path d="M35.9746 52.3056V52.235H35.914L35.3087 51.8818C35.2482 51.8415 35.1473 51.8415 35.0867 51.8818L34.4814 52.235H34.4309V52.3056C34.4309 52.3257 34.4511 52.3459 34.4814 52.3661L35.0968 52.7192C35.1573 52.7596 35.2582 52.7596 35.3188 52.7192L35.9342 52.3661C35.9342 52.3661 35.9847 52.3257 35.9847 52.3056H35.9746Z" fill="#E7E7F0"/>
<path d="M36.9426 51.7509V51.6803H36.8821L36.2767 51.3271C36.2162 51.2868 36.1153 51.2868 36.0547 51.3271L35.4494 51.6803H35.3989V51.7509C35.3989 51.7711 35.4191 51.7913 35.4494 51.8114L36.0648 52.1646C36.1254 52.2049 36.2263 52.2049 36.2868 52.1646L36.9022 51.8114C36.9022 51.8114 36.9527 51.7711 36.9527 51.7509H36.9426Z" fill="#E7E7F0"/>
<path d="M37.9006 51.1806V51.11H37.8401L37.2347 50.7568C37.1742 50.7165 37.0733 50.7165 37.0127 50.7568L36.4074 51.11H36.3569V51.1806C36.3569 51.2008 36.3771 51.2209 36.4074 51.2411L37.0228 51.5943C37.0834 51.6346 37.1843 51.6346 37.2448 51.5943L37.8602 51.2411C37.8602 51.2411 37.9107 51.2008 37.9107 51.1806H37.9006Z" fill="#E7E7F0"/>
<path d="M38.8698 50.6259V50.5553H38.8093L38.2039 50.2021C38.1434 50.1618 38.0425 50.1618 37.982 50.2021L37.3766 50.5553H37.3262V50.6259C37.3262 50.6461 37.3463 50.6663 37.3766 50.6864L37.9921 51.0395C38.0526 51.0799 38.1535 51.0799 38.214 51.0395L38.8295 50.6864C38.8295 50.6864 38.8799 50.6461 38.8799 50.6259H38.8698Z" fill="#E7E7F0"/>
<path d="M39.8266 50.0712V50.0006H39.7661L39.1607 49.6475C39.1002 49.6071 38.9993 49.6071 38.9388 49.6475L38.3334 50.0006H38.283V50.0712C38.283 50.0914 38.3031 50.1115 38.3334 50.1317L38.9489 50.4849C39.0094 50.5252 39.1103 50.5252 39.1708 50.4849L39.7863 50.1317C39.7863 50.1317 39.8367 50.0914 39.8367 50.0712H39.8266Z" fill="#E7E7F0"/>
<path d="M40.7856 49.5165V49.4459H40.7251L40.1197 49.0928C40.0592 49.0524 39.9583 49.0524 39.8977 49.0928L39.2924 49.4459H39.2419V49.5165C39.2419 49.5367 39.2621 49.5569 39.2924 49.5771L39.9078 49.9302C39.9684 49.9706 40.0693 49.9706 40.1298 49.9302L40.7453 49.5771C40.7453 49.5771 40.7957 49.5367 40.7957 49.5165H40.7856Z" fill="#E7E7F0"/>
<path d="M41.7548 48.9462V48.8756H41.6943L41.0889 48.5225C41.0284 48.4821 40.9275 48.4821 40.867 48.5225L40.2616 48.8756H40.2112V48.9462C40.2112 48.9664 40.2313 48.9866 40.2616 49.0068L40.8771 49.3599C40.9376 49.4002 41.0385 49.4002 41.099 49.3599L41.7145 49.0068C41.7145 49.0068 41.7649 48.9664 41.7649 48.9462H41.7548Z" fill="#E7E7F0"/>
<path d="M42.7128 48.3915V48.3209H42.6523L42.047 47.9678C41.9864 47.9274 41.8855 47.9274 41.825 47.9678L41.2196 48.3209H41.1692V48.3915C41.1692 48.4117 41.1894 48.4319 41.2196 48.4521L41.8351 48.8052C41.8956 48.8455 41.9965 48.8455 42.057 48.8052L42.6725 48.4521C42.6725 48.4521 42.7229 48.4117 42.7229 48.3915H42.7128Z" fill="#E7E7F0"/>
<path d="M43.6821 47.8212V47.7506H43.6216L43.0162 47.3975C42.9557 47.3571 42.8548 47.3571 42.7942 47.3975L42.1889 47.7506H42.1384V47.8212C42.1384 47.8414 42.1586 47.8616 42.1889 47.8818L42.8043 48.2349C42.8649 48.2752 42.9658 48.2752 43.0263 48.2349L43.6417 47.8818C43.6417 47.8818 43.6922 47.8414 43.6922 47.8212H43.6821Z" fill="#E7E7F0"/>
<path d="M44.7914 47.1155H44.7309L44.1255 46.7725C44.065 46.7321 43.9641 46.7321 43.9036 46.7725L43.157 47.2063H43.0964V47.2769C43.0964 47.2971 43.1166 47.3173 43.1469 47.3375L43.7623 47.6906C43.8229 47.7309 43.9237 47.7309 43.9843 47.6906L44.7511 47.2467C44.7511 47.2467 44.8015 47.2063 44.8015 47.176V47.1054L44.7914 47.1155Z" fill="#E7E7F0"/>
<path d="M44.8218 51.6843V51.6137H44.7613L44.1559 51.2606C44.1055 51.2303 44.0449 51.2303 43.9844 51.2404C43.9642 51.2404 43.944 51.2505 43.9339 51.2606L43.3286 51.6137H43.2781V51.644L39.0003 54.1259L38.3949 54.4791H38.3445V54.5497C38.3445 54.5497 38.3445 54.5598 38.3445 54.5699C38.3445 54.5699 38.3445 54.5699 38.3445 54.58C38.3445 54.58 38.3546 54.58 38.3647 54.5901L38.9801 54.9432C39.0003 54.9432 39.0104 54.9634 39.0305 54.9634C39.0507 54.9634 39.0709 54.9634 39.0911 54.9634C39.1315 54.9634 39.1718 54.9634 39.2021 54.9331L39.8175 54.58L44.7613 51.7045C44.7613 51.7045 44.8117 51.6641 44.8117 51.6339L44.8218 51.6843Z" fill="#E7E7F0"/>
<path d="M32.2705 53.3346V53.264H32.2301L32.0687 53.1631C32.0081 53.1227 31.9073 53.1227 31.8467 53.1631L31.2817 53.496L31.1909 53.5162V53.5868C31.1909 53.5868 31.2111 53.6272 31.2414 53.6473L31.4028 53.7482C31.4633 53.7886 31.5642 53.7886 31.6247 53.7482L32.2402 53.3951C32.2402 53.3951 32.2806 53.3548 32.2906 53.3346H32.2705Z" fill="#E7E7F0"/>
<path d="M33.2273 52.7799V52.7093H33.1869L33.0255 52.6084C32.9649 52.568 32.864 52.568 32.8035 52.6084L32.2385 52.9413L32.1477 52.9615V53.0321C32.1477 53.0321 32.1679 53.0725 32.1982 53.0927L32.3697 53.1936C32.4302 53.2339 32.5311 53.2339 32.5916 53.1936L33.2071 52.8404C33.2071 52.8404 33.2474 52.8001 33.2575 52.7799H33.2273Z" fill="#E7E7F0"/>
<path d="M34.1872 52.2174V52.1468H34.1469L33.9854 52.0459C33.9249 52.0055 33.824 52.0055 33.7635 52.0459L33.1985 52.3789L33.1077 52.399V52.4697C33.1077 52.4697 33.1278 52.51 33.1581 52.5302L33.3296 52.6311C33.3902 52.6714 33.4911 52.6714 33.5516 52.6311L34.167 52.278C34.167 52.278 34.2074 52.2376 34.2175 52.2174H34.1872Z" fill="#E7E7F0"/>
<path d="M35.1555 51.6549V51.5843H35.1151L34.9537 51.4834C34.8932 51.443 34.7923 51.443 34.7317 51.4834L34.1667 51.8164L34.0759 51.8365V51.9072C34.0759 51.9072 34.0961 51.9475 34.1264 51.9677L34.2878 52.0686C34.3483 52.1089 34.4492 52.1089 34.5098 52.0686L35.1252 51.7155C35.1252 51.7155 35.1656 51.6751 35.1757 51.6549H35.1555Z" fill="#E7E7F0"/>
<path d="M36.1145 51.1002V51.0296H36.0741L35.9127 50.9287C35.8521 50.8883 35.7512 50.8883 35.6907 50.9287L35.1257 51.2616L35.0349 51.2818V51.3524C35.0349 51.3524 35.0551 51.3928 35.0854 51.413L35.2569 51.5139C35.3174 51.5542 35.4183 51.5542 35.4788 51.5139L36.0943 51.1608C36.0943 51.1608 36.1346 51.1204 36.1447 51.1002H36.1145Z" fill="#E7E7F0"/>
<path d="M37.0827 50.5377V50.4671H37.0424L36.881 50.3662C36.8204 50.3258 36.7195 50.3258 36.659 50.3662L36.094 50.6991L36.0032 50.7193V50.7899C36.0032 50.7899 36.0234 50.8303 36.0536 50.8505L36.2151 50.9514C36.2756 50.9917 36.3765 50.9917 36.437 50.9514L37.0525 50.5982C37.0525 50.5982 37.0928 50.5579 37.1029 50.5377H37.0827Z" fill="#E7E7F0"/>
<path d="M38.0425 49.9909V49.9202H38.0022L37.8307 49.8193C37.7701 49.779 37.6692 49.779 37.6087 49.8193L37.0437 50.1523L36.9529 50.1725V50.2431C36.9529 50.2431 36.9731 50.2834 37.0033 50.3036L37.1648 50.4045C37.2253 50.4449 37.3262 50.4449 37.3867 50.4045L38.0022 50.0514C38.0022 50.0514 38.0425 50.011 38.0526 49.9909H38.0425Z" fill="#E7E7F0"/>
<path d="M39.0097 49.4205V49.3499H38.9694L38.808 49.249C38.7474 49.2087 38.6465 49.2087 38.586 49.249L38.021 49.582L37.9302 49.6021V49.6728C37.9302 49.6728 37.9504 49.7131 37.9806 49.7333L38.1521 49.8342C38.2127 49.8746 38.3136 49.8746 38.3741 49.8342L38.9896 49.4811C38.9896 49.4811 39.0299 49.4407 39.04 49.4205H39.0097Z" fill="#E7E7F0"/>
<path d="M39.9686 48.8658V48.7952H39.9282L39.7567 48.6943C39.6961 48.654 39.5952 48.654 39.5347 48.6943L38.9697 49.0273L38.8789 49.0475V49.1181C38.8789 49.1181 38.8991 49.1584 38.9294 49.1786L39.0908 49.2795C39.1513 49.3199 39.2522 49.3199 39.3128 49.2795L39.9282 48.9264C39.9282 48.9264 39.9685 48.886 39.9786 48.8658H39.9686Z" fill="#E7E7F0"/>
<path d="M40.937 48.2955V48.2249H40.8966L40.7352 48.124C40.6746 48.0837 40.5738 48.0837 40.5132 48.124L39.9482 48.457L39.8574 48.4771V48.5478C39.8574 48.5478 39.8776 48.5881 39.9079 48.6083L40.0693 48.7092C40.1298 48.7495 40.2307 48.7495 40.2913 48.7092L40.9067 48.3561C40.9067 48.3561 40.9471 48.3157 40.9572 48.2955H40.937Z" fill="#E7E7F0"/>
<path d="M41.8969 47.7487V47.678H41.8566L41.6951 47.5771C41.6346 47.5368 41.5337 47.5368 41.4732 47.5771L40.9082 47.9101L40.8174 47.9303V48.0009C40.8174 48.0009 40.8376 48.0413 40.8678 48.0614L41.0293 48.1623C41.0898 48.2027 41.1907 48.2027 41.2512 48.1623L41.8667 47.8092C41.8667 47.8092 41.907 47.7689 41.9171 47.7487H41.8969Z" fill="#E7E7F0"/>
<path d="M42.854 47.1705V47.0999H42.8136L42.6522 46.999C42.5917 46.9587 42.4908 46.9587 42.4302 46.999L41.8652 47.332L41.7744 47.3521V47.4228C41.7744 47.4228 41.7946 47.4631 41.8249 47.4833L41.9863 47.5842C42.0468 47.6246 42.1477 47.6246 42.2083 47.5842L42.8237 47.2311C42.8237 47.2311 42.8641 47.1907 42.8742 47.1705H42.854Z" fill="#E7E7F0"/>
<path d="M43.822 46.6237V46.553H43.7816L43.6202 46.4521C43.5597 46.4118 43.4588 46.4118 43.3982 46.4521L42.8332 46.7851L42.7424 46.8053V46.8759C42.7424 46.8759 42.7626 46.9163 42.7929 46.9364L42.9543 47.0373C43.0148 47.0777 43.1157 47.0777 43.1763 47.0373L43.7917 46.6842C43.7917 46.6842 43.8321 46.6439 43.8422 46.6237H43.822Z" fill="#E7E7F0"/>
<path d="M33.6436 54.7193H33.6032L32.9878 54.3662C32.9272 54.3258 32.8263 54.3258 32.7658 54.3662L31.6257 55.0321H31.5652V55.1027C31.5652 55.1229 31.5854 55.1431 31.6156 55.1632L32.2311 55.5164C32.2916 55.5567 32.3925 55.5567 32.453 55.5164L33.6133 54.8404C33.6133 54.8404 33.6638 54.8 33.6638 54.7799V54.7092L33.6436 54.7193Z" fill="#E7E7F0"/>
<path d="M35.0961 54.985H35.0558L34.4403 54.6318C34.3798 54.5915 34.2789 54.5915 34.2184 54.6318L32.6141 55.5601L32.5334 55.5802V55.6509C32.5334 55.6509 32.5536 55.7013 32.5839 55.7114L33.1993 56.0645C33.2599 56.1049 33.3608 56.1049 33.4213 56.0645L35.0659 55.1161C35.0659 55.1161 35.1163 55.0758 35.1163 55.0556V54.985H35.0961Z" fill="#E7E7F0"/>
<path d="M36.0837 55.5709H36.0433L35.4279 55.2178C35.3673 55.1774 35.2664 55.1774 35.2059 55.2178L33.6017 56.146L33.521 56.1662V56.2368C33.521 56.2368 33.5412 56.2872 33.5714 56.2973L34.1869 56.6504C34.2474 56.6908 34.3483 56.6908 34.4089 56.6504L36.0534 55.692C36.0534 55.692 36.1039 55.6516 36.1039 55.6314V55.5608L36.0837 55.5709Z" fill="#E7E7F0"/>
<path d="M45.77 47.6725H45.7297L45.1142 47.3193C45.0537 47.279 44.9528 47.279 44.8923 47.3193L43.732 47.9953H43.6614V48.066C43.6614 48.0861 43.6815 48.1063 43.7118 48.1265L44.3273 48.4796C44.3878 48.52 44.4887 48.52 44.5492 48.4796L45.7297 47.7935C45.7297 47.7935 45.7801 47.7532 45.7801 47.733V47.6624L45.77 47.6725Z" fill="#E7E7F0"/>
<path d="M46.6972 48.2506L46.0818 47.8975C46.0212 47.8571 45.9203 47.8571 45.8598 47.8975L44.1951 48.866C44.1345 48.9064 44.1345 48.9568 44.1951 48.9972L44.8105 49.3503C44.871 49.3907 44.9719 49.3907 45.0325 49.3503L46.6972 48.3818C46.7577 48.3414 46.7577 48.2909 46.6972 48.2506Z" fill="#E7E7F0"/>
<path d="M47.2529 49.7486V49.678H47.2125L47.0511 49.5771C46.9906 49.5368 46.8897 49.5368 46.8292 49.5771L46.2642 49.9101L46.1733 49.9303V50.0009C46.1733 50.0009 46.1935 50.0412 46.2238 50.0614L46.3953 50.1623C46.4558 50.2027 46.5567 50.2027 46.6173 50.1623L47.2327 49.8092C47.2327 49.8092 47.2731 49.7688 47.2832 49.7486H47.2529Z" fill="#E7E7F0"/>
<path d="M47.7072 50.0143V49.9437H47.6669L47.5054 49.8428C47.4449 49.8024 47.344 49.8024 47.2835 49.8428L46.7185 50.1757L46.6277 50.1959V50.2665C46.6277 50.2665 46.6479 50.3069 46.6781 50.3271L46.8396 50.428C46.9001 50.4683 47.001 50.4683 47.0615 50.428L47.677 50.0748C47.677 50.0748 47.7173 50.0345 47.7274 50.0143H47.7072Z" fill="#E7E7F0"/>
<path d="M37.0019 55.0162L36.3865 54.6631C36.3259 54.6227 36.225 54.6227 36.1645 54.6631L35.5491 55.0162C35.4885 55.0566 35.4885 55.107 35.5491 55.1474L36.1645 55.5005C36.225 55.5409 36.3259 55.5409 36.3865 55.5005L37.0019 55.1474C37.0625 55.107 37.0625 55.0566 37.0019 55.0162Z" fill="#E7E7F0"/>
<path d="M31.3006 53.9026V53.832H31.2602V53.8421L31.0887 53.7412C31.0281 53.7008 30.9273 53.7008 30.8667 53.7412L30.1605 54.1549L30.0596 54.1851V54.2658C30.0596 54.2658 30.0798 54.3062 30.11 54.3264L30.2815 54.4273C30.3421 54.4676 30.443 54.4676 30.5035 54.4273L31.2703 53.9833C31.2703 53.9833 31.3207 53.943 31.3207 53.9127L31.3006 53.9026Z" fill="#E7E7F0"/>
<path d="M32.0778 54.4068L31.4624 54.0537C31.4019 54.0133 31.301 54.0133 31.2404 54.0537L30.625 54.4068C30.5645 54.4472 30.5645 54.4976 30.625 54.538L31.2404 54.8911C31.301 54.9315 31.4019 54.9315 31.4624 54.8911L32.0778 54.538C32.1384 54.4976 32.1384 54.4472 32.0778 54.4068Z" fill="#F4F5FA"/>
<path d="M33.0368 53.8443L32.4214 53.4912C32.3609 53.4508 32.26 53.4508 32.1994 53.4912L31.584 53.8443C31.5234 53.8847 31.5234 53.9351 31.584 53.9755L32.1994 54.3286C32.26 54.369 32.3609 54.369 32.4214 54.3286L33.0368 53.9755C33.0974 53.9351 33.0974 53.8847 33.0368 53.8443Z" fill="#F4F5FA"/>
<path d="M34.0061 53.2896L33.3906 52.9365C33.3301 52.8962 33.2292 52.8962 33.1687 52.9365L32.5532 53.2896C32.4927 53.33 32.4927 53.3805 32.5532 53.4208L33.1687 53.7739C33.2292 53.8143 33.3301 53.8143 33.3906 53.7739L34.0061 53.4208C34.0666 53.3805 34.0666 53.33 34.0061 53.2896Z" fill="#F4F5FA"/>
<path d="M34.9628 52.7115L34.3474 52.3584C34.2869 52.318 34.186 52.318 34.1254 52.3584L33.51 52.7115C33.4495 52.7519 33.4495 52.8023 33.51 52.8427L34.1254 53.1958C34.186 53.2362 34.2869 53.2362 34.3474 53.1958L34.9628 52.8427C35.0234 52.8023 35.0234 52.7519 34.9628 52.7115Z" fill="#F4F5FA"/>
<path d="M35.9311 52.1646L35.3157 51.8115C35.2551 51.7712 35.1542 51.7712 35.0937 51.8115L34.4783 52.1646C34.4177 52.205 34.4177 52.2554 34.4783 52.2958L35.0937 52.6489C35.1542 52.6893 35.2551 52.6893 35.3157 52.6489L35.9311 52.2958C35.9917 52.2554 35.9917 52.205 35.9311 52.1646Z" fill="#F4F5FA"/>
<path d="M36.8901 51.5943L36.2747 51.2412C36.2141 51.2008 36.1132 51.2008 36.0527 51.2412L35.4372 51.5943C35.3767 51.6347 35.3767 51.6851 35.4372 51.7255L36.0527 52.0786C36.1132 52.119 36.2141 52.119 36.2747 52.0786L36.8901 51.7255C36.9506 51.6851 36.9506 51.6347 36.8901 51.5943Z" fill="#F4F5FA"/>
<path d="M37.8501 51.0396L37.2346 50.6865C37.1741 50.6462 37.0732 50.6462 37.0127 50.6865L36.3972 51.0396C36.3367 51.08 36.3367 51.1305 36.3972 51.1708L37.0127 51.5239C37.0732 51.5643 37.1741 51.5643 37.2346 51.5239L37.8501 51.1708C37.9106 51.1305 37.9106 51.08 37.8501 51.0396Z" fill="#F4F5FA"/>
<path d="M38.8171 50.485L38.2017 50.1318C38.1411 50.0915 38.0402 50.0915 37.9797 50.1318L37.3642 50.485C37.3037 50.5253 37.3037 50.5757 37.3642 50.6161L37.9797 50.9692C38.0402 51.0096 38.1411 51.0096 38.2017 50.9692L38.8171 50.6161C38.8776 50.5757 38.8776 50.5253 38.8171 50.485Z" fill="#F4F5FA"/>
<path d="M39.7761 49.9303L39.1606 49.5771C39.1001 49.5368 38.9992 49.5368 38.9387 49.5771L38.3232 49.9303C38.2627 49.9706 38.2627 50.0211 38.3232 50.0614L38.9387 50.4145C38.9992 50.4549 39.1001 50.4549 39.1606 50.4145L39.7761 50.0614C39.8366 50.0211 39.8366 49.9706 39.7761 49.9303Z" fill="#F4F5FA"/>
<path d="M40.7444 49.3756L40.1289 49.0225C40.0684 48.9821 39.9675 48.9821 39.9069 49.0225L39.2915 49.3756C39.231 49.4159 39.231 49.4664 39.2915 49.5068L39.9069 49.8599C39.9675 49.9002 40.0684 49.9002 40.1289 49.8599L40.7444 49.5068C40.8049 49.4664 40.8049 49.4159 40.7444 49.3756Z" fill="#F4F5FA"/>
<path d="M41.7043 48.8053L41.0889 48.4521C41.0283 48.4118 40.9274 48.4118 40.8669 48.4521L40.2515 48.8053C40.1909 48.8456 40.1909 48.8961 40.2515 48.9364L40.8669 49.2896C40.9274 49.3299 41.0283 49.3299 41.0889 49.2896L41.7043 48.9364C41.7649 48.8961 41.7649 48.8456 41.7043 48.8053Z" fill="#F4F5FA"/>
<path d="M35.5197 53.5318L34.9043 53.1787C34.8438 53.1383 34.7429 53.1383 34.6823 53.1787L34.0669 53.5318C34.0064 53.5722 34.0064 53.6226 34.0669 53.663L34.6823 54.0161C34.7429 54.0565 34.8438 54.0565 34.9043 54.0161L35.5197 53.663C35.5803 53.6226 35.5803 53.5722 35.5197 53.5318Z" fill="#F4F5FA"/>
<path d="M36.4768 52.9615L35.8613 52.6084C35.8008 52.568 35.6999 52.568 35.6393 52.6084L35.0239 52.9615C34.9634 53.0019 34.9634 53.0523 35.0239 53.0927L35.6393 53.4458C35.6999 53.4862 35.8008 53.4862 35.8613 53.4458L36.4768 53.0927C36.5373 53.0523 36.5373 53.0019 36.4768 52.9615Z" fill="#F4F5FA"/>
<path d="M37.4448 52.4068L36.8293 52.0537C36.7688 52.0133 36.6679 52.0133 36.6074 52.0537L35.9919 52.4068C35.9314 52.4472 35.9314 52.4976 35.9919 52.538L36.6074 52.8911C36.6679 52.9315 36.7688 52.9315 36.8293 52.8911L37.4448 52.538C37.5053 52.4976 37.5053 52.4472 37.4448 52.4068Z" fill="#F4F5FA"/>
<path d="M38.4028 51.8443L37.7874 51.4912C37.7268 51.4508 37.6259 51.4508 37.5654 51.4912L36.9499 51.8443C36.8894 51.8847 36.8894 51.9351 36.9499 51.9755L37.5654 52.3286C37.6259 52.369 37.7268 52.369 37.7874 52.3286L38.4028 51.9755C38.4633 51.9351 38.4633 51.8847 38.4028 51.8443Z" fill="#F4F5FA"/>
<path d="M39.3628 51.2818L38.7473 50.9287C38.6868 50.8883 38.5859 50.8883 38.5254 50.9287L37.9099 51.2818C37.8494 51.3222 37.8494 51.3726 37.9099 51.413L38.5254 51.7661C38.5859 51.8065 38.6868 51.8065 38.7473 51.7661L39.3628 51.413C39.4233 51.3726 39.4233 51.3222 39.3628 51.2818Z" fill="#F4F5FA"/>
<path d="M40.331 50.7428L39.7156 50.3896C39.655 50.3493 39.5541 50.3493 39.4936 50.3896L38.8782 50.7428C38.8176 50.7831 38.8176 50.8336 38.8782 50.8739L39.4936 51.2271C39.5541 51.2674 39.655 51.2674 39.7156 51.2271L40.331 50.8739C40.3916 50.8336 40.3916 50.7831 40.331 50.7428Z" fill="#F4F5FA"/>
<path d="M41.29 50.1646L40.6746 49.8115C40.614 49.7712 40.5131 49.7712 40.4526 49.8115L39.8371 50.1646C39.7766 50.205 39.7766 50.2555 39.8371 50.2958L40.4526 50.6489C40.5131 50.6893 40.614 50.6893 40.6746 50.6489L41.29 50.2958C41.3505 50.2555 41.3505 50.205 41.29 50.1646Z" fill="#F4F5FA"/>
<path d="M42.2592 49.6177L41.6438 49.2646C41.5833 49.2243 41.4824 49.2243 41.4218 49.2646L40.8064 49.6177C40.7459 49.6581 40.7459 49.7086 40.8064 49.7489L41.4218 50.102C41.4824 50.1424 41.5833 50.1424 41.6438 50.102L42.2592 49.7489C42.3198 49.7086 42.3198 49.6581 42.2592 49.6177Z" fill="#F4F5FA"/>
<path d="M43.216 49.0396L42.6006 48.6865C42.5401 48.6462 42.4392 48.6462 42.3786 48.6865L41.7632 49.0396C41.7026 49.08 41.7026 49.1304 41.7632 49.1708L42.3786 49.5239C42.4392 49.5643 42.5401 49.5643 42.6006 49.5239L43.216 49.1708C43.2766 49.1304 43.2766 49.08 43.216 49.0396Z" fill="#F4F5FA"/>
<path d="M44.1853 48.4928L43.5698 48.1396C43.5093 48.0993 43.4084 48.0993 43.3479 48.1396L42.7324 48.4928C42.6719 48.5331 42.6719 48.5836 42.7324 48.6239L43.3479 48.9771C43.4084 49.0174 43.5093 49.0174 43.5698 48.9771L44.1853 48.6239C44.2458 48.5836 44.2458 48.5331 44.1853 48.4928Z" fill="#F4F5FA"/>
<path d="M42.6726 48.2506L42.0571 47.8975C41.9966 47.8571 41.8957 47.8571 41.8352 47.8975L41.2197 48.2506C41.1592 48.2909 41.1592 48.3414 41.2197 48.3818L41.8352 48.7349C41.8957 48.7752 41.9966 48.7752 42.0571 48.7349L42.6726 48.3818C42.7331 48.3414 42.7331 48.2909 42.6726 48.2506Z" fill="#F4F5FA"/>
<path d="M43.6306 47.6803L43.0151 47.3271C42.9546 47.2868 42.8537 47.2868 42.7932 47.3271L42.1777 47.6803C42.1172 47.7206 42.1172 47.7711 42.1777 47.8114L42.7932 48.1645C42.8537 48.2049 42.9546 48.2049 43.0151 48.1645L43.6306 47.8114C43.6911 47.7711 43.6911 47.7206 43.6306 47.6803Z" fill="#F4F5FA"/>
<path d="M35.9824 56.6568L35.3669 56.3037C35.3064 56.2633 35.2055 56.2633 35.145 56.3037L34.5295 56.6568C34.469 56.6972 34.469 56.7476 34.5295 56.788L35.145 57.1411C35.2055 57.1815 35.3064 57.1815 35.3669 57.1411L35.9824 56.788C36.0429 56.7476 36.0429 56.6972 35.9824 56.6568Z" fill="#F4F5FA"/>
<path d="M36.9414 56.0943L36.3259 55.7412C36.2654 55.7008 36.1645 55.7008 36.104 55.7412L35.4885 56.0943C35.428 56.1347 35.428 56.1851 35.4885 56.2255L36.104 56.5786C36.1645 56.619 36.2654 56.619 36.3259 56.5786L36.9414 56.2255C37.0019 56.1851 37.0019 56.1347 36.9414 56.0943Z" fill="#F4F5FA"/>
<path d="M37.9096 55.5318L37.2942 55.1787C37.2337 55.1383 37.1328 55.1383 37.0722 55.1787L36.4568 55.5318C36.3962 55.5722 36.3962 55.6226 36.4568 55.663L37.0722 56.0161C37.1328 56.0565 37.2337 56.0565 37.2942 56.0161L37.9096 55.663C37.9702 55.6226 37.9702 55.5722 37.9096 55.5318Z" fill="#F4F5FA"/>
<path d="M38.8674 54.9693L38.252 54.6162C38.1914 54.5758 38.0905 54.5758 38.03 54.6162L37.4145 54.9693C37.354 55.0097 37.354 55.0601 37.4145 55.1005L38.03 55.4536C38.0905 55.494 38.1914 55.494 38.252 55.4536L38.8674 55.1005C38.9279 55.0601 38.9279 55.0097 38.8674 54.9693Z" fill="#F4F5FA"/>
<path d="M34.5505 54.0865L33.9351 53.7334C33.8745 53.693 33.7736 53.693 33.7131 53.7334L33.0976 54.0865C33.0371 54.1269 33.0371 54.1773 33.0976 54.2177L33.7131 54.5708C33.7736 54.6111 33.8745 54.6111 33.9351 54.5708L34.5505 54.2177C34.611 54.1773 34.611 54.1269 34.5505 54.0865Z" fill="#F4F5FA"/>
<path d="M44.7397 47.0318L44.1242 46.6787C44.0637 46.6383 43.9628 46.6383 43.9023 46.6787L43.1355 47.1226C43.075 47.163 43.075 47.2134 43.1355 47.2538L43.7509 47.6069C43.8115 47.6473 43.9124 47.6473 43.9729 47.6069L44.7397 47.163C44.8002 47.1226 44.8002 47.0722 44.7397 47.0318Z" fill="#F4F5FA"/>
<path d="M44.7701 51.5475L44.1547 51.1943C44.0941 51.154 43.9933 51.154 43.9327 51.1943L38.3735 54.4229C38.313 54.4633 38.313 54.5137 38.3735 54.5541L38.989 54.9072C39.0495 54.9475 39.1504 54.9475 39.2109 54.9072L44.7701 51.6786C44.8307 51.6383 44.8307 51.5878 44.7701 51.5475Z" fill="#F4F5FA"/>
<path d="M32.2195 53.1859L32.0581 53.085C31.9976 53.0446 31.8967 53.0446 31.8361 53.085L31.2207 53.4381C31.1602 53.4784 31.1602 53.5289 31.2207 53.5693L31.3821 53.6702C31.4427 53.7105 31.5435 53.7105 31.6041 53.6702L32.2195 53.317C32.2801 53.2767 32.2801 53.2262 32.2195 53.1859Z" fill="#F4F5FA"/>
<path d="M33.1775 52.6389L33.0161 52.5381C32.9556 52.4977 32.8547 52.4977 32.7941 52.5381L32.1787 52.8912C32.1182 52.9315 32.1182 52.982 32.1787 53.0223L32.3502 53.1232C32.4108 53.1636 32.5116 53.1636 32.5722 53.1232L33.1876 52.7701C33.2482 52.7298 33.2482 52.6793 33.1876 52.6389H33.1775Z" fill="#F4F5FA"/>
<path d="M34.1468 52.0608L33.9853 51.96C33.9248 51.9196 33.8239 51.9196 33.7634 51.96L33.1479 52.3131C33.0874 52.3534 33.0874 52.4039 33.1479 52.4442L33.3094 52.5451C33.3699 52.5855 33.4708 52.5855 33.5313 52.5451L34.1468 52.192C34.2073 52.1516 34.2073 52.1012 34.1468 52.0608Z" fill="#F4F5FA"/>
<path d="M35.1048 51.514L34.9434 51.4131C34.8828 51.3727 34.7819 51.3727 34.7214 51.4131L34.1059 51.7662C34.0454 51.8066 34.0454 51.857 34.1059 51.8974L34.2674 51.9983C34.3279 52.0386 34.4288 52.0386 34.4893 51.9983L35.1048 51.6451C35.1653 51.6048 35.1653 51.5543 35.1048 51.514Z" fill="#F4F5FA"/>
<path d="M36.074 50.9515L35.9126 50.8506C35.8521 50.8102 35.7512 50.8102 35.6906 50.8506L35.0752 51.2037C35.0147 51.2441 35.0147 51.2945 35.0752 51.3349L35.2467 51.4358C35.3072 51.4761 35.4081 51.4761 35.4687 51.4358L36.0841 51.0826C36.1447 51.0423 36.1447 50.9918 36.0841 50.9515H36.074Z" fill="#F4F5FA"/>
<path d="M37.033 50.3968L36.8716 50.2959C36.811 50.2555 36.7101 50.2555 36.6496 50.2959L36.0342 50.649C35.9736 50.6894 35.9736 50.7398 36.0342 50.7802L36.1956 50.8811C36.2561 50.9214 36.357 50.9214 36.4176 50.8811L37.033 50.5279C37.0935 50.4876 37.0935 50.4371 37.033 50.3968Z" fill="#F4F5FA"/>
<path d="M38.0009 49.8421L37.8293 49.7412C37.7688 49.7008 37.6679 49.7008 37.6074 49.7412L36.9919 50.0943C36.9314 50.1347 36.9314 50.1851 36.9919 50.2255L37.1534 50.3264C37.2139 50.3667 37.3148 50.3667 37.3753 50.3264L37.9908 49.9732C38.0513 49.9329 38.0513 49.8824 37.9908 49.8421H38.0009Z" fill="#F4F5FA"/>
<path d="M38.959 49.2796L38.7976 49.1787C38.7371 49.1383 38.6362 49.1383 38.5756 49.1787L37.9602 49.5318C37.8997 49.5722 37.8997 49.6226 37.9602 49.663L38.1317 49.7639C38.1922 49.8043 38.2931 49.8043 38.3537 49.7639L38.9691 49.4108C39.0297 49.3704 39.0297 49.32 38.9691 49.2796H38.959Z" fill="#F4F5FA"/>
<path d="M39.918 48.7249L39.7566 48.624C39.6961 48.5837 39.5952 48.5837 39.5346 48.624L38.9192 48.9771C38.8586 49.0175 38.8586 49.0679 38.9192 49.1083L39.0907 49.2092C39.1512 49.2495 39.2521 49.2495 39.3127 49.2092L39.9281 48.8561C39.9886 48.8157 39.9886 48.7653 39.9281 48.7249H39.918Z" fill="#F4F5FA"/>
<path d="M40.8853 48.1546L40.7239 48.0537C40.6633 48.0133 40.5624 48.0133 40.5019 48.0537L39.8865 48.4068C39.8259 48.4472 39.8259 48.4976 39.8865 48.538L40.0479 48.6389C40.1084 48.6792 40.2093 48.6792 40.2699 48.6389L40.8853 48.2857C40.9458 48.2454 40.9458 48.195 40.8853 48.1546Z" fill="#F4F5FA"/>
<path d="M41.8453 47.6077L41.6838 47.5068C41.6233 47.4665 41.5224 47.4665 41.4619 47.5068L40.8464 47.86C40.7859 47.9003 40.7859 47.9508 40.8464 47.9911L41.0179 48.092C41.0785 48.1324 41.1794 48.1324 41.2399 48.092L41.8554 47.7389C41.9159 47.6985 41.9159 47.6481 41.8554 47.6077H41.8453Z" fill="#F4F5FA"/>
<path d="M42.8133 47.0296L42.6519 46.9287C42.5913 46.8883 42.4904 46.8883 42.4299 46.9287L41.8144 47.2818C41.7539 47.3222 41.7539 47.3726 41.8144 47.413L41.9759 47.5139C42.0364 47.5543 42.1373 47.5543 42.1978 47.5139L42.8133 47.1608C42.8738 47.1204 42.8738 47.07 42.8133 47.0296Z" fill="#F4F5FA"/>
<path d="M43.7711 46.4827L43.5996 46.3818C43.5391 46.3415 43.4382 46.3415 43.3776 46.3818L42.7622 46.735C42.7017 46.7753 42.7017 46.8258 42.7622 46.8661L42.9236 46.967C42.9842 47.0074 43.085 47.0074 43.1456 46.967L43.761 46.6139C43.8216 46.5735 43.8216 46.5231 43.761 46.4827H43.7711Z" fill="#F4F5FA"/>
<path d="M31.2508 53.764L31.0793 53.6631C31.0188 53.6227 30.9179 53.6227 30.8574 53.6631L30.0906 54.107C30.03 54.1474 30.03 54.1978 30.0906 54.2382L30.2621 54.3391C30.3226 54.3794 30.4235 54.3794 30.4841 54.3391L31.2508 53.8951C31.3114 53.8548 31.3114 53.8043 31.2508 53.764Z" fill="#F4F5FA"/>
<path d="M33.5907 54.649L32.9752 54.2959C32.9147 54.2555 32.8138 54.2555 32.7533 54.2959L31.593 54.9719C31.5325 55.0122 31.5325 55.0627 31.593 55.103L32.2085 55.4562C32.269 55.4965 32.3699 55.4965 32.4304 55.4562L33.5907 54.7802C33.6512 54.7398 33.6512 54.6894 33.5907 54.649Z" fill="#F4F5FA"/>
<path d="M35.0545 54.9146L34.439 54.5615C34.3785 54.5212 34.2776 54.5212 34.2171 54.5615L32.5725 55.5099C32.512 55.5503 32.512 55.6007 32.5725 55.6411L33.1879 55.9942C33.2485 56.0346 33.3494 56.0346 33.4099 55.9942L35.0545 55.0458C35.115 55.0055 35.115 54.955 35.0545 54.9146Z" fill="#F4F5FA"/>
<path d="M36.033 55.5006L35.4175 55.1475C35.357 55.1071 35.2561 55.1071 35.1956 55.1475L33.551 56.0959C33.4905 56.1362 33.4905 56.1867 33.551 56.227L34.1665 56.5801C34.227 56.6205 34.3279 56.6205 34.3884 56.5801L36.033 55.6317C36.0935 55.5914 36.0935 55.5409 36.033 55.5006Z" fill="#F4F5FA"/>
<path d="M45.7195 47.6021L45.1041 47.249C45.0435 47.2087 44.9426 47.2087 44.8821 47.249L43.7017 47.9351C43.6411 47.9755 43.6411 48.0259 43.7017 48.0662L44.3171 48.4194C44.3776 48.4597 44.4785 48.4597 44.5391 48.4194L45.7195 47.7333C45.78 47.693 45.78 47.6425 45.7195 47.6021Z" fill="#F4F5FA"/>
<path d="M46.6992 48.1725L46.0837 47.8193C46.0232 47.779 45.9223 47.779 45.8617 47.8193L44.197 48.7879C44.1365 48.8283 44.1365 48.8787 44.197 48.9191L44.8125 49.2722C44.873 49.3125 44.9739 49.3125 45.0344 49.2722L46.6992 48.3036C46.7597 48.2633 46.7597 48.2128 46.6992 48.1725Z" fill="#F4F5FA"/>
<path d="M47.2133 49.5999L47.0418 49.499C46.9812 49.4587 46.8803 49.4587 46.8198 49.499L46.2043 49.8521C46.1438 49.8925 46.1438 49.943 46.2043 49.9833L46.3759 50.0842C46.4364 50.1245 46.5373 50.1245 46.5978 50.0842L47.2133 49.7311C47.2738 49.6907 47.2738 49.6403 47.2133 49.5999Z" fill="#F4F5FA"/>
<path d="M47.6565 49.8655L47.4951 49.7646C47.4346 49.7243 47.3337 49.7243 47.2732 49.7646L46.6577 50.1177C46.5972 50.1581 46.5972 50.2086 46.6577 50.2489L46.8191 50.3498C46.8797 50.3902 46.9806 50.3902 47.0411 50.3498L47.6565 49.9967C47.7171 49.9563 47.7171 49.9059 47.6565 49.8655Z" fill="#F4F5FA"/>
<path d="M43.7207 49.8912L43.1052 49.5381C43.0447 49.4977 42.9438 49.4977 42.8833 49.5381L42.2678 49.8912C42.2073 49.9316 42.2073 49.982 42.2678 50.0223L42.8833 50.3755C42.9438 50.4158 43.0447 50.4158 43.1052 50.3755L43.7207 50.0223C43.7812 49.982 43.7812 49.9316 43.7207 49.8912Z" fill="#F4F5FA"/>
<path d="M44.6797 49.3365L44.0642 48.9834C44.0037 48.943 43.9028 48.943 43.8422 48.9834L43.2268 49.3365C43.1663 49.3769 43.1663 49.4273 43.2268 49.4677L43.8422 49.8208C43.9028 49.8612 44.0037 49.8612 44.0642 49.8208L44.6797 49.4677C44.7402 49.4273 44.7402 49.3769 44.6797 49.3365Z" fill="#F4F5FA"/>
<path d="M44.7002 50.4615L44.0847 50.1084C44.0242 50.068 43.9233 50.068 43.8628 50.1084L43.2473 50.4615C43.1868 50.5019 43.1868 50.5523 43.2473 50.5927L43.8628 50.9458C43.9233 50.9861 44.0242 50.9861 44.0847 50.9458L44.7002 50.5927C44.7607 50.5523 44.7607 50.5019 44.7002 50.4615Z" fill="#F4F5FA"/>
<path d="M45.6684 49.9068L45.053 49.5537C44.9924 49.5133 44.8916 49.5133 44.831 49.5537L44.2156 49.9068C44.155 49.9472 44.155 49.9976 44.2156 50.038L44.831 50.3911C44.8916 50.4315 44.9924 50.4315 45.053 50.3911L45.6684 50.038C45.729 49.9976 45.729 49.9472 45.6684 49.9068Z" fill="#F4F5FA"/>
<path d="M46.6264 49.3365L46.011 48.9834C45.9505 48.943 45.8496 48.943 45.789 48.9834L45.1736 49.3365C45.113 49.3769 45.113 49.4273 45.1736 49.4677L45.789 49.8208C45.8496 49.8612 45.9505 49.8612 46.011 49.8208L46.6264 49.4677C46.687 49.4273 46.687 49.3769 46.6264 49.3365Z" fill="#F4F5FA"/>
<path d="M47.6764 48.7271L47.0609 48.374C47.0004 48.3337 46.8995 48.3337 46.839 48.374L46.1428 48.7776C46.0823 48.8179 46.0823 48.8684 46.1428 48.9087L46.7583 49.2618C46.8188 49.3022 46.9197 49.3022 46.9802 49.2618L47.6764 48.8583C47.7369 48.8179 47.7369 48.7675 47.6764 48.7271Z" fill="#F4F5FA"/>
<path d="M41.7946 51.0084L41.1792 50.6553C41.1187 50.6149 41.0178 50.6149 40.9572 50.6553L40.3418 51.0084C40.2813 51.0488 40.2813 51.0992 40.3418 51.1396L40.9572 51.4927C41.0178 51.5331 41.1187 51.5331 41.1792 51.4927L41.7946 51.1396C41.8552 51.0992 41.8552 51.0488 41.7946 51.0084Z" fill="#F4F5FA"/>
<path d="M42.7514 50.4615L42.136 50.1084C42.0755 50.068 41.9746 50.068 41.914 50.1084L41.2986 50.4615C41.238 50.5019 41.238 50.5523 41.2986 50.5927L41.914 50.9458C41.9746 50.9861 42.0755 50.9861 42.136 50.9458L42.7514 50.5927C42.812 50.5523 42.812 50.5019 42.7514 50.4615Z" fill="#F4F5FA"/>
<path d="M42.7719 51.5865L42.1565 51.2334C42.096 51.193 41.9951 51.193 41.9345 51.2334L41.3191 51.5865C41.2585 51.6269 41.2585 51.6773 41.3191 51.7177L41.9345 52.0708C41.9951 52.1112 42.096 52.1112 42.1565 52.0708L42.7719 51.7177C42.8325 51.6773 42.8325 51.6269 42.7719 51.5865Z" fill="#F4F5FA"/>
<path d="M43.7412 51.0318L43.1257 50.6787C43.0652 50.6383 42.9643 50.6383 42.9038 50.6787L42.2883 51.0318C42.2278 51.0722 42.2278 51.1226 42.2883 51.163L42.9038 51.5161C42.9643 51.5565 43.0652 51.5565 43.1257 51.5161L43.7412 51.163C43.8017 51.1226 43.8017 51.0722 43.7412 51.0318Z" fill="#F4F5FA"/>
<path d="M39.8664 52.1334L39.251 51.7803C39.1904 51.7399 39.0895 51.7399 39.029 51.7803L38.4136 52.1334C38.353 52.1737 38.353 52.2242 38.4136 52.2645L39.029 52.6177C39.0895 52.658 39.1904 52.658 39.251 52.6177L39.8664 52.2645C39.927 52.2242 39.927 52.1737 39.8664 52.1334Z" fill="#F4F5FA"/>
<path d="M40.8357 51.5865L40.2202 51.2334C40.1597 51.193 40.0588 51.193 39.9983 51.2334L39.3828 51.5865C39.3223 51.6269 39.3223 51.6773 39.3828 51.7177L39.9983 52.0708C40.0588 52.1112 40.1597 52.1112 40.2202 52.0708L40.8357 51.7177C40.8962 51.6773 40.8962 51.6269 40.8357 51.5865Z" fill="#F4F5FA"/>
<path d="M40.8449 52.6881L40.2295 52.335C40.169 52.2946 40.0681 52.2946 40.0075 52.335L39.3921 52.6881C39.3315 52.7284 39.3315 52.7789 39.3921 52.8192L40.0075 53.1724C40.0681 53.2127 40.169 53.2127 40.2295 53.1724L40.8449 52.8192C40.9055 52.7789 40.9055 52.7284 40.8449 52.6881Z" fill="#F4F5FA"/>
<path d="M41.8152 52.1334L41.1997 51.7803C41.1392 51.7399 41.0383 51.7399 40.9777 51.7803L40.3623 52.1334C40.3018 52.1738 40.3018 52.2242 40.3623 52.2646L40.9777 52.6177C41.0383 52.6581 41.1392 52.6581 41.1997 52.6177L41.8152 52.2646C41.8757 52.2242 41.8757 52.1738 41.8152 52.1334Z" fill="#F4F5FA"/>
<path d="M37.9404 53.2584L37.325 52.9053C37.2644 52.8649 37.1635 52.8649 37.103 52.9053L36.4875 53.2584C36.427 53.2988 36.427 53.3492 36.4875 53.3896L37.103 53.7427C37.1635 53.7831 37.2644 53.7831 37.325 53.7427L37.9404 53.3896C38.0009 53.3492 38.0009 53.2988 37.9404 53.2584Z" fill="#F4F5FA"/>
<path d="M38.9094 52.6881L38.2939 52.335C38.2334 52.2946 38.1325 52.2946 38.072 52.335L37.4565 52.6881C37.396 52.7284 37.396 52.7789 37.4565 52.8192L38.072 53.1724C38.1325 53.2127 38.2334 53.2127 38.2939 53.1724L38.9094 52.8192C38.9699 52.7789 38.9699 52.7284 38.9094 52.6881Z" fill="#F4F5FA"/>
<path d="M38.9279 53.8131L38.3125 53.46C38.252 53.4196 38.1511 53.4196 38.0905 53.46L37.4751 53.8131C37.4146 53.8534 37.4146 53.9039 37.4751 53.9443L38.0905 54.2974C38.1511 54.3377 38.252 54.3377 38.3125 54.2974L38.9279 53.9443C38.9885 53.9039 38.9885 53.8534 38.9279 53.8131Z" fill="#F4F5FA"/>
<path d="M39.886 53.2584L39.2705 52.9053C39.21 52.8649 39.1091 52.8649 39.0485 52.9053L38.4331 53.2584C38.3726 53.2988 38.3726 53.3492 38.4331 53.3895L39.0485 53.7427C39.1091 53.783 39.21 53.783 39.2705 53.7427L39.886 53.3895C39.9465 53.3492 39.9465 53.2988 39.886 53.2584Z" fill="#F4F5FA"/>
<path d="M36.0122 54.3677L35.3967 54.0146C35.3362 53.9743 35.2353 53.9743 35.1748 54.0146L34.5593 54.3677C34.4988 54.4081 34.4988 54.4586 34.5593 54.4989L35.1748 54.852C35.2353 54.8924 35.3362 54.8924 35.3967 54.852L36.0122 54.4989C36.0727 54.4586 36.0727 54.4081 36.0122 54.3677Z" fill="#F4F5FA"/>
<path d="M36.9802 53.8131L36.3647 53.46C36.3042 53.4196 36.2033 53.4196 36.1428 53.46L35.5273 53.8131C35.4668 53.8534 35.4668 53.9039 35.5273 53.9442L36.1428 54.2974C36.2033 54.3377 36.3042 54.3377 36.3647 54.2974L36.9802 53.9442C37.0407 53.9039 37.0407 53.8534 36.9802 53.8131Z" fill="#F4F5FA"/>
<path d="M37.0019 54.9381L36.3865 54.585C36.3259 54.5446 36.225 54.5446 36.1645 54.585L35.5491 54.9381C35.4885 54.9784 35.4885 55.0289 35.5491 55.0692L36.1645 55.4224C36.225 55.4627 36.3259 55.4627 36.3865 55.4224L37.0019 55.0692C37.0625 55.0289 37.0625 54.9784 37.0019 54.9381Z" fill="#F4F5FA"/>
<path d="M37.9609 54.3834L37.3455 54.0303C37.2849 53.9899 37.184 53.9899 37.1235 54.0303L36.508 54.3834C36.4475 54.4238 36.4475 54.4742 36.508 54.5146L37.1235 54.8677C37.184 54.9081 37.2849 54.9081 37.3455 54.8677L37.9609 54.5146C38.0214 54.4742 38.0214 54.4238 37.9609 54.3834Z" fill="#F4F5FA"/>
<path d="M45.7383 50.9771L45.1228 50.624C45.0623 50.5837 44.9614 50.5837 44.9008 50.624L44.2854 50.9771C44.2249 51.0175 44.2249 51.068 44.2854 51.1083L44.9008 51.4614C44.9614 51.5018 45.0623 51.5018 45.1228 51.4614L45.7383 51.1083C45.7988 51.068 45.7988 51.0175 45.7383 50.9771Z" fill="#F4F5FA"/>
<path d="M46.6972 50.4225L46.0818 50.0693C46.0213 50.029 45.9204 50.029 45.8598 50.0693L45.2444 50.4225C45.1838 50.4628 45.1838 50.5132 45.2444 50.5536L45.8598 50.9067C45.9204 50.9471 46.0213 50.9471 46.0818 50.9067L46.6972 50.5536C46.7578 50.5132 46.7578 50.4628 46.6972 50.4225Z" fill="#F4F5FA"/>
<path d="M48.6447 49.2896L48.0293 48.9365C47.9688 48.8962 47.8679 48.8962 47.8073 48.9365L47.1919 49.2896C47.1314 49.33 47.1314 49.3805 47.1919 49.4208L47.8073 49.7739C47.8679 49.8143 47.9688 49.8143 48.0293 49.7739L48.6447 49.4208C48.7053 49.3805 48.7053 49.33 48.6447 49.2896Z" fill="#F4F5FA"/>
<path d="M47.4932 73.889C47.6849 74.0605 48.2398 74.232 48.3205 74.5246C48.4113 74.8172 48.6131 75.6143 48.4214 76.0279C48.2297 76.4416 46.9988 76.7442 46.5549 76.5929C46.1009 76.4416 45.1727 75.4326 45.1727 75.4326L44.6985 74.6558C44.6985 74.6558 43.9216 74.2724 43.5887 74.2219C43.2557 74.1715 41.8937 73.6872 41.9744 72.7691C42.0652 71.8509 42.7513 71.9922 42.7513 71.9922L47.4831 73.8991L47.4932 73.889Z" fill="#212430"/>
<path d="M42.1662 77.7624C42.1662 77.7624 42.7816 77.8028 42.8119 78.1054C42.8421 78.4081 42.9027 78.9529 42.8522 79.2455C42.8119 79.5381 42.2368 80.0224 41.7021 80.0224C41.1673 80.0224 39.6943 79.6895 39.4925 79.5079C39.2907 79.3263 39.1797 79.185 39.1797 79.185C39.1797 79.185 38.5038 78.9227 37.1821 79.0034C35.8604 79.0841 34.6194 78.2265 34.4075 77.944C34.1956 77.6615 34.2158 77.1873 34.2259 77.0662C34.2259 76.9452 34.2864 76.2288 34.69 76.2188C35.0936 76.2188 42.1662 77.7523 42.1662 77.7523V77.7624Z" fill="#212430"/>
<path d="M48.1499 72.5502C48.1499 72.5502 48.2205 74.1544 48.2407 74.7295C48.2609 75.3046 46.5053 75.6174 46.1421 75.234C45.7789 74.8506 44.9112 74.2452 44.9112 74.2452C44.9112 74.2452 43.5088 73.6701 42.8328 73.2565C42.1569 72.8428 41.9854 72.3182 41.9854 72.3182L42.3486 71.5514L44.205 71.2891L48.1499 72.5401V72.5502Z" fill="#33374A"/>
<path d="M41.4702 75.1484C41.4702 75.1484 41.7729 75.5621 42.0756 76.3289C42.3782 77.0957 42.5901 77.7918 42.5901 78.1954C42.5901 78.599 42.0049 78.9723 41.2987 79.0126C40.5924 79.053 39.4322 78.4275 38.2215 78.5586C37.0107 78.6898 35.2956 78.1853 34.8315 77.6708C34.3674 77.1562 34.5187 76.7325 34.559 76.5307C34.5893 76.3188 34.8012 76.0161 35.2048 75.8345C35.5982 75.663 38.4031 75.4814 38.4031 75.4814L41.4803 75.1484H41.4702Z" fill="#33374A"/>
<path d="M57.3708 60.1142C57.3708 60.1142 57.6332 61.5267 57.7341 62.8585C57.835 64.1802 56.7554 65.633 56.2106 66.1072C55.6658 66.5713 53.769 67.1969 51.8823 67.1767C49.9956 67.1464 47.443 66.6722 44.8601 66.0164C42.2773 65.3606 41.5912 65.3707 41.5912 65.3707C41.5912 65.3707 40.5621 65.5119 39.1496 64.5938C37.7371 63.6757 37.4243 63.3831 37.4243 62.5356C37.4243 61.6881 37.4647 61.3652 37.8178 60.6993C38.1709 60.0334 38.6451 59.8418 40.441 59.6904C42.2369 59.5391 46.6964 59.6097 46.9385 59.6097C47.1807 59.6097 48.8656 59.3474 49.2389 58.7218C49.6122 58.0963 57.3708 60.1142 57.3708 60.1142Z" fill="#263263"/>
<path d="M59.3881 59.4649C59.7211 60.8471 59.8018 63.4804 58.1774 64.8828C56.553 66.2852 56.6943 66.144 53.8693 66.6283C51.0443 67.1126 43.669 62.754 43.5681 60.0601C43.4571 57.3764 43.6185 57.0132 44.6577 56.5793C45.6969 56.1455 52.82 57.0434 52.82 57.0434L59.3982 59.4548L59.3881 59.4649Z" fill="#263263"/>
<path d="M47.9077 63.3438C47.9077 63.3438 48.2407 72.1416 48.2407 72.8479C48.2407 74.2806 43.6803 73.5642 43.6803 71.9398C43.6803 71.3445 43.4785 63.4951 43.4785 63.4951L47.9077 63.3438Z" fill="#263263"/>
<path d="M37.4242 62.5156C37.2728 64.7655 37.3031 75.4299 37.4444 75.9546C37.5856 76.4792 38.4432 77.0139 40.0575 77.2056C41.6617 77.4074 41.9038 77.0745 41.9543 76.7516C42.0047 76.4288 42.6807 66.5312 42.0955 65.5222C41.5204 64.5133 37.4242 62.5156 37.4242 62.5156Z" fill="#263263"/>
<path d="M49.371 59.0389C49.4921 60.1487 50.7533 61.2586 53.2352 61.8639C55.7071 62.4693 56.5244 62.2473 58.2395 61.4301C59.9547 60.6128 59.4301 58.484 59.42 58.2116C59.3998 57.9392 58.5927 54.4685 58.6028 53.2073C58.6229 51.9462 59.2283 48.9799 59.5915 46.397C59.9547 43.8142 59.5209 42.0687 58.1185 41.7257C56.7161 41.3827 53.2857 42.4219 53.2857 42.4219C53.2857 42.4219 48.6648 44.3287 47.7265 45.5193C46.7882 46.7098 47.8072 51.2298 48.4529 53.9842C49.0986 56.7386 49.371 59.0389 49.371 59.0389Z" fill="#E22829"/>
<path d="M41.5194 50.9091C41.5194 50.9091 41.0654 50.1019 40.9039 49.9506C40.7425 49.7992 39.8143 49.3654 39.4511 49.3049C39.0879 49.2443 38.8155 49.547 38.8155 49.547L37.9276 50.0515C37.9276 50.0515 36.959 50.566 36.4949 50.7981C36.0308 51.02 35.8997 51.353 35.9703 51.5548C36.0409 51.7566 36.6362 51.6254 36.6362 51.6254L37.5644 51.5245C37.5644 51.5245 38.2908 51.7364 39.0576 51.8272C39.8244 51.918 39.8244 51.8776 39.8244 51.8776L40.2582 52.4628L41.5295 50.9192L41.5194 50.9091Z" fill="#FF9C78"/>
<path d="M42.5287 49.5764C42.4278 49.5865 42.1251 50.0405 42.5287 50.0405C42.9322 50.0405 43.3358 49.9396 43.3358 49.9396L44.2741 49.5764C44.2741 49.5764 44.6474 50.0102 45.051 50.0808C45.4445 50.1414 46.5139 50.2524 46.5139 50.2524C46.5139 50.2524 46.9276 49.6672 47.3413 49.304C47.7549 48.9407 45.0005 47.2558 44.6777 47.1751C44.3548 47.0944 43.245 47.4778 42.9726 47.619C42.7002 47.7603 42.4681 48.3253 42.4681 48.3253L42.4278 49.304L42.5186 49.5764H42.5287Z" fill="#FF9C78"/>
<path d="M55.1013 37.9486C54.6675 39.5729 54.9197 40.713 55.7672 41.8935C55.8681 42.3778 54.9903 42.7712 53.5274 43.1849C52.0644 43.5986 50.6216 43.8609 50.4905 43.6187C50.3492 43.3766 50.2887 41.5505 50.2887 41.5505C50.2887 41.5505 49.643 41.4697 49.1991 41.2982C48.7551 41.1267 48.0892 39.6234 47.9278 39.2501C47.7664 38.8768 47.2216 34.5687 47.6756 33.8422C48.1195 33.1158 50.5409 33.5698 50.5409 33.5698L55.1114 37.9385L55.1013 37.9486Z" fill="#FF9C78"/>
<path d="M49.0368 37.3327C49.9952 37.2318 50.3484 39.0176 50.7721 39.8348C51.2059 40.6521 52.4368 41.2473 52.4368 41.2473C52.4368 41.2473 54.3235 40.7731 54.717 40.2485C55.1105 39.7238 55.2215 39.3707 55.2215 39.3707C55.2215 39.3707 55.7663 38.3517 56.0589 37.1813C56.3515 36.011 56.4726 34.2151 55.7058 32.9438C54.9491 31.6726 53.3247 31.3396 53.3247 31.3396C53.3247 31.3396 52.0535 30.7141 49.7127 31.491C47.372 32.2678 47.372 33.2869 47.3922 33.8519C47.4124 34.4169 47.7453 35.8697 47.7453 35.8697L48.0783 37.1511L48.4314 38.392H48.8047C48.8047 38.392 48.6433 37.5345 49.0368 37.3226V37.3327Z" fill="#291925"/>
<path d="M49.7427 36.9844C50.0857 37.1963 50.3884 37.7512 50.4187 38.2758C50.4489 38.8004 50.4187 39.2141 50.2673 39.5471C50.116 39.88 49.7124 39.1435 49.5913 38.639C49.4703 38.1345 49.4299 37.2669 49.4905 37.1559C49.551 37.0449 49.7427 36.9844 49.7427 36.9844Z" fill="#FF9C78"/>
<path d="M49.8036 45.2469C51.4482 46.3769 51.0143 48.7478 50.409 50.1301C49.8036 51.5123 45.6771 56.5166 44.3857 56.8495C43.0842 57.1825 42.6705 53.7017 42.7007 52.9147C42.731 52.1379 46.1715 47.1336 47.3418 45.6908C48.5122 44.248 49.7935 45.2368 49.7935 45.2368L49.8036 45.2469Z" fill="#ED3E3F"/>
<path d="M43.619 52.7375C43.619 52.7375 42.0955 51.0727 41.7323 50.7398C41.3691 50.4068 40.3501 50.4472 39.7447 51.1736C39.1394 51.9 39.6539 52.6668 39.6539 52.6668C39.6539 52.6668 41.3187 55.4515 42.1964 56.2889C43.0843 57.1162 43.7098 57.2373 44.3757 56.864C45.0517 56.4907 43.6089 52.7475 43.6089 52.7475L43.619 52.7375Z" fill="#ED3E3F"/>
<path d="M19.4346 47.7271L18.7788 47.3438C18.7788 47.7171 18.91 47.9895 19.1319 48.1105L19.7877 48.4939C19.5759 48.3729 19.4346 48.1005 19.4346 47.7271Z" fill="#9B9A9B"/>
<path d="M19.4244 46.2271L18.7686 45.8438L18.7786 47.3571L19.4344 47.7304L19.4244 46.2271Z" fill="#9B9A9B"/>
<path d="M39.6234 19.9827L38.9676 19.5993C38.7456 19.4681 38.4531 19.4883 38.1201 19.68L38.7759 20.0634C39.1089 19.8717 39.4116 19.8515 39.6234 19.9827Z" fill="#9B9A9B"/>
<path d="M19.3944 32.6334L18.7285 32.25L18.7689 45.8403L19.4247 46.2237L19.3944 32.6334Z" fill="#9B9A9B"/>
<path d="M38.7752 20.0709L38.1195 19.6875L19.9285 30.1904L20.5843 30.5738L38.7752 20.0709Z" fill="#9B9A9B"/>
<path d="M20.5843 30.5709L19.9285 30.1875C19.2626 30.5709 18.7278 31.4991 18.7379 32.2558L19.3937 32.6392C19.3937 31.8825 19.9285 30.9543 20.5843 30.5709Z" fill="#9B9A9B"/>
<path d="M24.0763 53.1268L20.2625 50.9274C19.8287 50.6751 19.8791 50.2312 20.3836 49.9386L32.9347 42.6945C33.4391 42.4019 34.2059 42.3716 34.6498 42.6239L38.4636 44.8233C38.8974 45.0756 38.847 45.5195 38.3425 45.8121L25.7915 53.0562C25.287 53.3488 24.5202 53.3791 24.0763 53.1268Z" fill="#A14D1B"/>
<path d="M24.7008 47.4081L29.1603 44.8152C29.5235 44.6033 29.9775 44.6033 30.3407 44.8152L34.669 47.3173L35.3854 47.3576V47.8924C35.3854 47.9933 35.3349 48.0841 35.2441 48.1446L30.3407 50.9898C29.9775 51.2017 29.5235 51.2017 29.1603 50.9898L24.267 48.1648C24.1762 48.1144 24.1257 48.0135 24.1257 47.9126V47.3778L24.7109 47.4081H24.7008Z" fill="#949293"/>
<path d="M30.3399 44.2839L35.2332 47.1089C35.4249 47.2199 35.4249 47.4923 35.2332 47.6033L30.3298 50.4485C29.9666 50.6604 29.5126 50.6604 29.1494 50.4485L24.2561 47.6235C24.0644 47.5125 24.0644 47.2401 24.2561 47.1291L29.1595 44.2839C29.5227 44.072 29.9767 44.072 30.3399 44.2839Z" fill="#CFCDCE"/>
<path d="M25.4067 48.2772L31.3292 44.8368L32.7921 37.0781L26.8697 40.5186L25.4067 48.2772Z" fill="#B5B3B4"/>
<path d="M31.5405 43.6967L32.7916 37.0781L26.8692 40.5186L25.6282 47.1069L31.5405 43.6967Z" fill="#A3A1A2"/>
<path d="M26.6363 39.8617L25.0825 48.0945L25.4054 48.2761L26.8683 40.5175C26.717 40.3459 26.6262 40.1038 26.6262 39.902C26.6262 39.8818 26.6262 39.8617 26.6262 39.8516L26.6363 39.8617Z" fill="#949293"/>
<path d="M32.681 36.219C32.7617 36.1686 32.8727 36.1787 33.0038 36.2493H33.0139C33.256 36.4107 33.4477 36.7537 33.4376 37.0262C33.4376 37.1573 33.3872 37.2481 33.3065 37.2885L27.3841 40.7289C27.4547 40.6886 27.5052 40.5978 27.5152 40.4666C27.5253 40.1942 27.3336 39.8411 27.0915 39.6897H27.0814C26.9603 39.609 26.8393 39.5989 26.7585 39.6494L32.681 36.2089V36.219Z" fill="#848B92"/>
<path d="M27.0814 39.68C26.8594 39.5489 26.6677 39.6296 26.6375 39.8616C26.6375 39.8818 26.6375 39.8919 26.6375 39.912C26.6375 40.1138 26.7283 40.3459 26.8796 40.5275C26.9401 40.588 27.0007 40.6486 27.0612 40.6889C27.0612 40.6889 27.0713 40.6889 27.0814 40.699C27.3134 40.8403 27.5152 40.7293 27.5253 40.467C27.5354 40.1946 27.3437 39.8414 27.1016 39.6901C27.1016 39.6901 27.1016 39.6901 27.0915 39.6901L27.0814 39.68Z" fill="#9FA7B0"/>
<mask id="mask0_2119_25533" style="mask-type:luminance" maskUnits="userSpaceOnUse" x="19" y="47" width="2" height="2">
<path d="M19.4073 48.2668L20.0631 48.6502C19.8513 48.5291 19.71 48.2567 19.71 47.8834L19.0542 47.5C19.0542 47.8733 19.1854 48.1457 19.4073 48.2668Z" fill="white"/>
</mask>
<g mask="url(#mask0_2119_25533)">
<path d="M19.7198 47.8834L19.064 47.5C19.064 47.8733 19.1951 48.1457 19.4171 48.2668L20.0729 48.6502C19.861 48.5291 19.7198 48.2567 19.7198 47.8834Z" fill="#9B9A9B"/>
</g>
<path d="M19.7068 46.399L19.051 46.0156V47.529L19.7169 47.9124L19.7068 46.399Z" fill="#9B9A9B"/>
<path d="M40.289 34.5061L39.6332 34.1328L19.051 46.0079L19.7068 46.3913L40.289 34.5061Z" fill="#908F90"/>
<path d="M19.7075 46.3774V47.8807C19.7075 48.6374 20.2523 48.9501 20.9182 48.5667L39.1092 38.0638C39.7751 37.6804 40.3098 36.7522 40.2998 35.9955V34.4922L19.7075 46.3774Z" fill="#BFBEBF"/>
<mask id="mask1_2119_25533" style="mask-type:luminance" maskUnits="userSpaceOnUse" x="38" y="19" width="2" height="2">
<path d="M39.9093 20.1546L39.2535 19.7712C39.0315 19.64 38.739 19.6602 38.406 19.8519L39.0618 20.2353C39.3948 20.0436 39.6974 20.0234 39.9093 20.1546Z" fill="white"/>
</mask>
<g mask="url(#mask1_2119_25533)">
<path d="M39.9093 20.1546L39.2535 19.7712C39.0315 19.64 38.739 19.6602 38.406 19.8519L39.0618 20.2353C39.3948 20.0436 39.6974 20.0234 39.9093 20.1546Z" fill="#001E4F"/>
</g>
<path d="M19.6648 32.8053L19.009 32.4219L19.0494 46.0121L19.7052 46.3955L19.6648 32.8053Z" fill="#001E4F"/>
<path d="M39.0457 20.2428L38.3899 19.8594L20.209 30.3623L20.8648 30.7457L39.0457 20.2428Z" fill="#001E4F"/>
<path d="M20.8643 30.7193L20.2085 30.3359C19.5426 30.7193 19.0079 31.6476 19.018 32.4043L19.6738 32.7877C19.6738 32.031 20.2085 31.1027 20.8643 30.7193Z" fill="#001E4F"/>
<mask id="mask2_2119_25533" style="mask-type:luminance" maskUnits="userSpaceOnUse" x="19" y="30" width="2" height="3">
<path d="M20.8648 30.7037L20.209 30.3203C19.5431 30.7037 19.0084 31.6319 19.0185 32.3886L19.6742 32.772C19.6742 32.0153 20.209 31.0871 20.8648 30.7037Z" fill="white"/>
</mask>
<g mask="url(#mask2_2119_25533)">
<path d="M20.8645 30.7037L20.2087 30.3203C19.5428 30.7037 19.0081 31.6319 19.0182 32.3886L19.674 32.772C19.674 32.0153 20.2087 31.0871 20.8645 30.7037Z" fill="#001E4F"/>
</g>
<path d="M20.8652 30.7373C20.1993 31.1207 19.6646 32.0489 19.6747 32.8056L19.7151 46.406L40.2972 34.5208L40.2568 20.9205C40.2568 20.1638 39.712 19.851 39.0562 20.2344L20.8652 30.7373Z" fill="#002766"/>
<path d="M23.359 33.7258L21.6035 34.7347V34.1596L23.359 33.1406V33.7258Z" fill="#C8D3E3"/>
<path d="M25.075 32.7258L24.1973 33.2303V32.6451L25.075 32.1406V32.7258Z" fill="#C8D3E3"/>
<path d="M34.5481 27.2548L33.6804 27.7592V27.1842L34.5481 26.6797V27.2548Z" fill="#C8D3E3"/>
<path d="M26.8001 31.7313L25.9224 32.2358V31.6607L26.8001 31.1562V31.7313Z" fill="#C8D3E3"/>
<path d="M30.2415 29.7392L27.6384 31.2425V30.6573L30.2415 29.1641V29.7392Z" fill="#C8D3E3"/>
<path d="M22.4813 32.8173L21.6035 33.3217V32.7467L22.4813 32.2422V32.8173Z" fill="#C8D3E3"/>
<path d="M25.9224 30.8173L23.3193 32.3206V31.7354L25.9224 30.2422V30.8173Z" fill="#C8D3E3"/>
<path d="M32.8329 28.2571L31.0774 29.266V28.6909L32.8329 27.6719V28.2571Z" fill="#C8D3E3"/>
<path d="M30.2401 35.4267L29.3623 35.9412V35.356L30.2401 34.8516V35.4267Z" fill="#C8D3E3"/>
<path d="M22.4813 39.9188L21.6035 40.4334V39.8482L22.4813 39.3438V39.9188Z" fill="#C8D3E3"/>
<path d="M25.9224 37.9289L23.3193 39.4221V38.847L25.9224 37.3438V37.9289Z" fill="#C8D3E3"/>
<path d="M28.5148 36.4367L26.7593 37.4457V36.8706L28.5148 35.8516V36.4367Z" fill="#C8D3E3"/>
<path d="M25.0946 35.5696L24.2168 36.074V35.4888L25.0946 34.9844V35.5696Z" fill="#C8D3E3"/>
<path d="M23.3695 36.5517L21.624 37.5606V36.9855L23.3695 35.9766V36.5517Z" fill="#C8D3E3"/>
<path d="M28.5347 32.16L29.4124 31.6555V31.0703L28.5347 31.5748V32.16Z" fill="#C8D3E3"/>
<path d="M21.6035 36.1499L22.4813 35.6454V35.0703L21.6035 35.5748V36.1499Z" fill="#C8D3E3"/>
<path d="M25.9316 33.6488L27.6872 32.6399V32.0547L25.9316 33.0737V33.6488Z" fill="#C8D3E3"/>
<path d="M23.3193 35.1722L25.0749 34.1633V33.5781L23.3193 34.5972V35.1722Z" fill="#C8D3E3"/>
<path d="M21.624 43.2615L22.4917 42.747V42.1719L21.624 42.6763V43.2615Z" fill="#C8D3E3"/>
<path d="M23.3389 42.266L25.0944 41.257V40.6719L23.3389 41.6909V42.266Z" fill="#C8D3E3"/>
<path d="M24.1973 40.3475L25.075 39.843V39.2578L24.1973 39.7724V40.3475Z" fill="#C8D3E3"/>
<path d="M25.9316 39.3553L26.8094 38.8407V38.2656L25.9316 38.7701V39.3553Z" fill="#C8D3E3"/>
<path d="M21.6035 41.8597L23.359 40.8407V40.2656L21.6035 41.2746V41.8597Z" fill="#C8D3E3"/>
<path d="M27.6567 38.3597L29.4123 37.3508V36.7656L27.6567 37.7846V38.3597Z" fill="#C8D3E3"/>
<path d="M31.2043 1.87087C33.2323 0.700516 34.8869 1.63884 34.897 3.96946L34.9172 10.8705C34.9172 13.2012 33.2827 16.0463 31.2548 17.2167L24.6967 21.0002C22.6688 22.1705 21.0142 21.2322 21.0041 18.9016L20.9839 12.0005C20.9839 9.6699 22.6184 6.82471 24.6463 5.65436L31.2043 1.87087Z" fill="#1F4EFF"/>
<path d="M31.2043 1.87087C33.2323 0.700516 34.8869 1.63884 34.897 3.96946L34.9172 10.8705C34.9172 13.2012 33.2827 16.0463 31.2548 17.2167L24.6967 21.0002C22.6688 22.1705 21.0142 21.2322 21.0041 18.9016L20.9839 12.0005C20.9839 9.6699 22.6184 6.82471 24.6463 5.65436L31.2043 1.87087Z" stroke="black"/>
<g opacity="0.87">
<path d="M32.2112 16.5156C32.1507 16.5762 32.08 16.6266 32.0195 16.6871C31.6866 16.9898 31.3334 17.242 30.9702 17.4539L31.2628 17.2118C31.5958 17.0201 31.9186 16.788 32.2213 16.5156H32.2112Z" fill="#083CFF"/>
<path d="M34.8341 11.8239C34.8341 11.8239 34.8139 11.9148 34.8038 11.9652C34.8038 11.9753 34.8038 11.9955 34.8038 12.0056C34.8038 12.0258 34.8038 12.0358 34.7937 12.056C34.7937 12.056 34.7937 12.0762 34.7937 12.0863C34.8845 11.6726 34.9249 11.259 34.9249 10.8655L34.9955 10.4922C34.9955 10.926 34.945 11.38 34.8542 11.834L34.8341 11.8239Z" fill="#083CFF"/>
<path d="M34.8953 3.96708L34.9659 3.59375L34.9861 10.4949L34.9154 10.8681L34.8953 3.96708Z" fill="#083CFF"/>
<path d="M31.2023 1.88033L30.9097 1.30523C33.1394 0.0138015 34.9454 1.05301 34.9555 3.61569L34.8848 3.98898C34.8848 1.65836 33.2302 0.70998 31.1922 1.89043L31.2023 1.88033Z" fill="#083CFF"/>
<path d="M32.5246 0.270168L33.7858 1.00667C33.0493 0.582916 32.0403 0.64345 30.9103 1.28916L29.6492 0.552666C30.7691 -0.093048 31.7881 -0.153582 32.5246 0.270168Z" fill="#0730CC"/>
<path d="M31.2517 17.2109L30.9592 17.4531L24.4011 21.2366L24.6937 20.9944L31.2517 17.2109Z" fill="#083CFF"/>
<path d="M21.5371 21.5225L20.2759 20.786C19.5495 20.3622 19.1055 19.4744 19.0955 18.2031L20.3566 18.9397C20.3566 20.2109 20.8106 21.1088 21.5371 21.5225Z" fill="#0730CC"/>
<path d="M24.6934 20.9915L24.4008 21.2336C22.171 22.5251 20.3651 21.4859 20.355 18.9232L21.0007 18.8828C21.0007 21.2134 22.6553 22.1618 24.6934 20.9814V20.9915Z" fill="#083CFF"/>
<path d="M21.0013 18.9089L20.3556 18.9492L20.3354 12.0482L20.9812 12.0078L21.0013 18.9089Z" fill="#083CFF"/>
<path d="M20.3563 18.9345L19.0951 18.1979L19.075 11.2969L20.3361 12.0334L20.3563 18.9345Z" fill="#0730CC"/>
<path d="M24.3616 5.06686L23.0903 4.33036L29.6484 0.546875L30.9095 1.2733L24.3616 5.06686Z" fill="#0730CC"/>
<path d="M24.6546 5.6499L24.3621 5.0748L30.91 1.28125L31.2026 1.86642L24.6546 5.6499Z" fill="#083CFF"/>
<path d="M19.2165 9.95549C19.2367 9.87478 19.2569 9.78397 19.267 9.70326C19.61 8.07888 20.5887 6.38387 21.8398 5.27405C21.8398 5.27405 21.8498 5.26397 21.8599 5.25388C21.8599 5.25388 21.8801 5.24377 21.8801 5.23368C21.8801 5.23368 21.8902 5.2236 21.9003 5.21351C21.9003 5.21351 21.9104 5.20344 21.9205 5.19335C21.9205 5.19335 21.9306 5.18324 21.9406 5.17315C21.9406 5.17315 21.9507 5.16307 21.9608 5.15298C21.9608 5.15298 21.9709 5.1429 21.981 5.13281C20.6089 6.34353 19.5394 8.18986 19.156 9.98576L19.2165 9.95549Z" fill="#0730CC"/>
<g style="mix-blend-mode:screen">
<path d="M31.2031 1.8865C33.2311 0.716141 34.8857 1.65446 34.8958 3.98509L34.916 10.8862C34.916 13.2168 33.2815 16.0619 31.2536 17.2323L24.6955 21.0158C22.6676 22.1861 21.0129 21.2478 21.0028 18.9172L20.9827 12.0162C20.9827 9.68553 22.6171 6.84034 24.6451 5.66998L31.2031 1.8865Z" fill="#0C1845"/>
</g>
<path d="M20.9812 11.9994L20.3354 12.0398C20.3354 9.47708 22.1313 6.35946 24.3611 5.07812L24.6537 5.65322C22.6257 6.82358 20.9812 9.66877 20.9912 11.9994H20.9812Z" fill="#083CFF"/>
<path d="M20.3361 12.0341L19.075 11.2975C19.075 8.73486 20.8708 5.61728 23.1006 4.33594L24.3617 5.07244C22.132 6.36386 20.3361 9.48148 20.3361 12.0341Z" fill="#0730CC"/>
</g>
<path d="M23.7784 14.5342C23.7784 14.6552 23.7583 14.7662 23.7078 14.8671C23.6574 14.968 23.5968 15.0689 23.5262 15.1496C23.4556 15.2404 23.3648 15.3211 23.2841 15.3816C23.1933 15.4523 23.1025 15.5128 23.0217 15.5632C22.8805 15.644 22.7291 15.7045 22.5879 15.7449C22.4466 15.7751 22.3155 15.7852 22.2146 15.765L22.3659 15.3514C22.487 15.3615 22.6081 15.3514 22.709 15.3312C22.8099 15.3009 22.9209 15.2606 23.0217 15.2C23.163 15.1193 23.2639 15.0386 23.3345 14.968C23.4051 14.8974 23.4354 14.8268 23.4354 14.7662C23.4354 14.7359 23.4354 14.7158 23.4051 14.7057C23.3849 14.7057 23.3547 14.7057 23.3143 14.7057C23.274 14.7057 23.2134 14.7258 23.1428 14.7561C23.0722 14.7763 22.9915 14.8167 22.8805 14.857C22.7998 14.8873 22.7191 14.9175 22.6484 14.9377C22.5778 14.9579 22.5072 14.9579 22.4567 14.9478C22.3962 14.9478 22.3559 14.9175 22.3256 14.8671C22.2953 14.8166 22.2751 14.746 22.2751 14.6552C22.2751 14.5644 22.2953 14.4635 22.3458 14.3626C22.3861 14.2617 22.4467 14.1709 22.5173 14.0801C22.5879 13.9893 22.6686 13.9086 22.7594 13.838C22.8502 13.7674 22.941 13.7068 23.0217 13.6564C23.1529 13.5858 23.274 13.5353 23.385 13.495C23.506 13.4647 23.6069 13.4647 23.6977 13.4748L23.5565 13.8683C23.4657 13.8582 23.3849 13.8682 23.2941 13.8884C23.2134 13.9187 23.1226 13.9591 23.0116 14.0095C22.9713 14.0297 22.9309 14.06 22.8805 14.0902C22.8401 14.1205 22.7897 14.1609 22.7493 14.1911C22.709 14.2315 22.6787 14.2617 22.6484 14.3122C22.6182 14.3525 22.6081 14.3929 22.6081 14.4232C22.6081 14.4736 22.6484 14.4938 22.7191 14.4736C22.7897 14.4635 22.9209 14.4131 23.1025 14.3425C23.2034 14.3021 23.2941 14.2718 23.3749 14.2416C23.4556 14.2214 23.5262 14.2113 23.5867 14.2214C23.6473 14.2214 23.6876 14.2516 23.7179 14.3021C23.7482 14.3424 23.7683 14.4232 23.7683 14.514L23.7784 14.5342Z" fill="#EBEAF8"/>
<path d="M25.6749 13.7357C25.574 13.9073 25.463 14.0586 25.3521 14.1595C25.2411 14.2704 25.12 14.3613 24.9788 14.442C24.8476 14.5227 24.7265 14.5631 24.6155 14.5832C24.5046 14.6034 24.4138 14.5832 24.3431 14.553C24.2624 14.5126 24.212 14.4521 24.1716 14.3512C24.1313 14.2503 24.1111 14.1393 24.1111 13.988C24.1111 13.8366 24.1313 13.7055 24.1716 13.5642C24.212 13.423 24.2725 13.2918 24.333 13.1606C24.4037 13.0396 24.4844 12.9185 24.5752 12.8176C24.666 12.7167 24.7669 12.636 24.8678 12.5754C24.9788 12.5149 25.0696 12.4846 25.1503 12.4846C25.231 12.4846 25.2915 12.5351 25.3218 12.6158V12.3535L25.6446 12.1719V13.0295L25.3218 13.2111C25.3218 13.0496 25.2814 12.9387 25.2108 12.8882C25.1301 12.8378 25.0393 12.8478 24.9081 12.9185C24.8577 12.9487 24.8072 12.9891 24.7568 13.0396C24.7064 13.09 24.6559 13.1606 24.6054 13.2313C24.5651 13.3019 24.5247 13.3927 24.4945 13.4835C24.4642 13.5743 24.4541 13.6752 24.4541 13.7761C24.4541 13.877 24.4642 13.9577 24.4945 14.0182C24.5247 14.0788 24.5651 14.1191 24.6054 14.1393C24.6559 14.1595 24.7063 14.1695 24.7669 14.1494C24.8274 14.1393 24.898 14.109 24.9586 14.0687C25.0696 13.998 25.1705 13.9274 25.2613 13.8366C25.342 13.7458 25.4227 13.6449 25.4832 13.544L25.6648 13.7256L25.6749 13.7357Z" fill="#EBEAF8"/>
<path d="M27.6122 11.4686C27.6122 11.4686 27.5214 11.4687 27.481 11.4888C27.4407 11.4989 27.3902 11.5191 27.3297 11.5594C27.249 11.6099 27.1783 11.6603 27.1077 11.731C27.0371 11.8016 26.9765 11.8722 26.9261 11.9529C26.8757 12.0337 26.8353 12.1245 26.805 12.2153C26.7748 12.3162 26.7647 12.4171 26.7647 12.528V12.982L27.1178 12.7803V13.1435L26.0483 13.7589V13.3957L26.4116 13.1838V12.0841L26.0483 12.296V11.9227L26.7647 11.509V11.9731C26.8252 11.7612 26.9059 11.5796 27.027 11.4384C27.138 11.2971 27.2792 11.176 27.4306 11.0852C27.481 11.055 27.5315 11.0348 27.5819 11.0146C27.6323 10.9945 27.6828 10.9844 27.7433 10.9844L27.6122 11.4586V11.4686Z" fill="#EBEAF8"/>
<path d="M29.3065 11.8866L28.2371 12.502V12.1388L28.5902 11.937V10.8373L28.2371 11.0391V10.6658L28.9433 10.2622V11.7252L29.3065 11.5133V11.8765V11.8866ZM28.9837 10.01L28.5498 10.2622V9.76786L28.9837 9.51562V10.01Z" fill="#EBEAF8"/>
<path d="M29.9644 9.67892L30.3175 9.47715V9.64865C30.3881 9.53767 30.4486 9.44687 30.5193 9.37625C30.5899 9.30562 30.6706 9.235 30.7614 9.18455C30.8623 9.12401 30.9632 9.09375 31.0439 9.09375C31.1347 9.09375 31.2053 9.11394 31.2659 9.16438C31.3264 9.21483 31.3769 9.28542 31.4172 9.38632C31.4475 9.48721 31.4677 9.60829 31.4677 9.73945C31.4677 9.87061 31.4475 10.022 31.4172 10.1632C31.3769 10.3045 31.3264 10.4356 31.2659 10.5466C31.2053 10.6677 31.1246 10.7786 31.0439 10.8795C30.9531 10.9804 30.8623 11.0612 30.7614 11.1116C30.6706 11.1621 30.5899 11.1923 30.5193 11.1923C30.4486 11.1923 30.3881 11.1822 30.3175 11.1519V12.0499L29.9644 12.2517V9.68901V9.67892ZM30.3175 10.819C30.3175 10.819 30.4184 10.8594 30.4789 10.8493C30.5395 10.8493 30.6101 10.819 30.6706 10.7887C30.8018 10.708 30.9128 10.597 30.9935 10.4356C31.0742 10.2742 31.1246 10.1128 31.1246 9.93115C31.1246 9.74954 31.0843 9.63855 30.9935 9.57802C30.9128 9.51748 30.8018 9.5175 30.6706 9.59821C30.6101 9.62848 30.5495 9.67892 30.4789 9.74955C30.4083 9.82017 30.3578 9.8908 30.3175 9.97151V10.819Z" fill="#EBEAF8"/>
<path d="M33.4041 8.93723C33.3839 9.13902 33.3234 9.33069 33.2023 9.5123C33.0913 9.69391 32.9501 9.82507 32.7785 9.92597C32.6877 9.97641 32.5969 10.0168 32.5263 10.0269C32.4456 10.0269 32.3851 10.0269 32.3245 9.9865C32.2741 9.95623 32.2236 9.90579 32.1934 9.83517C32.1631 9.76454 32.153 9.67373 32.153 9.57283V8.78587L31.7898 8.99777V8.62444L32.153 8.41257V7.68614L32.5061 7.48438V8.2108L33.172 7.82741V8.20071L32.5061 8.5841V9.38113C32.5061 9.49212 32.5364 9.57283 32.5768 9.6031C32.6272 9.63337 32.6978 9.62328 32.7785 9.57283C32.8794 9.5123 32.9501 9.44169 33.0005 9.3408C33.051 9.23991 33.0812 9.14909 33.0913 9.0482L33.4041 8.9473V8.93723Z" fill="#EBEAF8"/>
<path d="M55.594 3.08181C57.6219 1.91145 59.2766 2.84977 59.2867 5.1804L59.3068 12.0815C59.3068 14.4121 57.6724 17.2573 55.6444 18.4276L49.0864 22.2111C47.0584 23.3815 45.4038 22.4432 45.3937 20.1125L45.3735 13.2115C45.3735 10.8808 47.008 8.03565 49.036 6.86529L55.594 3.08181Z" fill="#002766"/>
<g opacity="0.87">
<path d="M56.6011 17.7344C56.5406 17.7949 56.4699 17.8453 56.4094 17.9059C56.0765 18.2086 55.7233 18.4608 55.3601 18.6727L55.6527 18.4305C55.9857 18.2388 56.3085 18.0068 56.6112 17.7344H56.6011Z" fill="#083CFF"/>
<path d="M59.2239 13.0584C59.2239 13.0584 59.2038 13.1491 59.1937 13.1996C59.1937 13.2097 59.1937 13.2299 59.1937 13.24C59.1937 13.2601 59.1937 13.2702 59.1836 13.2904C59.1836 13.2904 59.1836 13.3106 59.1836 13.3207C59.2744 12.907 59.3147 12.4933 59.3147 12.0999L59.3854 11.7266C59.3854 12.1604 59.3349 12.6144 59.2441 13.0684L59.2239 13.0584Z" fill="#083CFF"/>
<path d="M59.2852 5.19361L59.3558 4.82031L59.376 11.7113L59.3053 12.0947L59.2852 5.19361Z" fill="#083CFF"/>
<path d="M55.5922 3.10244L55.2996 2.52737C57.5293 1.24603 59.3353 2.27512 59.3454 4.83779L59.2747 5.21109C59.2747 2.88047 57.6201 1.93209 55.5821 3.11253L55.5922 3.10244Z" fill="#083CFF"/>
<path d="M56.9145 1.48892L58.1757 2.22545C57.4392 1.8017 56.4302 1.86223 55.3002 2.50795L54.0391 1.77142C55.159 1.1257 56.178 1.06517 56.9145 1.48892Z" fill="#0730CC"/>
<path d="M55.6416 18.4531L55.3491 18.6953L48.791 22.4787L49.0836 22.2366L55.6416 18.4531Z" fill="#083CFF"/>
<path d="M45.927 22.7413L44.6658 22.0047C43.9394 21.581 43.4954 20.6931 43.4854 19.4219L44.7465 20.1584C44.7465 21.4297 45.2005 22.3276 45.927 22.7413Z" fill="#0730CC"/>
<path d="M49.0833 22.218L48.7907 22.4602C46.5609 23.7516 44.755 22.7124 44.7449 20.1497L45.3906 20.1094C45.3906 22.44 47.0452 23.3884 49.0833 22.2079V22.218Z" fill="#083CFF"/>
<path d="M45.3912 20.1354L44.7455 20.1657L44.7253 13.2747L45.3711 13.2344L45.3912 20.1354Z" fill="#083CFF"/>
<path d="M44.7462 20.1587L43.485 19.4222L43.4648 12.5312L44.726 13.2678L44.7462 20.1587Z" fill="#0730CC"/>
<path d="M48.7515 6.28564L47.4802 5.54911L54.0383 1.76562L55.3095 2.50215L48.7515 6.28564Z" fill="#0730CC"/>
<path d="M49.0445 6.89209L48.752 6.30692L55.31 2.52344L55.5925 3.1086L49.0445 6.89209Z" fill="#083CFF"/>
<path d="M43.6064 11.1977C43.6266 11.117 43.6468 11.0262 43.6569 10.9454C43.9999 9.32107 44.9786 7.62606 46.2297 6.51623C46.2297 6.51623 46.2397 6.50616 46.2498 6.49607C46.2498 6.49607 46.27 6.48596 46.27 6.47587C46.27 6.47587 46.2801 6.46579 46.2902 6.4557C46.2902 6.4557 46.3003 6.44562 46.3104 6.43553C46.3104 6.43553 46.3204 6.42542 46.3305 6.41533C46.3305 6.41533 46.3406 6.40526 46.3507 6.39517C46.3608 6.38508 46.3608 6.38509 46.3709 6.375C44.9988 7.58571 43.9293 9.43205 43.5459 11.2279L43.6064 11.1977Z" fill="#0730CC"/>
<g style="mix-blend-mode:screen">
<path d="M55.5928 3.08181C57.6207 1.91145 59.2753 2.84977 59.2854 5.1804L59.3056 12.0815C59.3056 14.4121 57.6711 17.2573 55.6432 18.4276L49.0852 22.2111C47.0572 23.3815 45.4026 22.4432 45.3925 20.1125L45.3723 13.2115C45.3723 10.8808 47.0068 8.03565 49.0347 6.86529L55.5928 3.08181Z" fill="#1F4EFF"/>
</g>
<path d="M45.3711 13.2259L44.7253 13.2663C44.7253 10.7036 46.5212 7.58603 48.751 6.30469L49.0436 6.87975C47.0156 8.05011 45.3711 10.8953 45.3811 13.2259H45.3711Z" fill="#083CFF"/>
<path d="M44.726 13.2528L43.4648 12.5163C43.4648 9.95361 45.2607 6.83603 47.4905 5.55469L48.7516 6.29122C46.5219 7.58265 44.726 10.7002 44.726 13.2528Z" fill="#0730CC"/>
</g>
<path d="M49.5697 16.0905L49.1359 16.8472L47.2593 15.7777L49.1359 12.5391L49.5697 12.8014L48.1371 15.2733L49.5697 16.1006V16.0905Z" fill="#EBEAF8"/>
<path d="M53.4835 8.46094H54.0485L51.2437 16.5626H50.6787L53.4835 8.46094Z" fill="#EBEAF8"/>
<path d="M56.5411 10.4255L55.1084 9.60826L55.5422 8.85156L57.4189 9.92102L55.5422 13.1597L55.1084 12.9074L56.5411 10.4255Z" fill="#EBEAF8"/>
<path d="M45.0642 77.5725C45.0642 77.8449 44.8422 78.0669 44.5698 78.0669C44.2974 78.0669 44.0754 77.8449 44.0754 77.5725C44.0754 77.3001 44.2974 77.0781 44.5698 77.0781C44.8422 77.0781 45.0642 77.3001 45.0642 77.5725Z" fill="#202020"/>
<path d="M47.1728 84.9553C47.1728 85.2277 46.9509 85.4497 46.6784 85.4497C46.406 85.4497 46.1841 85.2277 46.1841 84.9553C46.1841 84.6829 46.406 84.4609 46.6784 84.4609C46.9509 84.4609 47.1728 84.6829 47.1728 84.9553Z" fill="#202020"/>
<path d="M59.9963 86.2287C59.9963 86.5012 59.7744 86.7231 59.5019 86.7231C59.2295 86.7231 59.0076 86.5012 59.0076 86.2287C59.0076 85.9563 59.2295 85.7344 59.5019 85.7344C59.7744 85.7344 59.9963 85.9563 59.9963 86.2287Z" fill="#202020"/>
<path d="M65.7881 79.4709C65.7881 79.7433 65.5661 79.9653 65.2937 79.9653C65.0213 79.9653 64.7993 79.7433 64.7993 79.4709C64.7993 79.1985 65.0213 78.9766 65.2937 78.9766C65.5661 78.9766 65.7881 79.1985 65.7881 79.4709Z" fill="#202020"/>
<path d="M56.666 74.2287C56.666 74.5012 56.444 74.7231 56.1716 74.7231C55.8992 74.7231 55.6772 74.5012 55.6772 74.2287C55.6772 73.9563 55.8992 73.7344 56.1716 73.7344C56.444 73.7344 56.666 73.9563 56.666 74.2287Z" fill="#202020"/>
<path d="M46.5169 84.8487L46.2444 84.6873L46.0225 84.546V84.1627L53.1052 79.4308L43.9441 77.1809V76.7975L53.7811 78.664L56.4649 73.125V73.5084L56.4447 73.7001L55.2643 78.7952L65.7672 78.8254V79.2088L55.5064 79.6528L59.9457 85.4642V85.8476L59.3202 86.0292L59.1386 85.8677L54.1847 80.0462L46.537 84.8487H46.5169Z" fill="#929FB3"/>
<path d="M46.5169 84.4579L46.2444 84.2964L46.0225 84.1552L46.2343 84.0139L53.1052 78.6363L43.9441 76.7799L44.277 76.4167L53.7811 77.8696L55.7687 73.0469L56.4649 73.1175L56.4447 73.3092L55.2643 78.0108L65.6562 78.4043L65.7672 78.8179L55.5064 78.8684L59.9457 85.4668L59.3202 85.6484L59.1386 85.487L54.1847 79.2619L46.537 84.4579H46.5169Z" fill="#ACAFB2"/>
<path d="M59.1878 85.3187L54.1835 79.0432L46.5157 84.2593L46.2937 84.1282L46.2029 84.0676L46.2937 84.0071L53.326 78.4984L44.1245 76.6419L44.3061 76.43L53.8405 77.893L55.8281 73.0703L56.3527 73.1107L56.3426 73.2115L55.142 78.0141L65.5743 78.4176L65.6349 78.6396L55.3135 78.68L59.7831 85.3187L59.3291 85.4398L59.1878 85.3187Z" fill="#C0C0C0"/>
<path d="M55.4758 78.4465V74.1484H53.2764V78.4465C53.2764 78.6079 53.3873 78.7693 53.5992 78.8904C54.0331 79.1426 54.7292 79.1426 55.153 78.8904C55.3649 78.7693 55.4758 78.6079 55.4758 78.4364V78.4465Z" fill="#979DA7"/>
<path d="M55.1638 74.5912C54.74 74.8434 54.0338 74.8333 53.61 74.5912C53.1762 74.339 53.1762 73.9354 53.61 73.6932C54.0338 73.441 54.74 73.4511 55.1638 73.6932C55.5976 73.9455 55.5976 74.349 55.1638 74.5912Z" fill="#AAAAAA"/>
<path d="M55.1831 74.064V68.1719H53.5789V74.064C53.5789 74.1851 53.6596 74.2961 53.8109 74.3869C54.1237 74.5685 54.6281 74.5685 54.9409 74.3869C55.1023 74.2961 55.173 74.175 55.173 74.0539L55.1831 74.064Z" fill="#979DA7"/>
<path d="M54.9517 68.4873C54.639 68.6689 54.1345 68.6689 53.8217 68.4873C53.509 68.3057 53.509 68.0131 53.8217 67.8315C54.1345 67.6499 54.639 67.6499 54.9517 67.8315C55.2645 68.0131 55.2645 68.3057 54.9517 68.4873Z" fill="#464646"/>
<path d="M64.0546 64.4831C63.8528 64.4831 63.6712 64.4428 63.5401 64.3722L57.6176 60.9519C55.6301 59.8118 53.3902 53.5565 53.3701 52.9208C53.3701 52.6585 53.3499 52.2045 53.3701 51.7C53.3902 51.2057 53.592 50.8424 53.935 50.6507C54.2882 50.459 54.722 50.4994 55.176 50.7617L63.2878 55.4432C64.2867 56.0182 64.8416 56.674 65.5579 57.5114L65.6285 57.5922C65.7395 57.7233 65.8404 57.915 65.9413 58.1673C66.0725 58.5305 66.1431 58.8937 66.133 59.2367C66.133 59.4486 66.133 59.7412 66.133 60.0842C66.133 60.8006 66.133 61.6985 66.0926 62.4048C66.0119 63.5348 65.3662 64.0392 64.9929 64.2309C64.7003 64.3823 64.3573 64.4731 64.0647 64.4731L64.0546 64.4831ZM54.4193 51.135C54.3487 51.135 54.2781 51.1451 54.2276 51.1754C54.0763 51.2561 53.9956 51.4478 53.9754 51.7202C53.9552 52.2045 53.9653 52.6383 53.9754 52.8906C53.9956 53.4757 56.2051 59.4385 57.9203 60.4273L63.8427 63.8475C63.9235 63.898 64.3068 63.9283 64.7003 63.7164C65.0232 63.5449 65.4268 63.1715 65.4772 62.3745C65.5276 61.6884 65.5175 60.8006 65.5175 60.0943C65.5175 59.7412 65.5175 59.4385 65.5175 59.2266C65.5175 58.9643 65.4671 58.6717 65.3662 58.3791C65.2754 58.1471 65.2048 58.0361 65.1543 57.9756L65.0837 57.8948C64.3876 57.0776 63.8831 56.4824 62.9751 55.9577L54.8633 51.2763C54.7018 51.1855 54.5404 51.135 54.4092 51.135H54.4193Z" fill="#E0E0E0"/>
<path d="M63.5895 64.741C63.3877 64.741 63.2061 64.7006 63.075 64.63L57.1526 61.2097C55.165 60.0595 52.9251 53.8042 52.905 53.1786C52.8848 52.7448 52.8949 52.3311 52.905 51.9578C52.9251 51.4634 53.1269 51.1003 53.47 50.9086C53.813 50.7169 54.2569 50.7572 54.7009 51.0195L62.8126 55.701C63.8115 56.2761 64.3765 56.9419 65.0827 57.7693L65.1534 57.85C65.2643 57.9811 65.3753 58.1728 65.4661 58.4352C65.5973 58.7883 65.6679 59.1616 65.6578 59.5046C65.6578 59.7165 65.6578 60.0192 65.6578 60.3723C65.6578 61.0886 65.6578 61.9765 65.6175 62.6827C65.5368 63.8127 64.891 64.3172 64.5177 64.5089C64.2252 64.6602 63.8821 64.7511 63.5895 64.7511V64.741ZM53.9543 51.3928C53.8836 51.3928 53.813 51.4029 53.7626 51.4332C53.6112 51.5139 53.5305 51.7056 53.5103 51.978C53.4901 52.4623 53.5002 52.8961 53.5103 53.1484C53.5305 53.7336 55.7401 59.6963 57.4552 60.6851L63.3776 64.1053C63.4584 64.1558 63.8418 64.186 64.2352 63.9742C64.5581 63.8026 64.9617 63.4294 65.0121 62.6323C65.0626 61.9563 65.0525 61.0785 65.0525 60.3723C65.0525 60.0192 65.0525 59.7064 65.0525 59.4845C65.0525 59.212 65.002 58.9295 64.9011 58.6369C64.8103 58.3948 64.7296 58.2838 64.6893 58.2334L64.6186 58.1527C63.9124 57.3354 63.4079 56.7401 62.4999 56.2155L54.3881 51.5341C54.2267 51.4433 54.0652 51.3928 53.9341 51.3928H53.9543Z" fill="#E0E0E0"/>
<path d="M52.7239 51.3534C53.0669 51.0003 53.6319 50.97 54.2776 51.3332L62.3894 56.0147C62.682 56.1862 62.9443 56.3577 63.1764 56.5494L64.1046 56.0147V55.48C64.1046 55.48 63.4589 55.5607 63.3176 55.48L55.2059 50.7985C54.5702 50.4353 53.8034 50.1629 53.4604 50.516C53.4604 50.516 52.9862 50.6573 52.7239 50.8187C52.5019 50.9499 52.7239 51.3534 52.7239 51.3534Z" fill="#A06238"/>
<path d="M52.7227 50.8196C53.1464 50.5674 53.6307 50.4362 54.2764 50.7994L62.3882 55.4808C62.6808 55.6523 62.9431 55.8239 63.1752 56.0156L64.1034 55.4808C63.8612 55.2992 63.609 55.1176 63.3164 54.9461L55.2046 50.2647C54.569 49.9014 54.115 50.1032 53.6509 50.2849L52.7227 50.8196Z" fill="#C48358"/>
<path d="M63.0941 62.9552L52.3389 56.7503C52.0867 56.609 51.8647 56.5989 51.7134 56.6998L39.9392 63.5L52.7223 73.5489L64.5066 66.7488L63.1042 62.9653L63.0941 62.9552Z" fill="#3E4963"/>
<path d="M51.2996 69.7636L52.7021 73.5471L40.5243 66.5149C40.04 66.2324 39.6566 65.5564 39.6667 65.0015L39.697 64.0128C39.7071 63.4881 40.0905 63.2863 40.5546 63.5587L51.3097 69.7636H51.2996Z" fill="url(#paint0_linear_2119_25533)"/>
<path d="M65.5953 42.6335L65.5549 42.6032C65.1716 42.3409 64.8083 42.3106 64.5662 42.4821L52.792 49.2722L53.9523 74.2432L65.7365 67.443L66.019 55.5578L66.6446 44.6513C66.685 43.9552 66.2208 43.0572 65.5953 42.6234V42.6335Z" fill="url(#paint1_linear_2119_25533)"/>
<path d="M51.5096 60.6315L52.4984 49.8763C52.5589 49.1802 53.134 48.9683 53.7696 49.4122L53.81 49.4425C54.4355 49.8763 54.8996 50.7743 54.8593 51.4704L54.2337 62.3769L53.9512 74.2621L52.7103 73.5458L51.3079 69.7623L51.5096 60.6416V60.6315Z" fill="url(#paint2_linear_2119_25533)"/>
<path d="M51.4306 71.7729C51.2288 71.7729 51.0472 71.7326 50.916 71.662L44.9936 68.2417C43.006 67.0915 40.7662 60.8362 40.746 60.2106C40.746 59.9483 40.7259 59.4943 40.746 58.9898C40.7662 58.4955 40.968 58.1322 41.311 57.9405C41.6642 57.7488 42.098 57.7892 42.5419 58.0414L50.6537 62.7229C51.6525 63.2979 52.2175 63.9538 52.9238 64.7912L52.9944 64.8719C53.1054 65.003 53.2063 65.1947 53.3072 65.447C53.4383 65.8001 53.509 66.1734 53.4989 66.5164C53.4989 66.7283 53.4989 67.031 53.4989 67.3841C53.4989 68.1004 53.4989 68.9883 53.4585 69.6946C53.3778 70.8246 52.7321 71.329 52.3588 71.5207C52.0662 71.6721 51.7232 71.7628 51.4306 71.7628V71.7729ZM41.7953 58.4248C41.7247 58.4248 41.6541 58.4349 41.6036 58.4652C41.4523 58.5459 41.3716 58.7376 41.3514 59.01C41.3312 59.4943 41.3413 59.9281 41.3514 60.1804C41.3716 60.7655 43.5811 66.7283 45.2963 67.7171L51.2187 71.1373C51.2994 71.1878 51.6828 71.218 52.0763 71.0061C52.3992 70.8346 52.8027 70.4613 52.8532 69.6643C52.9036 68.9782 52.8935 68.1105 52.8935 67.4043C52.8935 67.0512 52.8935 66.7384 52.8935 66.5164C52.8935 66.2541 52.8431 65.9615 52.7422 65.679C52.6514 65.447 52.5808 65.336 52.5303 65.2754L52.4597 65.1947C51.7635 64.3775 51.2591 63.7822 50.351 63.2576L42.2392 58.5762C42.0778 58.4854 41.9164 58.4349 41.7852 58.4349L41.7953 58.4248Z" fill="#E0E0E0"/>
<path d="M50.9655 72.03C50.7637 72.03 50.5821 71.9896 50.4509 71.919L44.5285 68.4988C42.5409 67.3587 40.3011 61.0932 40.2809 60.4677C40.2608 60.044 40.2708 59.6303 40.2809 59.2469C40.3011 58.7626 40.5029 58.3893 40.8359 58.1976C41.1789 58.0059 41.6228 58.0463 42.0768 58.3086L50.1886 62.99C51.1875 63.5651 51.7424 64.2209 52.4587 65.0583L52.5293 65.139C52.6403 65.2702 52.7513 65.472 52.8421 65.7242C52.9733 66.0773 53.0439 66.4506 53.0338 66.7937C53.0338 67.0056 53.0338 67.3082 53.0338 67.6613C53.0338 68.3777 53.0338 69.2655 52.9934 69.9718C52.9127 71.1018 52.267 71.6063 51.8937 71.798C51.6011 71.9493 51.2581 72.0401 50.9655 72.0401V72.03ZM41.3302 58.6819C41.2596 58.6819 41.189 58.692 41.1385 58.7223C40.9872 58.803 40.9065 58.9947 40.8964 59.2671C40.8762 59.7514 40.8863 60.1852 40.8964 60.4374C40.9166 61.0226 43.1261 66.9854 44.8413 67.9741L50.7637 71.3944C50.8444 71.4448 51.2278 71.4751 51.6213 71.2632C51.9442 71.0917 52.3477 70.7184 52.3982 69.9214C52.4486 69.2454 52.4385 68.3676 52.4385 67.6613C52.4385 67.3082 52.4385 66.9955 52.4385 66.7735C52.4385 66.5011 52.3881 66.2186 52.2872 65.9361C52.2166 65.7545 52.1459 65.6132 52.0753 65.5325L52.0047 65.4518C51.3085 64.6346 50.8041 64.0393 49.896 63.5147L41.7842 58.8332C41.6228 58.7424 41.4614 58.692 41.3302 58.692V58.6819Z" fill="#E0E0E0"/>
<path d="M40.1096 58.6347C40.4527 58.2816 41.0177 58.2513 41.6634 58.6145L49.7752 63.2959C50.0678 63.4675 50.3301 63.639 50.5621 63.8307L51.4904 63.2959V62.7612C51.4904 62.7612 50.8446 62.8419 50.7034 62.7612L42.5916 58.0798C41.956 57.7165 41.1892 57.4441 40.8462 57.7973C40.8462 57.7973 40.372 57.9385 40.1096 58.1C39.8877 58.2311 40.1096 58.6347 40.1096 58.6347Z" fill="#2C3240"/>
<path d="M40.1084 58.1008C40.5321 57.8486 41.0164 57.7174 41.6621 58.0806L49.7739 62.7621C50.0665 62.9336 50.3288 63.1051 50.5609 63.2968L51.4891 62.7621C51.2571 62.5805 50.9947 62.3989 50.7021 62.2273L42.5904 57.5459C41.9547 57.1827 41.5007 57.3845 41.0366 57.5661L40.1084 58.1008Z" fill="#374056"/>
<defs>
<linearGradient id="paint0_linear_2119_25533" x1="45.7203" y1="69.5215" x2="47.0117" y2="67.2817" gradientUnits="userSpaceOnUse">
<stop offset="0.5" stop-color="#2C3240"/>
<stop offset="0.68" stop-color="#2D3342"/>
<stop offset="0.78" stop-color="#31384A"/>
<stop offset="0.86" stop-color="#384157"/>
<stop offset="0.9" stop-color="#3E4963"/>
</linearGradient>
<linearGradient id="paint1_linear_2119_25533" x1="65.2624" y1="67.7255" x2="54.1541" y2="48.4953" gradientUnits="userSpaceOnUse">
<stop offset="0.82" stop-color="#282E3B"/>
<stop offset="0.87" stop-color="#30394B"/>
<stop offset="0.93" stop-color="#39445C"/>
<stop offset="0.97" stop-color="#3D4862"/>
</linearGradient>
<linearGradient id="paint2_linear_2119_25533" x1="48.0793" y1="70.8721" x2="58.8042" y2="52.3079" gradientUnits="userSpaceOnUse">
<stop offset="0.68" stop-color="#2C3240"/>
<stop offset="0.83" stop-color="#2D3342"/>
<stop offset="0.9" stop-color="#31384A"/>
<stop offset="0.97" stop-color="#384157"/>
<stop offset="1" stop-color="#3E4963"/>
</linearGradient>
</defs>
</svg>
