<svg width="165" height="44" viewBox="0 0 165 44" fill="#7653FC" xmlns="http://www.w3.org/2000/svg">
<path d="M66.95 35H62.42V17.36H56.6V13.58H72.77V17.36H66.95V35ZM94.9271 24.26C94.9271 25.92 94.7171 27.43 94.2971 28.79C93.8971 30.13 93.2771 31.29 92.4371 32.27C91.6171 33.25 90.5571 34 89.2571 34.52C87.9771 35.04 86.4671 35.3 84.7271 35.3C82.9871 35.3 81.4671 35.04 80.1671 34.52C78.8871 33.98 77.8271 33.23 76.9871 32.27C76.1671 31.29 75.5471 30.12 75.1271 28.76C74.7271 27.4 74.5271 25.89 74.5271 24.23C74.5271 22.01 74.8871 20.08 75.6071 18.44C76.3471 16.8 77.4671 15.53 78.9671 14.63C80.4871 13.71 82.4171 13.25 84.7571 13.25C87.0771 13.25 88.9871 13.71 90.4871 14.63C91.9871 15.53 93.0971 16.81 93.8171 18.47C94.5571 20.11 94.9271 22.04 94.9271 24.26ZM79.2971 24.26C79.2971 25.76 79.4871 27.05 79.8671 28.13C80.2471 29.21 80.8371 30.04 81.6371 30.62C82.4371 31.2 83.4671 31.49 84.7271 31.49C86.0271 31.49 87.0671 31.2 87.8471 30.62C88.6471 30.04 89.2271 29.21 89.5871 28.13C89.9671 27.05 90.1571 25.76 90.1571 24.26C90.1571 22 89.7371 20.23 88.8971 18.95C88.0571 17.67 86.6771 17.03 84.7571 17.03C83.4771 17.03 82.4371 17.32 81.6371 17.9C80.8371 18.48 80.2471 19.31 79.8671 20.39C79.4871 21.47 79.2971 22.76 79.2971 24.26ZM106.204 13.58C108.964 13.58 110.974 14.18 112.234 15.38C113.514 16.56 114.154 18.19 114.154 20.27C114.154 21.21 114.014 22.11 113.734 22.97C113.454 23.81 112.984 24.57 112.324 25.25C111.684 25.91 110.834 26.43 109.774 26.81C108.714 27.19 107.404 27.38 105.844 27.38H103.894V35H99.3641V13.58H106.204ZM105.964 17.3H103.894V23.66H105.394C106.254 23.66 106.994 23.55 107.614 23.33C108.234 23.11 108.714 22.76 109.054 22.28C109.394 21.8 109.564 21.18 109.564 20.42C109.564 19.36 109.274 18.58 108.694 18.08C108.114 17.56 107.204 17.3 105.964 17.3Z"/>
<path d="M125.984 31.712C125.984 32.448 125.8 33.08 125.432 33.608C125.064 34.136 124.52 34.544 123.8 34.832C123.08 35.104 122.192 35.24 121.136 35.24C120.256 35.24 119.464 35.16 118.76 35C118.056 34.84 117.472 34.648 117.008 34.424V33.464C117.616 33.752 118.272 33.984 118.976 34.16C119.696 34.336 120.424 34.424 121.16 34.424C122.536 34.424 123.528 34.184 124.136 33.704C124.744 33.224 125.048 32.576 125.048 31.76C125.048 31.2 124.888 30.744 124.568 30.392C124.264 30.04 123.832 29.744 123.272 29.504C122.712 29.264 122.072 29.032 121.352 28.808C120.584 28.552 119.896 28.304 119.288 28.064C118.68 27.808 118.2 27.472 117.848 27.056C117.496 26.624 117.32 26.024 117.32 25.256C117.32 24.232 117.72 23.44 118.52 22.88C119.336 22.32 120.424 22.04 121.784 22.04C122.536 22.04 123.24 22.112 123.896 22.256C124.568 22.4 125.16 22.584 125.672 22.808L125.312 23.624C125.008 23.48 124.656 23.352 124.256 23.24C123.872 23.112 123.464 23.024 123.032 22.976C122.6 22.912 122.176 22.88 121.76 22.88C120.656 22.88 119.792 23.08 119.168 23.48C118.56 23.864 118.256 24.448 118.256 25.232C118.256 25.824 118.408 26.28 118.712 26.6C119.016 26.92 119.432 27.184 119.96 27.392C120.504 27.584 121.112 27.8 121.784 28.04C122.52 28.28 123.208 28.536 123.848 28.808C124.488 29.064 125 29.416 125.384 29.864C125.784 30.312 125.984 30.928 125.984 31.712ZM130.158 22.28V35H129.222V22.28H130.158ZM129.678 17.624C129.982 17.624 130.182 17.704 130.278 17.864C130.39 18.024 130.446 18.232 130.446 18.488C130.446 18.744 130.39 18.952 130.278 19.112C130.182 19.272 129.982 19.352 129.678 19.352C129.422 19.352 129.238 19.272 129.126 19.112C129.014 18.952 128.958 18.744 128.958 18.488C128.958 18.232 129.014 18.024 129.126 17.864C129.238 17.704 129.422 17.624 129.678 17.624ZM137.641 34.4C138.025 34.4 138.369 34.376 138.673 34.328C138.977 34.264 139.257 34.192 139.513 34.112V34.904C139.257 35 138.969 35.08 138.649 35.144C138.329 35.208 137.969 35.24 137.569 35.24C136.833 35.24 136.241 35.104 135.793 34.832C135.345 34.544 135.009 34.128 134.785 33.584C134.577 33.04 134.473 32.368 134.473 31.568V23.096H132.553V22.472L134.473 22.256L134.761 19.184H135.409V22.28H139.441V23.096H135.409V31.496C135.409 32.44 135.569 33.16 135.889 33.656C136.225 34.152 136.809 34.4 137.641 34.4ZM147.076 22.04C148.164 22.04 149.052 22.304 149.74 22.832C150.444 23.344 150.964 24.048 151.3 24.944C151.652 25.824 151.828 26.824 151.828 27.944V28.688H142.516C142.516 30.528 142.932 31.944 143.764 32.936C144.596 33.912 145.796 34.4 147.364 34.4C148.148 34.4 148.82 34.344 149.38 34.232C149.956 34.104 150.604 33.872 151.324 33.536V34.448C150.7 34.72 150.076 34.92 149.452 35.048C148.844 35.176 148.14 35.24 147.34 35.24C146.044 35.24 144.964 34.968 144.1 34.424C143.236 33.88 142.596 33.12 142.18 32.144C141.764 31.152 141.556 30.024 141.556 28.76C141.556 27.512 141.764 26.384 142.18 25.376C142.596 24.368 143.212 23.56 144.028 22.952C144.844 22.344 145.86 22.04 147.076 22.04ZM147.076 22.88C145.796 22.88 144.756 23.304 143.956 24.152C143.156 25 142.684 26.24 142.54 27.872H150.868C150.868 26.88 150.732 26.008 150.46 25.256C150.188 24.504 149.772 23.92 149.212 23.504C148.652 23.088 147.94 22.88 147.076 22.88ZM163.226 31.712C163.226 32.448 163.042 33.08 162.674 33.608C162.306 34.136 161.762 34.544 161.042 34.832C160.322 35.104 159.434 35.24 158.378 35.24C157.498 35.24 156.706 35.16 156.002 35C155.298 34.84 154.714 34.648 154.25 34.424V33.464C154.858 33.752 155.514 33.984 156.218 34.16C156.938 34.336 157.666 34.424 158.402 34.424C159.778 34.424 160.77 34.184 161.378 33.704C161.986 33.224 162.29 32.576 162.29 31.76C162.29 31.2 162.13 30.744 161.81 30.392C161.506 30.04 161.074 29.744 160.514 29.504C159.954 29.264 159.314 29.032 158.594 28.808C157.826 28.552 157.138 28.304 156.53 28.064C155.922 27.808 155.442 27.472 155.09 27.056C154.738 26.624 154.562 26.024 154.562 25.256C154.562 24.232 154.962 23.44 155.762 22.88C156.578 22.32 157.666 22.04 159.026 22.04C159.778 22.04 160.482 22.112 161.138 22.256C161.81 22.4 162.402 22.584 162.914 22.808L162.554 23.624C162.25 23.48 161.898 23.352 161.498 23.24C161.114 23.112 160.706 23.024 160.274 22.976C159.842 22.912 159.418 22.88 159.002 22.88C157.898 22.88 157.034 23.08 156.41 23.48C155.802 23.864 155.498 24.448 155.498 25.232C155.498 25.824 155.65 26.28 155.954 26.6C156.258 26.92 156.674 27.184 157.202 27.392C157.746 27.584 158.354 27.8 159.026 28.04C159.762 28.28 160.45 28.536 161.09 28.808C161.73 29.064 162.242 29.416 162.626 29.864C163.026 30.312 163.226 30.928 163.226 31.712Z"/>
<path d="M41 1.74391C41 1.0926 40.4622 0.564575 39.7988 0.564575C39.1355 0.564575 38.5977 1.0926 38.5977 1.74391C38.5977 3.02254 37.4609 4.10266 36.1152 4.10266H30.6968C27.6077 2.55891 24.0892 1.74399 20.5 1.74399C16.9108 1.74399 13.3923 2.55891 10.3032 4.10266H4.89942C3.54586 4.10274 2.40234 3.02254 2.40234 1.74391C2.40234 1.0926 1.86454 0.564575 1.20117 0.564575C0.537805 0.564575 0 1.0926 0 1.74391V5.28199C0 7.46997 0.88198 9.53176 2.48386 11.0935C0.856035 13.7063 0 16.569 0 19.4341C0 29.1884 9.19625 37.1241 20.5 37.1241C31.8037 37.1241 41 29.1884 41 19.4341C41 16.5734 40.1464 13.7145 38.523 11.1048C40.0529 9.61086 41 7.55205 41 5.28207V1.74391ZM20.5001 4.10274C22.4136 4.10274 24.3025 4.36093 26.0992 4.86026C24.7576 5.38813 23.5262 6.18253 22.474 7.21712C21.6723 8.00547 21.0131 8.89594 20.5074 9.85812C20.0017 8.89594 19.3425 8.00547 18.5407 7.21712C17.487 6.18096 16.2535 5.38577 14.9094 4.8579C16.7036 4.36015 18.5895 4.10274 20.5001 4.10274ZM20.5 23.682C20.9492 24.4139 21.5108 25.072 22.1611 25.6335L20.5 28.7097L18.8389 25.6335C19.4892 25.072 20.0508 24.4139 20.5 23.682ZM13.293 25.3308C9.98134 25.3308 7.28711 22.6855 7.28711 19.4341C7.28711 16.1827 9.98134 13.5374 13.293 13.5374C16.6046 13.5374 19.2988 16.1827 19.2988 19.4341C19.2988 22.6855 16.6046 25.3308 13.293 25.3308ZM21.7012 19.4341C21.7012 19.3403 21.704 19.2471 21.7084 19.1543C21.7167 19.098 21.7225 19.0407 21.7223 18.9821V18.9596C21.9695 15.9294 24.5582 13.5374 27.707 13.5374C31.0187 13.5374 33.7129 16.1827 33.7129 19.4341C33.7129 22.6855 31.0187 25.3308 27.707 25.3308C24.3954 25.3308 21.7012 22.6855 21.7012 19.4341ZM2.42621 5.80593C3.17278 6.23332 4.0212 6.4614 4.89942 6.4614H10.5791H10.585H10.8906C13.139 6.4614 15.2521 7.32169 16.8407 8.88376C18.1513 10.1725 18.9743 11.8112 19.2204 13.5847C17.8662 12.2618 16.0568 11.3883 14.0459 11.2122C13.956 11.1911 13.8626 11.1787 13.7661 11.1787H8.50286C7.1907 11.1787 5.97455 10.7755 4.97846 10.0916C4.91423 10.0187 4.84104 9.95168 4.7568 9.89421C4.70067 9.85592 4.64205 9.82424 4.58223 9.79648C3.3801 8.81952 2.57227 7.40322 2.42621 5.80593ZM38.5977 19.4341C38.5977 27.8878 30.4791 34.7654 20.5 34.7654C10.5209 34.7654 2.40234 27.8878 2.40234 19.4341C2.40234 17.0745 3.09582 14.7032 4.41687 12.5137C5.36259 13.0225 6.39808 13.3501 7.47769 13.4773C5.88062 14.9808 4.88477 17.0953 4.88477 19.4341C4.88477 23.9861 8.65668 27.6894 13.293 27.6894C14.5513 27.6894 15.7457 27.4161 16.8185 26.9277L19.4387 31.7799C19.6471 32.1656 20.0553 32.4068 20.5 32.4068C20.9447 32.4068 21.3529 32.1656 21.5613 31.7799L24.1815 26.9277C25.2543 27.4161 26.4488 27.6894 27.707 27.6894C32.3433 27.6894 36.1152 23.9861 36.1152 19.4341C36.1152 17.096 35.1199 14.982 33.5237 13.4785C34.6228 13.3509 35.6581 13.0185 36.5878 12.5214C37.9058 14.7088 38.5977 17.0775 38.5977 19.4341ZM36.3987 9.81543C36.3475 9.84051 36.2972 9.86811 36.2489 9.90105C36.1712 9.95404 36.1028 10.0151 36.042 10.0813C35.0456 10.7713 33.8271 11.1787 32.5117 11.1787H27.2484C27.1547 11.1787 27.0639 11.1902 26.9764 11.2102C24.9648 11.381 23.1538 12.2499 21.7964 13.5685C22.0453 11.8012 22.8673 10.1685 24.1739 8.88368C25.7625 7.32161 27.8756 6.46133 30.1239 6.46133H30.3957C30.3984 6.46133 30.401 6.46156 30.4037 6.46156C30.406 6.46156 30.4083 6.46133 30.4106 6.46133H36.1152C36.9885 6.46133 37.8315 6.23544 38.5732 5.81222C38.425 7.41753 37.6096 8.83918 36.3987 9.81543Z"/>
<path d="M13.5 16.6835L14.5103 19.2744H17.7798L15.1347 20.8758L16.145 23.4667L13.5 21.8654L10.855 23.4667L11.8653 20.8758L9.22025 19.2744H12.4897L13.5 16.6835Z"/>
<path d="M27.5 16.6835L28.5103 19.2744H31.7798L29.1347 20.8758L30.145 23.4667L27.5 21.8654L24.855 23.4667L25.8653 20.8758L23.2202 19.2744H26.4897L27.5 16.6835Z"/>
</svg>
